<svg width="34" height="34" viewBox="0 0 34 34" fill="none" xmlns="http://www.w3.org/2000/svg">
<path d="M17 34C26.3888 34 34 26.3888 34 17C34 7.61116 26.3888 0 17 0C7.61116 0 0 7.61116 0 17C0 26.3888 7.61116 34 17 34Z" fill="#E9003A"/>
<path d="M13.6919 13.4598L9.16774 9.7984C8.71299 9.43077 8.04149 9.50302 7.67386 9.95777C7.30411 10.4125 7.37636 11.0819 7.83324 11.4516L10.0305 13.2303C9.11674 13.7891 8.50049 14.79 8.50049 15.9375C8.50049 17.6949 9.93061 19.125 11.688 19.125C13.4454 19.125 14.8755 17.6949 14.8755 15.9375C14.8755 14.9706 14.4441 14.0675 13.6919 13.4598Z" fill="white"/>
<path d="M26.3266 9.95769C25.959 9.50081 25.2896 9.43069 24.8328 9.80044L20.3086 13.4576C19.5564 14.0653 19.125 14.9684 19.125 15.9374C19.125 17.6948 20.5551 19.1249 22.3125 19.1249C24.0699 19.1249 25.5 17.6948 25.5 15.9374C25.5 14.7899 24.8837 13.7891 23.97 13.2281L26.1673 11.4516C26.6241 11.0818 26.6943 10.4124 26.3266 9.95769Z" fill="white"/>
<path d="M22.3122 27.625C22.0487 27.625 21.7852 27.5273 21.5791 27.3318C19.0121 24.888 14.9873 24.8901 12.4182 27.3318C11.9953 27.7334 11.3217 27.7228 10.9158 27.2935C10.5121 26.8685 10.5269 26.1949 10.9541 25.7911C14.3413 22.5675 19.6538 22.5633 23.0432 25.7911C23.4682 26.1949 23.4852 26.8685 23.0815 27.2935C22.8732 27.5145 22.5927 27.625 22.3122 27.625Z" fill="white"/>
</svg>
