<svg width="179" height="291" viewBox="0 0 179 291" fill="none" xmlns="http://www.w3.org/2000/svg">
<g clip-path="url(#clip0)">
<path fill-rule="evenodd" clip-rule="evenodd" d="M69.4145 17.8766C69.4145 17.8766 63.0519 17.0244 61.7101 13.2053C60.7028 10.3301 62.7055 7.20795 65.4448 4.56767C67.2803 2.79554 71.7437 0.107476 75.7173 2.69997C78.5164 4.52785 78.0306 7.63007 77.8634 8.81681C77.5528 11.035 75.574 14.7943 75.574 14.7943C87.037 12.0146 98.9976 11.9827 110.281 15.6027C110.926 15.2801 109.063 13.6474 108.291 11.9907C107.327 9.92389 105.44 7.56238 107.542 4.20926C109.533 1.03536 117.52 -1.18678 121.143 1.2504C124.074 3.22165 125.065 7.36326 123.946 10.2186C122.393 14.169 117.44 17.5341 117.44 17.5341C117.44 17.5341 120.777 18.7487 126.403 25.6939C129.329 29.3058 130.03 32.9258 133.47 36.7488C135.991 39.5523 139.602 49.4126 139.725 52.3475C141.031 54.494 135.895 45.9957 137.018 49.8267C137.089 50.0736 138.463 52.0568 136.906 59.8303C136.719 60.7662 135.174 52.9289 135.146 59.0737C135.138 61.3436 133.852 65.756 133.092 67.8547C131.599 71.9644 132.718 64.3064 131.786 66.9188C131.559 67.56 130.572 70.0927 127.211 73.1751C125.786 74.4813 120.86 77.8463 120.86 77.8463C120.86 77.8463 129.453 82.8441 135.055 88.5866C141.999 95.703 147.051 101.549 153.78 116.236C157.117 123.52 161.102 134.997 167.931 149.114C164.901 146.478 164.021 146.012 163.885 146.187C163.272 146.971 166.251 148.178 164.945 152.977C164.65 154.06 164.26 149.616 163.077 149.365C162.731 152.256 160.859 158.452 160.772 158.703C160.151 160.448 155.978 167.982 155.978 167.982C155.978 167.982 158.92 175.007 159.9 176.763C168.799 192.708 175.018 203.867 173.923 216.913L173.895 217.227C173.473 222.158 172.446 227.016 170.821 231.691C170.754 231.894 170.678 232.097 170.606 232.309C169.914 234.264 169.05 235.61 167.835 238.039C167.624 238.461 168.87 242.3 172.533 244.514C175.834 246.505 178.386 245.136 178.386 245.136C178.386 245.136 178.558 250.368 171.757 252.794C166.247 254.661 161.019 251.205 161.019 251.205C161.019 251.205 156.675 259.504 154.855 265.589C153.517 270.061 152.709 273.904 152.896 278.384C154.553 278.595 157.157 279.583 160.366 280.953C163.985 282.494 166.856 284.007 165.924 286.062C165.757 286.265 165.617 286.44 165.287 286.783C160.202 288.953 149.492 288.065 144.495 288.057C134.462 288.041 130.663 289.132 126.279 288.208C125.694 288.085 124.082 287.667 123.779 287.535C123.106 287.129 122.604 286.165 122.545 285.839C122.027 283.007 132.268 279.184 132.268 279.184C129.735 275.25 125.2 272.518 118.249 267.361C116.656 266.182 114.721 263.932 113.765 263.438C106.013 259.42 94.7851 259.97 87.4311 263.315C85.4324 264.223 82.0839 266.779 81.9525 268.42C81.7056 271.455 89.191 273.705 89.4856 278.01C89.6091 279.814 87.9925 282.119 87.9925 282.119L81.6977 281.892C75.3709 281.665 69.0402 281.801 62.7294 282.291C55.5188 282.852 46.6796 282.665 44.4181 282.9C39.4053 283.426 36.3833 281.243 30.8051 281.311C26.5527 281.363 18.5776 285.166 20.0787 282.502C26.8235 270.531 54.0018 272.307 54.0018 272.307C54.0018 272.307 53.2532 268.416 47.4003 261.877C43.355 257.357 31.3665 251.671 32.7083 231.257C33.409 220.608 39.8512 213.046 41.0935 200.283C37.7529 186.986 40.8347 172.976 40.8347 172.976C34.5318 178.862 25.9714 190.669 22.2049 198.057C18.2472 205.814 17.0646 210.959 19.7323 222.624C21.2254 229.162 13.1945 231.962 7.07883 226.359C2.54779 222.154 5.28712 208.247 5.65342 203.564C5.74102 202.461 5.78083 201.354 5.78083 200.243C5.76889 194.958 6.80012 175.712 20.7595 149.767C42.8095 108.777 41.3045 93.7238 54.6747 85.2574C61.8933 80.6857 62.9763 77.4839 62.9763 77.4839L60.663 75.449C58.5766 73.6131 57.4817 71.156 57.9634 72.279C58.5487 73.645 57.7365 74.7043 57.7365 74.7043C57.7365 74.7043 55.8691 68.8463 54.376 66.9228C50.701 62.1918 50.5139 58.2215 50.3308 59.6989C50.0202 62.1918 49.0845 62.16 49.0845 62.16C49.0845 62.16 49.2517 59.3723 49.0527 56.7918L50.8762 50.0816C50.8762 48.871 49.2318 48.5365 48.7341 49.5838C48.7222 48.9626 48.7023 48.5165 48.6744 48.3692L48.7142 45.6254L49.0805 44.6457C49.3194 44.1559 49.618 43.9249 49.8012 43.3754C50.1078 42.4594 50.4303 41.8939 50.8563 41.0377C51.5611 39.628 51.1868 40.4802 51.796 39.6678C52.0707 39.2975 52.1862 38.8196 52.445 38.4572C52.7754 37.9953 53.0104 38.059 53.3329 37.2466C54.5472 36.7687 54.8379 36.2789 54.9773 36.2112C55.2321 36.0837 55.7258 36.3585 56.7729 35.3112C57.5454 34.5386 57.3662 34.8094 57.836 33.8974C58.2222 33.1528 58.7677 32.7306 58.8593 31.8266C58.8912 31.516 59.4685 31.1417 59.4685 29.9271C59.9264 29.5288 61.3199 28.1271 61.5469 27.7089C61.6942 27.4341 61.7897 27.1633 61.8375 26.8965C64.3698 23.8859 66.8941 20.8832 69.4145 17.8766Z" fill="#886552" stroke="#886552" stroke-width="0.5669" stroke-miterlimit="22.9256"/>
<path fill-rule="evenodd" clip-rule="evenodd" d="M86.8345 282.155C86.8345 282.155 89.5181 282.235 87.165 281.14C83.2869 279.336 67.3964 272.466 53.9427 272.044C38.53 271.558 28.9702 273.896 24.2241 277.337C19.4781 280.777 18.3871 283.235 19.9997 284.513C44.6497 283.119 79.8468 282.386 86.8345 282.155C88.0011 282.12 86.8345 282.155 86.8345 282.155Z" fill="#575656"/>
<path d="M86.8345 282.155C86.8345 282.155 89.5181 282.235 87.165 281.14C83.2869 279.336 67.3964 272.466 53.9427 272.044C38.53 271.558 28.9702 273.896 24.2241 277.337C19.4781 280.777 18.3871 283.235 19.9997 284.513C44.6497 283.119 79.8468 282.386 86.8345 282.155ZM86.8345 282.155C88.0011 282.12 86.8345 282.155 86.8345 282.155Z" stroke="black" stroke-width="1.5" stroke-miterlimit="22.9256"/>
<path fill-rule="evenodd" clip-rule="evenodd" d="M132.276 279.184C139.22 277.058 148.505 277.472 153.024 278.288C157.543 279.105 161.776 281.506 164.36 283.027C166.944 284.549 166.964 287.165 161.131 288.065C155.298 288.961 151.101 288.013 146.702 288.017C142.306 288.017 128.143 288.861 126.021 288.535C123.899 288.208 121.669 287.296 122.832 284.72C124.003 282.143 132.276 279.184 132.276 279.184Z" fill="#575656" stroke="black" stroke-width="1.5" stroke-miterlimit="22.9256"/>
<path fill-rule="evenodd" clip-rule="evenodd" d="M49.149 135.992C49.149 135.992 47.6559 120.461 58.7048 108.514C69.7537 96.5673 78.7122 96.5673 82.8929 96.5673C87.0735 96.5673 102.9 101.346 110.067 121.357C112.305 148.987 123.059 172.279 123.059 172.279C123.059 177.599 119.555 184.214 115.936 190.904C115.562 198.57 114.738 205.575 122.8 210.808C118.855 215.324 121.363 213.209 111.481 223.145C99.3806 235.311 107.65 254.418 110.672 256.653C110.672 256.653 42.5435 256.326 39.4379 186.727C38.9044 174.939 47.8788 141.4 49.149 135.992Z" fill="#DAA28A" stroke="black" stroke-width="1.5" stroke-miterlimit="22.9256"/>
<path fill-rule="evenodd" clip-rule="evenodd" d="M98.9181 64.5415C93.4354 74.6247 85.9938 74.5371 82.3189 72.9442C73.7983 69.2566 67.2884 53.6658 67.6905 47.3339C68.1285 40.4684 75.5303 41.5516 83.3142 41.452C88.339 41.3883 95.9438 41.1732 99.0654 44.0485C103.995 48.5843 102.577 57.8074 98.9181 64.5415Z" fill="#DAA28A" stroke="black" stroke-width="1.5" stroke-miterlimit="22.9256"/>
<path fill-rule="evenodd" clip-rule="evenodd" d="M77.653 50.5913C77.653 50.5913 82.6936 55.6329 89.2871 50.7108C95.8806 45.7887 92.4605 42.3718 84.4973 42.8338C76.5341 43.2957 76.0723 42.4077 74.3761 43.7139C72.68 45.0121 77.653 50.5913 77.653 50.5913Z" fill="black" stroke="black" stroke-width="0.5669" stroke-miterlimit="22.9256"/>
<path fill-rule="evenodd" clip-rule="evenodd" d="M85.8469 48.194C85.2577 48.6361 85.0307 49.329 85.3413 49.7431C85.6518 50.1573 86.3805 50.1334 86.9697 49.6914C87.559 49.2493 87.786 48.5564 87.4754 48.1423C87.1648 47.7281 86.4362 47.752 85.8469 48.194Z" fill="#6F6F6E" stroke="#6F6F6E" stroke-width="0.769" stroke-miterlimit="22.9256"/>
<path fill-rule="evenodd" clip-rule="evenodd" d="M81.7028 48.0467C81.1175 47.6007 80.3889 47.5728 80.0743 47.983C79.7598 48.3932 79.9827 49.0901 80.572 49.5361C81.1573 49.9821 81.8859 50.01 82.2005 49.5998C82.515 49.1896 82.292 48.4927 81.7028 48.0467Z" fill="#6F6F6E" stroke="#6F6F6E" stroke-width="0.769" stroke-miterlimit="22.9256"/>
<path fill-rule="evenodd" clip-rule="evenodd" d="M84.7391 50.9675C84.4671 54.8269 84.4363 55.8245 85.9766 59.6182C86.0841 59.793 85.9992 60 85.7854 60.0782C85.5755 60.1569 85.3164 60.0773 85.2093 59.8993C83.5804 55.9071 83.5959 54.9368 83.8804 50.8715C83.8993 50.6793 84.1074 50.5486 84.345 50.5737C84.5865 50.5993 84.7619 50.7758 84.7391 50.9675Z" fill="black"/>
<path fill-rule="evenodd" clip-rule="evenodd" d="M95.4384 63.6972C94.9845 62.168 91.4489 59.3445 84.8833 59.3684C78.5008 59.3923 77.8319 61.6384 76.6016 63.2592C81 61 86.5 58.5 95.4384 63.6972Z" fill="black"/>
<path fill-rule="evenodd" clip-rule="evenodd" d="M68.9531 7.12434C75.6183 6.51505 76.8048 17.5939 72.8352 17.2793C72.5246 16.2916 72.652 15.8257 72.1742 14.8062C70.8882 12.0545 69.7375 10.3699 68.9531 7.12434Z" fill="black"/>
<path fill-rule="evenodd" clip-rule="evenodd" d="M113.59 5.6748C107.471 8.39473 111.838 18.6452 115.151 16.435C114.94 15.4195 114.606 15.0771 114.522 13.954C114.307 10.9195 114.49 8.88854 113.59 5.6748Z" fill="black"/>
<path fill-rule="evenodd" clip-rule="evenodd" d="M129.943 51.2803C135.326 59.4679 135.621 61.5268 132.468 69.352C130.688 60.9135 130.465 59.6989 129.943 51.2803Z" fill="#725544"/>
<path fill-rule="evenodd" clip-rule="evenodd" d="M131.799 44.8529C134.685 45.9321 136.895 47.8396 137.628 51.0494C138.428 54.5578 137.544 56.091 136.577 59.4879C134.658 54.1914 133.782 50.0976 131.799 44.8529Z" fill="#725544"/>
<path fill-rule="evenodd" clip-rule="evenodd" d="M130.902 38.7321C138.686 43.1604 138.487 44.6577 139.949 52.706C136.536 48.4848 132.28 44.0962 130.902 38.7321Z" fill="#725544"/>
<path fill-rule="evenodd" clip-rule="evenodd" d="M126.873 58.8905C132.236 61.8295 132.973 63.3985 132.4 69.4954C128.119 64.9994 128.211 64.9118 126.873 58.8905Z" fill="#725544"/>
<path fill-rule="evenodd" clip-rule="evenodd" d="M132.845 46.0476C135.632 54.6335 136.325 59.8185 132.248 68.4482C132.176 67.5681 132.152 68.026 132.323 67.1778C134.195 58.0424 134.079 55.2269 132.845 46.0476Z" fill="#725544"/>
<path fill-rule="evenodd" clip-rule="evenodd" d="M131.651 39.6281C137.305 44.3829 138.301 47.2821 137.66 55.2945L136.919 59.8304L136.744 55.2507C136.214 46.848 136.509 45.944 131.651 39.6281Z" fill="#725544"/>
<path fill-rule="evenodd" clip-rule="evenodd" d="M129.708 33.356C136.202 35.5502 137.217 40.1777 138.483 46.4697L138.472 46.4379C138.547 46.7644 138.531 46.5932 138.519 46.9436C137.034 45.7569 136.779 38.8675 129.708 33.356Z" fill="#725544"/>
<path fill-rule="evenodd" clip-rule="evenodd" d="M127.769 60.2366C128.438 65.4136 128.362 66.6322 125.232 70.8415C126.196 67.353 126.909 63.7729 127.769 60.2366Z" fill="#725544"/>
<path fill-rule="evenodd" clip-rule="evenodd" d="M120.749 69.1968C120.064 74.7242 119.372 75.0588 115.374 78.9057C117.154 75.2738 118.946 72.7132 120.749 69.1968Z" fill="#725544"/>
<path fill-rule="evenodd" clip-rule="evenodd" d="M109.104 73.5256C108.606 76.5283 108.14 76.9424 105.074 77.261C106.46 75.8951 107.698 74.8318 109.104 73.5256Z" fill="#725544"/>
<path fill-rule="evenodd" clip-rule="evenodd" d="M121.048 69.6428C121.545 71.4189 121.792 74.3181 119.853 75.3933C119.797 73.1512 120.096 71.7375 121.048 69.6428Z" fill="#725544"/>
<path fill-rule="evenodd" clip-rule="evenodd" d="M124.93 63.968C123.855 68.8941 123.676 71.6897 119.854 75.3933C120.566 72.2473 123.469 66.9309 124.93 63.968Z" fill="#725544"/>
<path fill-rule="evenodd" clip-rule="evenodd" d="M109.776 72.7809C111.094 73.9477 108.649 77.2689 107.896 77.9977C107.936 76.2933 108.549 74.0871 109.776 72.7809Z" fill="#725544"/>
<path fill-rule="evenodd" clip-rule="evenodd" d="M114.777 69.7942C112.794 73.7447 111.078 75.6363 107.61 78.3084C109.74 74.5889 111.269 72.3787 114.777 69.7942Z" fill="#725544"/>
<path fill-rule="evenodd" clip-rule="evenodd" d="M67.2969 6.92129C71.2307 4.95801 75.9448 12.397 71.9274 17.5262C70.5976 12.9943 70.7967 10.2147 67.2969 6.92129Z" fill="#725544"/>
<path fill-rule="evenodd" clip-rule="evenodd" d="M114.94 4.68713C110.548 4.89023 110.058 13.6832 116.067 16.2C115.016 11.6004 113.487 9.27078 114.94 4.68713Z" fill="#725544"/>
<path fill-rule="evenodd" clip-rule="evenodd" d="M63.7129 11.254C65.6002 11.1385 70.4537 11.7439 71.477 11.5527C73.6947 12.381 64.6645 17.1877 63.7129 11.254Z" fill="#725544"/>
<path fill-rule="evenodd" clip-rule="evenodd" d="M120.18 6.72217C118.476 7.54253 114.53 10.4377 113.547 10.7682C112.014 12.5762 122.243 12.3691 120.18 6.72217Z" fill="#725544"/>
<path fill-rule="evenodd" clip-rule="evenodd" d="M68.6426 7.07266C72.1543 6.31203 75.6382 12.0784 73.6076 16.9886L73.6156 16.901C73.4643 17.1439 73.5678 17.0245 73.2692 17.2276C73.1258 17.1479 72.9427 17.0882 72.8989 16.9289C71.7402 12.851 70.0998 10.4935 68.6426 7.07266Z" fill="#725544"/>
<path fill-rule="evenodd" clip-rule="evenodd" d="M113.838 5.47571C110.402 6.52306 110.171 13.2572 114.335 16.5545L114.288 16.4828C114.538 16.6222 114.387 16.5704 114.749 16.5983C114.837 16.4589 114.964 16.3196 114.929 16.1603C113.949 12.0306 114.232 9.17528 113.838 5.47571Z" fill="#725544"/>
<path fill-rule="evenodd" clip-rule="evenodd" d="M55.9494 64.5653C59.7598 68.1892 59.8155 69.3959 57.8924 74.2702C55.5194 69.5512 55.7583 69.7702 55.9494 64.5653Z" fill="#725544"/>
<path fill-rule="evenodd" clip-rule="evenodd" d="M50.8722 52.6184C52.5365 58.2056 52.3613 58.1817 49.0805 63.072C48.7261 61.2043 48.5549 59.9817 48.5748 58.9702C48.6743 58.6596 48.7142 58.329 48.7301 57.9906L49.2158 56.1985C49.5981 55.2866 50.1435 54.1994 50.8722 52.6184Z" fill="#725544"/>
<path fill-rule="evenodd" clip-rule="evenodd" d="M48.6907 48.1064C48.85 48.4449 48.9615 48.8113 49.0331 49.1976C48.9137 49.2932 48.8102 49.4206 48.7345 49.5799C48.7226 48.9626 48.7027 48.5126 48.6748 48.3653L48.6907 48.1064Z" fill="#725544"/>
<path fill-rule="evenodd" clip-rule="evenodd" d="M87.4555 7.66992C88.4151 9.95577 88.7973 12.7832 89.9958 15.5828C86.7428 17.3947 83.669 9.22303 87.4555 7.66992Z" fill="#725544"/>
<path fill-rule="evenodd" clip-rule="evenodd" d="M91.2098 2.47302C93.3599 8.42261 94.5026 12.166 88.2236 15.4673C90.2343 9.55757 89.6849 8.46641 91.2098 2.47302Z" fill="#725544"/>
<path fill-rule="evenodd" clip-rule="evenodd" d="M96.7132 8.56592C98.8912 11.9788 93.5359 15.1527 90.2949 15.8854C91.4257 12.6558 94.0376 10.7881 96.7132 8.56592Z" fill="#725544"/>
<path fill-rule="evenodd" clip-rule="evenodd" d="M79.9899 77.8583C82.4784 80.3472 83.1274 81.1278 87.5151 80.18C90.6127 79.511 91.214 77.3924 92.5319 77.1096C92.6553 77.5716 92.6473 77.3525 92.5916 77.7627L92.6075 77.7309C89.5377 87.9296 77.2067 81.8526 79.9899 77.8583Z" fill="#725544"/>
<path fill-rule="evenodd" clip-rule="evenodd" d="M117.166 79.7977C123.783 78.7026 135.696 91.9995 138.953 97.069C143.281 103.807 143.377 99.4863 148.119 111.131C150.245 116.351 159.849 138.441 158.228 141.325C157.977 140.875 157.722 140.106 157.484 139.596C152.869 129.664 148.139 119.912 143.357 110.075C140.04 103.25 138.826 104.281 135.72 98.6938C131.95 91.9079 124.241 83.3141 117.166 79.7977Z" fill="#725544"/>
<path fill-rule="evenodd" clip-rule="evenodd" d="M159.124 145.657C159.057 153.096 157.233 157.803 154.235 164.629C144.858 185.966 137.289 184.19 126.356 200.084C125.134 201.864 122.53 207.148 121.65 207.785C121.367 199.972 132.858 187.161 138.038 181.713C149.178 169.981 153.49 160.635 159.124 145.657Z" fill="#725544"/>
<path fill-rule="evenodd" clip-rule="evenodd" d="M39.3776 168.655C28.7786 179.057 15.6195 202.545 17.3356 217.67C17.5227 219.31 19.8997 226.67 15.1895 226.148C16.0774 225.204 17.1604 224.129 16.6268 222.683C12.0361 210.31 14.9944 198.805 21.2933 187.603C22.8341 184.851 37.2435 166.146 39.3776 168.655Z" fill="#725544"/>
<path fill-rule="evenodd" clip-rule="evenodd" d="M154.347 171.192C154.956 174.959 157.739 175.373 159.861 180.654C165.551 194.831 171.718 202.25 170.42 218.227C169.926 224.32 172.088 220.812 168.127 228.43C166.339 231.867 165.372 235.654 163.632 239.214C159.037 248.628 154.721 254.391 152.304 265.143L151.062 271.096C149.863 260.643 154.143 251.109 158.535 241.814C161.255 236.056 162.369 231.349 164.73 226.355C167.649 220.182 165.706 223.376 166.423 217.315C168.147 202.74 162.095 194.676 157.99 181.14C156.7 176.907 152.766 173.673 154.347 171.192Z" fill="#725544"/>
<path fill-rule="evenodd" clip-rule="evenodd" d="M166.29 241.532C168.512 243.622 171.275 247.828 175.337 247.187C176.746 246.964 175.735 246.928 177.339 247.206C176.957 248.198 177.073 248.254 176.332 248.939C170.925 253.953 163.244 245.916 166.29 241.532Z" fill="#725544"/>
<path fill-rule="evenodd" clip-rule="evenodd" d="M53.7119 234.662C62.2564 244.51 68.384 249.01 81.0335 253.423C90.0598 256.569 98.4967 257.509 107.786 259.237L107.678 259.261C107.925 259.233 107.794 259.225 108.064 259.301C108.017 259.44 107.981 259.647 107.798 259.663C92.4408 261.021 77.1435 258.986 64.8126 249.118C58.024 243.694 56.9051 242.511 53.7119 234.662Z" fill="#725544"/>
<path fill-rule="evenodd" clip-rule="evenodd" d="M88.4983 259.751C85.2891 262.108 79.5556 265.234 78.8589 269.575C78.8111 269.882 78.8549 269.786 78.7713 269.93C78.7354 269.914 78.7553 269.922 78.7195 269.91L78.7076 269.926C78.7155 269.945 88.4784 274.704 84.9427 279.184C84.1424 280.196 83.5691 280.272 82.3786 280.507L82.8245 279.467C84.453 276.397 82.2432 275.266 79.1296 274.25C72.6595 272.14 73.6151 267.166 78.2815 263.502C81.5942 260.894 84.3057 259.699 88.4983 259.751Z" fill="#725544"/>
<path fill-rule="evenodd" clip-rule="evenodd" d="M123.955 95.6752C121.136 104.544 115.406 107.702 115.952 117.415L115.995 119.47C107.885 111.704 116.732 100.677 123.955 95.6752Z" fill="#725544"/>
<path fill-rule="evenodd" clip-rule="evenodd" d="M145.834 144.61C133.949 155.653 133.885 168.11 124.321 180.833C121.701 184.322 119.886 185.903 115.972 187.619C116.617 186.162 116.195 186.767 117.321 185.608C124.974 177.719 127.674 164.669 134.398 154.355C137.596 149.449 140.108 146.103 145.834 144.61Z" fill="#725544"/>
<path fill-rule="evenodd" clip-rule="evenodd" d="M119.054 124.921C125.623 124.933 137.473 134.821 137.855 142.993C138.026 146.605 138.48 146.338 137.357 149.962C136.294 147.306 135.796 145.833 135.092 143.097C133.746 137.884 122.988 128.955 119.054 124.921Z" fill="#725544"/>
<path fill-rule="evenodd" clip-rule="evenodd" d="M24.5938 145.805C25.0357 137.083 43.4744 132.727 43.4505 141.866C43.4465 142.925 43.3709 142.758 42.8095 143.714C41.7862 142.288 42.5507 143.463 41.8858 142.193C39.0827 136.844 27.994 143.909 24.5938 145.805Z" fill="#725544"/>
<path fill-rule="evenodd" clip-rule="evenodd" d="M63.415 78.0057C66.2858 75.915 71.0119 83.4575 66.0787 87.3164L63.415 88.4593C64.1715 84.0549 64.9559 82.0438 63.415 78.0057Z" fill="#725544"/>
<path fill-rule="evenodd" clip-rule="evenodd" d="M115.673 78.9017C114.769 80.6021 111.309 86.5995 110.568 87.2725L107.686 89.0565L108.056 85.9981C108.761 82.3503 111.46 77.4163 115.673 78.9017Z" fill="#725544"/>
<path fill-rule="evenodd" clip-rule="evenodd" d="M66.6992 78.3043C71.8952 80.9287 79.0461 82.888 78.5166 90.088L77.4495 94.1341C77.0912 93.2659 75.3074 88.511 74.4872 87.4836C71.3457 83.557 69.6695 85.6238 66.6992 78.3043Z" fill="#725544"/>
<path fill-rule="evenodd" clip-rule="evenodd" d="M101.339 82.4857C103.482 84.9269 102.227 88.6942 99.9857 90.5021L94.5469 92.569C95.7175 90.4703 99.2969 84.7238 101.339 82.4857Z" fill="#725544"/>
<path fill-rule="evenodd" clip-rule="evenodd" d="M113.284 80.6937C106.862 89.6062 106.706 86.5438 97.9469 89.9208C96.9316 90.311 97.0948 90.3349 96.2627 89.9526C96.5295 89.2199 96.836 88.7699 97.3457 88.1685C99.8222 85.2455 109.394 81.5181 113.284 80.6937Z" fill="#725544"/>
<path fill-rule="evenodd" clip-rule="evenodd" d="M120.339 207.646C121.912 208.128 132.108 212.154 133.697 211.457C135.437 210.693 134.489 209.076 136.874 208.821C137.3 209.705 136.556 209.928 136.655 210.227C136.711 210.235 136.719 210.203 136.755 210.151C136.667 212.297 135.847 214.054 133.665 214.763C127.769 216.69 123.464 211.752 120.339 207.646Z" fill="#725544"/>
<path fill-rule="evenodd" clip-rule="evenodd" d="M126.722 191.502C128.422 193.628 136.289 202.461 137.038 204.52C138.842 209.47 137.285 213.874 135.979 218.681C135.445 215.599 134.669 209.008 133.299 206.065C129.919 198.805 128.705 202.302 126.722 191.502Z" fill="#725544"/>
<path fill-rule="evenodd" clip-rule="evenodd" d="M62.3751 78.5752C64.7561 81.3907 51.3142 90.5978 49.3195 92.804C42.6543 100.191 52.5207 90.7253 44.1514 98.4629C46.9663 88.3558 48.551 88.2283 57.8042 82.1274C60.2808 80.4947 60.6789 79.8017 62.3751 78.5752Z" fill="#9D745E"/>
<path fill-rule="evenodd" clip-rule="evenodd" d="M32.6568 144.311C17.6144 161.686 19.2707 157.545 13.4656 180.172C10.2803 192.585 7.21052 194.138 6.85616 208.693C6.69291 215.372 7.35385 219.689 8.47268 226.148C5.75724 221.102 5.38695 219.605 4.62647 213.735C3.18514 202.577 4.22035 196.603 7.41358 186.165C13.593 165.935 13.6965 156.553 32.6568 144.311Z" fill="#9D745E"/>
<path fill-rule="evenodd" clip-rule="evenodd" d="M124.333 215.097C119.256 221.075 108.864 233.647 110.959 242.073C113.642 252.869 116.059 254.008 125.304 259.237C127.781 260.639 127.434 260.834 129.409 263.482C120.972 258.472 113.726 258.895 108.884 248.206C106.567 243.093 105.603 240.285 107.59 234.997C110.557 227.084 116.581 218.749 124.333 215.097Z" fill="#9D745E"/>
<path fill-rule="evenodd" clip-rule="evenodd" d="M41.914 211.812C38.0041 228.051 33.5487 238.393 44.4742 254.088C47.6355 258.628 55.6983 266.003 53.9424 272.048C50.4585 262.857 45.0077 261.029 39.5012 253.092C30.467 240.062 33.4611 224.185 41.914 211.812Z" fill="#9D745E"/>
<path fill-rule="evenodd" clip-rule="evenodd" d="M60.4286 29.9192C59.0829 34.1166 57.5858 36.5498 53.2578 37.4537C53.2857 37.39 53.3175 37.3223 53.3454 37.2467C54.5598 36.7688 54.8504 36.279 54.9898 36.2113C55.2446 36.0838 55.7383 36.3586 56.7855 35.3113C57.5579 34.5387 57.3787 34.8095 57.8486 33.8975C58.2348 33.1528 58.7803 32.7307 58.8718 31.8267C58.8997 31.544 59.3775 31.2134 59.4691 30.2497C59.7876 30.1303 60.1101 30.0227 60.4286 29.9192Z" fill="#9D745E"/>
<path fill-rule="evenodd" clip-rule="evenodd" d="M52.3657 43.3595C51.1115 46.1232 50.2793 47.4453 48.7345 49.3728C48.7225 48.863 48.7066 48.4966 48.6787 48.3692L48.7185 45.6254L49.0848 44.6457C49.3237 44.1559 49.6223 43.9249 49.8055 43.3754C49.8214 43.3236 49.8374 43.2758 49.8573 43.228C50.6974 43.1205 51.5693 43.1922 52.3657 43.3595Z" fill="#9D745E"/>
<path fill-rule="evenodd" clip-rule="evenodd" d="M57.7413 54.1117C57.5662 59.1931 57.5024 59.89 56.5309 64.8241C56.0253 67.3768 56.523 68.4281 56.5508 70.8374C54.8348 70.1764 54.6476 70.0888 53.8036 68.3326C50.9925 62.5064 54.0265 58.4763 57.7413 54.1117Z" fill="#9D745E"/>
<path fill-rule="evenodd" clip-rule="evenodd" d="M51.0202 90.2513C50.415 96.2766 50.4309 99.3151 44.0723 102.839L39.374 104.588C43.8533 98.0169 45.9795 96.0297 51.0202 90.2513Z" fill="#9D745E"/>
<path fill-rule="evenodd" clip-rule="evenodd" d="M47.1377 101.601C45.1429 110.02 42.5509 110.701 34.5957 111.756L35.6628 109.689C35.9295 109.358 46.7793 101.84 47.1377 101.601Z" fill="#9D745E"/>
<path fill-rule="evenodd" clip-rule="evenodd" d="M34.8947 124.599C33.4295 130.827 31.5781 135.793 25.6296 139.13C24.0808 139.998 24.0011 140.034 22.6514 139.532C26.4219 133.734 29.3922 129.25 34.8947 124.599Z" fill="#9D745E"/>
<path fill-rule="evenodd" clip-rule="evenodd" d="M38.1792 172.088C39.7041 178.882 40.0664 175.592 36.9847 181.944L35.1094 176.699L38.1792 172.088Z" fill="#9D745E"/>
<path fill-rule="evenodd" clip-rule="evenodd" d="M40.5326 163.988C40.5883 172.004 39.9513 178.73 37.8809 186.424C36.3678 183.187 36.4077 183.967 36.0374 180.435C35.245 172.845 36.7461 170.407 40.5326 163.988Z" fill="#9D745E"/>
<path fill-rule="evenodd" clip-rule="evenodd" d="M35.7145 166.712C38.1791 173.991 34.6673 183.366 28.9219 188.216C29.4554 181.801 32.8079 172.506 35.7145 166.712Z" fill="#9D745E"/>
<path fill-rule="evenodd" clip-rule="evenodd" d="M31.0129 183.139C31.5226 186.5 30.4396 187.245 29.281 190.61C27.7998 194.915 27.1309 195.811 24.742 199.865C23.8063 191.211 24.5747 188.611 31.0129 183.139Z" fill="#9D745E"/>
<path fill-rule="evenodd" clip-rule="evenodd" d="M161.21 146.402C167.437 152.073 167.27 152.893 164.495 160.738C161.72 153.562 162.006 153.901 161.21 146.402Z" fill="#9D745E"/>
<path fill-rule="evenodd" clip-rule="evenodd" d="M156.731 170.296C158.42 172.343 157.886 172.311 160.586 174.696C165.455 179.001 165.391 179.085 168.378 184.632C164.683 182.98 162.795 182.474 159.734 179.388C158.607 178.249 154.112 171.972 156.731 170.296Z" fill="#9D745E"/>
<path fill-rule="evenodd" clip-rule="evenodd" d="M39.7844 216.698C38.6576 226.439 34.0708 234.929 33.0236 244.18L32.7091 247.836L31.0169 244.327C28.6558 235.725 34.5765 223.412 39.7844 216.698Z" fill="#9D745E"/>
<path fill-rule="evenodd" clip-rule="evenodd" d="M38.1796 249.444C43.3676 253.307 44.9722 253.18 41.8705 261.113C41.1459 259.683 39.5731 256.875 39.1869 255.091C38.5658 252.196 36.4157 252.168 38.1796 249.444Z" fill="#9D745E"/>
<path fill-rule="evenodd" clip-rule="evenodd" d="M36.1611 243.662C38.7013 246.748 42.018 249.715 39.426 253.387L37.3476 255.386L36.7862 251.615C35.9341 247.406 34.9109 249.062 36.1611 243.662Z" fill="#9D745E"/>
<path fill-rule="evenodd" clip-rule="evenodd" d="M145.03 281.275C148.84 284.541 149.043 286.4 145.515 290.044C143.258 285.676 143.27 285.879 145.03 281.275Z" fill="#D9DADA" stroke="black" stroke-width="2.8344" stroke-miterlimit="22.9256"/>
<path fill-rule="evenodd" clip-rule="evenodd" d="M137.858 281.638C136.664 286.918 136.715 286.846 132.109 289.702C131.611 284.182 132.399 282.884 137.858 281.638Z" fill="#D9DADA" stroke="black" stroke-width="2.8346" stroke-miterlimit="22.9256"/>
<path fill-rule="evenodd" clip-rule="evenodd" d="M153.805 282.354C158.993 283.055 161.079 284.051 160.076 289.821C155.668 287.038 155.883 287.225 153.805 282.354Z" fill="#D9DADA" stroke="black" stroke-width="2.8346" stroke-miterlimit="22.9256"/>
<path fill-rule="evenodd" clip-rule="evenodd" d="M29.5193 276.923C26.1628 279.738 25.1316 281.056 20.8594 283.493L21.0784 280.315C22.2768 276.624 27.5564 274.023 29.5193 276.923Z" fill="#D9DADA" stroke="black" stroke-width="2.8346" stroke-miterlimit="22.9256"/>
<path fill-rule="evenodd" clip-rule="evenodd" d="M36.985 279.611C35.6831 282.757 35.3844 283.445 32.2071 284.987C29.8262 281.566 33.3658 277.376 36.985 279.611Z" fill="#D9DADA" stroke="black" stroke-width="2.8346" stroke-miterlimit="22.9256"/>
<path fill-rule="evenodd" clip-rule="evenodd" d="M38.5534 278.866C38.1831 282.171 30.642 279.638 28.8742 279.033L28.918 278.977C26.1587 279.268 24.5103 275.839 31.1835 275.23C31.1835 275.23 30.6261 275.827 30.0408 276.457C30.2956 276.492 30.5624 276.548 30.8689 276.628C34.6196 277.596 33.7715 278.28 38.5534 278.866ZM28.9339 277.647C28.7826 277.811 28.687 277.918 28.683 277.926C28.8821 277.898 28.9458 277.791 28.9339 277.647Z" fill="#575656" stroke="#575656" stroke-width="0.5669" stroke-miterlimit="22.9256"/>
<path fill-rule="evenodd" clip-rule="evenodd" d="M127.435 283.577C135.231 284.031 141.283 282.343 147.94 282.92C152.156 283.286 155.883 283.804 160.147 283.912C160.052 283.995 160.08 283.951 160.04 284.023C160.251 283.935 160.35 283.35 160.51 282.84C160.072 282.57 159.391 282.187 159.427 281.904L159.45 281.889L159.47 281.916L159.478 281.948L159.498 281.936C159.502 281.9 159.502 281.916 159.502 281.889C159.805 281.53 162.158 282.076 161.624 282.888C161.608 283.326 161.608 283.489 161.517 284.019C160.904 287.583 148.043 286.357 144.894 286.289C136.947 286.106 134.9 287.253 127.435 283.577ZM160.641 282.47C160.709 282.323 160.784 282.203 160.88 282.127C160.752 282.219 160.677 282.343 160.641 282.47ZM160.721 282.98C160.752 283.02 160.788 283.051 160.832 283.071C160.808 283.043 160.768 283.012 160.721 282.98Z" fill="#575656"/>
<path fill-rule="evenodd" clip-rule="evenodd" d="M131.05 283.907C139.65 278.926 149.062 275.903 157.945 282.012C158.909 282.673 159.399 283.505 160.239 284.62L158.71 284.788C152.28 283.999 147.474 284.62 141.02 284.222C135.935 283.907 136.568 285.234 131.05 283.907Z" fill="#575656"/>
<path fill-rule="evenodd" clip-rule="evenodd" d="M39.8954 216.742C35.0817 222.914 32.9595 228.203 30.041 235.558C30.8931 227.828 32.7485 220.836 39.8954 216.742Z" fill="#9D745E"/>
<path fill-rule="evenodd" clip-rule="evenodd" d="M34.8187 234.065C33.3614 240.528 34.6594 246.346 34.97 253.033C33.2539 248.31 30.0846 238.33 34.8187 234.065Z" fill="#9D745E"/>
<path fill-rule="evenodd" clip-rule="evenodd" d="M34.9702 238.394C35.1175 244.518 36.734 251.181 37.6578 257.361C34.8826 251.679 32.1273 244.57 34.9702 238.394Z" fill="#9D745E"/>
<path fill-rule="evenodd" clip-rule="evenodd" d="M38.4028 251.687C39.012 255.936 39.1991 253.845 37.8055 257.959C36.5633 253.63 36.3722 255.721 38.4028 251.687Z" fill="#9D745E"/>
<path fill-rule="evenodd" clip-rule="evenodd" d="M35.7151 225.105C32.2909 230.843 32.7727 229.405 33.0873 237.657C33.2863 242.818 33.7283 248.063 33.0275 253.18C30.7541 248.636 29.0061 242.917 28.9385 237.792C28.8947 234.272 30.344 224.702 35.7151 225.105Z" fill="#9D745E"/>
<path fill-rule="evenodd" clip-rule="evenodd" d="M35.117 232.87C34.2729 243.443 34.4561 244.865 37.924 254.478C38.4695 255.995 38.804 256.716 38.4018 258.257C38.0833 257.349 37.8842 256.736 37.4502 255.856C32.5887 245.956 31.3982 244.291 35.117 232.87Z" fill="#9D745E"/>
<path fill-rule="evenodd" clip-rule="evenodd" d="M33.027 238.246C34.552 247.569 34.4604 247.708 37.7333 255.928C38.6928 258.341 38.442 257.891 38.7008 260.647C33.6044 250.153 31.7888 251.822 33.027 238.246Z" fill="#9D745E"/>
<path fill-rule="evenodd" clip-rule="evenodd" d="M47.0623 237.35C44.964 246.725 45.3144 246.016 48.5554 254.972C42.372 249.325 41.4323 243.857 47.0623 237.35Z" fill="#9D745E"/>
<path fill-rule="evenodd" clip-rule="evenodd" d="M45.8679 243.622C48.9018 254.371 47.994 248.604 52.5808 254.641C54.2849 256.883 53.9505 257.095 54.5278 260.049L52.6485 257.556C47.6755 251.571 44.3509 254.546 45.8679 243.622Z" fill="#9D745E"/>
<path fill-rule="evenodd" clip-rule="evenodd" d="M40.7914 202.704C41.7788 206.85 41.95 208.267 40.664 212.66C38.9837 218.394 33.3139 223.281 27.3535 220.625C31.5501 218.096 26.6766 220.951 30.2999 219.04C35.3884 216.359 38.0162 207.67 40.7914 202.704Z" fill="#9D745E"/>
<path fill-rule="evenodd" clip-rule="evenodd" d="M39.5964 209.275C40.6276 216.917 39.684 223.798 38.7006 231.377C35.4715 225.634 34.3367 223.946 35.8657 217.005C36.7735 212.887 36.9128 212.086 39.5964 209.275Z" fill="#9D745E"/>
<path fill-rule="evenodd" clip-rule="evenodd" d="M10.0335 187.173C12.2473 194.433 9.32482 204.5 3.97358 209.892C3.39227 210.473 1.6563 212.114 0.776367 211.067C1.43731 209.633 1.86334 209.343 2.57604 207.28C4.95305 200.37 6.17937 193.823 10.0335 187.173Z" fill="#9D745E"/>
<path fill-rule="evenodd" clip-rule="evenodd" d="M29.4434 147.151C24.5978 151.949 19.6487 155.932 15.1177 161.268C10.9768 166.142 14.9743 161.969 10.0332 166.863C11.0843 160.472 13.3578 154.992 18.8843 151.161C23.3197 148.086 24.3191 147.931 29.4434 147.151Z" fill="#9D745E"/>
<path fill-rule="evenodd" clip-rule="evenodd" d="M123.811 213.186C123.549 220.895 113.388 224.539 108.446 228.298C106.444 229.824 103.127 233.209 101.415 234.889L103.032 229.302C104.998 225.212 109.044 221.851 112.77 219.864C119.499 216.276 118.026 217.745 123.811 213.186Z" fill="#9D745E"/>
<path fill-rule="evenodd" clip-rule="evenodd" d="M117.835 221.521C111.429 232.285 100.83 240.217 106.587 253.423L107.384 255.271C105.357 254.355 105.341 254.653 103.999 252.782C95.1362 240.433 107.571 227.526 117.835 221.521Z" fill="#9D745E"/>
<path fill-rule="evenodd" clip-rule="evenodd" d="M113.355 223.312C110.875 229.445 110.274 227.514 108.088 231.349C106.248 234.578 106.933 243.937 107.853 247.155C108.757 250.313 111.83 255.9 113.328 259.579C106.3 253.873 102.072 248.051 102.502 238.569C102.904 229.712 106.814 227.777 113.355 223.312Z" fill="#9D745E"/>
<path fill-rule="evenodd" clip-rule="evenodd" d="M108.876 245.116C113.391 248.819 112.643 247.796 114.251 253.479C108.028 252.145 107.271 251.527 108.876 245.116Z" fill="#9D745E"/>
<path fill-rule="evenodd" clip-rule="evenodd" d="M124.105 212.56C125.678 216.021 121.505 218.669 118.129 217.092L115.744 215.248C119.566 212.847 120.283 213.233 124.105 212.56Z" fill="#9D745E"/>
<path fill-rule="evenodd" clip-rule="evenodd" d="M111.265 232.87C114.048 248.445 111.855 244.407 121.649 255.143C125.117 258.946 129.7 265.748 127.092 271.1C126.391 269.834 126.642 270.487 126.316 269.149L126.324 269.233C121.725 256.668 117.596 259.95 112.603 252.156C108.55 245.821 109.107 239.684 111.265 232.87Z" fill="#9D745E"/>
<path fill-rule="evenodd" clip-rule="evenodd" d="M121.119 256.465C128.529 255.151 132.885 267.604 130.862 273.338L129.48 275.581C128.585 273.004 128.095 270.579 127.123 268.146C124.32 261.109 124.973 262.108 121.119 256.465Z" fill="#9D745E"/>
<path fill-rule="evenodd" clip-rule="evenodd" d="M103.059 244.156C106.312 249.64 109.406 255.143 113.009 260.495C116.075 265.051 113.873 261.24 116.481 266.103L113.017 264.88C108.741 262.63 104.943 258.062 103.426 253.885C101.702 249.154 101.678 248.525 103.059 244.156Z" fill="#9D745E"/>
<path fill-rule="evenodd" clip-rule="evenodd" d="M106.188 238.545C103.532 245.343 103.441 245.454 108.796 252.527C112.161 256.971 116.763 262.323 119.327 266.919C113.928 264.267 108.589 260.221 104.954 255.354C101.689 250.99 98.5237 240.433 106.188 238.545Z" fill="#9D745E"/>
<path fill-rule="evenodd" clip-rule="evenodd" d="M105.17 228.955C107.2 242.013 104.998 241.281 114.785 253.275C119.033 258.484 122.872 261.606 127.602 267.417L120.833 265.529C106.408 259.579 94.0052 242.706 105.17 228.955Z" fill="#9D745E"/>
<path fill-rule="evenodd" clip-rule="evenodd" d="M108.881 251.981C114.841 256.573 123.294 263.936 123.151 272.227L122.315 276.178C120.766 272.809 119.806 270.196 117.581 267.21C113.452 261.658 110.756 258.887 108.881 251.981Z" fill="#9D745E"/>
<path fill-rule="evenodd" clip-rule="evenodd" d="M114.849 255.868C118.213 253.495 125.061 263.144 125.969 264.94C126.857 266.7 130.648 278.4 125.898 278.866C125.985 273.235 124.377 272.319 121.705 267.114C118.281 260.44 118.93 261.049 114.849 255.868Z" fill="#9D745E"/>
<path fill-rule="evenodd" clip-rule="evenodd" d="M115.445 223.91C111.778 232.002 109.182 233.663 104.17 240.225C101.805 243.324 100.395 246.952 98.7228 250.492L98.2012 245.773C98.7029 235.972 108.107 228.924 115.445 223.91Z" fill="#9D745E"/>
<path fill-rule="evenodd" clip-rule="evenodd" d="M125.598 265.127C130.026 266.457 134.732 269.384 134.039 274.788L132.765 278.269L129.926 273.386C128.27 270.985 124.794 267.688 125.598 265.127Z" fill="#9D745E"/>
<path fill-rule="evenodd" clip-rule="evenodd" d="M122.911 101.752C120.745 115.113 116.525 118.39 124.241 130.867C125.702 133.228 125.929 133.352 125.599 136.1C124.185 134.586 123.938 134.061 122.382 132.524C111.448 121.739 114.311 112.879 122.911 101.752Z" fill="#9D745E"/>
<path fill-rule="evenodd" clip-rule="evenodd" d="M114.251 123.555C118.758 126.51 136.695 139.365 137.945 143.961C138.543 146.163 138.204 147.155 137.543 149.241C136.369 146.908 136.066 144.634 134.091 143.3C124.555 136.852 119.69 134.602 114.251 123.555Z" fill="#9D745E"/>
<path fill-rule="evenodd" clip-rule="evenodd" d="M123.807 115.79C126.941 127.191 124.834 127.617 132.288 138.35C133.415 139.975 132.754 138.728 133.661 140.879C132.069 140.552 132.057 140.719 130.751 139.823C121.195 133.288 119.997 126.132 123.807 115.79Z" fill="#9D745E"/>
<path fill-rule="evenodd" clip-rule="evenodd" d="M128.585 123.555C131.201 130.373 130.612 131.301 134.458 136.836C136.688 140.05 139.061 145.733 138.053 149.6L136.648 152.523C135.25 146.573 135.971 146.713 131.854 141.233C126.953 134.718 127.359 131.719 128.585 123.555Z" fill="#9D745E"/>
<path fill-rule="evenodd" clip-rule="evenodd" d="M133.96 131.918C139.04 136.681 143.364 143.742 138.845 150.552L136.349 153.124L136.393 149.711C136.699 142.157 134.422 139.166 133.96 131.918Z" fill="#9D745E"/>
<path fill-rule="evenodd" clip-rule="evenodd" d="M144.71 144.463C140.012 151.722 136.819 154.49 133.96 162.614C131.591 169.348 124.293 182.976 117.476 185.986C116.763 186.301 116.345 186.4 115.744 185.978C117.807 183.904 117.878 184.047 119.869 181.064C131.666 163.399 125.869 157.728 144.71 144.463Z" fill="#9D745E"/>
<path fill-rule="evenodd" clip-rule="evenodd" d="M123.807 177.914C124.349 183.374 122.223 189.694 117.086 192.119C116.179 192.549 115.781 192.569 115.147 191.952C117.305 186.564 119.109 181.773 123.807 177.914Z" fill="#9D745E"/>
<path fill-rule="evenodd" clip-rule="evenodd" d="M123.807 177.615C122.167 186.185 120.487 186.468 117.238 193.393C115.912 196.213 115.832 199.04 115.446 202.107L113.443 198.773C110.648 190.761 118.639 182.502 123.807 177.615Z" fill="#9D745E"/>
<path fill-rule="evenodd" clip-rule="evenodd" d="M128.585 169.85C128.072 175.234 121.594 190.207 119.165 195.854C118.018 198.523 118.086 205.392 120.176 208.275C120.495 208.713 123.732 212.178 123.807 212.262L120.698 211.377C115.534 208.944 114.351 202.158 114.546 197.101C114.765 191.41 124.504 173.987 128.585 169.85Z" fill="#9D745E"/>
<path fill-rule="evenodd" clip-rule="evenodd" d="M121.494 199.044C121.988 200.884 123.497 208.936 124.528 210.434C126.4 213.15 128.359 213.416 130.899 215.304L134.558 218.534C119.778 216.57 117.067 213.142 121.494 199.044Z" fill="#9D745E"/>
<path fill-rule="evenodd" clip-rule="evenodd" d="M89.6735 15.8656C89.6416 11.6881 90.8082 10.7921 94.8774 10.2823C93.4281 14.1412 93.2967 14.0217 89.6735 15.8656Z" fill="#9D745E"/>
<path fill-rule="evenodd" clip-rule="evenodd" d="M57.8122 56.0552C58.8116 60.83 58.5369 62.3313 59.2257 66.3535C60.3286 72.8048 65.5246 78.4756 70.9515 81.7411C68.7616 82.2787 67.6905 82.0199 65.7595 80.6619C55.057 73.1433 54.9097 67.9902 57.8122 56.0552Z" fill="#9D745E"/>
<path fill-rule="evenodd" clip-rule="evenodd" d="M65.8752 74.5729C69.0525 77.6313 70.1793 79.4791 72.1462 83.5331L69.1521 82.8083C65.9031 81.2313 64.6171 77.8503 65.8752 74.5729Z" fill="#9D745E"/>
<path fill-rule="evenodd" clip-rule="evenodd" d="M57.2151 53.3671C56.8687 59.4162 56.0007 60.3401 55.1566 65.6565C54.4001 70.4034 55.057 70.718 55.722 75.1703C47.926 68.8822 52.8831 59.9817 57.2151 53.3671Z" fill="#9D745E"/>
<path fill-rule="evenodd" clip-rule="evenodd" d="M56.6183 67.1061C59.5209 71.5225 59.1546 70.8415 59.3059 76.0663C54.7032 73.3265 54.4324 71.9167 56.6183 67.1061Z" fill="#9D745E"/>
<path fill-rule="evenodd" clip-rule="evenodd" d="M59.9027 48.5883C57.8482 57.8153 56.7015 62.0365 58.4096 71.5861L56.2994 69.5153C54.878 67.4286 54.0259 62.4268 54.225 59.9657C54.5993 55.3423 56.5821 51.6347 59.9027 48.5883Z" fill="#886552"/>
<path fill-rule="evenodd" clip-rule="evenodd" d="M53.0348 40.8228C50.8409 44.3989 50.7971 44.6657 48.7188 45.9838L49.0851 44.6498C49.324 44.1599 49.6226 43.929 49.8057 43.3794C50.1123 42.4635 50.4348 41.898 50.8608 41.0418L50.9126 40.9382C51.5377 40.8666 52.2425 40.8347 53.0348 40.8228Z" fill="#886552"/>
<path fill-rule="evenodd" clip-rule="evenodd" d="M53.3333 50.0817C52.6962 57.1901 53.1302 61.5468 46.7637 65.6127L49.3238 54.1436C49.6543 53.0246 49.9012 55.4777 49.9131 55.2905C50.5741 52.7419 50.0445 54.0122 53.3333 50.0817Z" fill="#886552"/>
<path fill-rule="evenodd" clip-rule="evenodd" d="M54.229 42.0175C52.4373 45.1953 50.996 46.844 49.917 48.9706C49.4631 48.9029 48.9733 49.0901 48.7384 49.5839C48.7265 48.9626 48.7066 48.5166 48.6787 48.3693L48.7185 45.6254L48.7703 45.49C50.0802 44.4666 51.856 43.3754 54.229 42.0175Z" fill="#886552"/>
<path fill-rule="evenodd" clip-rule="evenodd" d="M67.9658 22.3049C64.8124 26.7771 59.712 32.6789 54.0422 34.0607L51.2432 34.2519C56.244 29.5687 61.3843 24.5151 67.9658 22.3049Z" fill="#9D745E"/>
<path fill-rule="evenodd" clip-rule="evenodd" d="M62.292 30.3691C51.8323 41.6232 51.6094 38.8117 48.3086 51.4595C48.006 51.0055 47.6119 50.9179 47.4884 50.6949C47.4486 50.6192 47.4008 50.5475 47.3531 50.4838C47.3451 50.2608 47.3371 50.0537 47.3252 49.8745C47.5044 49.54 47.8229 49.0741 47.8309 48.2896C47.8428 47.3856 47.9423 45.6453 47.6278 44.9046C47.576 44.7851 47.5203 44.6736 47.4526 44.5661C47.6517 44.2356 47.9025 43.7418 47.8229 42.1887C47.8149 42.0572 47.799 41.9258 47.7711 41.7944C50.168 36.1714 55.6308 33.1408 62.292 30.3691Z" fill="#9D745E"/>
<path fill-rule="evenodd" clip-rule="evenodd" d="M52.1393 45.0042C51.8646 51.6865 51.773 52.7537 50.3476 59.3405C49.6031 57.644 49.0218 56.3139 48.6236 55.1949C48.6395 54.04 48.6475 52.248 48.4962 51.8378C48.3967 51.567 48.2653 51.3798 48.1299 51.2405C48.5081 49.5878 49.7783 47.9232 52.1393 45.0042Z" fill="#9D745E"/>
<path fill-rule="evenodd" clip-rule="evenodd" d="M61.6946 28.2784C59.1225 39.1701 56.9088 36.7926 54.48 42.5232C54.0619 43.5148 54.1575 44.0285 53.9305 45.0042C53.3174 44.7812 53.3413 44.9046 53.0028 44.367C49.9569 39.5126 59.0389 30.9147 61.6946 28.2784Z" fill="#9D745E"/>
<path fill-rule="evenodd" clip-rule="evenodd" d="M69.4591 22.0063C64.0163 28.155 62.9333 30.5245 60.9903 39.1463C59.955 43.7339 60.0227 46.9596 59.9033 51.5751L58.2031 47.7281C55.9018 39.429 59.6086 23.878 69.4591 22.0063Z" fill="#886552"/>
<path fill-rule="evenodd" clip-rule="evenodd" d="M63.1871 27.6812C62.9801 31.5998 62.4386 34.5666 58.0031 35.7931C56.8365 36.1157 56.7011 36.0918 55.7217 35.4467C57.7005 32.4002 60.2368 29.7878 63.1871 27.6812Z" fill="#886552"/>
<path fill-rule="evenodd" clip-rule="evenodd" d="M60.2017 35.1479C54.7151 41.675 54.5917 40.9064 53.3335 49.4843C51.8165 47.2781 51.5059 47.4294 51.267 44.7931C50.7335 38.8435 54.7748 35.813 60.2017 35.1479Z" fill="#886552"/>
<path fill-rule="evenodd" clip-rule="evenodd" d="M55.4234 39.3293C53.4207 43.7696 51.2865 48.1183 48.5631 52.1644L48.5552 52.0927C48.3123 45.3347 48.3959 41.5037 55.4234 39.3293Z" fill="#886552"/>
<path fill-rule="evenodd" clip-rule="evenodd" d="M48.8537 44.4069C48.8258 40.317 53.094 34.5666 57.215 35.4466C53.0224 37.2984 50.9719 40.4126 48.8537 44.4069Z" fill="#9D745E"/>
<path fill-rule="evenodd" clip-rule="evenodd" d="M58.254 34.5586C55.9726 35.9444 47.448 44.7135 50.5935 51.1211L49.4468 52.1724C48.5071 51.352 47.8621 50.4958 47.46 49.6237C47.6312 49.3131 47.8183 48.8989 47.8263 48.2896C47.8382 47.3856 47.9378 45.6454 47.6232 44.9047C47.5834 44.8091 47.5356 44.7175 47.4878 44.6259C49.0367 40.8666 49.3512 37.167 58.254 34.5586Z" fill="#9D745E"/>
<path fill-rule="evenodd" clip-rule="evenodd" d="M50.944 41.42C49.7256 44.128 48.7143 45.8245 47.8423 47.8515C47.8622 47.0072 47.8941 45.8325 47.7109 45.1356C48.551 43.8931 49.6818 42.7183 50.944 41.42Z" fill="#9D745E"/>
<path fill-rule="evenodd" clip-rule="evenodd" d="M54.528 36.9399C48.9657 43.3953 49.1688 44.2594 49.7182 53.4387L50.0487 57.8471C47.4089 53.7573 44.8408 49.6953 46.3617 44.367C47.596 40.0262 50.1243 37.6209 54.528 36.9399Z" fill="#9D745E"/>
<path fill-rule="evenodd" clip-rule="evenodd" d="M102.605 78.7543C105.197 86.1256 101.287 88.2442 94.8408 90.7012L97.0984 87.0972C100.359 82.4459 99.6506 84.2778 102.605 78.7543Z" fill="#9D745E"/>
<path fill-rule="evenodd" clip-rule="evenodd" d="M115.446 73.6769C114.052 80.2915 112.85 85.1619 105.293 85.6238C109.179 80.9924 110.835 77.8942 115.446 73.6769Z" fill="#9D745E"/>
<path fill-rule="evenodd" clip-rule="evenodd" d="M121.119 24.3957C127.601 23.9179 131.738 28.8161 130.078 35.148L128.812 33.4515C125.845 29.0192 124.511 28.1272 121.119 24.3957Z" fill="#9D745E"/>
<path fill-rule="evenodd" clip-rule="evenodd" d="M127.391 42.0175C132.71 44.6538 135.087 51.8259 133.08 57.1861L131.551 59.7905L131.105 56.9511C130.202 50.217 129.147 48.0945 127.391 42.0175Z" fill="#9D745E"/>
<path fill-rule="evenodd" clip-rule="evenodd" d="M125.002 49.783C129.644 49.6476 133.479 52.5308 132.655 57.6043L131.572 60.5353L130.309 57.8552C127.877 52.3237 126.917 53.2516 125.002 49.783Z" fill="#9D745E"/>
<path fill-rule="evenodd" clip-rule="evenodd" d="M123.21 57.5485C126.802 65.6963 126.232 67.4445 119.372 73.0636C121.231 67.2374 122.135 63.5538 123.21 57.5485Z" fill="#9D745E"/>
<path fill-rule="evenodd" clip-rule="evenodd" d="M123.21 57.5485C127.196 62.5144 131.504 71.5941 125.364 76.4764L125.372 74.8755C125.738 67.8308 123.325 64.7525 123.21 57.5485Z" fill="#9D745E"/>
<path fill-rule="evenodd" clip-rule="evenodd" d="M69.0921 17.8249C45.7959 9.94787 86.9296 -12.2695 75.5781 14.7983C79.062 14.1094 82.5459 13.4165 86.0298 12.7275C85.0981 10.0634 85.7351 8.25538 87.491 6.63458L89 12.7435C89.7366 9.31866 90.529 5.45183 91.2098 2.47306C93.3519 7.31157 93.0175 10.1271 93.332 10.828C95.4383 9.61734 94.0129 10.4496 96.7124 8.566C97.5166 10.1709 97.2021 11.8116 96.1072 12.9306L110.421 15.4435C94.4747 -7.02079 141.087 -2.18626 117.452 17.5382C120.478 19.0037 122.234 20.9391 126.009 25.2002C128.68 26.359 130.755 29.2223 131.022 33.4077C135.939 36.8126 137.157 40.9423 138.2 44.0246C139.064 46.5812 139.502 50.1812 139.741 52.3476C140.112 53.0724 137.456 49.3688 137.79 50.0857C138.997 52.6861 138.208 56.5968 136.922 59.8264C136.759 58.8826 136.178 58.0423 135.366 56.8118C136.504 60.7543 133.657 66.2101 132.403 69.4875C132.244 69.3163 131.503 67.4127 131.213 68.2251C130.655 69.7862 129.632 71.4827 128.155 72.2712C127.932 73.8322 127.363 75.3017 125.447 76.4088C125.376 75.6681 125.376 75.6681 125.38 74.8676C123.668 76.4367 122.605 76.9265 120.877 77.8385C151.587 95.7231 154.672 124.061 168.21 149.413C167.477 149.07 164.547 146.784 163.814 146.442C165.821 151.547 166.848 156.007 164.503 160.73C163.416 158.942 162.739 157.118 162.249 154.247C160.485 159.416 158.479 163.379 155.994 167.97C157.272 172.984 165.661 177.329 168.389 184.624C165.454 183.004 165.482 183.35 163.018 182.335C169.854 195.922 181.918 213.488 167.855 238.027C170.439 244.61 175.416 245.534 178.41 245.124C178.183 249.09 172.279 256.676 161.039 251.193C155.648 261.79 152.94 271.379 153.036 278.281C147.482 277.273 138.905 277.217 132.288 279.177C131.627 278.619 129.823 276.11 128.246 275.182C128.02 276.843 127.434 278.348 125.909 278.854C126.017 275.493 124.978 272.502 123.226 270.957C122.752 272.673 122.744 273.82 122.326 276.166C121.51 273.717 120.853 272.363 117.612 266.823C114.514 265.669 110.939 263.582 107.658 261.288C95.6134 259.934 76.2868 264.474 84.5646 271.554C90.8993 276.102 90.8754 276.588 88.0962 281.713C81.4669 278.695 75.3671 276.556 68.7139 274.593C63.9917 273.199 58.7918 272.454 53.9542 272.036C52.4093 268.604 49.1285 262.969 43.0167 257.859C42.8216 258.759 42.4315 259.472 41.886 261.105C40.8109 259.022 39.6165 257.166 38.7644 253.793L38.7166 260.635C36.5148 257.572 34.7191 254.024 33.3375 250.102L33.0429 253.168C28.7547 245.016 26.1826 235.001 34.8824 220.278C32.4138 220.875 30.0567 221.321 27.3691 220.613C34.6236 217.032 38 209.57 41.0737 200.685C40.369 196.715 38.9715 189.053 39.8275 180.391C38.9436 183.314 38.9555 183.8 37.8964 186.412C37.0006 181.785 36.7258 180.045 35.7424 178.412C29.0613 187.026 28.5835 194.357 24.7572 199.853C24.4108 198.57 24.0803 197.392 24.4466 194.078C22.2926 196.878 20.0072 202.939 18.5937 208.22C16.6746 215.599 21.6197 224.38 18.8764 227.307C16.3282 229.728 10.8854 229.171 8.50837 227.478C6.76046 226.232 3.37611 221.27 4.2003 209.657C4.35957 208.909 3.31639 212.21 0.788086 211.055C1.9746 208.797 3.81807 203.771 4.049 202.692C7.24223 187.806 9.15737 175.64 15.2651 161.097C13.7362 163.315 11.9365 164.992 10.2364 166.461C11.3194 160.416 13.9273 153.128 20.7756 149.763C22.1533 149.086 24.1361 142.71 25.7845 139.222C24.797 139.584 23.7339 139.628 22.6629 139.529C24.6656 135.59 29.0056 130.548 30.6579 128.948C33.4729 122.978 36.2043 117.044 38.6569 111.123C37.128 111.099 36.9727 111.043 34.6076 111.752C36.9289 108.263 40.369 107.009 40.6835 106.216C40.9662 105.504 41.2489 104.771 41.5356 103.986C40.7034 104.018 40.0107 104.245 39.3855 104.584C40.791 102.262 43.3273 100.928 44.3108 97.9452C45.4575 94.3213 46.5604 89.7814 51.2507 86.488C57.4301 82.3823 58.4852 81.3588 62.6061 78.2407C62.2438 78.0415 60.0141 75.4371 59.2935 74.9393C59.3054 75.4491 59.3094 75.6044 59.3213 76.0623C58.5967 75.6681 55.6822 74.8079 54.8341 69.9694C54.4081 72.7331 54.8858 73.7406 55.7379 75.1663C52.0828 72.0402 51.2188 67.4844 52.1664 63.4424L51.0914 61.487C50.319 62.5702 49.877 63.53 46.7793 65.6087C47.93 61.6822 48.6467 58.7631 48.9175 56.0353C46.9466 53.4268 45.4336 51.1012 45.999 46.2149C47.0182 40.0144 51.4179 36.3307 55.8056 33.4834C52.2261 33.9015 53.6078 33.571 51.2586 34.244C53.4365 31.548 60.9816 25.459 64.151 23.9617C66.2055 20.8554 66.9739 20.4453 69.0921 17.8249Z" stroke="black" stroke-width="1.5" stroke-miterlimit="22.9256"/>
<path d="M109.087 262.275C103.513 257.668 102.617 252.105 101.06 245.454L98.7272 250.488C97.1385 240.926 100.037 241.751 101.474 234.69C102.972 224.599 111.221 220.76 117.795 216.825L115.748 215.244L120.777 212.978L120.268 211.154C117.616 208.928 115.191 206.097 114.446 200.434C109.342 189.797 120.526 183.625 122.923 174.171" stroke="black" stroke-width="1.5" stroke-miterlimit="22.9256"/>
<path d="M120.773 212.982C121.797 216.491 130.616 218.402 135.975 218.681C137.432 213.05 142.174 207.507 129.935 195.309C138.766 184.931 147.749 179.778 155.983 167.978" stroke="black" stroke-width="1.5" stroke-miterlimit="22.9256"/>
<path d="M114.251 123.555C117.651 135.813 136.341 141.376 136.767 150.922C130.472 155.983 126.566 168.962 121.466 177.982" stroke="black" stroke-width="1.5" stroke-miterlimit="22.9256"/>
<path fill-rule="evenodd" clip-rule="evenodd" d="M75.4073 35.9762C76.8885 35.9762 78.0949 34.7696 78.0949 33.2882C78.0949 31.8067 76.8885 30.6001 75.4073 30.6001C73.9261 30.6001 72.7197 31.8067 72.7197 33.2882C72.7197 34.7696 73.9261 35.9762 75.4073 35.9762Z" fill="black" stroke="black" stroke-width="0.5669" stroke-miterlimit="22.9256"/>
<path fill-rule="evenodd" clip-rule="evenodd" d="M97.4895 35.9683C99.1458 35.9683 100.496 34.6183 100.496 32.9616C100.496 31.305 99.1458 29.955 97.4895 29.955C95.8332 29.955 94.4834 31.305 94.4834 32.9616C94.4834 34.6183 95.8332 35.9683 97.4895 35.9683Z" fill="black" stroke="black" stroke-width="0.5669" stroke-miterlimit="22.9256"/>
<path fill-rule="evenodd" clip-rule="evenodd" d="M77.8791 22.9381C77.0549 25.1523 75.1916 26.9802 73.1729 28.1151C72.6433 28.4138 72.0222 28.5373 71.5205 28.0594C71.0189 27.5815 70.8238 26.6935 71.3414 26.3789C73.4596 25.0886 75.1995 23.1333 76.0476 21.2018C76.2945 20.6403 77.1983 20.7797 77.6999 21.2576C78.2056 21.7355 78.0941 22.3607 77.8791 22.9381Z" fill="#DAA28A" stroke="#DAA28A" stroke-width="0.5675" stroke-miterlimit="22.9256"/>
<path fill-rule="evenodd" clip-rule="evenodd" d="M95.4267 22.5279C96.1991 24.6744 98.0466 26.3948 100.065 27.4302C100.595 27.701 101.224 27.7966 101.749 27.3067C102.275 26.8169 102.494 25.9328 101.976 25.6461C99.8582 24.4673 98.1421 22.6116 97.3378 20.7439C97.1029 20.1983 96.1792 20.3775 95.6536 20.8673C95.1281 21.3571 95.2236 21.9664 95.4267 22.5279Z" fill="#DAA28A" stroke="#DAA28A" stroke-width="0.5715" stroke-miterlimit="22.9256"/>
<path fill-rule="evenodd" clip-rule="evenodd" d="M74.1014 32.9338C74.408 32.9338 74.6628 32.6829 74.6628 32.3723C74.6628 32.0657 74.412 31.8108 74.1014 31.8108C73.7949 31.8108 73.54 32.0617 73.54 32.3723C73.54 32.6829 73.7909 32.9338 74.1014 32.9338Z" fill="white" stroke="white" stroke-width="0.5669" stroke-miterlimit="22.9256"/>
<path fill-rule="evenodd" clip-rule="evenodd" d="M96.3466 33.2723C96.6531 33.2723 96.908 33.0214 96.908 32.7108C96.908 32.4042 96.6571 32.1493 96.3466 32.1493C96.04 32.1493 95.7852 32.4002 95.7852 32.7108C95.7891 33.0174 96.04 33.2723 96.3466 33.2723Z" fill="white" stroke="white" stroke-width="0.5669" stroke-miterlimit="22.9256"/>
</g>
<defs>
<clipPath id="clip0">
<rect width="179" height="291" fill="white"/>
</clipPath>
</defs>
</svg>
