<svg width="764" height="765" viewBox="0 0 764 765" fill="none" xmlns="http://www.w3.org/2000/svg">
<path d="M533.206 39.9276C538.649 40.972 542.208 46.2341 541.171 51.687C540.133 57.1399 534.87 60.7049 529.437 59.6655C521.422 58.1391 513.798 57.1751 506.566 56.7583C463.73 54.293 432.719 70.4608 410.841 95.6616C405.447 101.878 400.58 108.646 396.205 115.831C408.059 138.301 415.928 163.426 420.655 188.21C423.587 203.57 425.311 218.899 426.043 233.43C427.742 267.121 418.184 289.586 405.347 300.276C398.997 305.573 391.789 308.204 384.481 308.159C377.128 308.114 369.935 305.412 363.635 300.05C350.813 289.129 341.34 266.258 343.32 231.818C344.117 217.88 345.836 203.218 348.643 188.511C353.384 163.622 361.284 138.376 373.173 115.821C368.858 108.721 364.061 102.033 358.738 95.8826C337.004 70.7671 306.244 54.544 263.85 56.6729C256.306 57.0545 248.312 58.0236 239.866 59.6454C234.417 60.6798 229.169 57.1048 228.127 51.6619C227.094 46.214 230.658 40.9519 236.102 39.9176C245.384 38.1401 254.316 37.0656 262.912 36.6388C312.339 34.1534 348.347 53.2335 373.9 82.7625C377.744 87.2011 381.338 91.8757 384.691 96.7512C388.11 91.7904 391.774 87.0404 395.688 82.5315C421.432 52.872 457.746 33.832 507.668 36.7041C515.869 37.1711 524.379 38.2255 533.211 39.9226L533.206 39.9276ZM384.646 0C399.458 0 411.472 12.0305 411.472 26.8678C411.472 41.7051 399.463 53.7406 384.646 53.7406C369.84 53.7406 357.825 41.7101 357.825 26.8678C357.825 12.0255 369.84 0 384.646 0ZM384.701 138.165C377.193 155.377 371.875 173.925 368.361 192.333C365.72 206.196 364.101 219.943 363.359 232.953C361.785 260.343 368.025 277.435 376.617 284.751C379.253 286.995 381.995 288.125 384.581 288.15C387.193 288.17 389.954 287.08 392.571 284.906C401.112 277.786 407.382 261.086 406.044 234.419C405.372 220.887 403.733 206.537 400.971 192.031C397.483 173.724 392.185 155.292 384.716 138.18L384.701 138.165Z" fill="white"/>
<path d="M533.206 39.9276C538.649 40.972 542.208 46.2341 541.171 51.687C540.133 57.1399 534.87 60.7049 529.437 59.6655C521.422 58.1391 513.798 57.1751 506.566 56.7583C463.73 54.293 432.719 70.4608 410.841 95.6616C405.447 101.878 400.58 108.646 396.205 115.831C408.059 138.301 415.928 163.426 420.655 188.21C423.587 203.57 425.311 218.899 426.043 233.43C427.742 267.121 418.184 289.586 405.347 300.276C398.997 305.573 391.789 308.204 384.481 308.159C377.128 308.114 369.935 305.412 363.635 300.05C350.813 289.129 341.34 266.258 343.32 231.818C344.117 217.88 345.836 203.218 348.643 188.511C353.384 163.622 361.284 138.376 373.173 115.821C368.858 108.721 364.061 102.033 358.738 95.8826C337.004 70.7671 306.244 54.544 263.85 56.6729C256.306 57.0545 248.312 58.0236 239.866 59.6454C234.417 60.6798 229.169 57.1048 228.127 51.6619C227.094 46.214 230.658 40.9519 236.102 39.9176C245.384 38.1401 254.316 37.0656 262.912 36.6388C312.339 34.1534 348.347 53.2335 373.9 82.7625C377.744 87.2011 381.338 91.8757 384.691 96.7512C388.11 91.7904 391.774 87.0404 395.688 82.5315C421.432 52.872 457.746 33.832 507.668 36.7041C515.869 37.1711 524.379 38.2255 533.211 39.9226L533.206 39.9276ZM384.646 0C399.458 0 411.472 12.0305 411.472 26.8678C411.472 41.7051 399.463 53.7406 384.646 53.7406C369.84 53.7406 357.825 41.7101 357.825 26.8678C357.825 12.0255 369.84 0 384.646 0ZM384.701 138.165C377.193 155.377 371.875 173.925 368.361 192.333C365.72 206.196 364.101 219.943 363.359 232.953C361.785 260.343 368.025 277.435 376.617 284.751C379.253 286.995 381.995 288.125 384.581 288.15C387.193 288.17 389.954 287.08 392.571 284.906C401.112 277.786 407.382 261.086 406.044 234.419C405.372 220.887 403.733 206.537 400.971 192.031C397.483 173.724 392.185 155.292 384.716 138.18L384.701 138.165Z" fill="url(#paint0_linear)"/>
<path d="M758.219 320.989C758.44 315.435 754.134 310.788 748.599 310.592C743.063 310.397 738.404 314.752 738.18 320.295C737.844 328.47 737.05 336.138 735.813 343.302C728.483 385.731 705.729 412.464 676.27 428.264C669.004 432.158 661.321 435.415 653.344 438.099C634.198 421.523 611.566 408.253 588.552 398.133C574.29 391.858 559.783 386.77 545.827 382.831C513.469 373.693 489.466 378.054 476.163 388.233C469.572 393.267 465.379 399.731 463.764 406.886C462.138 414.085 463.13 421.717 466.911 429.067C474.614 444.027 494.691 458.364 528.612 464.07C542.339 466.384 556.979 467.956 571.909 468.475C597.175 469.362 623.505 467.24 648.124 460.62C654.045 466.415 659.456 472.589 664.225 479.158C683.7 505.981 692.482 539.656 680.788 580.635C678.704 587.926 675.947 595.527 672.453 603.425C670.211 608.523 672.494 614.447 677.547 616.674C682.607 618.893 688.53 616.576 690.772 611.483C694.607 602.801 697.679 594.307 700.046 585.996C713.683 538.222 703.315 498.781 680.419 467.245C676.978 462.501 673.25 457.95 669.273 453.589C674.871 451.348 680.319 448.819 685.59 445.992C720.26 427.403 747.01 396.122 755.554 346.673C756.962 338.552 757.869 329.997 758.225 320.985L758.219 320.989ZM763.293 475.102C766.656 460.62 757.692 446.203 743.272 442.911C728.852 439.619 714.428 448.691 711.064 463.177C707.702 477.654 716.667 492.071 731.092 495.364C745.516 498.657 759.932 489.579 763.293 475.102ZM629.027 444.39C610.594 447.912 591.36 448.996 572.672 448.348C558.599 447.854 544.871 446.387 532.059 444.225C505.082 439.686 489.887 429.792 484.728 419.769C483.145 416.693 482.67 413.762 483.233 411.228C483.806 408.67 485.492 406.211 488.199 404.136C497.058 397.365 514.712 394.939 540.325 402.165C553.324 405.824 566.898 410.611 580.369 416.53C597.369 424.003 614.08 433.273 629.015 444.372L629.027 444.39Z" fill="white"/>
<path d="M758.219 320.989C758.44 315.435 754.134 310.788 748.599 310.592C743.063 310.397 738.404 314.752 738.18 320.295C737.844 328.47 737.05 336.138 735.813 343.302C728.483 385.731 705.729 412.464 676.27 428.264C669.004 432.158 661.321 435.415 653.344 438.099C634.198 421.523 611.566 408.253 588.552 398.133C574.29 391.858 559.783 386.77 545.827 382.831C513.469 373.693 489.466 378.054 476.163 388.233C469.572 393.267 465.379 399.731 463.764 406.886C462.138 414.085 463.13 421.717 466.911 429.067C474.614 444.027 494.691 458.364 528.612 464.07C542.339 466.384 556.979 467.956 571.909 468.475C597.175 469.362 623.505 467.24 648.124 460.62C654.045 466.415 659.456 472.589 664.225 479.158C683.7 505.981 692.482 539.656 680.788 580.635C678.704 587.926 675.947 595.527 672.453 603.425C670.211 608.523 672.494 614.447 677.547 616.674C682.607 618.893 688.53 616.576 690.772 611.483C694.607 602.801 697.679 594.307 700.046 585.996C713.683 538.222 703.315 498.781 680.419 467.245C676.978 462.501 673.25 457.95 669.273 453.589C674.871 451.348 680.319 448.819 685.59 445.992C720.26 427.403 747.01 396.122 755.554 346.673C756.962 338.552 757.869 329.997 758.225 320.985L758.219 320.989ZM763.293 475.102C766.656 460.62 757.692 446.203 743.272 442.911C728.852 439.619 714.428 448.691 711.064 463.177C707.702 477.654 716.667 492.071 731.092 495.364C745.516 498.657 759.932 489.579 763.293 475.102ZM629.027 444.39C610.594 447.912 591.36 448.996 572.672 448.348C558.599 447.854 544.871 446.387 532.059 444.225C505.082 439.686 489.887 429.792 484.728 419.769C483.145 416.693 482.67 413.762 483.233 411.228C483.806 408.67 485.492 406.211 488.199 404.136C497.058 397.365 514.712 394.939 540.325 402.165C553.324 405.824 566.898 410.611 580.369 416.53C597.369 424.003 614.08 433.273 629.015 444.372L629.027 444.39Z" fill="url(#paint1_linear)"/>
<path d="M671.669 640.653C676.202 637.433 677.276 631.174 674.081 626.66C670.885 622.146 664.615 621.109 660.089 624.32C653.411 629.051 646.856 633.109 640.433 636.506C602.389 656.626 567.44 654.906 537.093 641.177C529.611 637.79 522.38 633.681 515.426 628.989C516.966 603.656 513.777 577.576 507.863 553.118C504.201 537.96 499.45 523.333 494.122 509.844C481.773 478.569 463.79 462.18 447.674 457.841C439.698 455.687 432.04 456.309 425.395 459.401C418.708 462.512 413.263 467.965 409.73 475.461C402.544 490.721 403.34 515.425 419.353 545.843C425.83 558.156 433.446 570.739 442.072 582.909C456.664 603.51 474.282 623.116 494.428 638.614C493.422 646.857 491.806 654.927 489.49 662.73C480.032 694.588 458.675 722.149 419.138 737.917C412.101 740.72 404.411 743.178 396.041 745.233C390.646 746.569 387.335 752.004 388.63 757.377C389.935 762.75 395.356 766.036 400.746 764.702C409.945 762.439 418.533 759.685 426.548 756.483C472.644 738.103 497.609 705.76 508.729 668.302C510.403 662.67 511.752 656.929 512.798 651.106C517.962 654.179 523.263 656.959 528.693 659.415C564.403 675.575 605.372 677.688 649.711 654.24C656.996 650.392 664.322 645.883 671.676 640.656L671.669 640.653ZM552.67 738.899C566.176 732.716 572.169 716.785 566.049 703.325C559.928 689.864 544.011 683.959 530.5 690.145C516.999 696.326 511.006 712.257 517.129 725.722C523.252 739.187 539.168 745.081 552.67 738.899ZM495.723 613.53C481.776 601.05 469.275 586.443 458.477 571.211C450.349 559.736 443.202 547.94 437.158 536.447C424.424 512.256 423.064 494.144 427.88 483.921C429.358 480.784 431.392 478.614 433.74 477.512C436.113 476.403 439.081 476.239 442.364 477.119C453.09 480.012 465.697 492.545 475.477 517.297C480.447 529.853 484.872 543.556 488.338 557.869C492.709 575.934 495.482 594.868 495.731 613.51L495.723 613.53Z" fill="white"/>
<path d="M671.669 640.653C676.202 637.433 677.276 631.174 674.081 626.66C670.885 622.146 664.615 621.109 660.089 624.32C653.411 629.051 646.856 633.109 640.433 636.506C602.389 656.626 567.44 654.906 537.093 641.177C529.611 637.79 522.38 633.681 515.426 628.989C516.966 603.656 513.777 577.576 507.863 553.118C504.201 537.96 499.45 523.333 494.122 509.844C481.773 478.569 463.79 462.18 447.674 457.841C439.698 455.687 432.04 456.309 425.395 459.401C418.708 462.512 413.263 467.965 409.73 475.461C402.544 490.721 403.34 515.425 419.353 545.843C425.83 558.156 433.446 570.739 442.072 582.909C456.664 603.51 474.282 623.116 494.428 638.614C493.422 646.857 491.806 654.927 489.49 662.73C480.032 694.588 458.675 722.149 419.138 737.917C412.101 740.72 404.411 743.178 396.041 745.233C390.646 746.569 387.335 752.004 388.63 757.377C389.935 762.75 395.356 766.036 400.746 764.702C409.945 762.439 418.533 759.685 426.548 756.483C472.644 738.103 497.609 705.76 508.729 668.302C510.403 662.67 511.752 656.929 512.798 651.106C517.962 654.179 523.263 656.959 528.693 659.415C564.403 675.575 605.372 677.688 649.711 654.24C656.996 650.392 664.322 645.883 671.676 640.656L671.669 640.653ZM552.67 738.899C566.176 732.716 572.169 716.785 566.049 703.325C559.928 689.864 544.011 683.959 530.5 690.145C516.999 696.326 511.006 712.257 517.129 725.722C523.252 739.187 539.168 745.081 552.67 738.899ZM495.723 613.53C481.776 601.05 469.275 586.443 458.477 571.211C450.349 559.736 443.202 547.94 437.158 536.447C424.424 512.256 423.064 494.144 427.88 483.921C429.358 480.784 431.392 478.614 433.74 477.512C436.113 476.403 439.081 476.239 442.364 477.119C453.09 480.012 465.697 492.545 475.477 517.297C480.447 529.853 484.872 543.556 488.338 557.869C492.709 575.934 495.482 594.868 495.731 613.51L495.723 613.53Z" fill="url(#paint2_linear)"/>
<path d="M749.999 287.467C752.528 292.401 750.574 298.446 745.64 300.985C740.706 303.524 734.657 301.57 732.131 296.647C728.399 289.39 724.465 282.786 720.34 276.828C695.91 241.543 664.082 227.051 630.761 225.319C622.544 224.894 614.216 225.225 605.862 226.199C595.461 249.377 580.514 271.049 563.901 290.034C553.608 301.802 542.594 312.598 531.598 322.122C506.105 344.204 482.525 350.499 466.201 346.961C458.119 345.216 451.609 341.154 447.145 335.366C442.654 329.541 440.353 322.208 440.698 313.94C441.407 297.109 453.591 275.561 481.938 255.918C493.409 247.965 506.016 240.294 519.329 233.452C541.854 221.866 566.604 212.551 591.691 208.037C594.626 200.264 596.941 192.365 598.509 184.382C604.913 151.787 598.754 117.55 570.977 85.4412C566.032 79.7296 560.346 74.024 553.869 68.3646C549.7 64.7065 549.285 58.3685 552.931 54.1957C556.586 50.0277 562.925 49.5974 567.092 53.2516C574.207 59.475 580.552 65.8545 586.181 72.3681C618.568 109.801 625.708 149.934 618.179 188.257C617.05 194.02 615.58 199.731 613.804 205.376C619.816 205.017 625.814 204.981 631.775 205.291C670.988 207.324 708.343 224.228 736.816 265.351C741.497 272.102 745.906 279.461 750.007 287.468L749.999 287.467ZM689.989 145.774C699.107 157.45 697.028 174.328 685.34 183.463C673.652 192.598 656.778 190.54 647.656 178.861C638.54 167.189 640.62 150.311 652.312 141.173C664.003 132.035 680.873 134.103 689.989 145.774ZM581.188 230.881C563.007 235.559 545.122 242.786 528.459 251.349C515.913 257.801 504.086 264.989 493.382 272.414C470.837 288.036 461.216 303.478 460.742 314.755C460.598 318.215 461.396 321.072 462.968 323.126C464.56 325.197 467.119 326.703 470.442 327.427C481.309 329.777 498.324 324.438 518.506 306.965C528.752 298.105 539.047 287.978 548.773 276.87C561.046 262.849 572.304 247.324 581.185 230.902L581.188 230.881Z" fill="white"/>
<path d="M749.999 287.467C752.528 292.401 750.574 298.446 745.64 300.985C740.706 303.524 734.657 301.57 732.131 296.647C728.399 289.39 724.465 282.786 720.34 276.828C695.91 241.543 664.082 227.051 630.761 225.319C622.544 224.894 614.216 225.225 605.862 226.199C595.461 249.377 580.514 271.049 563.901 290.034C553.608 301.802 542.594 312.598 531.598 322.122C506.105 344.204 482.525 350.499 466.201 346.961C458.119 345.216 451.609 341.154 447.145 335.366C442.654 329.541 440.353 322.208 440.698 313.94C441.407 297.109 453.591 275.561 481.938 255.918C493.409 247.965 506.016 240.294 519.329 233.452C541.854 221.866 566.604 212.551 591.691 208.037C594.626 200.264 596.941 192.365 598.509 184.382C604.913 151.787 598.754 117.55 570.977 85.4412C566.032 79.7296 560.346 74.024 553.869 68.3646C549.7 64.7065 549.285 58.3685 552.931 54.1957C556.586 50.0277 562.925 49.5974 567.092 53.2516C574.207 59.475 580.552 65.8545 586.181 72.3681C618.568 109.801 625.708 149.934 618.179 188.257C617.05 194.02 615.58 199.731 613.804 205.376C619.816 205.017 625.814 204.981 631.775 205.291C670.988 207.324 708.343 224.228 736.816 265.351C741.497 272.102 745.906 279.461 750.007 287.468L749.999 287.467ZM689.989 145.774C699.107 157.45 697.028 174.328 685.34 183.463C673.652 192.598 656.778 190.54 647.656 178.861C638.54 167.189 640.62 150.311 652.312 141.173C664.003 132.035 680.873 134.103 689.989 145.774ZM581.188 230.881C563.007 235.559 545.122 242.786 528.459 251.349C515.913 257.801 504.086 264.989 493.382 272.414C470.837 288.036 461.216 303.478 460.742 314.755C460.598 318.215 461.396 321.072 462.968 323.126C464.56 325.197 467.119 326.703 470.442 327.427C481.309 329.777 498.324 324.438 518.506 306.965C528.752 298.105 539.047 287.978 548.773 276.87C561.046 262.849 572.304 247.324 581.185 230.902L581.188 230.881Z" fill="url(#paint3_linear)"/>
<path d="M3.63043 321.335C3.32878 315.785 7.56665 311.075 13.0981 310.798C18.6296 310.522 23.3519 314.808 23.656 320.347C24.1111 328.516 25.0165 336.172 26.3577 343.317C34.3035 385.635 57.4433 412.032 87.1284 427.398C94.4498 431.185 102.179 434.329 110.194 436.896C129.096 420.041 151.531 406.441 174.395 395.983C188.563 389.499 202.994 384.2 216.891 380.056C249.111 370.445 273.174 374.453 286.624 384.436C293.286 389.373 297.573 395.774 299.292 402.905C301.022 410.08 300.141 417.726 296.468 425.131C288.984 440.202 269.118 454.832 235.286 461.035C221.594 463.55 206.979 465.337 192.059 466.075C166.809 467.332 140.452 465.597 115.74 459.339C109.905 465.22 104.585 471.473 99.9116 478.112C80.83 505.217 72.5384 539.019 84.8274 579.822C87.0168 587.082 89.8839 594.642 93.4921 602.488C95.8082 607.552 93.6118 613.51 88.5919 615.811C83.5647 618.103 77.6086 615.873 75.2937 610.814C71.3328 602.189 68.1374 593.74 65.6504 585.466C51.3197 537.895 61.1123 498.306 83.547 466.437C86.9184 461.643 90.5789 457.037 94.4919 452.619C88.8626 450.46 83.3784 448.011 78.0671 445.262C43.1314 427.183 15.9307 396.297 6.66909 346.978C5.14316 338.878 4.11122 330.337 3.62437 321.331L3.63043 321.335ZM0.798542 475.509C-2.77452 461.077 5.97874 446.531 20.3488 443.027C34.7188 439.524 49.2724 448.383 52.8467 462.819C56.4186 477.245 47.6653 491.792 33.2904 495.297C18.9155 498.801 4.3704 489.935 0.798542 475.509ZM134.599 442.83C153.081 446.082 172.327 446.884 191.002 445.961C205.066 445.261 218.772 443.592 231.55 441.243C258.458 436.309 273.506 426.193 278.518 416.095C280.056 412.996 280.489 410.058 279.889 407.532C279.279 404.983 277.557 402.549 274.82 400.514C265.864 393.873 248.177 391.707 222.673 399.308C209.73 403.157 196.227 408.143 182.844 414.259C165.955 421.981 149.381 431.495 134.61 442.812L134.599 442.83Z" fill="white"/>
<path d="M3.63043 321.335C3.32878 315.785 7.56665 311.075 13.0981 310.798C18.6296 310.522 23.3519 314.808 23.656 320.347C24.1111 328.516 25.0165 336.172 26.3577 343.317C34.3035 385.635 57.4433 412.032 87.1284 427.398C94.4498 431.185 102.179 434.329 110.194 436.896C129.096 420.041 151.531 406.441 174.395 395.983C188.563 389.499 202.994 384.2 216.891 380.056C249.111 370.445 273.174 374.453 286.624 384.436C293.286 389.373 297.573 395.774 299.292 402.905C301.022 410.08 300.141 417.726 296.468 425.131C288.984 440.202 269.118 454.832 235.286 461.035C221.594 463.55 206.979 465.337 192.059 466.075C166.809 467.332 140.452 465.597 115.74 459.339C109.905 465.22 104.585 471.473 99.9116 478.112C80.83 505.217 72.5384 539.019 84.8274 579.822C87.0168 587.082 89.8839 594.642 93.4921 602.488C95.8082 607.552 93.6118 613.51 88.5919 615.811C83.5647 618.103 77.6086 615.873 75.2937 610.814C71.3328 602.189 68.1374 593.74 65.6504 585.466C51.3197 537.895 61.1123 498.306 83.547 466.437C86.9184 461.643 90.5789 457.037 94.4919 452.619C88.8626 450.46 83.3784 448.011 78.0671 445.262C43.1314 427.183 15.9307 396.297 6.66909 346.978C5.14316 338.878 4.11122 330.337 3.62437 321.331L3.63043 321.335ZM0.798542 475.509C-2.77452 461.077 5.97874 446.531 20.3488 443.027C34.7188 439.524 49.2724 448.383 52.8467 462.819C56.4186 477.245 47.6653 491.792 33.2904 495.297C18.9155 498.801 4.3704 489.935 0.798542 475.509ZM134.599 442.83C153.081 446.082 172.327 446.884 191.002 445.961C205.066 445.261 218.772 443.592 231.55 441.243C258.458 436.309 273.506 426.193 278.518 416.095C280.056 412.996 280.489 410.058 279.889 407.532C279.279 404.983 277.557 402.549 274.82 400.514C265.864 393.873 248.177 391.707 222.673 399.308C209.73 403.157 196.227 408.143 182.844 414.259C165.955 421.981 149.381 431.495 134.61 442.812L134.599 442.83Z" fill="url(#paint4_linear)"/>
<path d="M98.154 640.654C93.6211 637.434 92.5467 631.174 95.7423 626.66C98.9379 622.147 105.208 621.11 109.734 624.321C116.412 629.052 122.967 633.109 129.39 636.507C167.434 656.627 202.383 654.906 232.73 641.178C240.212 637.79 247.442 633.682 254.397 628.99C252.856 603.657 256.045 577.577 261.959 553.119C265.622 537.96 270.373 523.333 275.701 509.845C288.05 478.57 306.033 462.181 322.149 457.842C330.125 455.687 337.783 456.31 344.428 459.402C351.115 462.513 356.559 467.966 360.093 475.462C367.279 490.722 366.483 515.426 350.47 545.844C343.993 558.156 336.377 570.74 327.751 582.91C313.159 603.511 295.541 623.117 275.395 638.615C276.401 646.858 278.016 654.928 280.333 662.73C289.791 694.589 311.148 722.15 350.685 737.917C357.722 740.721 365.412 743.179 373.782 745.234C379.177 746.57 382.488 752.005 381.193 757.378C379.887 762.751 374.467 766.037 369.076 764.703C359.878 762.44 351.29 759.686 343.275 756.484C297.179 738.104 272.214 705.76 261.094 668.303C259.42 662.671 258.071 656.93 257.024 651.107C251.861 654.18 246.56 656.96 241.13 659.416C205.42 675.576 164.451 677.688 120.112 654.24C112.827 650.393 105.501 645.883 98.1474 640.656L98.154 640.654ZM217.153 738.9C203.646 732.716 197.654 716.786 203.774 703.326C209.895 689.865 225.812 683.96 239.322 690.146C252.824 696.327 258.817 712.258 252.694 725.723C246.571 739.188 230.655 745.082 217.153 738.9ZM274.1 613.531C288.047 601.051 300.548 586.444 311.346 571.211C319.474 559.737 326.621 547.941 332.665 536.448C345.399 512.256 346.759 494.145 341.943 483.921C340.465 480.785 338.431 478.615 336.083 477.512C333.71 476.404 330.742 476.239 327.459 477.119C316.733 480.013 304.126 492.546 294.346 517.297C289.376 529.854 284.95 543.557 281.485 557.87C277.114 575.935 274.341 594.869 274.092 613.511L274.1 613.531Z" fill="white"/>
<path d="M98.154 640.654C93.6211 637.434 92.5467 631.174 95.7423 626.66C98.9379 622.147 105.208 621.11 109.734 624.321C116.412 629.052 122.967 633.109 129.39 636.507C167.434 656.627 202.383 654.906 232.73 641.178C240.212 637.79 247.442 633.682 254.397 628.99C252.856 603.657 256.045 577.577 261.959 553.119C265.622 537.96 270.373 523.333 275.701 509.845C288.05 478.57 306.033 462.181 322.149 457.842C330.125 455.687 337.783 456.31 344.428 459.402C351.115 462.513 356.559 467.966 360.093 475.462C367.279 490.722 366.483 515.426 350.47 545.844C343.993 558.156 336.377 570.74 327.751 582.91C313.159 603.511 295.541 623.117 275.395 638.615C276.401 646.858 278.016 654.928 280.333 662.73C289.791 694.589 311.148 722.15 350.685 737.917C357.722 740.721 365.412 743.179 373.782 745.234C379.177 746.57 382.488 752.005 381.193 757.378C379.887 762.751 374.467 766.037 369.076 764.703C359.878 762.44 351.29 759.686 343.275 756.484C297.179 738.104 272.214 705.76 261.094 668.303C259.42 662.671 258.071 656.93 257.024 651.107C251.861 654.18 246.56 656.96 241.13 659.416C205.42 675.576 164.451 677.688 120.112 654.24C112.827 650.393 105.501 645.883 98.1474 640.656L98.154 640.654ZM217.153 738.9C203.646 732.716 197.654 716.786 203.774 703.326C209.895 689.865 225.812 683.96 239.322 690.146C252.824 696.327 258.817 712.258 252.694 725.723C246.571 739.188 230.655 745.082 217.153 738.9ZM274.1 613.531C288.047 601.051 300.548 586.444 311.346 571.211C319.474 559.737 326.621 547.941 332.665 536.448C345.399 512.256 346.759 494.145 341.943 483.921C340.465 480.785 338.431 478.615 336.083 477.512C333.71 476.404 330.742 476.239 327.459 477.119C316.733 480.013 304.126 492.546 294.346 517.297C289.376 529.854 284.95 543.557 281.485 557.87C277.114 575.935 274.341 594.869 274.092 613.511L274.1 613.531Z" fill="url(#paint5_linear)"/>
<path d="M16.1831 283.554C13.549 288.433 15.3727 294.519 20.2511 297.163C25.1295 299.808 31.2184 297.985 33.85 293.117C37.7371 285.941 41.8124 279.424 46.0641 273.556C71.2469 238.805 103.379 225 136.73 223.986C144.954 223.738 153.273 224.247 161.604 225.401C171.504 248.798 185.982 270.786 202.183 290.124C212.221 302.11 223 313.142 233.789 322.899C258.801 345.524 282.241 352.325 298.637 349.14C306.755 347.569 313.351 343.648 317.938 337.957C322.553 332.23 325.011 324.948 324.843 316.675C324.496 299.833 312.779 278.027 284.86 257.779C273.563 249.581 261.124 241.64 247.961 234.514C225.69 222.446 201.146 212.6 176.162 207.548C173.395 199.714 171.25 191.767 169.854 183.752C164.152 151.026 171.046 116.93 199.507 85.4263C204.573 79.8224 210.38 74.2404 216.977 68.7217C221.224 65.154 221.775 58.8265 218.22 54.5762C214.655 50.3306 208.326 49.764 204.083 53.3277C196.836 59.3966 190.354 65.6382 184.587 72.0292C151.402 108.757 143.402 148.726 150.105 187.203C151.111 192.989 152.457 198.73 154.112 204.412C148.108 203.924 142.113 203.759 136.146 203.94C96.8991 205.129 59.1891 221.227 29.8387 261.727C25.014 268.376 20.4476 275.638 16.176 283.555L16.1831 283.554ZM79.2256 143.186C69.858 154.663 71.5745 171.581 83.063 180.965C94.5515 190.349 111.466 188.656 120.837 177.175C130.202 165.701 128.485 148.783 116.993 139.396C105.5 130.008 88.5901 131.713 79.2256 143.186ZM186.172 230.613C204.248 235.681 221.973 243.291 238.448 252.21C250.853 258.931 262.522 266.372 273.065 274.025C295.268 290.128 304.556 305.774 304.787 317.058C304.857 320.52 303.998 323.359 302.381 325.379C300.745 327.416 298.155 328.866 294.817 329.519C283.902 331.634 267.005 325.931 247.203 308.028C237.151 298.949 227.076 288.603 217.591 277.288C205.622 263.007 194.701 247.244 186.174 230.634L186.172 230.613Z" fill="white"/>
<path d="M16.1831 283.554C13.549 288.433 15.3727 294.519 20.2511 297.163C25.1295 299.808 31.2184 297.985 33.85 293.117C37.7371 285.941 41.8124 279.424 46.0641 273.556C71.2469 238.805 103.379 225 136.73 223.986C144.954 223.738 153.273 224.247 161.604 225.401C171.504 248.798 185.982 270.786 202.183 290.124C212.221 302.11 223 313.142 233.789 322.899C258.801 345.524 282.241 352.325 298.637 349.14C306.755 347.569 313.351 343.648 317.938 337.957C322.553 332.23 325.011 324.948 324.843 316.675C324.496 299.833 312.779 278.027 284.86 257.779C273.563 249.581 261.124 241.64 247.961 234.514C225.69 222.446 201.146 212.6 176.162 207.548C173.395 199.714 171.25 191.767 169.854 183.752C164.152 151.026 171.046 116.93 199.507 85.4263C204.573 79.8224 210.38 74.2404 216.977 68.7217C221.224 65.154 221.775 58.8265 218.22 54.5762C214.655 50.3306 208.326 49.764 204.083 53.3277C196.836 59.3966 190.354 65.6382 184.587 72.0292C151.402 108.757 143.402 148.726 150.105 187.203C151.111 192.989 152.457 198.73 154.112 204.412C148.108 203.924 142.113 203.759 136.146 203.94C96.8991 205.129 59.1891 221.227 29.8387 261.727C25.014 268.376 20.4476 275.638 16.176 283.555L16.1831 283.554ZM79.2256 143.186C69.858 154.663 71.5745 171.581 83.063 180.965C94.5515 190.349 111.466 188.656 120.837 177.175C130.202 165.701 128.485 148.783 116.993 139.396C105.5 130.008 88.5901 131.713 79.2256 143.186ZM186.172 230.613C204.248 235.681 221.973 243.291 238.448 252.21C250.853 258.931 262.522 266.372 273.065 274.025C295.268 290.128 304.556 305.774 304.787 317.058C304.857 320.52 303.998 323.359 302.381 325.379C300.745 327.416 298.155 328.866 294.817 329.519C283.902 331.634 267.005 325.931 247.203 308.028C237.151 298.949 227.076 288.603 217.591 277.288C205.622 263.007 194.701 247.244 186.174 230.634L186.172 230.613Z" fill="url(#paint6_linear)"/>
<defs>
<linearGradient id="paint0_linear" x1="382" y1="0" x2="382" y2="765" gradientUnits="userSpaceOnUse">
<stop stop-color="#BBE9F2"/>
<stop offset="1" stop-color="#F9F6F3"/>
</linearGradient>
<linearGradient id="paint1_linear" x1="382" y1="0" x2="382" y2="765" gradientUnits="userSpaceOnUse">
<stop stop-color="#BBE9F2"/>
<stop offset="1" stop-color="#F9F6F3"/>
</linearGradient>
<linearGradient id="paint2_linear" x1="382" y1="0" x2="382" y2="765" gradientUnits="userSpaceOnUse">
<stop stop-color="#BBE9F2"/>
<stop offset="1" stop-color="#F9F6F3"/>
</linearGradient>
<linearGradient id="paint3_linear" x1="382" y1="0" x2="382" y2="765" gradientUnits="userSpaceOnUse">
<stop stop-color="#BBE9F2"/>
<stop offset="1" stop-color="#F9F6F3"/>
</linearGradient>
<linearGradient id="paint4_linear" x1="382" y1="0" x2="382" y2="765" gradientUnits="userSpaceOnUse">
<stop stop-color="#BBE9F2"/>
<stop offset="1" stop-color="#F9F6F3"/>
</linearGradient>
<linearGradient id="paint5_linear" x1="382" y1="0" x2="382" y2="765" gradientUnits="userSpaceOnUse">
<stop stop-color="#BBE9F2"/>
<stop offset="1" stop-color="#F9F6F3"/>
</linearGradient>
<linearGradient id="paint6_linear" x1="382" y1="0" x2="382" y2="765" gradientUnits="userSpaceOnUse">
<stop stop-color="#BBE9F2"/>
<stop offset="1" stop-color="#F9F6F3"/>
</linearGradient>
</defs>
</svg>
