<svg xmlns="http://www.w3.org/2000/svg" width="201" height="307" fill="none"><rect id="backgroundrect" width="100%" height="100%" x="0" y="0" fill="none" stroke="none"/>





<defs>
<clipPath id="clip0">
<rect width="201" height="298.93499755859375" fill="white" y="8" x="0" id="svg_1"/>
</clipPath>
</defs>
<g class="currentLayer" style=""><title>Layer 1</title>
<path d="M75.5735,307.4669148898125 H125.439 C151.464,307.4669148898125 173.203,289.17191488981246 175.573,265.2719148898125 L201,8.53191488981247 C201,8.53191488981247 153.5,18.03191488981247 101,18.03191488981247 C43,18.03191488981247 0,8.53191488981247 0,8.53191488981247 L25.4395,265.2839148898125 C27.7966,289.1849148898125 49.5355,307.4669148898125 75.5735,307.4669148898125 z" fill="#F5F6F7" id="svg_3" class=""/>
<path d="M187.786,58.86131488981247 L167.415,264.4779148898125 C165.448,284.32391488981244 147.398,299.28491488981246 125.427,299.28491488981246 H75.5735 C53.6024,299.28491488981246 35.5518,284.32391488981244 33.5855,264.4779148898125 L13.2021,58.739214889812466 C67.8793,42.58151488981247 130.507,55.91801488981247 187.786,58.86131488981247 z" fill="#E8F0F3" id="svg_4" class=""/>


<ellipse cx="101" cy="9" rx="100" ry="9" fill="#EAEEF2" id="svg_7" class=""/></g></svg>