<svg width="33" height="33" viewBox="0 0 33 33" fill="none" xmlns="http://www.w3.org/2000/svg">
<path d="M16.5 33C25.6127 33 33 25.6127 33 16.5C33 7.3873 25.6127 0 16.5 0C7.3873 0 0 7.3873 0 16.5C0 25.6127 7.3873 33 16.5 33Z" fill="#F7BB34"/>
<path d="M9.625 15.125C11.1438 15.125 12.375 13.8938 12.375 12.375C12.375 10.8562 11.1438 9.625 9.625 9.625C8.10622 9.625 6.875 10.8562 6.875 12.375C6.875 13.8938 8.10622 15.125 9.625 15.125Z" fill="white"/>
<path d="M23.375 15.125C24.8938 15.125 26.125 13.8938 26.125 12.375C26.125 10.8562 24.8938 9.625 23.375 9.625C21.8562 9.625 20.625 10.8562 20.625 12.375C20.625 13.8938 21.8562 15.125 23.375 15.125Z" fill="white"/>
<path d="M27.9866 19.6694C27.7914 19.4054 27.4834 19.25 27.1561 19.25H5.84362C5.51637 19.25 5.20837 19.4054 5.01312 19.6694C4.81924 19.9334 4.76149 20.273 4.85912 20.5865C6.45274 25.7249 11.1319 29.1775 16.4999 29.1775C21.8679 29.1775 26.547 25.7249 28.1406 20.5865C28.2382 20.2744 28.1805 19.9334 27.9866 19.6694Z" fill="white"/>
</svg>
