<svg width="30" height="32" viewBox="0 0 30 32" fill="none" xmlns="http://www.w3.org/2000/svg">
<path d="M18.9288 4.65588C18.9288 2.45156 17.1344 0.658203 14.9289 0.658203C12.7234 0.658203 10.9291 2.45156 10.9291 4.65588C10.9291 6.8602 12.7234 8.65356 14.9289 8.65356C17.1344 8.65356 18.9288 6.8602 18.9288 4.65588ZM14.9289 7.51136C13.3536 7.51136 12.0719 6.23039 12.0719 4.65588C12.0719 3.08137 13.3536 1.8004 14.9289 1.8004C16.5043 1.8004 17.7859 3.08137 17.7859 4.65588C17.7859 6.23039 16.5043 7.51136 14.9289 7.51136Z" fill="#ECF1F5"/>
<path d="M7.0435 17.7735C8.09105 17.7735 9.19152 17.5895 10.1167 17.2695C10.378 18.6386 10.6419 20.0417 10.7943 21.3643C8.23213 21.4437 6.489 21.6277 5.1942 21.9524C3.31222 22.4244 2.35797 23.2665 2.35797 24.4553C2.35797 25.8471 3.73288 27.4588 6.03588 28.7666C6.3125 28.9237 6.66037 28.8241 6.81493 28.5522C6.97087 28.278 6.87482 27.9294 6.60043 27.7736C4.4592 26.5576 3.50078 25.2308 3.50078 24.4553C3.50078 22.8602 8.03117 22.5694 11.4389 22.4895C12.5426 23.0051 13.7357 23.2636 14.9289 23.2636C16.1221 23.2636 17.3151 23.0051 18.4189 22.4895C21.8266 22.5694 26.357 22.8602 26.357 24.4553C26.357 26.3717 22.4389 28.3326 20.5661 28.9623C20.402 28.189 19.9784 27.4943 19.3476 26.992C19.1656 26.8472 18.9714 26.7229 18.7687 26.6173C19.7192 26.2296 20.6378 25.8831 21.7858 25.8831C22.1013 25.8831 22.3572 25.6274 22.3572 25.312C22.3572 24.9966 22.1013 24.7409 21.7858 24.7409C20.3343 24.7409 19.219 25.1981 18.1403 25.6403C17.4916 25.9062 16.8788 26.1573 16.201 26.31C16.1984 26.3106 16.1958 26.3112 16.1931 26.3118C15.8622 26.391 15.3822 26.4542 14.9289 26.4542C13.7027 26.4542 12.7384 26.0588 11.7173 25.6403C10.6387 25.1981 9.52345 24.7409 8.07203 24.7409C7.75644 24.7409 7.50062 24.9966 7.50062 25.312C7.50062 25.6274 7.75644 25.8831 8.07203 25.8831C9.29821 25.8831 10.2626 26.2785 11.2836 26.697C12.3622 27.1392 13.4775 27.5964 14.9289 27.5964C15.49 27.5964 16.0669 27.5173 16.4829 27.4175C17.255 27.2404 18.0396 27.411 18.6355 27.8855C19.0879 28.2456 19.3753 28.735 19.4676 29.2908C17.9869 29.682 16.4625 29.8808 14.9289 29.8808C13.6952 29.8808 12.4541 29.7505 11.2402 29.4936C10.9314 29.4282 10.6283 29.6254 10.5628 29.9339C10.4975 30.2425 10.6948 30.5456 11.0035 30.611C12.2951 30.8844 13.6157 31.023 14.9289 31.023C21.7944 31.023 27.4998 27.2391 27.4998 24.4553C27.4998 21.6326 22.0788 21.4577 19.0636 21.3643C19.2161 20.042 19.4796 18.6397 19.7408 17.2713C20.6665 17.5936 21.7512 17.7735 22.8143 17.7735C25.8624 17.7735 29.3941 16.0658 29.556 13.1219C29.5669 12.9243 29.4747 12.7351 29.3121 12.622C29.1497 12.5089 28.9403 12.4878 28.7585 12.5664C27.8344 12.9661 26.5736 13.2047 25.3856 13.2047C22.1135 13.2047 20.4174 11.5329 20.2287 11.4511C18.713 10.3678 16.8724 9.77817 14.9695 9.77817H14.8883C14.292 9.77817 13.6937 9.83665 13.11 9.95178C11.5145 10.2482 9.71819 11.269 9.42826 11.598C7.96506 12.7048 6.28153 13.2047 4.47217 13.2047C3.28422 13.2047 2.02335 12.9661 1.09928 12.5664C0.917569 12.4878 0.708092 12.5089 0.545641 12.622C0.383191 12.7351 0.290909 12.9243 0.301765 13.1219C0.464159 16.0743 4.00887 17.7735 7.0435 17.7735ZM11.9556 21.4699C11.6385 18.4795 10.7575 15.2087 10.4579 12.266C11.1228 11.8169 11.8646 11.4693 12.6433 11.2412V12.0626C12.6433 13.3222 13.6686 14.3469 14.9289 14.3469C16.1892 14.3469 17.2145 13.3222 17.2145 12.0626V11.2411C17.9927 11.4691 18.7343 11.8166 19.3999 12.2661C19.1046 15.1819 18.2202 18.4749 17.9022 21.4698C16.0192 22.3379 13.8387 22.338 11.9556 21.4699ZM25.3856 14.3469C26.3233 14.3469 27.3074 14.2122 28.1774 13.9733C27.4656 15.4838 25.2679 16.6313 22.8143 16.6313C21.8264 16.6313 20.7895 16.4483 19.9566 16.1341C20.1539 15.0809 20.3361 14.0449 20.4636 13.0267C21.7987 13.8612 23.5836 14.3469 25.3856 14.3469ZM14.9695 10.9204C15.3377 10.9204 15.7068 10.9463 16.0717 10.9967V12.0626C16.0717 12.6924 15.559 13.2047 14.9289 13.2047C14.2987 13.2047 13.7861 12.6924 13.7861 12.0626V10.9967C14.151 10.9463 14.52 10.9204 14.8883 10.9204H14.9695ZM4.47217 14.3469C6.27444 14.3469 8.05963 13.861 9.39472 13.0265C9.52414 14.0561 9.70962 15.1108 9.90109 16.1336C9.06816 16.4482 8.03323 16.6313 7.0435 16.6313C4.58988 16.6313 2.39214 15.4838 1.68034 13.9733C2.55036 14.2122 3.53449 14.3469 4.47217 14.3469Z" fill="#ECF1F5"/>
<path d="M8.64343 29.9379C8.95901 29.9379 9.21483 29.6822 9.21483 29.3668C9.21483 29.0514 8.95901 28.7957 8.64343 28.7957C8.32785 28.7957 8.07202 29.0514 8.07202 29.3668C8.07202 29.6822 8.32785 29.9379 8.64343 29.9379Z" fill="#ECF1F5"/>
</svg>
