<svg width="45" height="45" viewBox="0 0 45 45" fill="none" xmlns="http://www.w3.org/2000/svg">
<g opacity="0.1">
<path d="M36.3825 4.82906C36.5794 4.42687 36.6131 3.95719 36.3965 3.555C36.1519 3.09937 35.6765 2.8125 35.1562 2.8125H33.3675C30.1444 1.02375 26.4403 0 22.5 0C10.0941 0 0 10.0941 0 22.5C0 34.9059 10.0941 45 22.5 45C34.9059 45 45 34.9059 45 22.5C45 15.3337 41.6194 8.95218 36.3825 4.82906ZM22.5 42.1875C11.6437 42.1875 2.8125 33.3562 2.8125 22.5C2.8125 11.6437 11.6437 2.8125 22.5 2.8125C24.494 2.8125 26.4206 3.11625 28.2347 3.67031C28.1644 3.83906 28.125 4.02468 28.125 4.21875C28.125 4.995 28.755 5.625 29.5312 5.625H32.5294L28.3612 11.8772C28.0744 12.3075 28.0462 12.8644 28.2909 13.32C28.5356 13.7756 29.0109 14.0625 29.5312 14.0625H35.1562C35.9325 14.0625 36.5625 13.4325 36.5625 12.6562C36.5625 11.88 35.9325 11.25 35.1562 11.25H32.1581L34.8609 7.19718C39.3244 10.8084 42.1875 16.3237 42.1875 22.5C42.1875 33.3562 33.3562 42.1875 22.5 42.1875Z" fill="#303F56"/>
<path d="M35.1562 15.4685C34.38 15.4685 33.75 16.0985 33.75 16.8748C33.75 18.4245 32.4872 19.6873 30.9375 19.6873C29.3878 19.6873 28.125 18.4245 28.125 16.8748C28.125 16.0985 27.495 15.4685 26.7187 15.4685C25.9425 15.4685 25.3125 16.0985 25.3125 16.8748C25.3125 19.977 27.8353 22.4998 30.9375 22.4998C34.0397 22.4998 36.5625 19.977 36.5625 16.8748C36.5625 16.0985 35.9325 15.4685 35.1562 15.4685Z" fill="#303F56"/>
<path d="M18.2813 15.4685C17.5051 15.4685 16.8751 16.0985 16.8751 16.8748C16.8751 18.4245 15.6122 19.6873 14.0626 19.6873C12.5129 19.6873 11.2501 18.4245 11.2501 16.8748C11.2501 16.0985 10.6201 15.4685 9.84381 15.4685C9.06756 15.4685 8.43756 16.0985 8.43756 16.8748C8.43756 19.977 10.9604 22.4998 14.0626 22.4998C17.1647 22.4998 19.6876 19.977 19.6876 16.8748C19.6876 16.0985 19.0576 15.4685 18.2813 15.4685Z" fill="#303F56"/>
<path d="M29.5313 30.9373H15.4688C14.6926 30.9373 14.0626 31.5673 14.0626 32.3435C14.0626 33.1198 14.6926 33.7498 15.4688 33.7498H29.5313C30.3076 33.7498 30.9376 33.1198 30.9376 32.3435C30.9376 31.5673 30.3076 30.9373 29.5313 30.9373Z" fill="#303F56"/>
<path d="M43.5937 5.625H43.0566L44.8509 2.03625C45.0703 1.60031 45.045 1.08281 44.7891 0.669375C44.5331 0.255937 44.0803 0 43.5937 0H40.7812C40.005 0 39.375 0.63 39.375 1.40625C39.375 2.1825 40.005 2.8125 40.7812 2.8125H41.3184L39.5241 6.40125C39.3047 6.83718 39.33 7.35468 39.5859 7.76812C39.8419 8.18156 40.2947 8.4375 40.7812 8.4375H43.5937C44.37 8.4375 45 7.8075 45 7.03125C45 6.255 44.37 5.625 43.5937 5.625Z" fill="#303F56"/>
</g>
</svg>
