<svg width="25" height="25" viewBox="0 0 25 25" fill="none" xmlns="http://www.w3.org/2000/svg">
<path fill-rule="evenodd" clip-rule="evenodd" d="M7.29163 10.4167V7.29171C7.29163 5.91037 7.84036 4.58561 8.81711 3.60886C9.79386 2.63211 11.1186 2.08337 12.5 2.08337C13.8813 2.08337 15.2061 2.63211 16.1828 3.60886C17.1596 4.58561 17.7083 5.91037 17.7083 7.29171V10.4167H18.75C19.3025 10.4167 19.8324 10.6362 20.2231 11.0269C20.6138 11.4176 20.8333 11.9475 20.8333 12.5V20.8334C20.8333 21.3859 20.6138 21.9158 20.2231 22.3065C19.8324 22.6972 19.3025 22.9167 18.75 22.9167H6.24996C5.69742 22.9167 5.16752 22.6972 4.77682 22.3065C4.38612 21.9158 4.16663 21.3859 4.16663 20.8334V12.5C4.16663 11.9475 4.38612 11.4176 4.77682 11.0269C5.16752 10.6362 5.69742 10.4167 6.24996 10.4167H7.29163ZM6.24996 12.5V20.8334H18.75V12.5H6.24996ZM9.37496 10.4167H15.625V7.29171C15.625 6.46291 15.2957 5.66805 14.7097 5.082C14.1236 4.49595 13.3288 4.16671 12.5 4.16671C11.6712 4.16671 10.8763 4.49595 10.2902 5.082C9.7042 5.66805 9.37496 6.46291 9.37496 7.29171V10.4167ZM14.5833 14.5834H16.6666V18.75H14.5833V14.5834Z" fill="white"/>
</svg>
