<svg width="53" height="50" viewBox="0 0 53 50" fill="none" xmlns="http://www.w3.org/2000/svg">
<path d="M35.6571 2.47891C35.9952 2.54375 36.2162 2.87045 36.1518 3.20899C36.0874 3.54754 35.7605 3.76887 35.423 3.70434C34.9252 3.60957 34.4517 3.54972 34.0025 3.52384C31.3421 3.37078 29.4161 4.37457 28.0572 5.93916C27.7222 6.32509 27.42 6.74531 27.1482 7.1914C27.8844 8.58641 28.3732 10.1463 28.6667 11.685C28.8489 12.6386 28.956 13.5904 29.0014 14.4925C29.1069 16.5843 28.5133 17.979 27.716 18.6426C27.3216 18.9715 26.8739 19.1349 26.4201 19.1321C25.9634 19.1293 25.5166 18.9616 25.1253 18.6286C24.329 17.9506 23.7406 16.5306 23.8636 14.3925C23.9131 13.5271 24.0199 12.6168 24.1942 11.7038C24.4887 10.1585 24.9793 8.59109 25.7177 7.19077C25.4497 6.74998 25.1518 6.33475 24.8212 5.95288C23.4714 4.39358 21.5609 3.38637 18.9279 3.51855C18.4593 3.54224 17.9628 3.6024 17.4383 3.70309C17.0999 3.76731 16.7739 3.54535 16.7092 3.20743C16.645 2.8692 16.8664 2.54251 17.2045 2.47829C17.781 2.36793 18.3358 2.30122 18.8696 2.27473C21.9394 2.12042 24.1758 3.30501 25.7629 5.13832C26.0017 5.41389 26.2249 5.70411 26.4331 6.00681C26.6454 5.69881 26.873 5.40391 27.1161 5.12398C28.715 3.28256 30.9704 2.10047 34.071 2.27878C34.5803 2.30777 35.1089 2.37323 35.6574 2.4786L35.6571 2.47891ZM26.4303 0C27.3502 0 28.0964 0.746915 28.0964 1.66809C28.0964 2.58927 27.3505 3.33649 26.4303 3.33649C25.5107 3.33649 24.7645 2.58958 24.7645 1.66809C24.7645 0.746604 25.5107 0 26.4303 0ZM26.4338 8.57799C25.9674 9.64662 25.6371 10.7982 25.4189 11.941C25.2548 12.8017 25.1543 13.6552 25.1082 14.4629C25.0105 16.1634 25.398 17.2246 25.9316 17.6788C26.0954 17.8181 26.2656 17.8883 26.4263 17.8898C26.5885 17.8911 26.76 17.8234 26.9225 17.6884C27.453 17.2464 27.8424 16.2096 27.7593 14.5539C27.7176 13.7138 27.6158 12.8229 27.4443 11.9223C27.2276 10.7857 26.8985 9.64132 26.4347 8.57893L26.4338 8.57799Z" fill="#1CA7C4"/>
<path d="M49.6282 19.9781C49.641 19.6341 49.3724 19.3452 49.0281 19.3318C48.6837 19.3185 48.3945 19.5872 48.3815 19.9305C48.3618 20.4368 48.3136 20.9117 48.2378 21.3552C47.7885 23.9819 46.3771 25.6327 44.547 26.6048C44.0956 26.8444 43.6181 27.0444 43.1223 27.2088C41.9287 26.1777 40.5187 25.3505 39.0854 24.7184C38.1973 24.3264 37.294 24.008 36.4252 23.7607C34.4108 23.1874 32.9183 23.4521 32.0923 24.0796C31.6831 24.3899 31.4232 24.7894 31.3239 25.2323C31.2239 25.6779 31.2868 26.1509 31.5232 26.607C32.0047 27.5355 33.2559 28.4282 35.3669 28.7894C36.2213 28.9358 37.1322 29.0365 38.0611 29.0721C39.633 29.1327 41.2706 29.0073 42.8012 28.6028C43.1704 28.9631 43.5079 29.3468 43.8057 29.7548C45.0213 31.4208 45.573 33.5089 44.8519 36.0447C44.7234 36.4959 44.5531 36.9662 44.337 37.4546C44.1983 37.7699 44.3412 38.1374 44.6559 38.2765C44.9711 38.4151 45.3392 38.2729 45.4778 37.9579C45.715 37.421 45.9048 36.8955 46.0507 36.3812C46.8916 33.4248 46.2405 30.9792 44.8112 29.0205C44.5964 28.7258 44.3638 28.4431 44.1157 28.1721C44.4636 28.0345 44.8021 27.8791 45.1296 27.7051C47.2835 26.5615 48.9426 24.6298 49.4664 21.5685C49.5527 21.0658 49.6078 20.536 49.6285 19.9778L49.6282 19.9781ZM49.968 29.526C50.1749 28.6297 49.615 27.7346 48.7174 27.5274C47.8198 27.3202 46.924 27.8788 46.717 28.7755C46.5101 29.6715 47.07 30.5666 47.9679 30.7739C48.8658 30.9812 49.7611 30.422 49.968 29.526ZM41.6106 27.5931C40.4644 27.8071 39.2681 27.8698 38.1055 27.8254C37.2299 27.7916 36.3756 27.6976 35.5783 27.5608C33.8993 27.2735 32.9526 26.6572 32.6301 26.0351C32.5311 25.8442 32.5011 25.6625 32.5357 25.5056C32.571 25.3473 32.6755 25.1954 32.8435 25.0674C33.3936 24.65 34.4914 24.5038 36.0859 24.9572C36.8951 25.1868 37.7404 25.4864 38.5793 25.8562C39.638 26.3229 40.679 26.901 41.6099 27.5919L41.6106 27.5931Z" fill="#303F56"/>
<path d="M44.2531 39.8201C44.5339 39.6209 44.5996 39.232 44.4006 38.9506C44.2016 38.6692 43.8124 38.6034 43.5321 38.802C43.1184 39.0946 42.7123 39.3454 42.3142 39.5552C39.9567 40.7975 37.7878 40.6826 35.9026 39.8221C35.4377 39.6098 34.9884 39.3527 34.5562 39.0595C34.6478 37.4848 34.4458 35.8626 34.075 34.3406C33.8454 33.3974 33.5482 32.4869 33.2155 31.6471C32.4443 29.6998 31.3259 28.6768 30.3252 28.4034C29.8299 28.2676 29.3548 28.3046 28.9429 28.4953C28.5285 28.6872 28.1915 29.025 27.9735 29.4902C27.5299 30.4374 27.5832 31.9735 28.5816 33.8683C28.9854 34.6352 29.46 35.4193 29.9972 36.1779C30.9059 37.462 32.0022 38.685 33.2547 39.6531C33.1935 40.1654 33.0946 40.6667 32.9521 41.1513C32.3702 43.1299 31.0492 44.8386 28.5984 45.8099C28.1622 45.9826 27.6854 46.1337 27.1663 46.2596C26.8317 46.3414 26.6272 46.6786 26.7083 47.0129C26.7902 47.3473 27.1271 47.5528 27.4614 47.4711C28.0318 47.3325 28.5642 47.1632 29.0611 46.966C31.9186 45.8336 33.4626 43.8284 34.1467 41.5021C34.2498 41.1524 34.3326 40.7957 34.3966 40.4339C34.7175 40.6262 35.0468 40.8002 35.3841 40.9541C37.6026 41.9669 40.1451 42.1076 42.8928 40.6598C43.3442 40.4223 43.7981 40.1435 44.2536 39.8202L44.2531 39.8201ZM36.8845 45.9013C37.7216 45.5199 38.091 44.5308 37.709 43.6926C37.3271 42.8543 36.3386 42.4836 35.5011 42.8651C34.6643 43.2464 34.2949 44.2354 34.677 45.074C35.059 45.9125 36.0476 46.2826 36.8845 45.9013ZM33.3311 38.0939C32.4637 37.3148 31.6857 36.4038 31.0133 35.4543C30.5072 34.7391 30.0618 34.0041 29.685 33.2881C28.891 31.7812 28.8038 30.6549 29.101 30.0203C29.1922 29.8256 29.3181 29.6912 29.4637 29.6232C29.6107 29.5548 29.7949 29.5453 29.9987 29.6007C30.6647 29.783 31.449 30.5651 32.0598 32.1062C32.3701 32.888 32.6469 33.7409 32.8642 34.6316C33.1382 35.7557 33.3132 36.9336 33.3316 38.0926L33.3311 38.0939Z" fill="#303F56"/>
<path d="M49.1219 17.8474C49.2789 18.1537 49.1576 18.5291 48.8511 18.6867C48.5447 18.8444 48.169 18.723 48.0121 18.4174C47.7803 17.9668 47.536 17.5568 47.2798 17.1869C45.7625 14.9962 43.7857 14.0965 41.7162 13.9889C41.2058 13.9626 40.6886 13.9831 40.1698 14.0436C39.5238 15.4826 38.5954 16.8281 37.5636 18.0068C36.9243 18.7374 36.2403 19.4077 35.5573 19.999C33.974 21.3699 32.5095 21.7608 31.4956 21.5411C30.9937 21.4328 30.5893 21.1806 30.3121 20.8212C30.0331 20.4596 29.8903 20.0043 29.9117 19.491C29.9557 18.4461 30.7124 17.1082 32.4731 15.8887C33.1855 15.3949 33.9685 14.9187 34.7953 14.4939C36.1943 13.7746 37.7315 13.1962 39.2896 12.916C39.4719 12.4334 39.6157 11.943 39.7131 11.4474C40.1108 9.4237 39.7283 7.29811 38.0031 5.30463C37.6959 4.95003 37.3428 4.59579 36.9406 4.24443C36.6816 4.01731 36.6558 3.62382 36.8823 3.36475C37.1093 3.10598 37.503 3.07927 37.7618 3.30614C38.2037 3.69252 38.5978 4.08859 38.9474 4.49299C40.9589 6.81701 41.4023 9.30864 40.9347 11.6879C40.8646 12.0458 40.7733 12.4003 40.663 12.7508C41.0364 12.7285 41.4089 12.7262 41.7792 12.7455C44.2146 12.8717 46.5347 13.9212 48.3031 16.4743C48.5938 16.8935 48.8676 17.3504 49.1223 17.8475L49.1219 17.8474ZM45.3947 9.05043C45.9611 9.77533 45.8319 10.8232 45.106 11.3903C44.3801 11.9575 43.3321 11.8297 42.7655 11.1046C42.1993 10.3799 42.3285 9.33207 43.0547 8.76474C43.7808 8.19742 44.8285 8.32578 45.3947 9.05043ZM38.6373 14.3343C37.5081 14.6247 36.3973 15.0734 35.3624 15.605C34.5831 16.0056 33.8486 16.4519 33.1838 16.9128C31.7836 17.8828 31.186 18.8415 31.1566 19.5416C31.1476 19.7564 31.1972 19.9338 31.2948 20.0613C31.3937 20.1899 31.5526 20.2834 31.759 20.3284C32.434 20.4742 33.4908 20.1428 34.7442 19.058C35.3806 18.5079 36.02 17.8791 36.624 17.1895C37.3863 16.319 38.0855 15.3552 38.6371 14.3356L38.6373 14.3343Z" fill="#303F56"/>
<path d="M2.77033 19.9991C2.75243 19.6553 3.01679 19.3625 3.36092 19.3441C3.70505 19.3257 3.99813 19.5902 4.01618 19.9333C4.04321 20.4393 4.09834 20.9134 4.18065 21.3557C4.6683 23.9755 6.10359 25.6056 7.94777 26.5509C8.4026 26.7838 8.88292 26.9768 9.38107 27.134C10.5595 26.0855 11.9573 25.2379 13.3811 24.5848C14.2635 24.1799 15.162 23.8484 16.0271 23.5885C18.0329 22.9857 19.5291 23.2286 20.3642 23.844C20.7779 24.1483 21.0436 24.5439 21.1494 24.9853C21.2559 25.4294 21.1999 25.9033 20.9702 26.3629C20.5023 27.2982 19.2643 28.2091 17.1587 28.6011C16.3066 28.76 15.3972 28.874 14.469 28.9231C12.8981 29.0067 11.2588 28.9052 9.72257 28.5231C9.35867 28.8888 9.02674 29.2774 8.73501 29.6897C7.54379 31.3733 7.02271 33.4692 7.78077 35.9942C7.91582 36.4435 8.09299 36.9112 8.31621 37.3964C8.45949 37.7097 8.32193 38.0792 8.0093 38.2229C7.69622 38.3661 7.32607 38.2293 7.18286 37.9164C6.93782 37.383 6.74037 36.8603 6.58696 36.3482C5.70296 33.4044 6.31831 30.9496 7.71887 28.9701C7.92934 28.6724 8.15776 28.3863 8.40186 28.1116C8.05203 27.9792 7.71126 27.8287 7.3813 27.6596C5.21094 26.5475 3.52374 24.6403 2.95533 21.587C2.86168 21.0855 2.79882 20.5566 2.76995 19.9988L2.77033 19.9991ZM2.57003 29.551C2.35002 28.6577 2.8968 27.7546 3.79125 27.5343C4.68569 27.3139 5.58962 27.8595 5.8097 28.753C6.02964 29.6459 5.48285 30.5491 4.58811 30.7695C3.69336 30.9899 2.78996 30.4439 2.57003 29.551ZM10.8983 27.4961C12.0474 27.6933 13.2446 27.7387 14.4064 27.6772C15.2814 27.6307 16.1342 27.5242 16.9295 27.3758C18.604 27.064 19.5417 26.4339 19.8551 25.8071C19.9512 25.6148 19.9786 25.4327 19.9417 25.2764C19.9041 25.1186 19.7974 24.9682 19.6275 24.8427C19.0714 24.4333 17.9715 24.3032 16.3838 24.7798C15.578 25.0213 14.7373 25.3332 13.9039 25.7151C12.8521 26.1973 11.8196 26.7905 10.899 27.495L10.8983 27.4961Z" fill="#303F56"/>
<path d="M8.64054 39.8201C8.35977 39.6209 8.29408 39.232 8.49308 38.9506C8.69208 38.6692 9.0813 38.6034 9.36164 38.802C9.77533 39.0946 10.1814 39.3454 10.5795 39.5552C12.937 40.7975 15.1059 40.6826 16.9911 39.8221C17.456 39.6098 17.9053 39.3528 18.3375 39.0595C18.2459 37.4848 18.4479 35.8626 18.8187 34.3407C19.0483 33.3974 19.3455 32.4869 19.6781 31.6471C20.4493 29.6998 21.5678 28.6768 22.5685 28.4034C23.0638 28.2676 23.5389 28.3046 23.9507 28.4953C24.3652 28.6872 24.7021 29.025 24.9202 29.4902C25.3638 30.4374 25.3105 31.9735 24.3121 33.8683C23.9082 34.6352 23.4337 35.4193 22.8965 36.1779C21.9878 37.462 20.8915 38.685 19.639 39.6531C19.7001 40.1654 19.7991 40.6667 19.9416 41.1513C20.5235 43.1299 21.8444 44.8386 24.2953 45.8099C24.7315 45.9826 25.2083 46.1337 25.7274 46.2596C26.0619 46.3414 26.2665 46.6786 26.1853 47.0129C26.1035 47.3473 25.7666 47.5528 25.4323 47.4711C24.8619 47.3325 24.3294 47.1632 23.8326 46.966C20.9751 45.8336 19.4311 43.8284 18.7469 41.5021C18.6439 41.1524 18.5611 40.7957 18.4971 40.4339C18.1762 40.6262 17.8469 40.8002 17.5095 40.9541C15.2911 41.9669 12.7486 42.1076 10.0009 40.6598C9.54948 40.4223 9.0956 40.1435 8.64012 39.8202L8.64054 39.8201ZM16.0092 45.9013C15.1721 45.5199 14.8027 44.5308 15.1846 43.6926C15.5666 42.8543 16.5551 42.4836 17.3925 42.8651C18.2294 43.2464 18.5988 44.2354 18.2167 45.074C17.8347 45.9125 16.8461 46.2826 16.0092 45.9013ZM19.5625 38.0939C20.43 37.3148 21.208 36.4038 21.8804 35.4543C22.3865 34.7391 22.8319 34.0041 23.2087 33.2882C24.0027 31.7812 24.0899 30.6549 23.7927 30.0203C23.7014 29.8256 23.5756 29.6912 23.43 29.6232C23.2829 29.5548 23.0988 29.5453 22.895 29.6007C22.229 29.783 21.4447 30.5651 20.8339 32.1062C20.5236 32.888 20.2468 33.741 20.0295 34.6316C19.7555 35.7557 19.5804 36.9336 19.5621 38.0926L19.5625 38.0939Z" fill="#303F56"/>
<path d="M3.54573 17.6045C3.38213 17.9074 3.4954 18.2852 3.79839 18.4494C4.10138 18.6136 4.47955 18.5004 4.643 18.1982C4.88442 17.7527 5.13752 17.3481 5.40159 16.9837C6.96565 14.8262 8.96133 13.9691 11.0327 13.9061C11.5435 13.8908 12.0601 13.9224 12.5776 13.994C13.1925 15.4466 14.0917 16.8118 15.0979 18.0123C15.7213 18.7565 16.3908 19.4414 17.0609 20.0472C18.6143 21.4519 20.0701 21.8741 21.0885 21.6763C21.5927 21.5788 22.0023 21.3354 22.2872 20.982C22.5739 20.6265 22.7265 20.1744 22.7161 19.6607C22.6946 18.6151 21.9668 17.2613 20.2328 16.0042C19.5312 15.4952 18.7586 15.0022 17.9411 14.5598C16.5579 13.8106 15.0335 13.1993 13.4818 12.8856C13.3099 12.3992 13.1767 11.9058 13.09 11.4082C12.7359 9.37647 13.164 7.2596 14.9317 5.30368C15.2463 4.95575 15.607 4.6092 16.0167 4.26657C16.2805 4.04507 16.3147 3.65222 16.0939 3.38834C15.8725 3.12475 15.4794 3.08957 15.2159 3.31083C14.7657 3.68762 14.3632 4.07513 14.005 4.47191C11.944 6.75215 11.4471 9.23367 11.8634 11.6225C11.9259 11.9817 12.0095 12.3382 12.1122 12.6909C11.7394 12.6606 11.367 12.6503 10.9964 12.6616C8.55886 12.7355 6.21676 13.7348 4.39386 16.2493C4.09421 16.6622 3.8106 17.113 3.54529 17.6045L3.54573 17.6045ZM7.4612 8.88967C6.87939 9.60222 6.986 10.6526 7.69953 11.2352C8.41306 11.8178 9.46361 11.7127 10.0456 10.9999C10.6272 10.2876 10.5206 9.23717 9.80684 8.65436C9.09306 8.07156 8.04281 8.17736 7.4612 8.88967ZM14.1035 14.3176C15.2261 14.6322 16.327 15.1047 17.3503 15.6585C18.1207 16.0757 18.8454 16.5377 19.5002 17.0128C20.8792 18.0126 21.4561 18.984 21.4704 19.6845C21.4748 19.8995 21.4214 20.0758 21.321 20.2012C21.2194 20.3276 21.0585 20.4177 20.8512 20.4582C20.1733 20.5895 19.1239 20.2354 17.894 19.1239C17.2696 18.5602 16.6439 17.9179 16.0548 17.2154C15.3115 16.3288 14.6331 15.3501 14.1036 14.3189L14.1035 14.3176Z" fill="#303F56"/>
</svg>
