<svg width="110" height="106" viewBox="0 0 110 106" fill="none" xmlns="http://www.w3.org/2000/svg">
<path d="M7.75508 97.0065V95.2975L9.26875 95.0045V84.7994L7.75508 84.5065V82.7877H14.5227C15.6099 82.7877 16.5474 82.9798 17.3352 83.3639C18.1229 83.7415 18.7284 84.2721 19.1516 84.9557C19.5747 85.6328 19.7863 86.4238 19.7863 87.3287C19.7863 88.2337 19.5747 89.028 19.1516 89.7115C18.7284 90.3886 18.1229 90.916 17.3352 91.2936C16.5474 91.6647 15.6099 91.8502 14.5227 91.8502H12.1203V95.0045L13.6437 95.2975V97.0065H7.75508ZM12.1203 89.653H14.5227C15.3169 89.653 15.9159 89.4381 16.3195 89.0084C16.7297 88.5722 16.9348 88.0188 16.9348 87.3483C16.9348 86.6647 16.7297 86.1015 16.3195 85.6588C15.9159 85.2096 15.3169 84.985 14.5227 84.985H12.1203V89.653ZM26.9051 97.2115C25.8569 97.2115 24.9031 97.0944 24.0437 96.86C23.1844 96.6256 22.338 96.2187 21.5047 95.6393V92.2018H23.7117L24.0145 94.2233C24.3009 94.4707 24.7013 94.6725 25.2156 94.8287C25.7365 94.9785 26.2996 95.0533 26.9051 95.0533C27.6798 95.0533 28.2723 94.8971 28.6824 94.5846C29.0926 94.2656 29.2977 93.8359 29.2977 93.2955C29.2977 92.7877 29.1023 92.3613 28.7117 92.0162C28.3276 91.6647 27.6505 91.3392 26.6805 91.0397C24.9943 90.5514 23.7378 89.972 22.9109 89.3014C22.0841 88.6308 21.6707 87.7128 21.6707 86.5475C21.6707 85.7793 21.8823 85.1022 22.3055 84.5162C22.7352 83.9238 23.3276 83.4583 24.0828 83.1198C24.838 82.7812 25.7104 82.6054 26.7 82.5924C27.7937 82.5794 28.7605 82.7096 29.6004 82.983C30.4467 83.2565 31.1759 83.6373 31.7879 84.1256V87.3287H29.6492L29.2781 85.3756C29.0307 85.2194 28.6954 85.0826 28.2723 84.9655C27.8556 84.8483 27.3803 84.7897 26.8465 84.7897C26.1629 84.7897 25.603 84.9427 25.1668 85.2487C24.7306 85.5546 24.5125 85.9843 24.5125 86.5377C24.5125 87.013 24.7143 87.4101 25.118 87.7291C25.5281 88.0416 26.2801 88.3737 27.3738 88.7252C28.9428 89.1614 30.131 89.7376 30.9383 90.4537C31.7521 91.1699 32.159 92.1106 32.159 93.276C32.159 94.0898 31.9409 94.7897 31.5047 95.3756C31.0685 95.9615 30.4533 96.414 29.659 96.733C28.8712 97.052 27.9533 97.2115 26.9051 97.2115ZM37.559 97.0065V95.2975L39.0824 95.0045V92.1334L34.8637 84.7018L33.4965 84.5065V82.7877H39.1703V84.5065L38.0082 84.6725L40.3715 89.2135L40.5863 89.6725L40.6449 89.6627L40.8598 89.233L43.4867 84.6725L41.9242 84.5065V82.7877H47.4906V84.5065L46.0844 84.7018L41.9242 91.9088V95.0045L43.4477 95.2975V97.0065H37.559Z" fill="#1CA7C4"/>
<path d="M52.6953 93.1686L53.1348 95.3756L53.6719 93.2662L56.7578 82.7877H57.8418L60.8887 93.2662L61.416 95.3951L61.8848 93.1686L64.4531 82.7877H65.6836L62.041 97.0065H60.8887L57.666 85.8834L57.3047 84.4772L56.9531 85.8834L53.6523 97.0065H52.5L48.8672 82.7877H50.0977L52.6953 93.1686ZM76.2496 90.1901H69.5992V95.9908H77.2457V97.0065H68.398V82.7877H77.1969V83.8131H69.5992V89.1744H76.2496V90.1901ZM88.0363 90.1901H81.3859V95.9908H89.0324V97.0065H80.1848V82.7877H88.9836V83.8131H81.3859V89.1744H88.0363V90.1901ZM95.1746 89.9459L93.1727 91.9186V97.0065H91.9715V82.7877H93.1727V90.4537L100.458 82.7877H101.971L96.0145 89.1158L102.43 97.0065H100.966L95.1746 89.9459Z" fill="#303F56"/>
<path d="M67.7588 3.47049C68.2306 3.56126 68.539 4.01864 68.4491 4.4926C68.3592 4.96656 67.903 5.27643 67.4321 5.18609C66.7374 5.05341 66.0767 4.96962 65.4498 4.9334C61.7371 4.71911 59.0493 6.12441 57.153 8.31485C56.6856 8.85515 56.2637 9.44346 55.8845 10.068C56.9119 12.021 57.594 14.2049 58.0036 16.3591C58.2578 17.6942 58.4072 19.0266 58.4706 20.2896C58.6179 23.218 57.7895 25.1706 56.6769 26.0998C56.1265 26.5602 55.5017 26.7889 54.8683 26.785C54.231 26.781 53.6076 26.5462 53.0615 26.0801C51.9503 25.1309 51.1292 23.143 51.3008 20.1495C51.3699 18.938 51.5189 17.6636 51.7622 16.3853C52.1731 14.2219 52.8578 12.0276 53.8883 10.0671C53.5142 9.45 53.0985 8.86868 52.6371 8.33405C50.7534 6.15103 48.0873 4.74093 44.4129 4.92598C43.7591 4.95915 43.0662 5.04338 42.3341 5.18434C41.8619 5.27425 41.4071 4.96351 41.3167 4.49042C41.2272 4.01689 41.5361 3.55952 42.0079 3.46961C42.8124 3.31512 43.5866 3.22172 44.3317 3.18462C48.6156 2.96859 51.7365 4.62702 53.9513 7.19366C54.2845 7.57947 54.596 7.98578 54.8866 8.40956C55.1829 7.97836 55.5004 7.5655 55.8397 7.17359C58.071 4.5956 61.2184 2.94066 65.5454 3.1903C66.2561 3.23089 66.9938 3.32254 67.7592 3.47005L67.7588 3.47049ZM54.8827 0C56.1664 0 57.2078 1.04568 57.2078 2.33533C57.2078 3.62498 56.1669 4.6711 54.8827 4.6711C53.5994 4.6711 52.558 3.62542 52.558 2.33533C52.558 1.04525 53.5994 0 54.8827 0ZM54.8875 12.0092C54.2367 13.5053 53.7758 15.1175 53.4712 16.7174C53.2423 17.9224 53.1019 19.1173 53.0377 20.2481C52.9012 22.6289 53.4421 24.1145 54.1867 24.7503C54.4152 24.9454 54.6529 25.0436 54.877 25.0458C55.1034 25.0475 55.3427 24.9528 55.5695 24.7639C56.3098 24.145 56.8533 22.6934 56.7373 20.3756C56.6791 19.1994 56.537 17.9521 56.2976 16.6912C55.9953 15.1 55.5361 13.4979 54.8888 12.0105L54.8875 12.0092Z" fill="#1CA7C4"/>
<path d="M87.2614 27.8465C87.2806 27.3629 86.9075 26.9593 86.4278 26.9437C85.9481 26.928 85.5442 27.3083 85.5248 27.791C85.4955 28.5028 85.4266 29.1707 85.3193 29.7948C84.6836 33.4908 82.7114 35.824 80.1581 37.2069C79.5284 37.5477 78.8625 37.8331 78.1712 38.0688C76.5122 36.6302 74.551 35.4803 72.5566 34.6047C71.3208 34.0618 70.0636 33.6224 68.8542 33.2828C66.05 32.4951 63.9698 32.8806 62.8168 33.7701C62.2456 34.21 61.8821 34.7738 61.742 35.3972C61.6011 36.0245 61.687 36.6888 62.0146 37.3278C62.6819 38.6284 64.4217 39.8719 67.3613 40.3605C68.5509 40.5586 69.8196 40.6919 71.1135 40.7334C73.3031 40.8045 75.5849 40.6133 77.7186 40.031C78.2316 40.5341 78.7005 41.0703 79.1137 41.6412C80.8011 43.9719 81.5619 46.9018 80.5479 50.4726C80.3673 51.108 80.1282 51.7705 79.8254 52.459C79.631 52.9034 79.8288 53.4187 80.2666 53.6114C80.7052 53.8033 81.2185 53.6001 81.4128 53.1562C81.7453 52.3993 82.0116 51.6589 82.2168 50.9348C83.3992 46.7718 82.5012 43.3402 80.5173 40.5999C80.2191 40.1877 79.8962 39.7924 79.5515 39.4137C80.0367 39.2171 80.5089 38.9957 80.9657 38.7482C83.9705 37.1213 86.2891 34.3911 87.0301 30.0835C87.1522 29.3761 87.2309 28.6309 87.2619 27.8462L87.2614 27.8465ZM87.6993 41.2639C87.9909 40.0021 87.2142 38.7491 85.9646 38.4659C84.715 38.1828 83.4648 38.9761 83.1731 40.2383C82.8816 41.4996 83.6583 42.7527 84.9084 43.0359C86.1585 43.3192 87.4078 42.5252 87.6993 41.2639ZM76.0637 38.6225C74.4662 38.9337 72.7994 39.0327 71.1799 38.9808C69.9603 38.9412 68.7705 38.8168 67.6602 38.6317C65.3224 38.2431 64.0057 37.3853 63.5587 36.5139C63.4216 36.2465 63.3804 35.9913 63.4292 35.7705C63.4789 35.5477 63.6251 35.3332 63.8597 35.1518C64.6275 34.5601 66.1575 34.3447 68.3771 34.9676C69.5036 35.283 70.6799 35.6965 71.8473 36.2086C73.3205 36.8551 74.7686 37.6582 76.0628 38.6209L76.0637 38.6225Z" fill="#303F56"/>
<path d="M79.7591 55.6377C80.1521 55.357 80.2452 54.8132 79.9683 54.4221C79.6914 54.0309 79.1479 53.9424 78.7556 54.2223C78.1767 54.6346 77.6085 54.9885 77.0517 55.2851C73.754 57.0411 70.7248 56.9 68.0946 55.7152C67.4461 55.4229 66.8194 55.0679 66.2167 54.6621C66.3505 52.4621 66.0744 50.1984 65.562 48.0762C65.2448 46.7609 64.8331 45.492 64.3715 44.3221C63.3015 41.6094 61.7429 40.1907 60.3461 39.8178C59.6548 39.6326 58.991 39.6885 58.415 39.9585C57.8354 40.2302 57.3634 40.705 57.0571 41.3567C56.434 42.6835 56.5028 44.8283 57.8904 47.4656C58.4516 48.5331 59.1116 49.6239 59.8592 50.6786C61.1237 52.4638 62.6505 54.1619 64.3965 55.5028C64.3092 56.2188 64.1691 56.9199 63.9682 57.5979C63.1481 60.3664 61.2966 62.7645 57.8695 64.143C57.2596 64.3881 56.593 64.6034 55.8675 64.7838C55.3998 64.9011 55.1128 65.3738 55.225 65.84C55.3381 66.3063 55.8079 66.5903 56.2751 66.4732C57.0724 66.2745 57.8168 66.0333 58.5116 65.7534C62.5073 64.1465 64.6715 61.3322 65.6357 58.0772C65.7809 57.5878 65.8979 57.089 65.9887 56.5831C66.4362 56.8487 66.8956 57.0888 67.3662 57.3008C70.4613 58.6954 74.0123 58.8691 77.8557 56.8226C78.4872 56.4868 79.1223 56.0935 79.7597 55.6379L79.7591 55.6377ZM69.4436 64.1966C70.6144 63.6564 71.134 62.2718 70.6036 61.1045C70.0732 59.9372 68.6937 59.4283 67.5226 59.9686C66.3522 60.5085 65.8326 61.8932 66.3632 63.0609C66.8937 64.2286 68.2733 64.7365 69.4436 64.1966ZM64.5091 53.3246C63.3003 52.2442 62.2169 50.9789 61.2812 49.6589C60.5769 48.6645 59.9575 47.642 59.4338 46.6455C58.3303 44.548 58.2126 42.9758 58.6301 42.0869C58.7583 41.8142 58.9346 41.6253 59.1382 41.529C59.3439 41.4322 59.6011 41.4172 59.8857 41.4929C60.8153 41.7416 61.9079 42.8268 62.7553 44.9736C63.186 46.0627 63.5694 47.2514 63.8696 48.4934C64.2483 50.0609 64.4884 51.7042 64.5097 53.3228L64.5091 53.3246Z" fill="#303F56"/>
<path d="M86.5851 24.9656C86.8049 25.3941 86.6354 25.9189 86.2069 26.1392C85.7784 26.3595 85.2531 26.1897 85.0335 25.7622C84.7091 25.1319 84.3672 24.5585 84.0088 24.041C81.8859 20.9767 79.1211 19.7175 76.227 19.5661C75.5133 19.5289 74.79 19.5574 74.0645 19.6417C73.1619 21.6538 71.8644 23.5349 70.4221 25.1827C69.5284 26.2041 68.5722 27.1411 67.6175 27.9676C65.404 29.884 63.3562 30.4299 61.9384 30.1222C61.2363 29.9705 60.6708 29.6176 60.2829 29.1149C59.8927 28.609 59.6926 27.9723 59.7224 27.2544C59.7834 25.7932 60.8409 23.9226 63.3023 22.2181C64.2983 21.528 65.3931 20.8623 66.5491 20.2687C68.5051 19.2635 70.6544 18.4555 72.8331 18.0644C73.0878 17.3896 73.2887 16.7038 73.4246 16.0108C73.9797 13.181 73.4437 10.2083 71.0302 7.41966C70.6005 6.92361 70.1066 6.42805 69.5438 5.93649C69.1816 5.61875 69.1454 5.06846 69.4619 4.70628C69.7793 4.34452 70.3298 4.30736 70.6918 4.62475C71.3099 5.16531 71.8613 5.71939 72.3503 6.2851C75.1644 9.53613 75.7858 13.0208 75.1331 16.3478C75.0352 16.8482 74.9077 17.344 74.7536 17.834C75.2758 17.803 75.7967 17.8001 76.3145 17.8272C79.7202 18.0049 82.9652 19.4738 85.4394 23.045C85.8462 23.6314 86.2293 24.2704 86.5857 24.9657L86.5851 24.9656ZM81.3686 12.6617C82.1609 13.6757 81.9808 15.141 80.966 15.9337C79.9512 16.7265 78.4856 16.5473 77.6929 15.533C76.9009 14.5193 77.081 13.054 78.0961 12.261C79.1113 11.468 80.5765 11.648 81.3686 12.6617ZM71.9216 20.0474C70.3427 20.453 68.7896 21.0799 67.3426 21.8228C66.2531 22.3827 65.2262 23.0064 64.2967 23.6507C62.3392 25.0063 61.504 26.3467 61.4632 27.3258C61.4508 27.6262 61.5202 27.8743 61.6568 28.0527C61.7952 28.2325 62.0174 28.3634 62.3061 28.4263C63.25 28.6307 64.7276 28.1677 66.48 26.6513C67.3695 25.8823 68.2634 25.0034 69.1078 24.0393C70.1732 22.8223 71.1505 21.4748 71.9214 20.0493L71.9216 20.0474Z" fill="#303F56"/>
<path d="M21.858 27.8782C21.8318 27.3949 22.199 26.9859 22.6784 26.9632C23.1578 26.9404 23.5671 27.3147 23.5935 27.797C23.6331 28.5084 23.7116 29.1751 23.8279 29.7975C24.517 33.4837 26.5227 35.7874 29.0956 37.1324C29.7301 37.4639 30.4 37.7395 31.0947 37.9649C32.7327 36.502 34.677 35.3233 36.6584 34.4184C37.8863 33.8574 39.1369 33.3995 40.3412 33.042C43.1336 32.213 45.2191 32.5679 46.3849 33.4402C46.9623 33.8716 47.3339 34.43 47.483 35.0512C47.633 35.6763 47.5567 36.3417 47.2384 36.9855C46.5899 38.2958 44.8684 39.5648 41.9363 40.0967C40.7497 40.3123 39.4831 40.4643 38.19 40.525C36.0017 40.6283 33.7174 40.4709 31.5756 39.9201C31.0699 40.4307 30.6089 40.9738 30.204 41.5506C28.5505 43.9059 27.8322 46.8467 28.8977 50.402C29.0875 51.0346 29.336 51.6935 29.6488 52.3775C29.8496 52.819 29.6593 53.3371 29.2243 53.5362C28.7886 53.7346 28.2724 53.539 28.0717 53.098C27.7283 52.3461 27.4513 51.6098 27.2357 50.8888C25.9932 46.7438 26.8415 43.2994 28.7856 40.5303C29.0777 40.1137 29.3949 39.7137 29.734 39.3299C29.2461 39.1406 28.7708 38.9261 28.3104 38.6855C25.2825 37.103 22.9248 34.4075 22.1216 30.1115C21.9893 29.4059 21.8997 28.6621 21.8575 27.8779L21.858 27.8782ZM21.6141 41.3001C21.3043 40.0428 22.0627 38.7785 23.3081 38.4769C24.5535 38.1754 25.8149 38.9502 26.1248 40.2079C26.4345 41.4647 25.676 42.7291 24.4302 43.0307C23.1845 43.3324 21.9238 42.5569 21.6141 41.3001ZM33.2099 38.4874C34.8117 38.7749 36.4797 38.8494 38.0982 38.7735C39.3171 38.716 40.5049 38.574 41.6124 38.3726C43.9443 37.9495 45.2484 37.0725 45.6827 36.1945C45.816 35.9251 45.8534 35.6694 45.8014 35.4494C45.7485 35.2273 45.5993 35.015 45.3621 34.8371C44.5858 34.2568 43.0529 34.064 40.8426 34.7195C39.7208 35.0516 38.5506 35.4823 37.3908 36.0116C35.9272 36.6798 34.4909 37.5041 33.2108 38.4858L33.2099 38.4874Z" fill="#303F56"/>
<path d="M30.0515 55.6379C29.6585 55.3572 29.5654 54.8134 29.8423 54.4223C30.1192 54.0311 30.6627 53.9425 31.055 54.2224C31.6339 54.6348 32.2021 54.9887 32.7589 55.2852C36.0565 57.0413 39.0857 56.9001 41.7159 55.7153C42.3644 55.4229 42.991 55.0679 43.5938 54.6622C43.46 52.4621 43.7361 50.1984 44.2485 48.0761C44.5658 46.7608 44.9775 45.4919 45.4391 44.3219C46.5091 41.6093 48.0677 40.1905 49.4644 39.8175C50.1558 39.6324 50.8195 39.6882 51.3955 39.9583C51.9751 40.23 52.4471 40.7048 52.7534 41.3565C53.3765 42.6832 53.3077 44.8281 51.9201 47.4654C51.3589 48.533 50.6989 49.6238 49.9513 50.6785C48.6868 52.4638 47.1599 54.1619 45.4139 55.5029C45.5012 56.2188 45.6413 56.9199 45.8422 57.598C46.6622 60.3665 48.5137 62.7646 51.9407 64.1431C52.5507 64.3882 53.2172 64.6034 53.9428 64.7838C54.4104 64.9012 54.6974 65.3738 54.5852 65.84C54.4721 66.3063 54.0023 66.5903 53.5351 66.4732C52.7378 66.2745 51.9934 66.0334 51.2987 65.7535C47.303 64.1466 45.1389 61.3323 44.1747 58.0773C44.0295 57.5879 43.9125 57.089 43.8218 56.5832C43.3742 56.8488 42.9148 57.0889 42.4442 57.3009C39.3492 58.6956 35.7982 58.8693 31.9548 56.8228C31.3233 56.487 30.6883 56.0937 30.0509 55.6381L30.0515 55.6379ZM40.3668 64.1967C39.196 63.6566 38.6764 62.272 39.2068 61.1046C39.7372 59.9373 41.1167 59.4284 42.2878 59.9687C43.4582 60.5086 43.9778 61.8933 43.4472 63.061C42.9166 64.2287 41.5371 64.7367 40.3668 64.1967ZM45.3014 53.3245C46.5101 52.2442 47.5935 50.9789 48.5293 49.6588C49.2336 48.6644 49.853 47.6419 50.3767 46.6454C51.4802 44.5478 51.5979 42.9756 51.1804 42.0867C51.0522 41.814 50.8759 41.6251 50.6724 41.5288C50.4667 41.432 50.2094 41.417 49.9249 41.4927C48.9953 41.7414 47.9027 42.8266 47.0552 44.9734C46.6246 46.0625 46.2411 47.2513 45.9409 48.4933C45.5622 50.0608 45.3221 51.7042 45.3007 53.3228L45.3014 53.3245Z" fill="#303F56"/>
<path d="M22.909 24.6248C22.6801 25.0484 22.8383 25.5767 23.262 25.8062C23.6856 26.0357 24.2145 25.8773 24.4432 25.4546C24.781 24.8315 25.1351 24.2655 25.5046 23.756C27.6928 20.7382 30.484 19.5388 33.3807 19.4498C34.095 19.4281 34.8176 19.4721 35.5411 19.5721C36.4004 21.6031 37.6573 23.5118 39.064 25.1903C39.9356 26.2307 40.8715 27.1882 41.8083 28.0351C43.9802 29.9988 46.0159 30.5886 47.44 30.3116C48.1452 30.175 48.7182 29.8344 49.1167 29.3402C49.5177 28.8429 49.7314 28.2106 49.7171 27.4923C49.6874 26.03 48.6702 24.1372 46.2458 22.38C45.2648 21.6685 44.1846 20.9794 43.0415 20.361C41.1075 19.3139 38.9759 18.4597 36.8061 18.0217C36.5659 17.3416 36.3798 16.6517 36.2588 15.9558C35.7644 13.1148 36.364 10.1543 38.8369 7.41838C39.2771 6.93171 39.7816 6.44693 40.3547 5.96762C40.7237 5.65776 40.7717 5.10838 40.463 4.73947C40.1535 4.37095 39.6038 4.32192 39.2352 4.63144C38.6055 5.15853 38.0424 5.7006 37.5414 6.25562C34.6581 9.4452 33.9622 12.9156 34.5434 16.256C34.6306 16.7583 34.7474 17.2567 34.8909 17.75C34.3695 17.7077 33.8488 17.6936 33.3305 17.7095C29.9217 17.8138 26.6459 19.2123 24.0956 22.7294C23.6764 23.3068 23.2796 23.9374 22.9084 24.6249L22.909 24.6248ZM28.3882 12.4362C27.5743 13.4329 27.723 14.9018 28.7206 15.7162C29.7182 16.5306 31.1873 16.3831 32.0016 15.3861C32.8152 14.3897 32.6666 12.9209 31.6686 12.1062C30.6707 11.2915 29.2019 11.4399 28.3882 12.4362ZM37.6749 20.0239C39.2448 20.4635 40.7841 21.1237 42.2148 21.8977C43.2921 22.4809 44.3054 23.1265 45.2209 23.7907C47.149 25.1883 47.9552 26.5464 47.975 27.5261C47.981 27.8267 47.9063 28.0732 47.7659 28.2486C47.6237 28.4254 47.3987 28.5515 47.1087 28.6082C46.1607 28.7921 44.6932 28.2974 42.9738 26.7436C42.1009 25.9556 41.2261 25.0576 40.4025 24.0755C39.3634 22.8359 38.4152 21.4676 37.6751 20.0258L37.6749 20.0239Z" fill="#303F56"/>
</svg>
