<svg width="44" height="43" viewBox="0 0 44 43" fill="none" xmlns="http://www.w3.org/2000/svg">
<path d="M42.5483 5.73325C43.3023 5.87629 43.7952 6.59699 43.6515 7.34382C43.5078 8.09066 42.7788 8.57892 42.0262 8.43657C40.916 8.22751 39.86 8.09547 38.8581 8.0384C32.9246 7.70074 28.629 9.91511 25.5984 13.3666C24.8514 14.218 24.1772 15.145 23.5711 16.1291C25.2131 19.2065 26.3032 22.6478 26.9579 26.0422C27.364 28.1459 27.6029 30.2454 27.7042 32.2356C27.9396 36.85 26.6156 39.9267 24.8375 41.3908C23.9578 42.1164 22.9594 42.4767 21.9471 42.4705C20.9286 42.4643 19.9323 42.0943 19.0596 41.3599C17.2836 39.8642 15.9714 36.7317 16.2456 32.0148C16.356 30.1058 16.5941 28.0977 16.9829 26.0835C17.6397 22.6746 18.734 19.2169 20.3808 16.1277C19.783 15.1553 19.1186 14.2393 18.3812 13.3969C15.3708 9.95706 11.1099 7.73512 5.23755 8.0267C4.19263 8.07897 3.08523 8.21169 1.91535 8.43382C1.16065 8.57548 0.433721 8.08585 0.289308 7.34039C0.146283 6.59424 0.639927 5.87354 1.39393 5.73187C2.67977 5.48843 3.917 5.34126 5.10772 5.28281C11.9542 4.9424 16.942 7.55563 20.4815 11.6C21.014 12.2079 21.5118 12.8481 21.9763 13.5159C22.4498 12.8364 22.9573 12.1859 23.4996 11.5683C27.0655 7.50612 32.0957 4.89839 39.0108 5.29175C40.1467 5.3557 41.3256 5.50012 42.549 5.73256L42.5483 5.73325ZM21.9701 0.264709C24.0217 0.264709 25.6859 1.91242 25.6859 3.94456C25.6859 5.97669 24.0224 7.62509 21.9701 7.62509C19.9191 7.62509 18.2549 5.97738 18.2549 3.94456C18.2549 1.91173 19.9191 0.264709 21.9701 0.264709ZM21.9777 19.188C20.9376 21.5454 20.201 24.0857 19.7143 26.6068C19.3484 28.5055 19.1241 30.3884 19.0214 32.1702C18.8034 35.9216 19.6678 38.2625 20.8578 39.2645C21.223 39.5719 21.6028 39.7266 21.961 39.7301C22.3228 39.7328 22.7053 39.5836 23.0677 39.2858C24.2508 38.3107 25.1194 36.0234 24.934 32.371C24.841 30.5177 24.6139 28.5523 24.2314 26.5655C23.7481 24.0582 23.0143 21.5337 21.9798 19.19L21.9777 19.188Z" fill="#1CA7C4"/>
</svg>
