<svg width="11" height="12" viewBox="0 0 11 12" fill="none" xmlns="http://www.w3.org/2000/svg">
<path d="M10.4457 9.12061C10.3787 8.94427 10.2307 8.82028 10.0573 8.7951C8.46094 8.564 7.08719 7.41434 6.47226 5.79471C5.85725 4.17501 6.08334 2.30231 7.06236 0.907505C7.16877 0.755981 7.19302 0.554044 7.12609 0.377705C7.05915 0.201367 6.91111 0.0773665 6.7377 0.0521956C6.49814 0.0176125 6.2546 0 6.01373 0C5.2916 0 4.58535 0.153663 3.91452 0.456783C2.55732 1.07008 1.50033 2.22316 0.938333 3.70375C0.376404 5.18412 0.376535 6.81467 0.938594 8.29511C1.79315 10.5457 3.78811 11.9999 6.02099 11.9999C6.02105 11.9999 6.02105 11.9999 6.02105 11.9999C6.74338 11.9999 7.45068 11.8458 8.1234 11.5419C9.01522 11.1388 9.79618 10.4848 10.3819 9.65027C10.4883 9.49882 10.5126 9.29695 10.4457 9.12061ZM7.74821 10.5538C7.19504 10.8037 6.61396 10.9305 6.02105 10.9304C4.18611 10.9304 2.54666 9.73534 1.8444 7.88582C1.38248 6.66927 1.38241 5.32937 1.84414 4.11297C2.306 2.89643 3.17448 1.94892 4.28971 1.44501C4.77497 1.22574 5.28251 1.1016 5.8013 1.07507C5.03256 2.64529 4.93256 4.53489 5.56632 6.20408C6.19995 7.87298 7.49513 9.13181 9.0562 9.6492C8.67284 10.0289 8.23027 10.3359 7.74821 10.5538Z" fill="url(#paint0_linear)"/>
<path d="M10.4457 9.12061C10.3787 8.94427 10.2307 8.82028 10.0573 8.7951C8.46094 8.564 7.08719 7.41434 6.47226 5.79471C5.85725 4.17501 6.08334 2.30231 7.06236 0.907505C7.16877 0.755981 7.19302 0.554044 7.12609 0.377705C7.05915 0.201367 6.91111 0.0773665 6.7377 0.0521956C6.49814 0.0176125 6.2546 0 6.01373 0C5.2916 0 4.58535 0.153663 3.91452 0.456783C2.55732 1.07008 1.50033 2.22316 0.938333 3.70375C0.376404 5.18412 0.376535 6.81467 0.938594 8.29511C1.79315 10.5457 3.78811 11.9999 6.02099 11.9999C6.02105 11.9999 6.02105 11.9999 6.02105 11.9999C6.74338 11.9999 7.45068 11.8458 8.1234 11.5419C9.01522 11.1388 9.79618 10.4848 10.3819 9.65027C10.4883 9.49882 10.5126 9.29695 10.4457 9.12061ZM7.74821 10.5538C7.19504 10.8037 6.61396 10.9305 6.02105 10.9304C4.18611 10.9304 2.54666 9.73534 1.8444 7.88582C1.38248 6.66927 1.38241 5.32937 1.84414 4.11297C2.306 2.89643 3.17448 1.94892 4.28971 1.44501C4.77497 1.22574 5.28251 1.1016 5.8013 1.07507C5.03256 2.64529 4.93256 4.53489 5.56632 6.20408C6.19995 7.87298 7.49513 9.13181 9.0562 9.6492C8.67284 10.0289 8.23027 10.3359 7.74821 10.5538Z" fill="url(#paint1_linear)"/>
<path d="M10.4457 9.12061C10.3787 8.94427 10.2307 8.82028 10.0573 8.7951C8.46094 8.564 7.08719 7.41434 6.47226 5.79471C5.85725 4.17501 6.08334 2.30231 7.06236 0.907505C7.16877 0.755981 7.19302 0.554044 7.12609 0.377705C7.05915 0.201367 6.91111 0.0773665 6.7377 0.0521956C6.49814 0.0176125 6.2546 0 6.01373 0C5.2916 0 4.58535 0.153663 3.91452 0.456783C2.55732 1.07008 1.50033 2.22316 0.938333 3.70375C0.376404 5.18412 0.376535 6.81467 0.938594 8.29511C1.79315 10.5457 3.78811 11.9999 6.02099 11.9999C6.02105 11.9999 6.02105 11.9999 6.02105 11.9999C6.74338 11.9999 7.45068 11.8458 8.1234 11.5419C9.01522 11.1388 9.79618 10.4848 10.3819 9.65027C10.4883 9.49882 10.5126 9.29695 10.4457 9.12061ZM7.74821 10.5538C7.19504 10.8037 6.61396 10.9305 6.02105 10.9304C4.18611 10.9304 2.54666 9.73534 1.8444 7.88582C1.38248 6.66927 1.38241 5.32937 1.84414 4.11297C2.306 2.89643 3.17448 1.94892 4.28971 1.44501C4.77497 1.22574 5.28251 1.1016 5.8013 1.07507C5.03256 2.64529 4.93256 4.53489 5.56632 6.20408C6.19995 7.87298 7.49513 9.13181 9.0562 9.6492C8.67284 10.0289 8.23027 10.3359 7.74821 10.5538Z" fill="#303F56"/>
<defs>
<linearGradient id="paint0_linear" x1="0.516968" y1="5.99996" x2="10.7261" y2="5.99996" gradientUnits="userSpaceOnUse">
<stop stop-color="#23A3CF"/>
<stop offset="1" stop-color="#25D4CA"/>
</linearGradient>
<linearGradient id="paint1_linear" x1="0.516968" y1="8.99996" x2="11.5927" y2="8.99117" gradientUnits="userSpaceOnUse">
<stop stop-color="#217BFC"/>
<stop offset="1" stop-color="#31CAE4"/>
</linearGradient>
</defs>
</svg>
