<svg width="14" height="14" viewBox="0 0 14 14" fill="none" xmlns="http://www.w3.org/2000/svg">
<path d="M6.79954 3.05418C7.07108 3.05418 7.29122 2.8341 7.29122 2.5625V1.00297C7.29122 0.731366 7.07114 0.511292 6.79954 0.511292C6.528 0.511292 6.30786 0.731366 6.30786 1.00297V2.5625C6.30786 2.8341 6.528 3.05418 6.79954 3.05418Z" fill="url(#paint0_linear)"/>
<path d="M6.79954 3.05418C7.07108 3.05418 7.29122 2.8341 7.29122 2.5625V1.00297C7.29122 0.731366 7.07114 0.511292 6.79954 0.511292C6.528 0.511292 6.30786 0.731366 6.30786 1.00297V2.5625C6.30786 2.8341 6.528 3.05418 6.79954 3.05418Z" fill="url(#paint1_linear)"/>
<path d="M6.79954 3.05418C7.07108 3.05418 7.29122 2.8341 7.29122 2.5625V1.00297C7.29122 0.731366 7.07114 0.511292 6.79954 0.511292C6.528 0.511292 6.30786 0.731366 6.30786 1.00297V2.5625C6.30786 2.8341 6.528 3.05418 6.79954 3.05418Z" fill="#303F56"/>
<path d="M10.9918 4.79018C11.1176 4.79018 11.2434 4.74219 11.3393 4.64628L12.4423 3.54381C12.6343 3.3518 12.6344 3.04047 12.4425 2.84852C12.2504 2.65637 11.939 2.65644 11.7472 2.84832L10.6442 3.95079C10.4522 4.14281 10.4521 4.45414 10.644 4.64609C10.7401 4.74213 10.8659 4.79018 10.9918 4.79018Z" fill="url(#paint2_linear)"/>
<path d="M10.9918 4.79018C11.1176 4.79018 11.2434 4.74219 11.3393 4.64628L12.4423 3.54381C12.6343 3.3518 12.6344 3.04047 12.4425 2.84852C12.2504 2.65637 11.939 2.65644 11.7472 2.84832L10.6442 3.95079C10.4522 4.14281 10.4521 4.45414 10.644 4.64609C10.7401 4.74213 10.8659 4.79018 10.9918 4.79018Z" fill="url(#paint3_linear)"/>
<path d="M10.9918 4.79018C11.1176 4.79018 11.2434 4.74219 11.3393 4.64628L12.4423 3.54381C12.6343 3.3518 12.6344 3.04047 12.4425 2.84852C12.2504 2.65637 11.939 2.65644 11.7472 2.84832L10.6442 3.95079C10.4522 4.14281 10.4521 4.45414 10.644 4.64609C10.7401 4.74213 10.8659 4.79018 10.9918 4.79018Z" fill="#303F56"/>
<path d="M2.2607 4.6461C2.35667 4.74214 2.48254 4.79012 2.60835 4.79012C2.73415 4.79012 2.86002 4.74214 2.95599 4.64616C3.14801 4.45415 3.14801 4.14282 2.95599 3.95087L1.85359 2.84833C1.66157 2.65625 1.35024 2.65631 1.15829 2.84826C0.966278 3.04028 0.966278 3.35161 1.15829 3.54356L2.2607 4.6461Z" fill="url(#paint4_linear)"/>
<path d="M2.2607 4.6461C2.35667 4.74214 2.48254 4.79012 2.60835 4.79012C2.73415 4.79012 2.86002 4.74214 2.95599 4.64616C3.14801 4.45415 3.14801 4.14282 2.95599 3.95087L1.85359 2.84833C1.66157 2.65625 1.35024 2.65631 1.15829 2.84826C0.966278 3.04028 0.966278 3.35161 1.15829 3.54356L2.2607 4.6461Z" fill="url(#paint5_linear)"/>
<path d="M2.2607 4.6461C2.35667 4.74214 2.48254 4.79012 2.60835 4.79012C2.73415 4.79012 2.86002 4.74214 2.95599 4.64616C3.14801 4.45415 3.14801 4.14282 2.95599 3.95087L1.85359 2.84833C1.66157 2.65625 1.35024 2.65631 1.15829 2.84826C0.966278 3.04028 0.966278 3.35161 1.15829 3.54356L2.2607 4.6461Z" fill="#303F56"/>
<path d="M1.38279 8.98259H13.1784C13.45 8.98259 13.6701 8.76252 13.6701 8.49092C13.6701 8.21931 13.45 7.99924 13.1784 7.99924H10.9828C10.7383 5.90752 8.95638 4.27863 6.80008 4.27863C4.64398 4.27863 2.86215 5.90752 2.61775 7.99924H1.38279C1.11125 7.99924 0.891113 8.21931 0.891113 8.49092C0.891113 8.76245 1.11125 8.98259 1.38279 8.98259ZM6.80008 5.26198C8.41344 5.26198 9.75421 6.45138 9.99172 7.99924H3.60884C3.84629 6.45131 5.18693 5.26198 6.80008 5.26198Z" fill="url(#paint6_linear)"/>
<path d="M1.38279 8.98259H13.1784C13.45 8.98259 13.6701 8.76252 13.6701 8.49092C13.6701 8.21931 13.45 7.99924 13.1784 7.99924H10.9828C10.7383 5.90752 8.95638 4.27863 6.80008 4.27863C4.64398 4.27863 2.86215 5.90752 2.61775 7.99924H1.38279C1.11125 7.99924 0.891113 8.21931 0.891113 8.49092C0.891113 8.76245 1.11125 8.98259 1.38279 8.98259ZM6.80008 5.26198C8.41344 5.26198 9.75421 6.45138 9.99172 7.99924H3.60884C3.84629 6.45131 5.18693 5.26198 6.80008 5.26198Z" fill="url(#paint7_linear)"/>
<path d="M1.38279 8.98259H13.1784C13.45 8.98259 13.6701 8.76252 13.6701 8.49092C13.6701 8.21931 13.45 7.99924 13.1784 7.99924H10.9828C10.7383 5.90752 8.95638 4.27863 6.80008 4.27863C4.64398 4.27863 2.86215 5.90752 2.61775 7.99924H1.38279C1.11125 7.99924 0.891113 8.21931 0.891113 8.49092C0.891113 8.76245 1.11125 8.98259 1.38279 8.98259ZM6.80008 5.26198C8.41344 5.26198 9.75421 6.45138 9.99172 7.99924H3.60884C3.84629 6.45131 5.18693 5.26198 6.80008 5.26198Z" fill="#303F56"/>
<path d="M12.1051 10.7439C12.1051 10.4723 11.8851 10.2523 11.6135 10.2523H0.491677C0.22014 10.2523 0 10.4723 0 10.7439C0 11.0155 0.22014 11.2356 0.491677 11.2356H11.6135C11.885 11.2356 12.1051 11.0155 12.1051 10.7439Z" fill="url(#paint8_linear)"/>
<path d="M12.1051 10.7439C12.1051 10.4723 11.8851 10.2523 11.6135 10.2523H0.491677C0.22014 10.2523 0 10.4723 0 10.7439C0 11.0155 0.22014 11.2356 0.491677 11.2356H11.6135C11.885 11.2356 12.1051 11.0155 12.1051 10.7439Z" fill="url(#paint9_linear)"/>
<path d="M12.1051 10.7439C12.1051 10.4723 11.8851 10.2523 11.6135 10.2523H0.491677C0.22014 10.2523 0 10.4723 0 10.7439C0 11.0155 0.22014 11.2356 0.491677 11.2356H11.6135C11.885 11.2356 12.1051 11.0155 12.1051 10.7439Z" fill="#303F56"/>
<path d="M13.5083 12.5054H2.40562C2.13408 12.5054 1.91394 12.7254 1.91394 12.997C1.91394 13.2687 2.13408 13.4887 2.40562 13.4887H13.5083C13.7799 13.4887 13.9999 13.2687 13.9999 12.997C13.9999 12.7254 13.7799 12.5054 13.5083 12.5054Z" fill="url(#paint10_linear)"/>
<path d="M13.5083 12.5054H2.40562C2.13408 12.5054 1.91394 12.7254 1.91394 12.997C1.91394 13.2687 2.13408 13.4887 2.40562 13.4887H13.5083C13.7799 13.4887 13.9999 13.2687 13.9999 12.997C13.9999 12.7254 13.7799 12.5054 13.5083 12.5054Z" fill="url(#paint11_linear)"/>
<path d="M13.5083 12.5054H2.40562C2.13408 12.5054 1.91394 12.7254 1.91394 12.997C1.91394 13.2687 2.13408 13.4887 2.40562 13.4887H13.5083C13.7799 13.4887 13.9999 13.2687 13.9999 12.997C13.9999 12.7254 13.7799 12.5054 13.5083 12.5054Z" fill="#303F56"/>
<defs>
<linearGradient id="paint0_linear" x1="6.30786" y1="1.78273" x2="7.3152" y2="1.78273" gradientUnits="userSpaceOnUse">
<stop stop-color="#23A3CF"/>
<stop offset="1" stop-color="#25D4CA"/>
</linearGradient>
<linearGradient id="paint1_linear" x1="6.30786" y1="2.41846" x2="7.40071" y2="2.41806" gradientUnits="userSpaceOnUse">
<stop stop-color="#217BFC"/>
<stop offset="1" stop-color="#31CAE4"/>
</linearGradient>
<linearGradient id="paint2_linear" x1="10.5001" y1="3.74729" x2="12.6373" y2="3.74729" gradientUnits="userSpaceOnUse">
<stop stop-color="#23A3CF"/>
<stop offset="1" stop-color="#25D4CA"/>
</linearGradient>
<linearGradient id="paint3_linear" x1="10.5001" y1="4.26874" x2="12.8187" y2="4.26652" gradientUnits="userSpaceOnUse">
<stop stop-color="#217BFC"/>
<stop offset="1" stop-color="#31CAE4"/>
</linearGradient>
<linearGradient id="paint4_linear" x1="1.01428" y1="3.7472" x2="3.15088" y2="3.7472" gradientUnits="userSpaceOnUse">
<stop stop-color="#23A3CF"/>
<stop offset="1" stop-color="#25D4CA"/>
</linearGradient>
<linearGradient id="paint5_linear" x1="1.01428" y1="4.26867" x2="3.33225" y2="4.26645" gradientUnits="userSpaceOnUse">
<stop stop-color="#217BFC"/>
<stop offset="1" stop-color="#31CAE4"/>
</linearGradient>
<linearGradient id="paint6_linear" x1="0.891113" y1="6.63061" x2="13.9817" y2="6.63061" gradientUnits="userSpaceOnUse">
<stop stop-color="#23A3CF"/>
<stop offset="1" stop-color="#25D4CA"/>
</linearGradient>
<linearGradient id="paint7_linear" x1="0.891113" y1="7.80661" x2="15.0929" y2="7.76972" gradientUnits="userSpaceOnUse">
<stop stop-color="#217BFC"/>
<stop offset="1" stop-color="#31CAE4"/>
</linearGradient>
<linearGradient id="paint8_linear" x1="2.25476e-08" y1="10.7439" x2="12.4004" y2="10.7439" gradientUnits="userSpaceOnUse">
<stop stop-color="#23A3CF"/>
<stop offset="1" stop-color="#25D4CA"/>
</linearGradient>
<linearGradient id="paint9_linear" x1="-1.02066e-07" y1="10.9898" x2="13.4512" y2="10.8315" gradientUnits="userSpaceOnUse">
<stop stop-color="#217BFC"/>
<stop offset="1" stop-color="#31CAE4"/>
</linearGradient>
<linearGradient id="paint10_linear" x1="1.91394" y1="12.997" x2="14.2947" y2="12.997" gradientUnits="userSpaceOnUse">
<stop stop-color="#23A3CF"/>
<stop offset="1" stop-color="#25D4CA"/>
</linearGradient>
<linearGradient id="paint11_linear" x1="1.91394" y1="13.2429" x2="15.3439" y2="13.0851" gradientUnits="userSpaceOnUse">
<stop stop-color="#217BFC"/>
<stop offset="1" stop-color="#31CAE4"/>
</linearGradient>
</defs>
</svg>
