<svg width="49" height="50" viewBox="0 0 49 50" fill="none" xmlns="http://www.w3.org/2000/svg">
<path d="M30.6568 6.58275C30.6568 2.95302 27.7038 0 24.0741 0C20.4444 0 17.4913 2.95302 17.4913 6.58275C17.4913 10.2125 20.4444 13.1655 24.0741 13.1655C27.7038 13.1655 30.6568 10.2125 30.6568 6.58275ZM24.0741 11.2847C21.4814 11.2847 19.3721 9.17542 19.3721 6.58275C19.3721 3.99009 21.4814 1.88079 24.0741 1.88079C26.6668 1.88079 28.7761 3.99009 28.7761 6.58275C28.7761 9.17542 26.6668 11.2847 24.0741 11.2847Z" fill="#303F56"/>
<path d="M11.0967 28.1828C12.8207 28.1828 14.6318 27.8798 16.1544 27.3529C16.5845 29.6074 17.0188 31.9178 17.2696 34.0957C13.0529 34.2264 10.1841 34.5293 8.05316 35.064C4.95588 35.8411 3.38542 37.2278 3.38542 39.1854C3.38542 41.4772 5.6482 44.1311 9.43836 46.2846C9.89361 46.5433 10.4661 46.3793 10.7205 45.9315C10.9771 45.48 10.819 44.906 10.3675 44.6494C6.84353 42.6471 5.26621 40.4624 5.26621 39.1854C5.26621 36.5588 12.7221 36.08 18.3304 35.9483C20.1469 36.7974 22.1104 37.223 24.0741 37.223C26.0378 37.223 28.0013 36.7974 29.8177 35.9483C35.426 36.08 42.882 36.5588 42.882 39.1854C42.882 42.341 36.4338 45.5699 33.3515 46.6068C33.0815 45.3335 32.3843 44.1895 31.3461 43.3625C31.0467 43.124 30.7271 42.9193 30.3935 42.7454C31.9578 42.1071 33.4696 41.5364 35.3588 41.5364C35.8782 41.5364 36.2992 41.1154 36.2992 40.596C36.2992 40.0767 35.8782 39.6556 35.3588 39.6556C32.9701 39.6556 31.1345 40.4085 29.3593 41.1366C28.2917 41.5744 27.2832 41.988 26.1677 42.2394C26.1634 42.2403 26.159 42.2413 26.1547 42.2424C25.61 42.3728 24.8201 42.4768 24.0741 42.4768C22.0561 42.4768 20.469 41.8258 18.7886 41.1366C17.0135 40.4085 15.1781 39.6556 12.7894 39.6556C12.27 39.6556 11.849 40.0767 11.849 40.596C11.849 41.1154 12.27 41.5364 12.7894 41.5364C14.8073 41.5364 16.3945 42.1875 18.0748 42.8767C19.8499 43.6047 21.6854 44.3576 24.0741 44.3576C24.9975 44.3576 25.947 44.2274 26.6316 44.063C27.9023 43.7715 29.1935 44.0524 30.1743 44.8336C30.9187 45.4267 31.3918 46.2326 31.5437 47.1477C29.1069 47.7918 26.598 48.1192 24.0741 48.1192C22.0437 48.1192 20.0012 47.9047 18.0035 47.4816C17.4952 47.3739 16.9963 47.6987 16.8886 48.2067C16.781 48.7148 17.1058 49.214 17.6138 49.3216C19.7394 49.7717 21.913 50 24.0741 50C35.373 50 44.7627 43.7693 44.7627 39.1854C44.7627 34.5374 35.841 34.2494 30.8788 34.0957C31.1298 31.9182 31.5635 29.6091 31.9932 27.3559C33.5168 27.8865 35.302 28.1828 37.0515 28.1828C42.0679 28.1828 47.8802 25.3708 48.1467 20.5232C48.1646 20.1979 48.0128 19.8864 47.7454 19.7001C47.478 19.5138 47.1334 19.4791 46.8342 19.6086C45.3134 20.2668 43.2384 20.6597 41.2833 20.6597C35.8982 20.6597 33.1068 17.9068 32.7963 17.7721C30.3018 15.9883 27.2726 15.0173 24.1408 15.0173H24.0073C23.0259 15.0173 22.0412 15.1136 21.0806 15.3032C18.4549 15.7913 15.4985 17.4721 15.0214 18.014C12.6133 19.8364 9.84264 20.6597 6.86488 20.6597C4.9098 20.6597 2.83473 20.2668 1.31393 19.6086C1.01488 19.4792 0.670132 19.5138 0.402779 19.7001C0.135425 19.8864 -0.0164489 20.1979 0.0014186 20.5232C0.268678 25.3848 6.10241 28.1828 11.0967 28.1828ZM19.1807 34.2694C18.6589 29.3454 17.209 23.9595 16.716 19.114C17.8102 18.3744 19.031 17.802 20.3125 17.4264V18.7789C20.3125 20.853 21.9999 22.5405 24.0741 22.5405C26.1482 22.5405 27.8357 20.853 27.8357 18.7789V17.4263C29.1163 17.8017 30.3368 18.374 31.4323 19.1142C30.9462 23.9154 29.4908 29.3378 28.9674 34.2694C25.8684 35.6987 22.2798 35.6988 19.1807 34.2694ZM41.2833 22.5405C42.8265 22.5405 44.4461 22.3185 45.8779 21.9252C44.7065 24.4125 41.0896 26.3021 37.0515 26.3021C35.4257 26.3021 33.7192 26.0007 32.3484 25.4833C32.6732 23.7491 32.973 22.0431 33.1828 20.3665C35.3801 21.7406 38.3177 22.5405 41.2833 22.5405ZM24.1408 16.8981C24.7469 16.8981 25.3543 16.9409 25.9549 17.0239V18.7789C25.9549 19.816 25.1111 20.6597 24.0741 20.6597C23.037 20.6597 22.1933 19.816 22.1933 18.7789V17.0239C22.7938 16.9409 23.4011 16.8981 24.0073 16.8981H24.1408ZM6.86488 22.5405C9.83097 22.5405 12.769 21.7403 14.9662 20.3661C15.1792 22.0616 15.4844 23.7983 15.7996 25.4824C14.4287 26.0005 12.7255 26.3021 11.0967 26.3021C7.0586 26.3021 3.44166 24.4125 2.27021 21.9252C3.70205 22.3185 5.32169 22.5405 6.86488 22.5405Z" fill="#303F56"/>
<path d="M13.7298 48.2133C14.2491 48.2133 14.6702 47.7923 14.6702 47.2729C14.6702 46.7535 14.2491 46.3325 13.7298 46.3325C13.2104 46.3325 12.7894 46.7535 12.7894 47.2729C12.7894 47.7923 13.2104 48.2133 13.7298 48.2133Z" fill="#303F56"/>
</svg>
