<svg width="15" height="14" viewBox="0 0 15 14" fill="none" xmlns="http://www.w3.org/2000/svg">
<path d="M7.49917 11.6861C7.21648 11.6861 6.9873 11.9 6.9873 12.1638V13.5221C6.9873 13.786 7.21648 13.9999 7.49917 13.9999C7.78192 13.9999 8.01103 13.786 8.01103 13.5221V12.1638C8.01103 11.8999 7.78185 11.6861 7.49917 11.6861Z" fill="url(#paint0_linear)"/>
<path d="M7.49917 11.6861C7.21648 11.6861 6.9873 11.9 6.9873 12.1638V13.5221C6.9873 13.786 7.21648 13.9999 7.49917 13.9999C7.78192 13.9999 8.01103 13.786 8.01103 13.5221V12.1638C8.01103 11.8999 7.78185 11.6861 7.49917 11.6861Z" fill="url(#paint1_linear)"/>
<path d="M7.49917 11.6861C7.21648 11.6861 6.9873 11.9 6.9873 12.1638V13.5221C6.9873 13.786 7.21648 13.9999 7.49917 13.9999C7.78192 13.9999 8.01103 13.786 8.01103 13.5221V12.1638C8.01103 11.8999 7.78185 11.6861 7.49917 11.6861Z" fill="#303F56"/>
<path d="M7.49917 2.31409C7.78192 2.31409 8.01103 2.10019 8.01103 1.83635V0.47792C8.01103 0.214082 7.78192 0.000183105 7.49917 0.000183105C7.21648 0.000183105 6.9873 0.214082 6.9873 0.47792V1.83635C6.9873 2.10019 7.21648 2.31409 7.49917 2.31409Z" fill="url(#paint2_linear)"/>
<path d="M7.49917 2.31409C7.78192 2.31409 8.01103 2.10019 8.01103 1.83635V0.47792C8.01103 0.214082 7.78192 0.000183105 7.49917 0.000183105C7.21648 0.000183105 6.9873 0.214082 6.9873 0.47792V1.83635C6.9873 2.10019 7.21648 2.31409 7.49917 2.31409Z" fill="url(#paint3_linear)"/>
<path d="M7.49917 2.31409C7.78192 2.31409 8.01103 2.10019 8.01103 1.83635V0.47792C8.01103 0.214082 7.78192 0.000183105 7.49917 0.000183105C7.21648 0.000183105 6.9873 0.214082 6.9873 0.47792V1.83635C6.9873 2.10019 7.21648 2.31409 7.49917 2.31409Z" fill="#303F56"/>
<path d="M3.22599 10.3133L2.19654 11.2736C1.99657 11.4602 1.9965 11.7627 2.19633 11.9492C2.29631 12.0426 2.42735 12.0892 2.55839 12.0892C2.68936 12.0892 2.82026 12.0426 2.92024 11.9494L3.9497 10.9891C4.14966 10.8026 4.14973 10.5001 3.9499 10.3135C3.74993 10.1269 3.42589 10.1269 3.22599 10.3133Z" fill="url(#paint4_linear)"/>
<path d="M3.22599 10.3133L2.19654 11.2736C1.99657 11.4602 1.9965 11.7627 2.19633 11.9492C2.29631 12.0426 2.42735 12.0892 2.55839 12.0892C2.68936 12.0892 2.82026 12.0426 2.92024 11.9494L3.9497 10.9891C4.14966 10.8026 4.14973 10.5001 3.9499 10.3135C3.74993 10.1269 3.42589 10.1269 3.22599 10.3133Z" fill="url(#paint5_linear)"/>
<path d="M3.22599 10.3133L2.19654 11.2736C1.99657 11.4602 1.9965 11.7627 2.19633 11.9492C2.29631 12.0426 2.42735 12.0892 2.55839 12.0892C2.68936 12.0892 2.82026 12.0426 2.92024 11.9494L3.9497 10.9891C4.14966 10.8026 4.14973 10.5001 3.9499 10.3135C3.74993 10.1269 3.42589 10.1269 3.22599 10.3133Z" fill="#303F56"/>
<path d="M11.4116 3.82613C11.5426 3.82613 11.6735 3.77951 11.7735 3.68625L12.8028 2.72594C13.0027 2.53936 13.0028 2.23692 12.803 2.05029C12.6031 1.86365 12.279 1.86359 12.0791 2.05022L11.0497 3.01054C10.8498 3.19705 10.8498 3.49955 11.0496 3.68612C11.1495 3.77951 11.2806 3.82613 11.4116 3.82613Z" fill="url(#paint6_linear)"/>
<path d="M11.4116 3.82613C11.5426 3.82613 11.6735 3.77951 11.7735 3.68625L12.8028 2.72594C13.0027 2.53936 13.0028 2.23692 12.803 2.05029C12.6031 1.86365 12.279 1.86359 12.0791 2.05022L11.0497 3.01054C10.8498 3.19705 10.8498 3.49955 11.0496 3.68612C11.1495 3.77951 11.2806 3.82613 11.4116 3.82613Z" fill="url(#paint7_linear)"/>
<path d="M11.4116 3.82613C11.5426 3.82613 11.6735 3.77951 11.7735 3.68625L12.8028 2.72594C13.0027 2.53936 13.0028 2.23692 12.803 2.05029C12.6031 1.86365 12.279 1.86359 12.0791 2.05022L11.0497 3.01054C10.8498 3.19705 10.8498 3.49955 11.0496 3.68612C11.1495 3.77951 11.2806 3.82613 11.4116 3.82613Z" fill="#303F56"/>
<path d="M2.47905 7.00014C2.47905 6.7363 2.24987 6.5224 1.96719 6.5224H0.511862C0.229177 6.5224 0 6.7363 0 7.00014C0 7.26398 0.229177 7.47787 0.511862 7.47787H1.96719C2.24987 7.47787 2.47905 7.26398 2.47905 7.00014Z" fill="url(#paint8_linear)"/>
<path d="M2.47905 7.00014C2.47905 6.7363 2.24987 6.5224 1.96719 6.5224H0.511862C0.229177 6.5224 0 6.7363 0 7.00014C0 7.26398 0.229177 7.47787 0.511862 7.47787H1.96719C2.24987 7.47787 2.47905 7.26398 2.47905 7.00014Z" fill="url(#paint9_linear)"/>
<path d="M2.47905 7.00014C2.47905 6.7363 2.24987 6.5224 1.96719 6.5224H0.511862C0.229177 6.5224 0 6.7363 0 7.00014C0 7.26398 0.229177 7.47787 0.511862 7.47787H1.96719C2.24987 7.47787 2.47905 7.26398 2.47905 7.00014Z" fill="#303F56"/>
<path d="M14.4881 6.5224H13.0321C12.7494 6.5224 12.5203 6.7363 12.5203 7.00014C12.5203 7.26398 12.7494 7.47787 13.0321 7.47787H14.4881C14.7709 7.47787 15 7.26398 15 7.00014C15 6.73636 14.7709 6.5224 14.4881 6.5224Z" fill="url(#paint10_linear)"/>
<path d="M14.4881 6.5224H13.0321C12.7494 6.5224 12.5203 6.7363 12.5203 7.00014C12.5203 7.26398 12.7494 7.47787 13.0321 7.47787H14.4881C14.7709 7.47787 15 7.26398 15 7.00014C15 6.73636 14.7709 6.5224 14.4881 6.5224Z" fill="url(#paint11_linear)"/>
<path d="M14.4881 6.5224H13.0321C12.7494 6.5224 12.5203 6.7363 12.5203 7.00014C12.5203 7.26398 12.7494 7.47787 13.0321 7.47787H14.4881C14.7709 7.47787 15 7.26398 15 7.00014C15 6.73636 14.7709 6.5224 14.4881 6.5224Z" fill="#303F56"/>
<path d="M3.22583 3.68629C3.32575 3.77955 3.45678 3.82618 3.58775 3.82618C3.71872 3.82618 3.84975 3.77955 3.94967 3.68629C4.14957 3.49972 4.14957 3.19722 3.94967 3.01065L2.92076 2.05033C2.72086 1.86376 2.39675 1.86376 2.19692 2.05033C1.99702 2.2369 1.99702 2.53941 2.19692 2.72591L3.22583 3.68629Z" fill="url(#paint12_linear)"/>
<path d="M3.22583 3.68629C3.32575 3.77955 3.45678 3.82618 3.58775 3.82618C3.71872 3.82618 3.84975 3.77955 3.94967 3.68629C4.14957 3.49972 4.14957 3.19722 3.94967 3.01065L2.92076 2.05033C2.72086 1.86376 2.39675 1.86376 2.19692 2.05033C1.99702 2.2369 1.99702 2.53941 2.19692 2.72591L3.22583 3.68629Z" fill="url(#paint13_linear)"/>
<path d="M3.22583 3.68629C3.32575 3.77955 3.45678 3.82618 3.58775 3.82618C3.71872 3.82618 3.84975 3.77955 3.94967 3.68629C4.14957 3.49972 4.14957 3.19722 3.94967 3.01065L2.92076 2.05033C2.72086 1.86376 2.39675 1.86376 2.19692 2.05033C1.99702 2.2369 1.99702 2.53941 2.19692 2.72591L3.22583 3.68629Z" fill="#303F56"/>
<path d="M11.7742 10.3134C11.5743 10.1269 11.2502 10.1268 11.0503 10.3134C10.8503 10.4999 10.8503 10.8024 11.0502 10.9889L12.079 11.9493C12.1789 12.0426 12.3099 12.0892 12.4409 12.0892C12.5719 12.0892 12.703 12.0426 12.8029 11.9493C13.0028 11.7628 13.0028 11.4602 12.8029 11.2737L11.7742 10.3134Z" fill="url(#paint14_linear)"/>
<path d="M11.7742 10.3134C11.5743 10.1269 11.2502 10.1268 11.0503 10.3134C10.8503 10.4999 10.8503 10.8024 11.0502 10.9889L12.079 11.9493C12.1789 12.0426 12.3099 12.0892 12.4409 12.0892C12.5719 12.0892 12.703 12.0426 12.8029 11.9493C13.0028 11.7628 13.0028 11.4602 12.8029 11.2737L11.7742 10.3134Z" fill="url(#paint15_linear)"/>
<path d="M11.7742 10.3134C11.5743 10.1269 11.2502 10.1268 11.0503 10.3134C10.8503 10.4999 10.8503 10.8024 11.0502 10.9889L12.079 11.9493C12.1789 12.0426 12.3099 12.0892 12.4409 12.0892C12.5719 12.0892 12.703 12.0426 12.8029 11.9493C13.0028 11.7628 13.0028 11.4602 12.8029 11.2737L11.7742 10.3134Z" fill="#303F56"/>
<path d="M7.49972 3.28156C5.30302 3.28156 3.51587 4.94969 3.51587 7.00007C3.51587 9.05039 5.30302 10.7185 7.49972 10.7185C9.69663 10.7185 11.4839 9.05039 11.4839 7.00007C11.4839 4.94969 9.69656 3.28156 7.49972 3.28156ZM7.49972 9.76298C5.8675 9.76298 4.53959 8.52354 4.53959 7.00007C4.53959 5.47653 5.8675 4.23703 7.49972 4.23703C9.13215 4.23703 10.4602 5.47653 10.4602 7.00007C10.4602 8.52354 9.13215 9.76298 7.49972 9.76298Z" fill="url(#paint16_linear)"/>
<path d="M7.49972 3.28156C5.30302 3.28156 3.51587 4.94969 3.51587 7.00007C3.51587 9.05039 5.30302 10.7185 7.49972 10.7185C9.69663 10.7185 11.4839 9.05039 11.4839 7.00007C11.4839 4.94969 9.69656 3.28156 7.49972 3.28156ZM7.49972 9.76298C5.8675 9.76298 4.53959 8.52354 4.53959 7.00007C4.53959 5.47653 5.8675 4.23703 7.49972 4.23703C9.13215 4.23703 10.4602 5.47653 10.4602 7.00007C10.4602 8.52354 9.13215 9.76298 7.49972 9.76298Z" fill="url(#paint17_linear)"/>
<path d="M7.49972 3.28156C5.30302 3.28156 3.51587 4.94969 3.51587 7.00007C3.51587 9.05039 5.30302 10.7185 7.49972 10.7185C9.69663 10.7185 11.4839 9.05039 11.4839 7.00007C11.4839 4.94969 9.69656 3.28156 7.49972 3.28156ZM7.49972 9.76298C5.8675 9.76298 4.53959 8.52354 4.53959 7.00007C4.53959 5.47653 5.8675 4.23703 7.49972 4.23703C9.13215 4.23703 10.4602 5.47653 10.4602 7.00007C10.4602 8.52354 9.13215 9.76298 7.49972 9.76298Z" fill="#303F56"/>
<defs>
<linearGradient id="paint0_linear" x1="6.9873" y1="12.843" x2="8.036" y2="12.843" gradientUnits="userSpaceOnUse">
<stop stop-color="#23A3CF"/>
<stop offset="1" stop-color="#25D4CA"/>
</linearGradient>
<linearGradient id="paint1_linear" x1="6.9873" y1="13.4214" x2="8.12502" y2="13.421" gradientUnits="userSpaceOnUse">
<stop stop-color="#217BFC"/>
<stop offset="1" stop-color="#31CAE4"/>
</linearGradient>
<linearGradient id="paint2_linear" x1="6.9873" y1="1.15713" x2="8.036" y2="1.15713" gradientUnits="userSpaceOnUse">
<stop stop-color="#23A3CF"/>
<stop offset="1" stop-color="#25D4CA"/>
</linearGradient>
<linearGradient id="paint3_linear" x1="6.9873" y1="1.73561" x2="8.12502" y2="1.73513" gradientUnits="userSpaceOnUse">
<stop stop-color="#217BFC"/>
<stop offset="1" stop-color="#31CAE4"/>
</linearGradient>
<linearGradient id="paint4_linear" x1="2.04651" y1="11.1314" x2="4.1498" y2="11.1314" gradientUnits="userSpaceOnUse">
<stop stop-color="#23A3CF"/>
<stop offset="1" stop-color="#25D4CA"/>
</linearGradient>
<linearGradient id="paint5_linear" x1="2.04651" y1="11.6103" x2="4.32835" y2="11.608" gradientUnits="userSpaceOnUse">
<stop stop-color="#217BFC"/>
<stop offset="1" stop-color="#31CAE4"/>
</linearGradient>
<linearGradient id="paint6_linear" x1="10.8998" y1="2.86821" x2="13.0029" y2="2.86821" gradientUnits="userSpaceOnUse">
<stop stop-color="#23A3CF"/>
<stop offset="1" stop-color="#25D4CA"/>
</linearGradient>
<linearGradient id="paint7_linear" x1="10.8998" y1="3.34717" x2="13.1814" y2="3.34483" gradientUnits="userSpaceOnUse">
<stop stop-color="#217BFC"/>
<stop offset="1" stop-color="#31CAE4"/>
</linearGradient>
<linearGradient id="paint8_linear" x1="4.61759e-09" y1="7.00014" x2="2.53951" y2="7.00014" gradientUnits="userSpaceOnUse">
<stop stop-color="#23A3CF"/>
<stop offset="1" stop-color="#25D4CA"/>
</linearGradient>
<linearGradient id="paint9_linear" x1="-2.09024e-08" y1="7.23901" x2="2.75507" y2="7.23217" gradientUnits="userSpaceOnUse">
<stop stop-color="#217BFC"/>
<stop offset="1" stop-color="#31CAE4"/>
</linearGradient>
<linearGradient id="paint10_linear" x1="12.5203" y1="7.00014" x2="15.0605" y2="7.00014" gradientUnits="userSpaceOnUse">
<stop stop-color="#23A3CF"/>
<stop offset="1" stop-color="#25D4CA"/>
</linearGradient>
<linearGradient id="paint11_linear" x1="12.5203" y1="7.23901" x2="15.2761" y2="7.23217" gradientUnits="userSpaceOnUse">
<stop stop-color="#217BFC"/>
<stop offset="1" stop-color="#31CAE4"/>
</linearGradient>
<linearGradient id="paint12_linear" x1="2.047" y1="2.86829" x2="4.14966" y2="2.86829" gradientUnits="userSpaceOnUse">
<stop stop-color="#23A3CF"/>
<stop offset="1" stop-color="#25D4CA"/>
</linearGradient>
<linearGradient id="paint13_linear" x1="2.047" y1="3.34723" x2="4.32815" y2="3.3449" gradientUnits="userSpaceOnUse">
<stop stop-color="#217BFC"/>
<stop offset="1" stop-color="#31CAE4"/>
</linearGradient>
<linearGradient id="paint14_linear" x1="10.9003" y1="11.1313" x2="13.0029" y2="11.1313" gradientUnits="userSpaceOnUse">
<stop stop-color="#23A3CF"/>
<stop offset="1" stop-color="#25D4CA"/>
</linearGradient>
<linearGradient id="paint15_linear" x1="10.9003" y1="11.6103" x2="13.1814" y2="11.6079" gradientUnits="userSpaceOnUse">
<stop stop-color="#217BFC"/>
<stop offset="1" stop-color="#31CAE4"/>
</linearGradient>
<linearGradient id="paint16_linear" x1="3.51587" y1="7" x2="11.6783" y2="7" gradientUnits="userSpaceOnUse">
<stop stop-color="#23A3CF"/>
<stop offset="1" stop-color="#25D4CA"/>
</linearGradient>
<linearGradient id="paint17_linear" x1="3.51587" y1="8.85924" x2="12.3711" y2="8.85017" gradientUnits="userSpaceOnUse">
<stop stop-color="#217BFC"/>
<stop offset="1" stop-color="#31CAE4"/>
</linearGradient>
</defs>
</svg>
