<svg width="41" height="39" viewBox="0 0 41 39" fill="none" xmlns="http://www.w3.org/2000/svg">
<path d="M21.5029 26.5C21.5029 26.72 21.3124 27.0874 20.8137 27.4885C20.5913 27.6674 20.3571 27.811 20.164 27.9058C20.1003 27.937 20.0462 27.9605 20.0029 27.9773C19.9597 27.9605 19.9056 27.937 19.8419 27.9058C19.6487 27.811 19.4145 27.6674 19.1922 27.4885C18.6935 27.0874 18.5029 26.72 18.5029 26.5C18.5029 26.2887 18.5452 26.2167 18.5508 26.2077C18.5509 26.2075 18.5509 26.2074 18.5511 26.2072C18.5535 26.2029 18.5669 26.1794 18.6436 26.145C18.8715 26.043 19.2828 26 20.0029 26C20.7231 26 21.1343 26.043 21.3623 26.145C21.439 26.1794 21.4524 26.2029 21.4548 26.2072C21.4549 26.2074 21.455 26.2075 21.4551 26.2077C21.4606 26.2167 21.5029 26.2887 21.5029 26.5ZM19.9102 28.0081C19.9102 28.008 19.9119 28.0076 19.9153 28.0069C19.9118 28.0078 19.9102 28.0081 19.9102 28.0081ZM20.0906 28.0069C20.0939 28.0076 20.0956 28.008 20.0957 28.0081C20.0957 28.0081 20.094 28.0078 20.0906 28.0069Z" stroke="#9AA7AF" stroke-width="2"/>
<path d="M14.5029 31C15.3363 32 17.7029 33.4 20.5029 31C21.5029 32 24.1029 33.4 26.5029 31" stroke="#9AA7AF" stroke-width="2"/>
<path d="M16.5834 15.9814C17.3183 16.7363 17.5723 18.0896 17.3202 19.6362C17.0693 21.1747 16.3733 22.5331 15.685 23.1351C14.9946 23.7389 13.9091 24.1058 12.5103 24.1895C11.2091 24.2673 9.72967 24.0933 8.25795 23.7213C6.83752 22.0191 7.07314 18.963 9.37097 16.7259C11.7592 14.4009 14.9723 14.3265 16.5834 15.9814Z" stroke="#9AA7AF" stroke-width="2"/>
<path d="M24.2227 15.7764C23.4471 16.5731 23.1563 18.1714 23.4171 19.9047C23.542 20.7351 23.7836 21.5092 24.0883 22.1109C24.4069 22.74 24.7305 23.0573 24.9462 23.1634C25.7737 23.5705 27.3722 23.918 29.0883 24.0669C30.8159 24.2168 32.392 24.1415 33.1891 23.8712C33.2643 23.8457 33.4696 23.7181 33.64 23.1954C33.8035 22.694 33.8744 21.9864 33.8044 21.1651C33.663 19.5081 32.9772 17.6852 31.8141 16.5528C29.3096 14.1146 25.9269 14.0259 24.2227 15.7764Z" stroke="#9AA7AF" stroke-width="2"/>
<circle r="2" transform="matrix(1 0 0 -1 12.5029 20)" stroke="#9AA7AF" stroke-width="2"/>
<path d="M5.16917 14C2.98274 12.8172 1.50293 10.5438 1.50293 7.93333C1.50293 4.10416 4.68709 1 8.61496 1C11.9289 1 14.7134 3.20961 15.5029 6.2" stroke="#9AA7AF" stroke-width="2"/>
<path d="M35.8367 14C38.0231 12.8172 39.5029 10.5438 39.5029 7.93333C39.5029 4.10416 36.3188 1 32.3909 1C29.077 1 26.2924 3.20961 25.5029 6.2" stroke="#9AA7AF" stroke-width="2"/>
<circle cx="28.5029" cy="20" r="2" transform="rotate(-180 28.5029 20)" stroke="#9AA7AF" stroke-width="2"/>
<path d="M38.533 22.7425C39.6697 27.2894 37.8984 31.0326 34.4673 33.7118C30.9969 36.4218 25.8527 38 20.5031 38C15.1328 38 9.86237 36.5365 6.33612 33.8879C4.58219 32.5705 3.28398 30.9797 2.58666 29.1514C1.8928 27.3322 1.76786 25.2112 2.4641 22.7748C3.94655 17.5869 5.87737 13.3994 8.70089 10.5116C11.4872 7.66186 15.2196 6 20.5031 6C25.7721 6 29.6346 7.77721 32.4929 10.6993C35.3791 13.6499 37.3064 17.8363 38.533 22.7425Z" stroke="#9AA7AF" stroke-width="2"/>
</svg>
