<svg width="70" height="60" viewBox="0 0 70 60" fill="none" xmlns="http://www.w3.org/2000/svg">
<g filter="url(#filter0_d)">
<path d="M63.528 1C60.1654 1 56.8027 1 53.44 2.68133H51.7587C50.0774 2.68133 48.396 1 45.0334 2.68133C43.352 2.68133 39.9894 2.68133 38.308 2.68133C36.6267 2.68133 34.9454 1 33.264 2.68133C31.5827 2.68133 29.9013 2.68133 28.22 2.68133H26.5387H24.8573H23.176C19.8133 1 18.132 2.68133 16.4507 2.68133H6.36267C6.36267 2.68133 4.68133 1 4.68133 2.68133H3C3 2.68133 3 2.68133 3 1V2.68133V51.44V53.1214V54.8027C3 54.8027 3 53.1214 3 54.8027C3 54.8027 4.68133 54.8027 6.36267 54.8027C6.36267 56.484 8.044 56.484 8.044 56.484C8.044 58.1654 8.044 54.8027 9.72534 56.484C9.72534 54.8027 9.72534 56.484 11.4067 54.8027H13.088C13.088 53.1214 14.7693 54.8027 14.7693 53.1214H16.4507C16.4507 53.1214 18.132 53.1214 18.132 51.44C18.132 53.1214 18.132 53.1214 18.132 53.1214C18.132 53.1214 19.8133 53.1214 19.8133 51.44C21.4947 49.7587 23.176 49.7587 26.5387 51.44V49.7587C26.5387 49.7587 26.5387 49.7587 28.22 49.7587C28.22 49.7587 28.22 49.7587 29.9013 49.7587C33.264 49.7587 36.6267 48.0774 39.9894 48.0774H41.6707C41.6707 48.0774 43.352 49.7587 43.352 48.0774C45.0334 48.0774 46.7147 48.0774 48.396 48.0774C50.0774 46.396 51.7587 48.0774 53.44 46.396C55.1214 44.7147 56.8027 46.396 58.484 46.396H60.1654C61.8467 51.44 63.528 53.1214 65.2094 53.1214C65.2094 53.1214 65.2094 53.1214 65.2094 51.44H66.8907C66.8907 51.44 66.8907 51.44 68.572 51.44V49.7587V4.36267V2.68133C66.8907 1 65.2094 2.68133 63.528 1Z" fill="#F7F7E2"/>
</g>
<defs>
<filter id="filter0_d" x="0" y="0" width="69.572" height="59.9694" filterUnits="userSpaceOnUse" color-interpolation-filters="sRGB">
<feFlood flood-opacity="0" result="BackgroundImageFix"/>
<feColorMatrix in="SourceAlpha" type="matrix" values="0 0 0 0 0 0 0 0 0 0 0 0 0 0 0 0 0 0 127 0"/>
<feOffset dx="-1" dy="1"/>
<feGaussianBlur stdDeviation="1"/>
<feColorMatrix type="matrix" values="0 0 0 0 0.652552 0 0 0 0 0.757311 0 0 0 0 0.779167 0 0 0 0.5 0"/>
<feBlend mode="normal" in2="BackgroundImageFix" result="effect1_dropShadow"/>
<feBlend mode="normal" in="SourceGraphic" in2="effect1_dropShadow" result="shape"/>
</filter>
</defs>
</svg>
