<svg width="218" height="64" viewBox="0 0 218 64" fill="none" xmlns="http://www.w3.org/2000/svg">
<g filter="url(#filter0_d)">
<path d="M212.885 52.5625C212.885 50.5 212.885 50.5 212.885 52.5625C212.885 50.5 212.885 50.5 212.885 52.5625C212.885 50.5 214.942 52.5625 212.885 52.5625C212.885 50.5 212.885 50.5 212.885 48.4375C210.827 48.4375 214.942 48.4375 212.885 48.4375V46.375C212.885 46.375 212.885 46.375 214.942 46.375H212.885C214.942 46.375 212.885 48.4375 214.942 46.375C217 46.375 214.942 46.375 214.942 44.3125H212.885H214.942C214.942 44.3125 214.942 44.3125 214.942 42.25C214.942 42.25 214.942 42.25 212.885 40.1875H210.827H212.885C212.885 40.1875 212.885 40.1875 214.942 40.1875V38.125V36.0625V34C217 34 217 36.0625 217 36.0625L214.942 34C214.942 34 214.942 34 212.885 34C212.885 34 214.942 34 214.942 36.0625C214.942 36.0625 214.942 36.0625 217 36.0625C217 36.0625 217 36.0625 214.942 36.0625C214.942 36.0625 214.942 36.0625 217 34H214.942L212.885 31.9375V29.875C212.885 29.875 212.885 29.875 212.885 31.9375H210.827H212.885C212.885 31.9375 210.827 31.9375 212.885 29.875V27.8125C212.885 27.8125 212.885 29.875 212.885 27.8125C212.885 27.8125 212.885 27.8125 212.885 25.75H210.827C212.885 25.75 208.769 23.6875 210.827 23.6875H212.885H214.942H217H214.942L212.885 21.625V19.5625C212.885 19.5625 212.885 19.5625 212.885 17.5H210.827C210.827 17.5 212.885 17.5 210.827 15.4375C210.827 15.4375 210.827 15.4375 210.827 13.375H212.885H214.942C214.942 13.375 214.942 13.375 217 13.375H214.942V11.3125C214.942 11.3125 217 11.3125 214.942 11.3125C214.942 11.3125 214.942 11.3125 212.885 11.3125C212.885 11.3125 214.942 11.3125 212.885 9.25H214.942C214.942 9.25 212.885 9.25 212.885 7.1875C212.885 7.1875 212.885 7.1875 210.827 7.1875C210.827 7.1875 210.827 7.1875 212.885 7.1875C214.942 7.1875 214.942 7.1875 214.942 7.1875H212.885C212.885 7.1875 212.885 7.1875 214.942 5.125C214.942 5.125 214.942 5.125 212.885 5.125V3.0625C210.827 3.0625 212.885 1 212.885 1H214.942H212.885H3V3.0625C3 3.0625 3 5.125 5.05769 3.0625C3 3.0625 5.05769 5.125 5.05769 5.125C5.05769 5.125 5.05769 5.125 3 5.125C5.05769 5.125 5.05769 7.1875 7.11539 9.25C7.11539 9.25 7.11539 11.3125 7.11539 13.375V15.4375C9.17308 15.4375 7.11539 17.5 9.17308 17.5C9.17308 17.5 9.17308 19.5625 7.11539 21.625H5.05769C5.05769 21.625 5.05769 21.625 7.11539 23.6875C7.11539 23.6875 9.17308 23.6875 9.17308 25.75C9.17308 25.75 11.2308 25.75 11.2308 27.8125V29.875C9.17308 29.875 11.2308 31.9375 11.2308 31.9375C11.2308 31.9375 11.2308 34 13.2885 34V36.0625C11.2308 36.0625 11.2308 38.125 13.2885 38.125H11.2308V40.1875C11.2308 40.1875 11.2308 40.1875 11.2308 38.125V40.1875C9.17308 40.1875 11.2308 40.1875 9.17308 40.1875C9.17308 40.1875 7.11539 40.1875 9.17308 42.25H11.2308C11.2308 42.25 11.2308 42.25 13.2885 42.25C13.2885 44.3125 15.3462 44.3125 13.2885 46.375C13.2885 48.4375 13.2885 50.5 13.2885 52.5625C13.2885 52.5625 13.2885 52.5625 11.2308 52.5625C11.2308 52.5625 13.2885 52.5625 13.2885 54.625C11.2308 54.625 13.2885 56.6875 13.2885 56.6875C13.2885 58.75 15.3462 58.75 15.3462 60.8125L212.885 52.5625Z" fill="#F5F5D9"/>
</g>
<defs>
<filter id="filter0_d" x="0" y="0" width="218" height="63.8125" filterUnits="userSpaceOnUse" color-interpolation-filters="sRGB">
<feFlood flood-opacity="0" result="BackgroundImageFix"/>
<feColorMatrix in="SourceAlpha" type="matrix" values="0 0 0 0 0 0 0 0 0 0 0 0 0 0 0 0 0 0 127 0"/>
<feOffset dx="-1" dy="1"/>
<feGaussianBlur stdDeviation="1"/>
<feColorMatrix type="matrix" values="0 0 0 0 0.652552 0 0 0 0 0.757311 0 0 0 0 0.779167 0 0 0 0.5 0"/>
<feBlend mode="normal" in2="BackgroundImageFix" result="effect1_dropShadow"/>
<feBlend mode="normal" in="SourceGraphic" in2="effect1_dropShadow" result="shape"/>
</filter>
</defs>
</svg>
