<svg width="35" height="35" viewBox="0 0 35 35" fill="none" xmlns="http://www.w3.org/2000/svg">
<path d="M17.5 35C27.165 35 35 27.165 35 17.5C35 7.83502 27.165 0 17.5 0C7.83502 0 0 7.83502 0 17.5C0 27.165 7.83502 35 17.5 35Z" fill="#497CCB"/>
<path d="M24.4609 26.9456C24.1809 26.9456 23.9009 26.8384 23.6865 26.6263C20.379 23.3188 14.6171 23.3188 11.3118 26.6263C10.8852 27.0528 10.1918 27.0528 9.76523 26.6263C9.33867 26.1997 9.33867 25.5063 9.76523 25.0797C11.8324 23.0147 14.5777 21.875 17.5002 21.875C20.4227 21.875 23.168 23.0147 25.233 25.0797C25.6596 25.5063 25.6596 26.1997 25.233 26.6263C25.0209 26.8406 24.7409 26.9456 24.4609 26.9456Z" fill="white"/>
<path d="M10.9375 15.3125C12.1456 15.3125 13.125 14.3331 13.125 13.125C13.125 11.9169 12.1456 10.9375 10.9375 10.9375C9.72938 10.9375 8.75 11.9169 8.75 13.125C8.75 14.3331 9.72938 15.3125 10.9375 15.3125Z" fill="white"/>
<path d="M24.0625 15.3125C25.2706 15.3125 26.25 14.3331 26.25 13.125C26.25 11.9169 25.2706 10.9375 24.0625 10.9375C22.8544 10.9375 21.875 11.9169 21.875 13.125C21.875 14.3331 22.8544 15.3125 24.0625 15.3125Z" fill="white"/>
</svg>
