<svg width="34" height="35" viewBox="0 0 34 35" fill="none" xmlns="http://www.w3.org/2000/svg">
<path d="M17 34.2592C26.3888 34.2592 34 26.648 34 17.2592C34 7.87031 26.3888 0.259155 17 0.259155C7.61116 0.259155 0 7.87031 0 17.2592C0 26.648 7.61116 34.2592 17 34.2592Z" fill="#AB148A"/>
<path d="M10.75 10.2993C9.23337 10.2993 8 11.5696 8 13.1316C8 14.6937 9.23337 15.964 10.75 15.964C12.2666 15.964 13.5 14.6937 13.5 13.1316C13.5 11.5696 12.2666 10.2993 10.75 10.2993Z" fill="white"/>
<path d="M23.75 10.2993C22.2334 10.2993 21 11.5696 21 13.1316C21 14.6937 22.2334 15.964 23.75 15.964C25.2666 15.964 26.5 14.6937 26.5 13.1316C26.5 11.5696 25.2666 10.2993 23.75 10.2993Z" fill="white"/>
<path d="M22.3125 26.2633H11.6875C11.101 26.2633 10.625 25.7731 10.625 25.169C10.625 24.565 11.101 24.0747 11.6875 24.0747H22.3125C22.899 24.0747 23.375 24.565 23.375 25.169C23.375 25.7731 22.899 26.2633 22.3125 26.2633Z" fill="white"/>
<path d="M30.6776 0.414943C30.3758 -0.138314 29.4924 -0.138314 29.1906 0.414943C28.7455 1.23166 26.5234 5.38899 26.5234 6.99256C26.5234 8.92984 28.0531 10.5053 29.9341 10.5053C31.8151 10.5053 33.3447 8.92984 33.3447 6.99256C33.3447 5.38899 31.1227 1.23166 30.6776 0.414943Z" fill="#700057"/>
</svg>
