<svg width="543" height="533" viewBox="0 0 543 533" fill="none" xmlns="http://www.w3.org/2000/svg">
<g opacity="0.4">
<path d="M528.889 69.0598C538.32 70.8662 544.486 79.9677 542.689 89.3991C540.891 98.8306 531.772 104.997 522.358 103.199C508.472 100.559 495.263 98.8914 482.732 98.1705C408.516 93.9064 354.786 121.871 316.878 165.459C307.534 176.21 299.102 187.917 291.52 200.345C312.059 239.208 325.693 282.666 333.882 325.533C338.963 352.099 341.95 378.613 343.218 403.746C346.162 462.02 329.601 500.875 307.36 519.364C296.357 528.526 283.869 533.077 271.208 532.999C258.468 532.921 246.006 528.249 235.089 518.973C212.875 500.084 196.461 460.526 199.892 400.959C201.273 376.85 204.251 351.491 209.115 326.054C217.33 283.005 231.016 239.338 251.616 200.327C244.138 188.047 235.828 176.479 226.605 165.841C188.95 122.401 135.654 94.3406 62.2017 98.0229C49.1318 98.6829 35.2803 100.359 20.6472 103.164C11.2073 104.953 2.11478 98.7698 0.30844 89.3557C-1.48053 79.9329 4.69403 70.8315 14.1252 69.0424C30.2086 65.9681 45.6841 64.1096 60.5777 63.3714C146.214 59.0725 208.602 92.074 252.875 143.148C259.536 150.825 265.762 158.911 271.572 167.343C277.495 158.763 283.843 150.547 290.626 142.749C335.228 91.4487 398.146 58.5167 484.642 63.4843C498.85 64.292 513.596 66.1157 528.898 69.0511L528.889 69.0598ZM271.494 0C297.156 0 317.973 20.8083 317.973 46.4712C317.973 72.1342 297.165 92.9511 271.494 92.9511C245.841 92.9511 225.024 72.1428 225.024 46.4712C225.024 20.7996 245.841 0 271.494 0ZM271.59 238.974C258.581 268.744 249.366 300.825 243.279 332.663C238.702 356.641 235.897 380.42 234.612 402.921C231.885 450.296 242.697 479.858 257.582 492.511C262.15 496.393 266.9 498.348 271.381 498.391C275.906 498.426 280.691 496.541 285.224 492.781C300.022 480.466 310.886 451.581 308.568 405.457C307.404 382.052 304.564 357.232 299.779 332.142C293.735 300.478 284.555 268.597 271.616 239L271.59 238.974Z" fill="#1CA7C4"/>
<path d="M528.889 69.0598C538.32 70.8662 544.486 79.9677 542.689 89.3991C540.891 98.8306 531.772 104.997 522.358 103.199C508.472 100.559 495.263 98.8914 482.732 98.1705C408.516 93.9064 354.786 121.871 316.878 165.459C307.534 176.21 299.102 187.917 291.52 200.345C312.059 239.208 325.693 282.666 333.882 325.533C338.963 352.099 341.95 378.613 343.218 403.746C346.162 462.02 329.601 500.875 307.36 519.364C296.357 528.526 283.869 533.077 271.208 532.999C258.468 532.921 246.006 528.249 235.089 518.973C212.875 500.084 196.461 460.526 199.892 400.959C201.273 376.85 204.251 351.491 209.115 326.054C217.33 283.005 231.016 239.338 251.616 200.327C244.138 188.047 235.828 176.479 226.605 165.841C188.95 122.401 135.654 94.3406 62.2017 98.0229C49.1318 98.6829 35.2803 100.359 20.6472 103.164C11.2073 104.953 2.11478 98.7698 0.30844 89.3557C-1.48053 79.9329 4.69403 70.8315 14.1252 69.0424C30.2086 65.9681 45.6841 64.1096 60.5777 63.3714C146.214 59.0725 208.602 92.074 252.875 143.148C259.536 150.825 265.762 158.911 271.572 167.343C277.495 158.763 283.843 150.547 290.626 142.749C335.228 91.4487 398.146 58.5167 484.642 63.4843C498.85 64.292 513.596 66.1157 528.898 69.0511L528.889 69.0598ZM271.494 0C297.156 0 317.973 20.8083 317.973 46.4712C317.973 72.1342 297.165 92.9511 271.494 92.9511C245.841 92.9511 225.024 72.1428 225.024 46.4712C225.024 20.7996 245.841 0 271.494 0ZM271.59 238.974C258.581 268.744 249.366 300.825 243.279 332.663C238.702 356.641 235.897 380.42 234.612 402.921C231.885 450.296 242.697 479.858 257.582 492.511C262.15 496.393 266.9 498.348 271.381 498.391C275.906 498.426 280.691 496.541 285.224 492.781C300.022 480.466 310.886 451.581 308.568 405.457C307.404 382.052 304.564 357.232 299.779 332.142C293.735 300.478 284.555 268.597 271.616 239L271.59 238.974Z" fill="url(#paint0_linear)"/>
</g>
<defs>
<linearGradient id="paint0_linear" x1="271.5" y1="0" x2="271.5" y2="533" gradientUnits="userSpaceOnUse">
<stop stop-color="#BBE9F2"/>
<stop offset="1" stop-color="#F9F6F3"/>
</linearGradient>
</defs>
</svg>
