<svg width="33" height="33" viewBox="0 0 33 33" fill="none" xmlns="http://www.w3.org/2000/svg">
<path d="M16.5 33C25.6127 33 33 25.6127 33 16.5C33 7.3873 25.6127 0 16.5 0C7.3873 0 0 7.3873 0 16.5C0 25.6127 7.3873 33 16.5 33Z" fill="#FFBA00"/>
<path d="M29.6381 1.32544C28.842 1.32544 28.0912 1.59356 27.5 2.05556C26.9087 1.59356 26.158 1.32544 25.3619 1.32544C23.5084 1.32544 22 2.76644 22 4.53744C22 7.29707 26.0906 10.2918 26.9087 10.8638C27.0875 10.9876 27.2937 11.0494 27.5 11.0494C27.7062 11.0494 27.9125 10.9876 28.0912 10.8638C28.9094 10.2904 33 7.29707 33 4.53744C33 2.76644 31.4916 1.32544 29.6381 1.32544Z" fill="#E9003A"/>
<path d="M7.63812 23.3254C6.842 23.3254 6.09125 23.5936 5.5 24.0556C4.90875 23.5936 4.158 23.3254 3.36187 23.3254C1.50837 23.3254 0 24.7664 0 26.5374C0 29.2971 4.09062 32.2918 4.90875 32.8638C5.0875 32.9876 5.29375 33.0494 5.5 33.0494C5.70625 33.0494 5.9125 32.9876 6.09125 32.8638C6.90937 32.2904 11 29.2971 11 26.5374C11 24.7664 9.49162 23.3254 7.63812 23.3254Z" fill="#E9003A"/>
<path d="M12.7188 15.4687C12.1495 15.4687 11.6875 15.0067 11.6875 14.4375C11.6875 13.6799 11.0715 13.0625 10.3125 13.0625C9.5535 13.0625 8.9375 13.6799 8.9375 14.4375C8.9375 15.0067 8.4755 15.4687 7.90625 15.4687C7.337 15.4687 6.875 15.0067 6.875 14.4375C6.875 12.5427 8.41638 11 10.3125 11C12.2086 11 13.75 12.5427 13.75 14.4375C13.75 15.0067 13.288 15.4687 12.7188 15.4687Z" fill="white"/>
<path d="M25.0938 15.4687C24.5245 15.4687 24.0625 15.0067 24.0625 14.4375C24.0625 13.6799 23.4465 13.0625 22.6875 13.0625C21.9285 13.0625 21.3125 13.6799 21.3125 14.4375C21.3125 15.0067 20.8505 15.4687 20.2813 15.4687C19.712 15.4687 19.25 15.0067 19.25 14.4375C19.25 12.5427 20.7914 11 22.6875 11C24.5836 11 26.125 12.5427 26.125 14.4375C26.125 15.0067 25.663 15.4687 25.0938 15.4687Z" fill="white"/>
<path d="M16.4997 24.75C13.4967 24.75 10.6752 23.5812 8.55216 21.4568C8.14928 21.054 8.14928 20.4008 8.55216 19.998C8.95503 19.5951 9.60816 19.5951 10.011 19.998C11.7435 21.7332 14.048 22.6875 16.4997 22.6875C18.9513 22.6875 21.2558 21.7332 22.9897 19.9993C23.3925 19.5965 24.0457 19.5965 24.4485 19.9993C24.8514 20.4022 24.8514 21.0553 24.4485 21.4582C22.3242 23.5812 19.5027 24.75 16.4997 24.75Z" fill="white"/>
</svg>
