<svg width="156" height="95" viewBox="0 0 156 95" fill="none" xmlns="http://www.w3.org/2000/svg">
<path d="M154.93 37.9855C151.862 12.4287 114.862 -4.16702 72.2796 0.91687C29.6976 6.00076 -2.33269 30.8381 0.732123 56.395C3.79694 81.9518 40.8001 98.5475 83.3795 93.4636C94.0288 92.192 104.017 89.6863 112.961 86.2413L141.253 94.9975L138.213 71.8365C149.937 62.0709 156.382 50.1094 154.93 37.9855Z" fill="#9AA7AF" fill-opacity="0.5"/>
<path d="M151.902 37.8667C148.965 13.3839 113.52 -2.51398 72.731 2.35777C31.9444 7.22694 1.25788 31.0194 4.19435 55.5023C7.13082 79.9825 42.5758 95.883 83.365 91.0112C93.5662 89.7933 103.132 87.391 111.701 84.0915L138.803 92.48L135.89 70.2934C147.12 60.9377 153.296 49.4798 151.902 37.8667Z" fill="white"/>
</svg>
