<svg width="19" height="19" viewBox="0 0 19 19" fill="none" xmlns="http://www.w3.org/2000/svg">
<path d="M12.9463 10.9304L10.4683 9.07378V5.25932C10.4683 4.72472 10.0349 4.29126 9.50029 4.29126C8.96569 4.29126 8.53223 4.72472 8.53223 5.25932V9.55781C8.53223 9.86123 8.67671 10.1538 8.91873 10.3344L11.7832 12.4837C11.9529 12.6101 12.1516 12.6787 12.3647 12.6787C12.6754 12.6787 12.9571 12.5378 13.1413 12.2922C13.2967 12.0863 13.3617 11.8299 13.3256 11.5734C13.2894 11.3133 13.1558 11.0858 12.9463 10.9304Z" fill="url(#paint0_linear)"/>
<path d="M12.9463 10.9304L10.4683 9.07378V5.25932C10.4683 4.72472 10.0349 4.29126 9.50029 4.29126C8.96569 4.29126 8.53223 4.72472 8.53223 5.25932V9.55781C8.53223 9.86123 8.67671 10.1538 8.91873 10.3344L11.7832 12.4837C11.9529 12.6101 12.1516 12.6787 12.3647 12.6787C12.6754 12.6787 12.9571 12.5378 13.1413 12.2922C13.2967 12.0863 13.3617 11.8299 13.3256 11.5734C13.2894 11.3133 13.1558 11.0858 12.9463 10.9304Z" fill="url(#paint1_linear)"/>
<path d="M12.9463 10.9304L10.4683 9.07378V5.25932C10.4683 4.72472 10.0349 4.29126 9.50029 4.29126C8.96569 4.29126 8.53223 4.72472 8.53223 5.25932V9.55781C8.53223 9.86123 8.67671 10.1538 8.91873 10.3344L11.7832 12.4837C11.9529 12.6101 12.1516 12.6787 12.3647 12.6787C12.6754 12.6787 12.9571 12.5378 13.1413 12.2922C13.2967 12.0863 13.3617 11.8299 13.3256 11.5734C13.2894 11.3133 13.1558 11.0858 12.9463 10.9304Z" fill="#303F56"/>
<path d="M9.5 0C4.26236 0 0 4.26236 0 9.5C0 14.7376 4.26236 19 9.5 19C14.7376 19 19 14.7376 19 9.5C19 4.26236 14.7376 0 9.5 0ZM9.5 17.0603C5.33156 17.0603 1.93973 13.6684 1.93973 9.5C1.93973 5.33156 5.33156 1.93973 9.5 1.93973C13.6684 1.93973 17.0603 5.33156 17.0603 9.5C17.0603 13.6684 13.6684 17.0603 9.5 17.0603Z" fill="url(#paint2_linear)"/>
<path d="M9.5 0C4.26236 0 0 4.26236 0 9.5C0 14.7376 4.26236 19 9.5 19C14.7376 19 19 14.7376 19 9.5C19 4.26236 14.7376 0 9.5 0ZM9.5 17.0603C5.33156 17.0603 1.93973 13.6684 1.93973 9.5C1.93973 5.33156 5.33156 1.93973 9.5 1.93973C13.6684 1.93973 17.0603 5.33156 17.0603 9.5C17.0603 13.6684 13.6684 17.0603 9.5 17.0603Z" fill="url(#paint3_linear)"/>
<path d="M9.5 0C4.26236 0 0 4.26236 0 9.5C0 14.7376 4.26236 19 9.5 19C14.7376 19 19 14.7376 19 9.5C19 4.26236 14.7376 0 9.5 0ZM9.5 17.0603C5.33156 17.0603 1.93973 13.6684 1.93973 9.5C1.93973 5.33156 5.33156 1.93973 9.5 1.93973C13.6684 1.93973 17.0603 5.33156 17.0603 9.5C17.0603 13.6684 13.6684 17.0603 9.5 17.0603Z" fill="#303F56"/>
<defs>
<linearGradient id="paint0_linear" x1="8.53223" y1="8.48499" x2="13.4524" y2="8.48499" gradientUnits="userSpaceOnUse">
<stop stop-color="#23A3CF"/>
<stop offset="1" stop-color="#25D4CA"/>
</linearGradient>
<linearGradient id="paint1_linear" x1="8.53223" y1="10.5819" x2="13.8701" y2="10.5789" gradientUnits="userSpaceOnUse">
<stop stop-color="#217BFC"/>
<stop offset="1" stop-color="#31CAE4"/>
</linearGradient>
<linearGradient id="paint2_linear" x1="3.53903e-08" y1="9.49999" x2="19.4634" y2="9.49999" gradientUnits="userSpaceOnUse">
<stop stop-color="#23A3CF"/>
<stop offset="1" stop-color="#25D4CA"/>
</linearGradient>
<linearGradient id="paint3_linear" x1="-1.60201e-07" y1="14.25" x2="21.1156" y2="14.2298" gradientUnits="userSpaceOnUse">
<stop stop-color="#217BFC"/>
<stop offset="1" stop-color="#31CAE4"/>
</linearGradient>
</defs>
</svg>
