<svg width="33" height="33" viewBox="0 0 33 33" fill="none" xmlns="http://www.w3.org/2000/svg">
<path d="M16.5 0C7.37344 0 0 7.37344 0 16.5C0 25.6266 7.37344 33 16.5 33C25.6266 33 33 25.6266 33 16.5C33 7.37344 25.6266 0 16.5 0ZM16.5 31.0664C8.46914 31.0664 1.93359 24.5309 1.93359 16.5C1.93359 8.46914 8.46914 1.93359 16.5 1.93359C24.5309 1.93359 31.0664 8.46914 31.0664 16.5C31.0664 24.5309 24.5309 31.0664 16.5 31.0664Z" fill="#9AA7AF"/>
<path d="M15.5332 25.2012H17.4668V29.0684H15.5332V25.2012Z" fill="#9AA7AF"/>
<path d="M15.5332 3.93164H17.4668V7.79883H15.5332V3.93164Z" fill="#9AA7AF"/>
<path d="M25.2012 15.5332H29.0684V17.4668H25.2012V15.5332Z" fill="#9AA7AF"/>
<path d="M3.93164 15.5332H7.79883V17.4668H3.93164V15.5332Z" fill="#9AA7AF"/>
<path d="M21.334 17.4668V15.5332H17.4668V9.73242H15.5332V15.5332H13.5996V17.4668H15.5332V19.4004H17.4668V17.4668H21.334Z" fill="#9AA7AF"/>
</svg>
