<svg width="58" height="51" viewBox="0 0 58 51" fill="none" xmlns="http://www.w3.org/2000/svg">
<path d="M34.888 28.8711C33.7944 28.8711 32.7407 29.038 31.7493 29.3444C31.5675 22.8926 26.284 17.7188 19.7899 17.7188C13.2235 17.7188 7.89767 23.0072 7.82543 29.5536C3.83729 31.0632 1 34.9168 1 39.4356C1 45.2696 5.73047 50 11.5645 50C16.706 50 29.4924 50 34.888 50C40.722 50 45.4525 45.2696 45.4525 39.4356C45.4525 33.6016 40.722 28.8711 34.888 28.8711Z" stroke="#1CA7C4" stroke-width="1.5" stroke-miterlimit="10" stroke-linecap="round" stroke-linejoin="round"/>
<path d="M7.82324 29.6857C7.82324 23.077 13.1815 17.7188 19.7902 17.7188C26.3989 17.7188 31.7571 23.077 31.7571 29.6857C31.7571 30.5227 31.6699 31.3422 31.508 32.1319" stroke="#1CA7C4" stroke-width="1.5" stroke-miterlimit="10" stroke-linecap="round" stroke-linejoin="round"/>
<path d="M7.45166 29.7006C8.71461 29.165 10.1046 28.8711 11.5644 28.8711C14.4814 28.8711 17.1218 30.0543 19.035 31.965" stroke="#1CA7C4" stroke-width="1.5" stroke-miterlimit="10" stroke-linecap="round" stroke-linejoin="round"/>
<path d="M38.1592 8.65637C32.1358 8.65637 27.2534 13.5388 27.2534 19.5621C27.2534 19.8287 27.2659 20.0927 27.2858 20.3543C29.6797 22.2823 31.3138 25.1146 31.6775 28.3305C32.0412 28.5996 32.4248 28.8462 32.8234 29.0704C33.4935 28.9384 34.1835 28.8661 34.8909 28.8661C36.8115 28.8661 38.6125 29.3818 40.1669 30.2785C45.2337 29.3369 49.0699 24.8979 49.0699 19.5596C49.0649 13.5413 44.1825 8.65637 38.1592 8.65637Z" fill="#1CA7C4"/>
<path d="M38.1596 5.9436C38.7251 5.9436 39.1834 4.61339 39.1834 2.9718C39.1834 1.33021 38.7251 0 38.1596 0C37.5941 0 37.1333 1.33021 37.1333 2.9718C37.1333 4.61339 37.5916 5.9436 38.1596 5.9436Z" fill="#1CA7C4"/>
<path d="M31.2791 7.78696C31.7698 7.50299 31.5008 6.12296 30.6813 4.70058C29.8617 3.2782 28.798 2.35651 28.3073 2.64049C27.8166 2.92447 28.0856 4.3045 28.9051 5.72688C29.7272 7.14677 30.7884 8.06845 31.2791 7.78696Z" fill="#1CA7C4"/>
<path d="M45.0373 31.6162C44.5465 31.9002 44.8156 33.2802 45.6351 34.7026C46.4547 36.125 47.5184 37.0467 48.0091 36.7627C48.4998 36.4787 48.2308 35.0987 47.4112 33.6763C46.5917 32.2564 45.528 31.3322 45.0373 31.6162Z" fill="#1CA7C4"/>
<path d="M23.1583 12.2235C24.5807 13.043 25.9608 13.3121 26.2447 12.8213C26.5287 12.3306 25.6045 11.2694 24.1846 10.4474C22.7623 9.62783 21.3822 9.3588 21.0983 9.84954C20.8143 10.3403 21.736 11.4039 23.1583 12.2235Z" fill="#1CA7C4"/>
<path d="M53.1609 27.1797C51.7385 26.3601 50.3585 26.0911 50.0745 26.5818C49.793 27.0726 50.7147 28.1337 52.1346 28.9558C53.557 29.7753 54.937 30.0444 55.221 29.5536C55.505 29.0604 54.5808 27.9992 53.1609 27.1797Z" fill="#1CA7C4"/>
<path d="M54.8893 18.6753C53.2477 18.6753 51.9175 19.1336 51.9175 19.6991C51.9175 20.2646 53.2477 20.7229 54.8893 20.7229C56.5309 20.7229 57.8611 20.2646 57.8611 19.6966C57.8611 19.1361 56.5284 18.6753 54.8893 18.6753Z" fill="#1CA7C4"/>
<path d="M53.1602 12.2235C54.5826 11.4039 55.5043 10.3403 55.2203 9.84954C54.9388 9.3588 53.5563 9.62783 52.1339 10.4474C50.7115 11.2669 49.7899 12.3306 50.0738 12.8213C50.3578 13.3121 51.7379 13.0455 53.1602 12.2235Z" fill="#1CA7C4"/>
<path d="M45.0373 7.78699C45.528 8.07097 46.5892 7.14679 47.4112 5.72691C48.2308 4.30702 48.4998 2.92449 48.0091 2.64052C47.5184 2.35654 46.4572 3.28071 45.6351 4.7006C44.8156 6.12298 44.5465 7.50301 45.0373 7.78699Z" fill="#1CA7C4"/>
</svg>
