<svg width="563" height="123" viewBox="0 0 563 123" fill="none" xmlns="http://www.w3.org/2000/svg">
<path d="M299.797 104.577H297.686V121.467H299.797V104.577Z" fill="#C39467"/>
<path d="M307.334 95.2244C308.059 94.387 308.467 93.4369 308.467 92.4235C308.467 90.4601 306.926 88.7288 304.548 87.638C305.265 86.9413 305.681 86.1179 305.681 85.2242C305.681 82.7892 302.57 80.8116 298.728 80.8116C294.885 80.8116 291.775 82.7892 291.775 85.2242C291.775 86.1179 292.197 86.9413 292.908 87.638C290.536 88.7288 288.988 90.4671 288.988 92.4235C288.988 93.4369 289.403 94.387 290.121 95.2244C287.672 96.6601 286.145 98.6939 286.145 100.953C286.145 105.295 291.775 108.814 298.728 108.814C305.681 108.814 311.311 105.295 311.311 100.953C311.311 98.6939 309.783 96.6531 307.334 95.2244Z" fill="#80AD12"/>
<path d="M307.334 95.2245C308.059 94.387 308.468 93.4369 308.468 92.4235C308.468 90.4601 306.926 88.7288 304.548 87.638C305.265 86.9413 305.681 86.1179 305.681 85.2242C305.681 82.7892 302.472 80.8116 298.629 80.8116C298.58 80.8116 299.087 80.8187 298.383 80.8187V108.821C299.087 108.821 298.58 108.821 298.629 108.821C305.582 108.821 311.261 105.302 311.261 100.96C311.261 98.6939 309.784 96.6531 307.334 95.2245Z" fill="#91C60E"/>
<path d="M532.739 100.355H529.924V120.763H532.739V100.355Z" fill="#C39467"/>
<path d="M543.091 90.453C546.195 89.4115 548.383 86.8991 548.383 83.9504C548.383 81.1213 546.357 78.6933 543.45 77.5814C544.21 76.7791 544.646 75.8431 544.646 74.8368C544.646 71.874 540.86 69.4672 536.194 69.4672C534.597 69.4672 533.112 69.7557 531.838 70.2413C530.564 69.7557 529.079 69.4672 527.482 69.4672C522.816 69.4672 519.03 71.867 519.03 74.8368C519.03 75.8431 519.473 76.7791 520.226 77.5814C517.32 78.6933 515.293 81.1213 515.293 83.9504C515.293 86.7724 517.306 89.1933 520.198 90.3052C517.545 91.9027 515.912 94.0633 515.912 96.4419C515.912 101.375 522.901 105.373 531.521 105.373C540.142 105.373 547.131 101.375 547.131 96.4419C547.138 94.1407 545.604 92.0435 543.091 90.453Z" fill="#5F7505"/>
<path d="M548.383 83.9574C548.383 81.1283 546.357 78.7004 543.45 77.5885C544.21 76.7862 544.647 75.8502 544.647 74.8439C544.647 71.8811 540.86 69.4742 536.194 69.4742C534.597 69.4742 532.95 69.7628 531.676 70.2484C531.62 70.2273 532.035 70.2061 531.332 70.1921V105.38C539.777 105.337 546.976 101.361 546.976 96.456C546.976 94.1477 545.526 92.0435 543.007 90.4601C546.11 89.4185 548.383 86.8991 548.383 83.9574Z" fill="#808E2F"/>
<path d="M139.342 104.577H137.231V120.764H139.342V104.577Z" fill="#C39467"/>
<path d="M147.4 96.8933C149.842 96.0769 151.566 94.0923 151.566 91.777C151.566 89.5461 149.969 87.6319 147.682 86.7592C148.28 86.1259 148.625 85.3869 148.625 84.5987C148.625 82.2623 145.641 80.3692 141.967 80.3692C140.708 80.3692 139.539 80.5944 138.533 80.9815C137.527 80.5944 136.358 80.3692 135.099 80.3692C131.418 80.3692 128.441 82.2623 128.441 84.5987C128.441 85.3869 128.793 86.1259 129.384 86.7592C127.09 87.6319 125.5 89.5461 125.5 91.777C125.5 94.0008 127.083 95.908 129.363 96.7877C127.273 98.0474 125.992 99.7505 125.992 101.622C125.992 105.507 131.495 108.653 138.287 108.653C145.078 108.653 150.581 105.5 150.581 101.622C150.588 99.7997 149.385 98.1389 147.4 96.8933Z" fill="#98AA13"/>
<path d="M151.574 91.769C151.574 89.5381 149.976 87.6239 147.689 86.7513C148.287 86.1179 148.632 85.3789 148.632 84.5907C148.632 82.2543 145.648 80.3612 141.974 80.3612C140.715 80.3612 139.314 80.5864 138.315 80.9735C138.273 80.9524 138.646 80.9453 137.942 80.9242V108.645C144.979 108.617 150.37 105.478 150.37 101.614C150.37 99.7988 149.279 98.1379 147.295 96.8923C149.73 96.0689 151.574 94.0914 151.574 91.769Z" fill="#ADB548"/>
<path d="M228.719 103.873H226.608V120.06H228.719V103.873Z" fill="#C39467"/>
<path d="M240.289 92.3038C240.289 102.804 234.82 111.312 228.079 111.312C221.337 111.312 215.875 102.804 215.875 92.3038C215.875 81.8039 221.344 73.2955 228.079 73.2955C234.82 73.2955 240.289 81.8109 240.289 92.3038Z" fill="#80AD12"/>
<path d="M227.79 73.2955C227.727 73.2955 228.015 73.3026 227.312 73.3026V111.305C228.015 111.305 227.727 111.312 227.79 111.312C234.532 111.312 240 102.804 240 92.3038C239.993 81.8109 234.532 73.2955 227.79 73.2955Z" fill="#91C60E"/>
<path d="M462.286 89.4818L460.555 88.1588L453.918 96.2589V87.6873H451.807V96.2589L445.438 88.1588L443.707 89.4818L451.807 99.6229V120.764H453.918V99.6229L462.286 89.4818Z" fill="#C39467"/>
<path d="M463.912 72.444C463.166 72.444 462.441 72.5214 461.737 72.6692C459.879 69.5868 456.516 67.5178 452.652 67.5178C448.415 67.5178 444.763 70.009 443.067 73.6052C442.089 73.3096 441.054 73.1478 439.984 73.1478C434.129 73.1478 429.379 77.8981 429.379 83.7533C429.379 89.6085 434.129 94.3588 439.984 94.3588C444.221 94.3588 447.873 91.8675 449.57 88.2714C450.548 88.5669 451.582 88.7288 452.652 88.7288C453.398 88.7288 454.123 88.6514 454.827 88.5036C456.684 91.586 460.048 93.655 463.912 93.655C469.767 93.655 474.518 88.9047 474.518 83.0495C474.518 77.1943 469.774 72.444 463.912 72.444Z" fill="#80AD12"/>
<path d="M463.912 72.444C463.166 72.444 462.265 72.5214 461.561 72.6692C459.739 69.6431 456.734 67.5952 452.511 67.5248V88.7217C453.215 88.7077 454.017 88.6373 454.651 88.5106C456.509 91.593 459.964 93.6621 463.82 93.6621C469.676 93.6621 474.468 88.9117 474.468 83.0565C474.468 77.2013 469.774 72.444 463.912 72.444Z" fill="#91C60E"/>
<path d="M194.939 99.651H193.531V118.652H194.939V99.651Z" fill="#C39467"/>
<path d="M206.846 102.382C206.846 107.885 201.371 111.115 194.615 111.115C187.859 111.115 182.384 107.885 182.384 102.382C182.384 96.8782 187.352 93.1132 194.615 91.1779C201.272 93.1554 206.846 96.8712 206.846 102.382Z" fill="#5D8E07"/>
<path d="M194.509 91.1779C194.453 91.1919 194.939 91.213 194.235 91.2271V110.911H196.269C202.244 110.207 206.79 107.357 206.79 102.311C206.797 96.8079 201.167 93.1554 194.509 91.1779Z" fill="#7BA816"/>
<path d="M174.53 50.3885H170.307V121.467H174.53V50.3885Z" fill="#C39467"/>
<path d="M189.506 71.5714C189.506 80.5583 181.743 87.8491 172.165 87.8491C162.587 87.8491 154.825 80.5653 154.825 71.5714C154.825 62.5845 162.587 0 172.165 0C181.743 0 189.506 62.5845 189.506 71.5714Z" fill="#80AD12"/>
<path d="M175.48 87.6873C183.467 86.9835 188.928 79.566 188.928 71.6418C188.928 62.6549 182.271 0 171.011 0V87.6873H175.48Z" fill="#91C60E"/>
<path d="M501.07 77.131H498.255V120.06H501.07V77.131Z" fill="#C39467"/>
<path d="M510.198 89.7141C510.198 95.1822 505.476 99.6158 499.656 99.6158C493.836 99.6158 489.106 95.1822 489.106 89.7141C489.106 84.2459 493.829 46.1871 499.649 46.1871C505.469 46.1871 510.198 84.2459 510.198 89.7141Z" fill="#80AD12"/>
<path d="M501.668 99.651C506.524 98.9473 509.853 94.6473 509.853 89.8267C509.853 84.3585 505.996 46.1871 498.959 46.1871V99.651H501.668Z" fill="#91C60E"/>
<path d="M323.725 103.874H323.021V122.171H323.725V103.874Z" fill="#C39467"/>
<path d="M330.847 107.076L326.266 107.244L323.296 110.728L320.312 107.252L315.731 107.104L316.589 102.6L313.852 98.9261L317.905 96.7938L319.066 92.3601L323.268 94.1969L327.455 92.3461L328.637 96.7727L332.698 98.898L329.974 102.579L330.847 107.076Z" fill="#2E8C0C"/>
<path d="M328.637 96.7727L327.455 92.3461L323.211 94.1969L323.021 94.1406V110.545L323.24 110.728L326.238 107.244L330.833 107.076L329.967 102.579L332.698 98.898L328.637 96.7727Z" fill="#5BA01F"/>
<path d="M367.358 78.5385H363.839V119.356H367.358V78.5385Z" fill="#C39467"/>
<path d="M396.134 99.6526L382.179 83.4664H391.574L372.256 60.9464H384.269L371.39 46.1676H379.765L369.032 33.5001H374.937L365.408 22.4724L355.886 33.5001H361.791L351.052 46.1676H359.433L346.548 60.9464H358.568L339.25 83.4664H348.638L334.689 99.6526H396.134Z" fill="#80AD12"/>
<path d="M365.246 99.651H396.134L382.178 83.4648H391.573L372.255 60.9448H384.268L371.39 46.166H379.764L369.032 33.4985H374.937L365.816 22.2385H365.246V99.651Z" fill="#91C60E"/>
<path d="M57.7076 84.8723H54.8926V120.763H57.7076V84.8723Z" fill="#C39467"/>
<path d="M36.377 98.9478L55.9201 23.2524L75.4562 98.9478H36.377Z" fill="#80AD12"/>
<path d="M55.5962 98.9472H75.456L55.8355 23.0759L55.5962 23.5122V98.9472Z" fill="#91C60E"/>
<path d="M101.966 93.0006L100.235 91.6775L91.4876 98.3702V89.0948H89.3763V98.3702L81.5999 90.9738L79.8687 92.2969L89.3763 101.03V122.171H91.4876V101.03L101.966 93.0006Z" fill="#C39467"/>
<path d="M102.656 77.5533C102.656 84.1474 97.3144 89.4888 90.7203 89.4888C84.1261 89.4888 78.7847 84.1474 78.7847 77.5533C78.7847 70.9591 84.1261 65.6177 90.7203 65.6177C97.3144 65.6177 102.656 70.9591 102.656 77.5533Z" fill="#5F7505"/>
<path d="M111.277 90.9245C111.277 94.5066 108.378 97.4061 104.796 97.4061C101.213 97.4061 98.314 94.4996 98.314 90.9245C98.314 87.3424 101.213 84.443 104.796 84.443C108.378 84.443 111.277 87.3424 111.277 90.9245Z" fill="#75960E"/>
<path d="M85.942 92.3743C85.942 95.2033 83.6478 97.4905 80.8257 97.4905C77.9967 97.4905 75.7095 95.1963 75.7095 92.3743C75.7095 89.5452 78.0037 87.251 80.8257 87.251C83.6548 87.258 85.942 89.5522 85.942 92.3743Z" fill="#5F7505"/>
<path d="M90.7837 65.6177V89.4818C97.3497 89.4467 102.656 84.1193 102.656 77.5462C102.656 70.9802 97.3497 65.6529 90.7837 65.6177Z" fill="#75960E"/>
<path d="M280.796 120.06H247.72C247.72 120.06 248.952 118.533 250.416 117.892C250.416 117.892 249.064 116.808 247.72 117.104C247.72 117.104 248.424 115.126 250.887 114.711C250.887 114.711 248.304 114.866 247.312 113.402C247.312 113.402 248.952 113.276 250.535 112.276C250.535 112.276 249.085 110.967 247.629 111.319C247.629 111.319 248.727 109.511 251.063 109.511C251.063 109.511 250.226 108.765 249.128 108.941C249.128 108.941 250.05 107.266 253.132 107.139C253.132 107.139 252.738 106.041 251.682 105.865C251.682 105.865 253.181 103.838 256.214 104.064C256.214 104.064 256.081 102.48 254.631 102.389C254.631 102.389 256.482 100.981 258.544 102.121C258.544 102.121 258.544 99.7918 257.706 99.6158C257.706 99.6158 259.557 100.059 260.521 101.417C260.521 101.417 261.535 100.404 260.697 99.3906C260.697 99.3906 262.457 100.186 262.59 101.987C262.59 101.987 263.688 100.01 263.336 98.6447C263.336 98.6447 264.702 99.0387 264.92 100.714C264.92 100.714 265.272 99.5243 266.37 99.1302C266.37 99.1302 266.236 100.052 266.588 101.023C266.588 101.023 267.249 99.8762 268.875 99.2217C268.875 99.2217 268.607 99.7495 268.607 101.073C268.607 101.073 269.755 99.9255 271.247 99.7988C271.247 99.7988 270.761 101.65 270.761 102.262C270.761 102.262 272.344 101.6 274.019 101.819C274.019 101.819 273.576 102.389 273.048 103.536C273.048 103.536 275.159 103.226 277.756 105.471C277.756 105.471 276.306 106.133 275.905 106.569C275.905 106.569 278.326 106.879 280.128 108.462C280.128 108.462 278.411 108.68 277.749 109.187C277.749 109.187 280.388 109.518 281.183 111.453C281.183 111.453 279.114 111.101 278.502 112.199C278.502 112.199 279.516 112.199 281.409 114.05C281.409 114.05 279.382 114.008 278.502 114.796C278.502 114.796 280.353 115.014 281.409 116.689C281.409 116.689 279.691 116.998 278.77 117.963C278.777 117.948 280.402 117.949 280.796 120.06Z" fill="#80AD12"/>
<path d="M275.962 118.652H252.611C252.611 118.652 253.484 117.407 254.518 116.956C254.518 116.956 253.568 116.105 252.611 116.316C252.611 116.316 253.111 114.873 254.849 114.585C254.849 114.585 253.027 114.676 252.323 113.634C252.323 113.634 253.484 113.536 254.603 112.832C254.603 112.832 253.575 111.903 252.555 112.15C252.555 112.15 253.329 110.876 254.976 110.876C254.976 110.876 254.385 110.348 253.611 110.468C253.611 110.468 254.265 109.285 256.44 109.194C256.44 109.194 256.158 108.42 255.412 108.293C255.412 108.293 256.468 106.864 258.607 107.019C258.607 107.019 258.516 105.9 257.488 105.837C257.488 105.837 258.79 104.845 260.254 105.654C260.254 105.654 260.254 104.007 259.663 103.881C259.663 103.881 260.965 104.19 261.647 105.154C261.647 105.154 262.358 104.444 261.774 103.726C261.774 103.726 263.013 104.282 263.111 105.555C263.111 105.555 263.885 104.155 263.639 103.198C263.639 103.198 264.603 103.479 264.758 104.655C264.758 104.655 265.004 103.817 265.786 103.536C265.786 103.536 265.694 104.19 265.94 104.873C265.94 104.873 266.405 104.063 267.552 103.599C267.552 103.599 267.362 103.972 267.362 104.901C267.362 104.901 268.171 104.092 269.227 104C269.227 104 268.882 105.302 268.882 105.738C268.882 105.738 270.001 105.274 271.183 105.429C271.183 105.429 270.874 105.83 270.501 106.639C270.501 106.639 271.993 106.421 273.822 108.004C273.822 108.004 272.795 108.469 272.52 108.779C272.52 108.779 274.231 108.997 275.504 110.116C275.504 110.116 274.294 110.271 273.829 110.629C273.829 110.629 275.694 110.862 276.25 112.227C276.25 112.227 274.794 111.981 274.357 112.755C274.357 112.755 275.068 112.755 276.405 114.057C276.405 114.057 274.976 114.029 274.357 114.585C274.357 114.585 275.659 114.739 276.405 115.922C276.405 115.922 275.195 116.309 274.54 116.991C274.533 116.991 275.687 116.541 275.962 118.652Z" fill="#91C60E"/>
<path d="M439.956 118.652C440.759 117.245 441.216 116.365 441.216 115.162C441.216 111.418 436.803 108.3 431.321 108.216C431.321 108.173 431.328 108.089 431.328 108.047C431.328 103.303 427.338 99.4329 422.419 99.4329C418.527 99.4329 415.226 101.833 414.016 105.19C412.883 103.831 411.11 102.945 409.118 102.945C405.691 102.945 402.918 105.527 402.918 108.708C402.918 108.835 402.932 108.962 402.939 109.088C402.27 108.919 401.567 108.821 400.835 108.821C396.781 108.821 393.495 111.826 393.495 115.316C393.495 116.471 393.861 117.245 394.48 118.652H439.956Z" fill="#74960B"/>
<path d="M433.433 120.06C434.003 119.356 434.326 118.455 434.326 117.597C434.326 114.936 431.188 112.727 427.289 112.663C427.289 112.635 427.296 112.579 427.296 112.544C427.296 109.166 424.46 106.421 420.962 106.421C418.196 106.421 415.846 108.131 414.98 110.517C414.171 109.553 412.918 108.919 411.497 108.919C409.062 108.919 407.084 110.756 407.084 113.022C407.084 113.114 407.091 113.205 407.098 113.297C406.627 113.177 406.12 113.107 405.599 113.107C402.714 113.107 400.377 115.225 400.377 117.702C400.377 118.519 400.638 119.349 401.081 120.053H433.433V120.06Z" fill="#91C60E"/>
<path d="M353.508 116.224C353.508 116.224 349.335 114.064 345.752 118.589C345.752 118.589 350.862 119.405 353.508 116.224Z" fill="#80AD12"/>
<path d="M348.8 111.073C348.8 111.073 350.58 115.422 345.753 118.589C345.753 118.589 345.401 113.423 348.8 111.073Z" fill="#80AD12"/>
<path d="M340.565 113.62C340.565 113.62 341.206 118.272 346.97 118.589C346.977 118.589 344.689 113.944 340.565 113.62Z" fill="#80AD12"/>
<path d="M338.187 116.245C338.187 116.245 342.768 113.649 346.977 118.575C346.977 118.568 341.284 119.694 338.187 116.245Z" fill="#80AD12"/>
<path d="M345.464 117.533C345.45 117.477 344.162 112.107 339.369 108.378L339.869 107.737C342.909 110.102 344.584 113.029 345.45 115.035C345.506 111.664 345.858 105.724 347.54 103.311L348.208 103.775C346.006 106.949 346.266 117.329 346.266 117.435L345.464 117.533Z" fill="#80AD12"/>
<path d="M347.871 100.615L348.518 98.5954L348.511 100.721L349.75 98.9965L349.088 101.016L350.798 99.7636L349.545 101.474L351.558 100.812L349.841 102.051L351.959 102.044L349.94 102.691L351.959 103.339L349.841 103.332L351.558 104.57L349.545 103.902L350.798 105.619L349.088 104.366L349.75 106.379L348.511 104.655L348.518 106.78L347.871 104.76L347.223 106.78L347.23 104.655L345.992 106.379L346.653 104.366L344.943 105.619L346.196 103.902L344.183 104.57L345.907 103.332L343.782 103.339L345.801 102.691L343.782 102.044L345.907 102.051L344.183 100.812L346.196 101.474L344.943 99.7636L346.653 101.016L345.992 98.9965L347.23 100.721L347.223 98.5954L347.871 100.615Z" fill="#D1D3D4"/>
<path d="M349.679 102.635C349.679 103.634 348.87 104.444 347.871 104.444C346.871 104.444 346.062 103.634 346.062 102.635C346.062 101.636 346.871 100.826 347.871 100.826C348.87 100.826 349.679 101.636 349.679 102.635Z" fill="#F7BB34"/>
<path d="M338.919 105.091L339.566 103.071L339.559 105.197L340.798 103.472L340.136 105.492L341.847 104.239L340.594 105.95L342.614 105.281L340.889 106.527L343.015 106.52L340.995 107.167L343.015 107.814L340.889 107.8L342.614 109.046L340.594 108.377L341.847 110.095L340.136 108.842L340.798 110.855L339.559 109.131L339.566 111.256L338.919 109.236L338.271 111.256L338.286 109.131L337.04 110.855L337.701 108.842L335.991 110.095L337.244 108.377L335.231 109.046L336.955 107.8L334.83 107.814L336.85 107.167L334.83 106.52L336.955 106.527L335.231 105.281L337.244 105.95L335.991 104.239L337.701 105.492L337.04 103.472L338.286 105.197L338.271 103.071L338.919 105.091Z" fill="#D1D3D4"/>
<path d="M340.728 107.111C340.728 108.11 339.918 108.919 338.919 108.919C337.92 108.919 337.11 108.11 337.11 107.111C337.11 106.111 337.92 105.302 338.919 105.302C339.918 105.302 340.728 106.111 340.728 107.111Z" fill="#F7BB34"/>
<path d="M125.127 116.217C125.127 116.217 119.778 113.445 115.183 119.25C115.183 119.25 121.735 120.292 125.127 116.217Z" fill="#80AD12"/>
<path d="M119.088 109.616C119.088 109.616 121.369 115.19 115.183 119.243C115.183 119.25 114.732 112.628 119.088 109.616Z" fill="#80AD12"/>
<path d="M108.539 112.881C108.539 112.881 109.362 118.849 116.752 119.25C116.752 119.25 113.817 113.297 108.539 112.881Z" fill="#80AD12"/>
<path d="M105.485 116.245C105.485 116.245 111.361 112.917 116.752 119.229C116.752 119.222 109.454 120.665 105.485 116.245Z" fill="#80AD12"/>
<path d="M114.81 117.892C114.796 117.822 113.142 110.939 106.998 106.161L107.638 105.337C111.53 108.363 113.684 112.121 114.796 114.69C114.873 110.376 115.323 102.762 117.477 99.658L118.335 100.256C115.513 104.324 115.844 117.632 115.844 117.766L114.81 117.892Z" fill="#80AD12"/>
<path d="M117.899 96.2167L118.729 93.6269L118.722 96.3434L120.313 94.1406L119.461 96.7234L121.657 95.1188L120.045 97.3075L122.628 96.456L120.425 98.0464L123.142 98.0394L120.552 98.8698L123.142 99.7003L120.425 99.6862L122.628 101.277L120.045 100.425L121.657 102.621L119.461 101.016L120.313 103.599L118.722 101.389L118.729 104.113L117.899 101.523L117.069 104.113L117.083 101.389L115.492 103.599L116.344 101.016L114.148 102.621L115.753 100.425L113.17 101.277L115.38 99.6862L112.663 99.7003L115.246 98.8698L112.663 98.0394L115.38 98.0464L113.17 96.456L115.753 97.3075L114.148 95.1188L116.344 96.7234L115.492 94.1406L117.083 96.3434L117.069 93.6269L117.899 96.2167Z" fill="#D1D3D4"/>
<path d="M120.221 98.7995C120.221 100.08 119.187 101.115 117.906 101.115C116.625 101.115 115.591 100.08 115.591 98.7995C115.591 97.5187 116.625 96.4842 117.906 96.4842C119.18 96.4771 120.221 97.5187 120.221 98.7995Z" fill="#F7BB34"/>
<path d="M106.428 101.952L107.258 99.3624L107.251 102.079L108.835 99.8762L107.99 102.459L110.179 100.854L108.574 103.043L111.157 102.199L108.954 103.782L111.671 103.775L109.081 104.605L111.671 105.436L108.954 105.422L111.157 107.012L108.574 106.161L110.179 108.356L107.99 106.752L108.835 109.335L107.251 107.132L107.258 109.848L106.428 107.258L105.598 109.848L105.612 107.132L104.021 109.335L104.866 106.752L102.677 108.356L104.282 106.161L101.699 107.012L103.909 105.422L101.185 105.436L103.775 104.605L101.185 103.775L103.909 103.782L101.699 102.199L104.282 103.043L102.677 100.854L104.866 102.459L104.021 99.8762L105.612 102.079L105.598 99.3624L106.428 101.952Z" fill="#D1D3D4"/>
<path d="M108.743 104.535C108.743 105.816 107.709 106.85 106.428 106.85C105.147 106.85 104.113 105.816 104.113 104.535C104.113 103.254 105.147 102.22 106.428 102.22C107.709 102.22 108.743 103.254 108.743 104.535Z" fill="#F7BB34"/>
<path d="M466.432 115.091C466.432 115.091 473.645 111.354 479.845 119.18C479.852 119.18 471.006 120.588 466.432 115.091Z" fill="#80AD12"/>
<path d="M474.581 106.182C474.581 106.182 471.499 113.698 479.852 119.18C479.852 119.18 480.464 110.249 474.581 106.182Z" fill="#80AD12"/>
<path d="M488.818 110.587C488.818 110.587 487.706 118.638 477.734 119.18C477.741 119.18 481.689 111.15 488.818 110.587Z" fill="#80AD12"/>
<path d="M492.935 115.126C492.935 115.126 485.011 110.637 477.734 119.152C477.741 119.145 487.586 121.094 492.935 115.126Z" fill="#80AD12"/>
<path d="M480.352 117.35C480.373 117.259 482.604 107.962 490.894 101.516L490.028 100.404C484.778 104.493 481.872 109.56 480.373 113.022C480.267 107.195 479.662 96.9204 476.756 92.7402L475.602 93.5425C479.416 99.0317 478.966 116.991 478.958 117.167L480.352 117.35Z" fill="#80AD12"/>
<path d="M476.186 88.0955L475.059 84.6049L475.074 88.2714L472.934 85.2945L474.081 88.7781L471.118 86.6105L473.286 89.5733L469.802 88.4262L472.779 90.5656L469.113 90.5586L472.603 91.6775L469.113 92.7965L472.779 92.7824L469.802 94.9289L473.286 93.7817L471.118 96.7375L474.081 94.5699L472.934 98.0535L475.074 95.0837L475.059 98.7502L476.186 95.2526L477.304 98.7502L477.29 95.0837L479.437 98.0535L478.29 94.5699L481.245 96.7375L479.078 93.7817L482.562 94.9289L479.592 92.7824L483.258 92.7965L479.761 91.6775L483.258 90.5586L479.592 90.5656L482.562 88.4262L479.078 89.5733L481.245 86.6105L478.29 88.7781L479.437 85.2945L477.29 88.2714L477.304 84.6049L476.186 88.0955Z" fill="#D1D3D4"/>
<path d="M473.054 91.579C473.054 93.3032 474.454 94.7037 476.178 94.7037C477.903 94.7037 479.303 93.3032 479.303 91.579C479.303 89.8548 477.903 88.4543 476.178 88.4543C474.454 88.4543 473.054 89.8548 473.054 91.579Z" fill="#F7BB34"/>
<path d="M491.668 95.8367L490.542 92.3461L490.556 96.0126L488.417 93.0358L489.564 96.5193L486.601 94.3518L488.768 97.3145L485.285 96.1674L488.262 98.3068L484.595 98.2998L488.086 99.4188L484.595 100.538L488.262 100.524L485.285 102.67L488.768 101.523L486.601 104.479L489.564 102.311L488.417 105.795L490.556 102.825L490.542 106.491L491.668 102.994L492.787 106.491L492.773 102.825L494.919 105.795L493.772 102.311L496.728 104.479L494.56 101.523L498.044 102.67L495.074 100.524L498.741 100.538L495.243 99.4188L498.741 98.2998L495.074 98.3068L498.044 96.1674L494.56 97.3145L496.728 94.3518L493.772 96.5193L494.919 93.0358L492.773 96.0126L492.787 92.3461L491.668 95.8367Z" fill="#D1D3D4"/>
<path d="M488.537 99.3203C488.537 101.044 489.937 102.445 491.661 102.445C493.385 102.445 494.786 101.044 494.786 99.3203C494.786 97.5961 493.385 96.1956 491.661 96.1956C489.937 96.1956 488.537 97.5961 488.537 99.3203Z" fill="#F7BB34"/>
<path d="M214.968 109.074C214.968 109.074 210.379 113.501 210.971 119.328C210.971 119.321 215.306 114.915 214.968 109.074Z" fill="#80AD12"/>
<path d="M217.325 113.557C217.325 113.557 215.376 118.132 210.97 119.321C210.97 119.321 212.976 114.936 217.325 113.557Z" fill="#80AD12"/>
<path d="M211.196 106.576C211.196 106.576 214.165 113.339 210.978 119.328C210.978 119.321 208.268 112.692 211.196 106.576Z" fill="#91C60E"/>
<path d="M216.53 111.256C216.53 111.256 215.559 116.844 210.97 119.321C210.97 119.321 212.054 113.923 216.53 111.256Z" fill="#91C60E"/>
<path d="M219.274 114.134C219.274 114.134 213.644 114.859 210.97 119.328C210.97 119.321 216.41 118.483 219.274 114.134Z" fill="#80AD12"/>
<path d="M207.86 110.052C207.86 110.052 211.773 114.162 211.034 119.321C211.034 119.321 207.339 115.239 207.86 110.052Z" fill="#80AD12"/>
<path d="M205.601 112.677C205.601 112.677 210.062 114.859 211.027 119.321C211.034 119.321 206.755 117.09 205.601 112.677Z" fill="#91C60E"/>
<path d="M203.602 114.676C203.602 114.676 208.634 115.324 211.034 119.321C211.034 119.321 206.164 118.568 203.602 114.676Z" fill="#80AD12"/>
<path d="M32.9142 98.8628C32.9142 98.8628 23.132 108.307 24.3777 120.735C24.3847 120.728 33.639 111.326 32.9142 98.8628Z" fill="#80AD12"/>
<path d="M37.946 108.434C37.946 108.434 33.7869 118.188 24.3848 120.728C24.3848 120.728 28.6636 111.376 37.946 108.434Z" fill="#80AD12"/>
<path d="M24.8636 93.5284C24.8636 93.5284 31.2043 107.955 24.4061 120.728C24.3991 120.728 18.6072 106.576 24.8636 93.5284Z" fill="#91C60E"/>
<path d="M36.243 103.522C36.243 103.522 34.1669 115.45 24.3848 120.728C24.3848 120.728 26.6931 109.215 36.243 103.522Z" fill="#91C60E"/>
<path d="M42.1052 109.651C42.1052 109.651 30.0992 111.193 24.3848 120.728C24.3848 120.728 35.9966 118.934 42.1052 109.651Z" fill="#80AD12"/>
<path d="M17.7415 100.96C17.7415 100.96 26.088 109.729 24.5116 120.728C24.5116 120.728 16.6366 112.016 17.7415 100.96Z" fill="#80AD12"/>
<path d="M12.9351 106.555C12.9351 106.555 22.4568 111.214 24.5117 120.735C24.5117 120.728 15.3911 115.971 12.9351 106.555Z" fill="#91C60E"/>
<path d="M8.66309 110.827C8.66309 110.827 19.4023 112.206 24.5115 120.735C24.5115 120.728 14.1312 119.124 8.66309 110.827Z" fill="#80AD12"/>
<path d="M78.4116 109.025C78.4116 109.025 80.4173 114.922 80.9522 118.652H81.8459C81.8459 118.652 83.366 113.444 84.7946 111.77C84.7946 111.77 83.2393 113.057 82.2541 115.513C82.2541 115.513 82.416 111.488 83.8516 108.131C83.8516 108.131 82.6201 110.256 81.8459 113.937C81.8459 113.937 81.5996 104.556 83.2816 100.545C83.2816 100.545 81.1914 104.429 81.1914 112.375C81.1914 112.375 80.8607 108.159 78.5735 105.33C78.5735 105.33 80.6636 109.94 80.8677 114.768C80.8748 114.775 80.2132 111.931 78.4116 109.025Z" fill="#3A8708"/>
<path d="M73.5419 111.15C73.5419 111.15 71.9796 115.746 71.5644 118.652H70.8677C70.8677 118.652 69.6854 114.592 68.5664 113.283C68.5664 113.283 69.7769 114.289 70.5439 116.203C70.5439 116.203 70.4173 113.064 69.2983 110.447C69.2983 110.447 70.2554 112.1 70.8606 114.972C70.8606 114.972 71.0506 107.66 69.7417 104.535C69.7417 104.535 71.3673 107.568 71.3673 113.754C71.3673 113.754 71.6207 110.468 73.4082 108.265C73.4082 108.265 71.7825 111.854 71.6207 115.619C71.6277 115.626 72.1415 113.416 73.5419 111.15Z" fill="#80AD12"/>
<path d="M167.14 94.4081C166.493 94.4081 166.085 94.9359 166.085 95.5833V103.874H163.27V97.7298C163.27 96.4419 162.446 95.4285 161.152 95.4285H160.757C159.47 95.4285 157.633 96.4419 157.633 97.7298V107.392H155.522V99.0951C155.522 98.4476 154.761 97.9198 154.114 97.9198C153.467 97.9198 152.707 98.4476 152.707 99.0951V108.87C152.707 109.518 153.262 110.2 153.91 110.2H157.64V116.105C157.64 117.393 159.47 118.645 160.764 118.645H161.159C162.446 118.645 163.277 117.393 163.277 116.105V106.689H167.225C167.872 106.689 168.203 106.006 168.203 105.358V95.5833C168.196 94.9289 167.788 94.4081 167.14 94.4081Z" fill="#2D8C0A"/>
<path d="M167.14 94.4081C166.493 94.4081 166.085 94.9359 166.085 95.5833V103.874H163.27V97.7298C163.27 96.4419 162.446 95.4285 161.152 95.4285H160.757C160.694 95.4285 160.448 95.5833 160.448 95.5833V118.638C160.448 118.645 160.687 118.652 160.757 118.652H161.152C162.439 118.652 163.27 117.4 163.27 116.112V106.689H167.218C167.865 106.689 168.196 106.006 168.196 105.358V95.5833C168.196 94.9289 167.788 94.4081 167.14 94.4081Z" fill="#5FA51C"/>
<path d="M387.414 95.8156C386.767 95.8156 386.359 96.3434 386.359 96.9908V105.281H383.544V99.1373C383.544 97.8494 382.72 96.836 381.425 96.836H381.031C379.743 96.836 377.907 97.8494 377.907 99.1373V108.8H375.795V100.503C375.795 99.8551 375.035 99.3273 374.388 99.3273C373.741 99.3273 372.98 99.8551 372.98 100.503V110.278C372.98 110.925 373.536 111.608 374.184 111.608H377.914V117.512C377.914 118.8 379.743 120.053 381.038 120.053H381.432C382.72 120.053 383.551 118.8 383.551 117.512V108.096H387.499C388.146 108.096 388.477 107.413 388.477 106.766V96.9908C388.47 96.3363 388.062 95.8156 387.414 95.8156Z" fill="#2D8C0A"/>
<path d="M387.414 95.8156C386.767 95.8156 386.359 96.3434 386.359 96.9908V105.281H383.544V99.1373C383.544 97.8494 382.72 96.836 381.425 96.836H381.031C380.968 96.836 380.722 96.9908 380.722 96.9908V120.046C380.722 120.053 380.961 120.06 381.031 120.06H381.425C382.713 120.06 383.544 118.807 383.544 117.519V108.096H387.492C388.139 108.096 388.47 107.413 388.47 106.766V96.9908C388.47 96.3363 388.062 95.8156 387.414 95.8156Z" fill="#5FA51C"/>
<path d="M563 118.652H0V121.467H563V118.652Z" fill="#5F7505"/>
<path d="M563 119.356L561.698 112.959L560.593 117.013L560.065 111.354L558.658 117.878L557.842 114.979L556.842 117.899L555.667 112.853L554.675 117.716L553.851 115.605L553.148 117.653L552.324 117.013L551.74 117.773L550.276 113.67L549.045 117.597L548.341 115.542L546.23 117.54L544.527 111.558L543.591 116.485L542.183 114.078L540.424 117.188L539.016 109.912L536.729 119.356H537.616H563Z" fill="#5F7505"/>
<path d="M536.454 115.352L535.701 118.99L534.076 114.402L532.915 117.477L532.45 116.696L531.345 117.773L530.128 112.832L529.079 117.885L528.382 115.352L527.158 117.885L526.349 114.282L525.124 117.885L524.258 115.908L523.266 117.885L521.816 113.353L520.655 117.942L519.55 115.352L518.854 117.829L517.749 116.548L516.236 118.061L515.25 113.177L513.393 118.99L537.433 119.356L536.454 115.352Z" fill="#5F7505"/>
<path d="M514.441 119.356L513.139 112.959L512.035 117.013L511.507 111.354L510.099 117.878L509.283 114.979L508.284 117.899L507.108 112.853L506.116 117.716L505.293 115.605L504.589 117.653L503.766 117.013L503.181 117.773L501.718 113.67L500.486 117.597L499.782 115.542L497.671 117.54L495.968 110.151L495.032 116.485L493.624 114.078L491.865 117.188L490.458 112.727L488.17 119.356H489.057H514.441Z" fill="#5F7505"/>
<path d="M487.896 115.352L487.143 118.99L485.517 114.402L484.356 117.477L483.891 116.696L482.787 117.773L481.569 112.832L480.521 117.885L479.824 115.352L478.599 117.885L477.79 114.282L476.565 117.885L475.7 115.908L474.708 117.885L473.258 113.353L472.097 117.942L470.992 115.352L470.295 117.829L469.19 116.548L467.677 118.061L466.692 113.177L464.834 118.99L488.874 119.356L487.896 115.352Z" fill="#5F7505"/>
<path d="M465.882 119.356L464.58 112.959L463.475 117.012L462.244 110.651L461.54 117.878L460.724 114.979L459.724 117.899L458.549 112.853L457.557 117.716L456.734 115.605L456.03 117.653L455.206 117.012L454.622 117.773L453.158 113.67L451.927 117.597L451.223 115.542L449.112 117.54L447.409 111.558L446.473 116.485L445.065 114.078L443.306 117.188L441.899 112.727L439.611 119.356H440.498H465.882Z" fill="#5F7505"/>
<path d="M439.337 115.352L438.584 118.99L436.959 114.402L435.797 117.477L435.333 116.696L434.228 117.773L433.011 112.832L431.962 117.885L431.265 115.352L430.041 117.885L429.231 114.282L428.007 117.885L427.141 115.908L426.149 117.885L424.699 113.353L423.538 117.942L422.433 115.352L421.736 117.829L420.632 116.548L419.119 118.061L418.133 113.177L416.275 118.99L440.315 119.356L439.337 115.352Z" fill="#5F7505"/>
<path d="M417.324 119.356L416.022 112.959L414.917 117.013L414.389 111.354L412.982 117.878L412.165 114.979L411.166 117.899L409.991 112.853L408.998 117.716L408.175 115.605L407.471 117.653L406.648 117.013L406.064 117.773L404.6 112.966L403.368 117.597L402.665 115.542L400.553 117.54L398.85 111.558L397.914 116.485L396.507 114.078L394.747 117.188L393.34 112.727L391.053 119.356H391.939H417.324Z" fill="#5F7505"/>
<path d="M390.778 115.352L390.025 118.99L388.4 114.402L387.238 117.477L386.07 115.992L385.669 117.773L384.451 112.832L383.403 117.885L382.706 115.352L381.482 117.885L380.672 114.282L379.448 117.885L378.582 115.908L377.59 117.885L376.14 113.353L374.979 117.942L373.874 115.352L373.177 117.829L372.073 116.548L370.559 118.061L369.574 113.177L367.716 118.99L391.756 119.356L390.778 115.352Z" fill="#5F7505"/>
<path d="M368.765 119.356L367.463 112.959L366.358 117.013L365.83 111.354L364.423 117.878L363.607 114.979L362.607 117.899L361.432 112.853L360.44 117.716L359.616 115.605L358.913 117.653L358.089 117.013L357.505 117.773L356.041 113.67L354.81 117.597L353.402 114.838L351.995 117.54L350.292 111.558L349.356 116.485L347.948 114.078L346.189 117.188L344.781 112.727L342.494 119.356H343.381H368.765Z" fill="#5F7505"/>
<path d="M342.22 115.352L341.467 118.99L339.841 114.402L338.68 117.477L338.215 116.696L337.11 117.773L335.893 112.832L334.844 117.885L334.148 115.352L332.923 117.885L332.114 114.282L330.889 117.885L330.024 115.908L329.031 117.885L327.582 113.353L326.42 117.942L325.316 115.352L324.619 117.829L323.514 116.548L322.001 118.061L321.016 113.177L319.158 118.99L343.198 119.356L342.22 115.352Z" fill="#5F7505"/>
<path d="M320.206 119.356L318.904 112.959L317.799 117.013L317.271 111.354L315.864 117.878L315.048 114.979L314.048 117.899L312.873 112.853L311.881 117.716L311.057 115.605L310.354 117.653L309.53 117.013L308.946 117.773L307.482 113.67L306.251 117.597L305.547 115.542L303.436 117.54L301.733 111.558L300.797 116.485L299.389 114.078L297.63 117.188L296.222 112.727L293.935 119.356H294.822H320.206Z" fill="#5F7505"/>
<path d="M293.661 115.352L292.908 118.99L291.282 114.402L290.121 117.477L289.657 116.696L288.552 117.773L287.334 112.832L286.286 117.885L285.589 115.352L284.364 117.885L283.555 114.282L282.331 117.885L281.465 115.908L280.473 117.885L279.023 113.353L277.862 117.942L276.757 115.352L276.06 117.829L274.955 116.548L273.442 118.061L272.457 113.177L270.599 118.99L294.639 119.356L293.661 115.352Z" fill="#5F7505"/>
<path d="M271.647 119.356L270.346 112.959L269.241 117.013L268.713 111.354L267.305 117.878L266.489 114.979L265.49 117.899L264.314 112.853L263.322 117.716L262.499 115.605L261.795 117.653L260.972 117.013L260.387 117.773L258.924 113.67L257.692 117.597L256.988 115.542L254.877 117.54L253.174 111.558L252.238 116.485L250.831 114.078L249.071 117.188L247.664 112.727L245.376 119.356H246.263H271.647Z" fill="#5F7505"/>
<path d="M245.102 115.352L244.349 118.99L242.723 114.402L241.562 117.477L241.098 116.696L239.993 117.773L238.775 112.832L237.727 117.885L237.03 115.352L235.805 117.885L234.996 114.282L233.779 117.885L232.906 115.908L231.914 117.885L230.464 113.353L229.303 117.942L228.198 115.352L227.501 117.829L226.396 116.548L224.883 118.061L223.898 113.177L222.04 118.99L246.08 119.356L245.102 115.352Z" fill="#5F7505"/>
<path d="M223.089 119.356L221.787 112.959L220.682 117.013L220.154 111.354L218.747 117.878L217.93 114.979L216.931 117.899L215.756 112.853L214.764 117.716L213.94 115.605L213.236 117.653L212.413 117.013L211.829 117.773L210.365 113.67L209.134 117.597L208.43 115.542L206.319 117.54L204.615 111.558L203.679 116.485L202.272 114.078L200.513 117.188L199.105 112.727L196.818 119.356H197.705H223.089Z" fill="#5F7505"/>
<path d="M196.543 115.352L195.79 118.99L194.165 114.402L193.003 117.477L192.539 116.696L191.434 117.773L190.217 112.832L189.168 117.885L188.471 115.352L187.247 117.885L186.437 114.282L185.22 117.885L184.347 115.908L183.355 117.885L181.905 113.353L180.744 117.942L179.639 115.352L178.943 117.829L177.838 116.548L176.325 118.061L175.339 113.177L173.481 118.99L197.522 119.356L196.543 115.352Z" fill="#5F7505"/>
<path d="M174.53 119.356L173.228 112.959L172.123 117.013L171.596 111.354L170.188 117.878L169.372 114.979L168.372 117.899L167.197 112.853L166.205 117.716L165.382 115.605L164.678 117.653L163.854 117.013L163.27 117.773L161.806 113.67L160.575 117.597L159.871 115.542L157.76 117.54L156.057 111.558L155.121 116.485L153.713 114.078L151.954 117.188L150.546 112.727L148.259 119.356H149.146H174.53Z" fill="#5F7505"/>
<path d="M147.985 115.352L147.232 118.99L145.606 114.402L144.445 117.477L143.98 116.696L142.876 117.773L141.658 112.832L140.609 117.885L139.913 115.352L138.688 117.885L137.879 114.282L136.661 117.885L135.789 115.908L134.796 117.885L133.347 113.353L132.186 117.942L131.081 115.352L130.384 117.829L129.279 116.548L127.766 118.061L126.781 113.177L124.923 118.99L148.963 119.356L147.985 115.352Z" fill="#5F7505"/>
<path d="M125.971 119.356L124.669 112.959L123.564 117.013L123.037 111.354L121.629 117.878L120.813 114.979L119.813 117.899L118.638 112.853L117.646 117.716L116.822 115.605L116.119 117.653L115.295 117.013L114.711 117.773L113.247 113.67L112.016 117.597L111.312 115.542L109.201 117.54L107.498 111.558L106.562 116.485L105.154 114.078L103.395 117.188L101.987 112.727L99.7002 119.356H100.587H125.971Z" fill="#5F7505"/>
<path d="M99.4257 115.352L98.6726 118.99L97.047 114.402L95.8858 117.477L95.4213 116.696L94.3164 117.773L93.0989 112.832L92.0504 117.885L91.3536 115.352L90.1291 117.885L89.3198 114.282L88.1023 117.885L87.2297 115.908L86.2374 117.885L84.7877 113.353L83.6265 117.942L82.5216 115.352L81.8249 117.829L80.72 116.548L79.2069 118.061L78.2217 113.177L76.3638 118.99L100.404 119.356L99.4257 115.352Z" fill="#5F7505"/>
<path d="M77.4126 119.356L76.1107 112.959L75.0058 117.013L74.478 111.354L73.0705 117.878L72.2541 114.979L71.2548 117.899L70.0795 112.853L69.0872 117.716L68.2638 115.605L67.5601 117.653L66.7367 117.013L66.1526 117.773L64.6888 113.67L63.4572 117.597L62.7535 115.542L60.6422 117.54L58.9392 111.558L58.0032 116.485L56.5957 114.078L54.8363 117.188L53.4288 112.727L51.1416 119.356H52.0283H77.4126Z" fill="#5F7505"/>
<path d="M50.8671 115.352L50.114 118.99L48.4884 114.402L47.3272 117.477L46.8627 116.696L45.7578 117.773L44.5403 112.832L43.4918 117.885L42.795 115.352L41.5705 117.885L40.7612 114.282L39.5437 117.885L38.6711 115.908L37.6788 117.885L36.2291 113.353L35.0679 117.942L33.963 115.352L33.2663 117.829L32.1614 116.548L30.6483 118.061L29.6631 113.177L27.8052 118.99L51.8453 119.356L50.8671 115.352Z" fill="#5F7505"/>
<path d="M0 117.111L2.06903 114.12L3.39208 117.716L4.86995 114.134L6.27745 117.188L8.03683 115.485L9.44433 117.188L10.3803 112.966L12.0834 117.54L13.4909 114.838L14.8984 117.597L16.13 113.67L17.5938 117.773L18.1779 117.013L19.0013 117.653L19.705 115.605L20.5284 117.716L21.5207 112.853L22.6959 117.899L23.6953 114.979L24.5116 117.878L25.9191 111.354L26.4469 117.013L27.5518 112.959L28.8538 119.356H3.46949H2.58276H0V117.111Z" fill="#5F7505"/>
<path d="M563 120.06H0V122.875H563V120.06Z" fill="#80AD12"/>
<path d="M0 120.764L1.30194 114.366L2.40683 118.42L2.93464 112.762L4.34214 119.286L5.15849 116.386L6.15781 119.307L7.33308 114.261L8.32536 119.124L9.14875 117.013L9.8525 119.06L10.6759 118.42L11.26 119.18L12.7238 115.077L13.9554 119.004L14.6591 116.949L16.7704 118.948L18.4734 112.966L19.4094 117.892L20.8169 115.485L22.5763 118.596L23.9838 111.319L26.271 120.764H25.3843H0Z" fill="#80AD12"/>
<path d="M26.5456 116.759L27.2986 120.398L28.9243 115.809L30.0855 118.884L30.5499 118.103L31.6548 119.18L32.8723 114.24L33.9209 119.293L34.6176 116.759L35.8421 119.293L36.6514 115.689L37.8689 119.293L38.7416 117.322L39.7339 119.293L41.1836 114.761L42.3448 119.349L43.4497 116.759L44.1464 119.236L45.2513 117.956L46.7643 119.469L47.7496 114.585L49.6075 120.398L25.5674 120.764L26.5456 116.759Z" fill="#80AD12"/>
<path d="M48.5586 120.764L49.8605 114.366L50.9654 118.42L51.4932 112.762L52.9007 119.286L53.7171 116.386L54.7164 119.307L55.8917 114.261L56.884 119.124L57.7073 117.013L58.4111 119.06L59.2345 118.42L59.8186 119.18L61.2824 115.077L62.514 119.004L63.2177 116.949L65.329 118.948L67.032 111.558L67.968 117.892L69.3755 115.485L71.1349 118.596L72.5424 114.134L74.8296 120.764H73.9429H48.5586Z" fill="#80AD12"/>
<path d="M75.1042 116.759L75.8572 120.398L77.4829 115.809L78.6441 118.884L79.1085 118.103L80.2134 119.18L81.4309 114.24L82.4795 119.293L83.1762 116.759L84.4007 119.293L85.21 115.689L86.4275 119.293L87.3002 117.322L88.2925 119.293L89.7422 114.761L90.9034 119.349L92.0083 116.759L92.705 119.236L93.8099 117.956L95.3229 119.469L96.3082 114.585L98.1661 120.398L74.126 120.764L75.1042 116.759Z" fill="#80AD12"/>
<path d="M97.1177 120.763L98.4196 114.366L99.5245 118.42L100.756 112.058L101.46 119.286L102.276 116.386L103.275 119.307L104.451 114.261L105.443 119.124L106.266 117.012L106.97 119.06L107.794 118.42L108.378 119.18L109.841 115.077L111.073 119.004L111.777 116.949L113.888 118.948L115.591 112.966L116.527 117.892L117.935 115.485L119.694 118.596L121.101 114.134L123.389 120.763H122.502H97.1177Z" fill="#80AD12"/>
<path d="M123.663 116.759L124.416 120.398L126.041 115.809L127.203 118.884L127.667 118.103L128.772 119.18L129.99 114.24L131.038 119.293L131.735 116.759L132.959 119.293L133.769 115.689L134.986 119.293L135.859 117.322L136.851 119.293L138.301 114.761L139.462 119.349L140.567 116.759L141.264 119.236L142.368 117.956L143.882 119.469L144.867 114.585L146.725 120.398L122.685 120.764L123.663 116.759Z" fill="#80AD12"/>
<path d="M145.676 120.763L146.978 114.366L148.083 118.42L148.611 112.762L150.018 119.286L150.835 116.386L151.834 119.307L153.009 114.261L154.002 119.124L154.825 117.012L155.529 119.06L156.352 118.42L156.936 119.18L158.4 114.373L159.632 119.004L160.335 116.949L162.447 118.948L164.15 112.966L165.086 117.892L166.493 115.485L168.253 118.596L169.66 114.134L171.947 120.763H171.061H145.676Z" fill="#80AD12"/>
<path d="M172.222 116.759L172.975 120.398L174.601 115.809L175.762 118.884L176.93 117.4L177.331 119.18L178.549 114.24L179.597 119.293L180.294 116.759L181.518 119.293L182.328 115.689L183.545 119.293L184.418 117.322L185.41 119.293L186.86 114.761L188.021 119.349L189.126 116.759L189.823 119.236L190.928 117.956L192.441 119.469L193.426 114.585L195.284 120.398L171.244 120.764L172.222 116.759Z" fill="#80AD12"/>
<path d="M194.235 120.763L195.537 114.366L196.642 118.42L197.17 112.762L198.577 119.286L199.393 116.386L200.393 119.307L201.568 114.261L202.56 119.124L203.384 117.012L204.087 119.06L204.911 118.42L205.495 119.18L206.959 115.077L208.19 119.004L209.598 116.245L211.005 118.948L212.708 112.966L213.644 117.892L215.052 115.485L216.811 118.596L218.219 114.134L220.506 120.763H219.619H194.235Z" fill="#80AD12"/>
<path d="M220.78 116.759L221.533 120.398L223.159 115.809L224.32 118.884L224.785 118.103L225.89 119.18L227.107 114.24L228.156 119.293L228.852 116.759L230.077 119.293L230.886 115.689L232.104 119.293L232.976 117.322L233.969 119.293L235.418 114.761L236.58 119.349L237.685 116.759L238.381 119.236L239.486 117.956L240.999 119.469L241.984 114.585L243.842 120.398L219.802 120.764L220.78 116.759Z" fill="#80AD12"/>
<path d="M242.794 120.763L244.096 114.366L245.201 118.42L245.729 112.762L247.136 119.286L247.952 116.386L248.952 119.307L250.127 114.261L251.119 119.124L251.943 117.012L252.646 119.06L253.47 118.42L254.054 119.18L255.518 115.077L256.749 119.004L257.453 116.949L259.564 118.948L261.267 112.966L262.203 117.892L263.611 115.485L265.37 118.596L266.778 114.134L269.065 120.763H268.178H242.794Z" fill="#80AD12"/>
<path d="M269.339 116.759L270.092 120.398L271.718 115.809L272.879 118.884L273.343 118.103L274.448 119.18L275.666 114.24L276.714 119.293L277.411 116.759L278.636 119.293L279.445 115.689L280.662 119.293L281.535 117.322L282.527 119.293L283.977 114.761L285.138 119.349L286.243 116.759L286.94 119.236L288.045 117.956L289.558 119.469L290.543 114.585L292.401 120.398L268.361 120.764L269.339 116.759Z" fill="#80AD12"/>
<path d="M291.353 120.763L292.654 114.366L293.759 118.42L294.287 112.762L295.695 119.286L296.511 116.386L297.51 119.307L298.686 114.261L299.678 119.124L300.501 117.012L301.205 119.06L302.028 118.42L302.613 119.18L304.076 115.077L305.308 119.004L306.012 116.949L308.123 118.948L309.826 112.966L310.762 117.892L312.169 115.485L313.929 118.596L315.336 114.134L317.624 120.763H316.737H291.353Z" fill="#80AD12"/>
<path d="M317.898 116.759L318.651 120.398L320.277 115.809L321.438 118.884L321.902 118.103L323.007 119.18L324.225 114.24L325.273 119.293L325.97 116.759L327.195 119.293L328.004 115.689L329.221 119.293L330.094 117.322L331.086 119.293L332.536 114.761L333.697 119.349L334.802 116.759L335.499 119.236L336.604 117.956L338.117 119.469L339.102 114.585L340.96 120.398L316.92 120.764L317.898 116.759Z" fill="#80AD12"/>
<path d="M339.911 120.763L341.213 114.366L342.318 118.42L342.846 112.762L344.253 119.286L345.07 116.386L346.069 119.307L347.244 114.261L348.236 119.124L349.06 117.012L349.764 119.06L350.587 118.42L351.171 119.18L352.635 115.077L353.866 119.004L354.57 116.949L356.682 118.948L358.385 112.966L359.321 117.892L360.728 115.485L362.487 118.596L363.895 114.134L366.182 120.763H365.295H339.911Z" fill="#80AD12"/>
<path d="M366.457 116.759L367.21 120.398L368.835 115.809L369.997 118.884L370.461 118.103L371.566 119.18L372.783 114.24L373.832 119.293L374.529 116.759L375.753 119.293L376.563 115.689L377.78 119.293L378.653 117.322L379.645 119.293L381.095 114.761L382.256 119.349L383.361 116.759L384.058 119.236L385.162 117.956L386.676 119.469L387.661 114.585L389.519 120.398L365.479 120.764L366.457 116.759Z" fill="#80AD12"/>
<path d="M388.47 120.763L389.772 114.366L390.877 118.42L391.405 112.762L392.812 119.286L393.629 116.386L394.628 119.307L395.803 114.261L396.796 119.124L397.619 117.012L398.323 119.06L399.146 118.42L399.73 119.18L401.194 115.077L402.426 119.004L403.129 116.949L405.241 118.948L406.944 112.966L407.88 117.892L409.287 115.485L411.047 118.596L412.454 114.134L414.741 120.763H413.854H388.47Z" fill="#80AD12"/>
<path d="M415.015 116.759L415.768 120.398L417.394 115.809L418.555 118.884L419.02 118.103L420.125 119.18L421.342 114.24L422.391 119.293L423.087 116.759L424.312 119.293L425.121 115.689L426.339 119.293L427.211 117.322L428.204 119.293L429.653 114.761L430.814 119.349L431.919 116.759L432.616 119.236L433.721 117.956L435.234 119.469L436.219 114.585L438.077 120.398L414.037 120.764L415.015 116.759Z" fill="#80AD12"/>
<path d="M437.029 120.763L438.331 114.366L439.436 118.42L439.963 112.762L441.371 119.286L442.187 116.386L443.187 119.307L444.362 114.261L445.354 119.124L446.178 117.012L446.881 119.06L447.705 118.42L448.289 119.18L449.753 115.077L450.984 119.004L451.688 116.949L453.799 118.948L455.502 112.966L456.438 117.892L457.846 115.485L459.605 118.596L461.013 114.134L463.3 120.763H462.413H437.029Z" fill="#80AD12"/>
<path d="M463.574 116.759L464.327 120.398L465.953 115.809L467.114 118.884L467.578 118.103L468.683 119.18L469.901 114.24L470.949 119.293L471.646 116.759L472.87 119.293L473.68 115.689L474.897 119.293L475.77 117.322L476.762 119.293L478.212 114.761L479.373 119.349L480.478 116.759L481.175 119.236L482.28 117.956L483.793 119.469L484.778 114.585L486.636 120.398L462.596 120.764L463.574 116.759Z" fill="#80AD12"/>
<path d="M485.587 120.763L486.889 114.366L487.994 118.42L488.522 112.762L489.93 119.286L490.746 116.386L491.745 119.307L492.92 114.261L493.913 119.124L494.736 117.012L495.44 119.06L496.263 118.42L496.847 119.18L498.311 115.077L499.543 119.004L500.247 116.949L502.358 118.948L504.061 112.966L504.997 117.892L506.404 115.485L508.164 118.596L509.571 114.134L511.858 120.763H510.972H485.587Z" fill="#80AD12"/>
<path d="M512.133 116.759L512.886 120.398L514.512 115.809L515.673 118.884L516.137 118.103L517.242 119.18L518.46 114.24L519.508 119.293L520.205 116.759L521.429 119.293L522.239 115.689L523.456 119.293L524.329 117.322L525.321 119.293L526.771 114.761L527.932 119.349L529.037 116.759L529.734 119.236L530.839 117.956L532.352 119.469L533.337 114.585L535.195 120.398L511.155 120.764L512.133 116.759Z" fill="#80AD12"/>
<path d="M563 118.519L560.931 115.528L559.608 119.124L558.13 115.542L556.723 118.596L554.963 116.893L553.556 118.596L552.62 114.373L550.917 118.948L549.509 116.245L548.102 119.004L546.87 115.077L545.406 119.18L544.822 118.42L543.999 119.06L543.295 117.012L542.472 119.124L541.48 114.261L540.304 119.307L539.305 116.386L538.489 119.286L537.081 112.762L536.553 118.42L535.448 114.366L534.146 120.763H559.531H560.417H563V118.519Z" fill="#80AD12"/>
</svg>
