<svg width="16" height="13" viewBox="0 0 16 13" xmlns="http://www.w3.org/2000/svg">
<path d="M1.125 7.10287L13.5934 7.10287L8.81906 11.6504C8.56906 11.8885 8.55937 12.2841 8.7975 12.5341C9.03531 12.7838 9.43094 12.7938 9.68125 12.5557L15.1338 7.36194C15.3697 7.12569 15.5 6.81194 15.5 6.47787C15.5 6.14412 15.3697 5.83006 15.1228 5.5835L9.68094 0.400374C9.56 0.285062 9.405 0.227875 9.25 0.227875C9.085 0.227875 8.92 0.292874 8.79719 0.421937C8.55906 0.671937 8.56875 1.06725 8.81875 1.30538L13.6131 5.85287L1.125 5.85287C0.78 5.85287 0.5 6.13287 0.5 6.47787C0.5 6.82287 0.78 7.10287 1.125 7.10287Z"/>
<path d="M1.125 7.10287L13.5934 7.10287L8.81906 11.6504C8.56906 11.8885 8.55937 12.2841 8.7975 12.5341C9.03531 12.7838 9.43094 12.7938 9.68125 12.5557L15.1338 7.36194C15.3697 7.12569 15.5 6.81194 15.5 6.47787C15.5 6.14412 15.3697 5.83006 15.1228 5.5835L9.68094 0.400374C9.56 0.285062 9.405 0.227875 9.25 0.227875C9.085 0.227875 8.92 0.292874 8.79719 0.421937C8.55906 0.671937 8.56875 1.06725 8.81875 1.30538L13.6131 5.85287L1.125 5.85287C0.78 5.85287 0.5 6.13287 0.5 6.47787C0.5 6.82287 0.78 7.10287 1.125 7.10287Z"/>
<path d="M1.125 7.10287L13.5934 7.10287L8.81906 11.6504C8.56906 11.8885 8.55937 12.2841 8.7975 12.5341C9.03531 12.7838 9.43094 12.7938 9.68125 12.5557L15.1338 7.36194C15.3697 7.12569 15.5 6.81194 15.5 6.47787C15.5 6.14412 15.3697 5.83006 15.1228 5.5835L9.68094 0.400374C9.56 0.285062 9.405 0.227875 9.25 0.227875C9.085 0.227875 8.92 0.292874 8.79719 0.421937C8.55906 0.671937 8.56875 1.06725 8.81875 1.30538L13.6131 5.85287L1.125 5.85287C0.78 5.85287 0.5 6.13287 0.5 6.47787C0.5 6.82287 0.78 7.10287 1.125 7.10287Z"/>
</svg>
