<svg width="30" height="30" viewBox="0 0 30 30" xmlns="http://www.w3.org/2000/svg">
<path d="M29.7374 6.81938C29.5149 6.54563 29.1809 6.38672 28.8281 6.38672H7.60172L7.51477 5.58797L7.51166 5.5623C7.09564 2.39133 4.3701 0 1.17188 0C0.524648 0 0 0.524648 0 1.17188C0 1.8191 0.524648 2.34375 1.17188 2.34375C3.19371 2.34375 4.91736 3.85248 5.18625 5.85516L6.5792 18.6521C5.36104 19.205 4.51172 20.4329 4.51172 21.8555C4.51172 21.8653 4.51184 21.875 4.51207 21.8848C4.51184 21.8945 4.51172 21.9043 4.51172 21.9141C4.51172 23.8526 6.08883 25.4297 8.02734 25.4297H8.50418C8.385 25.7791 8.32031 26.1536 8.32031 26.543C8.32031 28.4491 9.87111 30 11.7773 30C13.6836 30 15.2344 28.4491 15.2344 26.543C15.2344 26.1536 15.1697 25.7791 15.0505 25.4297H20.1058C19.9866 25.7791 19.9219 26.1536 19.9219 26.543C19.9219 28.4491 21.4727 30 23.379 30C25.2852 30 26.836 28.4491 26.836 26.543C26.836 24.6368 25.2852 23.0859 23.379 23.0859H8.02734C7.38117 23.0859 6.85547 22.5602 6.85547 21.9141C6.85547 21.9043 6.85535 21.8945 6.85512 21.8848C6.85535 21.875 6.85547 21.8653 6.85547 21.8555C6.85547 21.2093 7.38117 20.6836 8.02734 20.6836H22.9881C25.0684 20.6836 26.9774 19.3965 27.8518 17.4046C28.1119 16.812 27.8423 16.1207 27.2497 15.8605C26.6571 15.6004 25.9658 15.8699 25.7057 16.4626C25.2128 17.5854 24.1208 18.3398 22.9881 18.3398H8.90279L7.85684 8.73047H27.3866L26.8132 11.4795C26.6811 12.113 27.0875 12.7338 27.7211 12.8659C27.8018 12.8828 27.8822 12.8909 27.9616 12.8909C28.5049 12.8909 28.9922 12.5109 29.1076 11.958L29.9753 7.79789C30.0473 7.45254 29.96 7.09313 29.7374 6.81938ZM23.3789 25.4297C23.9928 25.4297 24.4922 25.9291 24.4922 26.543C24.4922 27.1569 23.9928 27.6562 23.3789 27.6562C22.765 27.6562 22.2656 27.1569 22.2656 26.543C22.2656 25.9291 22.765 25.4297 23.3789 25.4297ZM11.7773 25.4297C12.3912 25.4297 12.8906 25.9291 12.8906 26.543C12.8906 27.1569 12.3912 27.6562 11.7773 27.6562C11.1635 27.6562 10.6641 27.1569 10.6641 26.543C10.6641 25.9291 11.1635 25.4297 11.7773 25.4297Z"/>
</svg>
