<svg width="29" height="29" viewBox="0 0 29 29" xmlns="http://www.w3.org/2000/svg">
<path d="M6.19089 0C5.38642 0 4.63299 0.311297 4.06936 0.876457C3.49077 1.45674 3.17342 2.23702 3.17579 3.07117V23.7099C3.17579 25.1173 4.32826 26.2624 5.74484 26.2624H18.02V29L20.3719 27.9041L22.7238 29V26.2624H25.8245V0H6.19089ZM8.72018 21.1575V1.70148H24.1229V21.1575H8.72018ZM4.87728 3.06879C4.8762 2.6876 5.01712 2.33569 5.27416 2.07792C5.51618 1.83516 5.84176 1.70148 6.19083 1.70148H7.01863V21.1575H5.74479C5.44046 21.1575 5.14842 21.2103 4.87728 21.3072V3.06879ZM5.74484 24.5609C5.26651 24.5609 4.87734 24.1791 4.87734 23.7099C4.87734 23.2407 5.26651 22.859 5.74484 22.859H18.02V24.5609H5.74484ZM20.3719 26.0269L19.7215 26.33V22.859H21.0222V26.33L20.3719 26.0269ZM24.123 24.5609H22.7238V22.859H24.123V24.5609Z"/>
<path d="M18.4999 6.63721C17.7486 6.63721 17.0423 6.92981 16.511 7.46104L16.3836 7.58837L16.2563 7.46104C15.725 6.92976 15.0187 6.63721 14.2673 6.63721C13.516 6.63721 12.8096 6.92981 12.2784 7.4611C11.1817 8.55777 11.1817 10.3423 12.2762 11.4368L16.3682 15.5583L20.4888 11.439C21.5856 10.3423 21.5856 8.55777 20.4888 7.46104C19.9576 6.92981 19.2512 6.63721 18.4999 6.63721ZM19.2857 10.2358L16.3732 13.1483L13.4815 10.2358C13.0482 9.80251 13.0482 9.0975 13.4815 8.66415C13.6981 8.4475 13.9827 8.3392 14.2673 8.3392C14.5519 8.3392 14.8364 8.4475 15.0532 8.66415L16.3836 9.99463L17.7141 8.66415C17.924 8.45424 18.2031 8.33863 18.4999 8.33863C18.7968 8.33863 19.0758 8.45424 19.2857 8.66415C19.719 9.0975 19.719 9.80256 19.2857 10.2358Z"/>
</svg>
