<svg width="21" height="21" viewBox="0 0 21 21" xmlns="http://www.w3.org/2000/svg">
<path d="M17.3395 0.181117C17.0995 -0.0589882 16.7097 -0.0591522 16.4695 0.181117L1.92118 14.7294C1.92094 14.7297 1.92061 14.7299 1.92036 14.7302C1.8526 14.798 1.80014 14.8855 1.77176 14.9707L0.0315952 20.1911C-0.0421098 20.4122 0.015435 20.6559 0.180236 20.8207C0.345897 20.9863 0.58994 21.0427 0.809824 20.9693L6.03024 19.2292C6.12027 19.1992 6.20825 19.143 6.27072 19.0805L20.8198 4.53147C21.0601 4.2912 21.0601 3.90168 20.8198 3.66141L17.3395 0.181117ZM5.83571 17.7754L3.22548 15.1652L14.2943 4.09642L16.9045 6.70665L5.83571 17.7754ZM2.62431 16.3041L4.69683 18.3766L1.58805 19.4129L2.62431 16.3041ZM17.7746 5.83659L15.1643 3.22636L16.9045 1.48619L19.5147 4.09642L17.7746 5.83659Z" />
<path d="M14.7295 6.27066C14.4893 6.03039 14.0997 6.03039 13.8595 6.27066L5.40091 14.7293C5.16064 14.9695 5.16064 15.3591 5.40091 15.5993C5.64113 15.8396 6.0307 15.8396 6.27097 15.5993L14.7296 7.14072C14.9698 6.90045 14.9698 6.51093 14.7295 6.27066Z" />
</svg>
