<svg width="30" height="30" viewBox="0 0 30 30" xmlns="http://www.w3.org/2000/svg">
<path d="M21.6337 9.3641C16.2789 6.10623 18.79 1.50797 18.8977 1.31684C19.054 1.04484 19.0536 0.710215 18.8964 0.438691C18.7393 0.167168 18.4494 0 18.1357 0C15.3793 0 13.2208 0.783164 11.7203 2.32781C9.15628 4.96717 9.27522 9.075 9.32596 10.8292C9.33159 11.0235 9.33645 11.1914 9.33645 11.3161C9.33645 12.6185 9.5454 13.8209 9.72979 14.8818C9.84862 15.5654 9.95122 16.1558 9.96944 16.6199C9.98895 17.1168 9.89825 17.2307 9.89438 17.2353C9.88143 17.2506 9.77362 17.308 9.48212 17.308C9.14966 17.308 8.90456 17.1994 8.68741 16.9559C7.83921 16.0048 7.78055 13.4078 7.94274 11.995C7.97175 11.7458 7.89294 11.4962 7.72612 11.3089C7.55936 11.1217 7.32053 11.0146 7.06975 11.0146C4.78782 11.0146 3.08268 14.7463 3.08268 18.0829C3.08268 19.6513 3.39815 21.1879 4.02036 22.6496C4.62188 24.0628 5.47964 25.3383 6.56989 26.4404C8.84052 28.7358 11.8342 30 14.9997 30C18.1779 30 21.1709 28.7537 23.4273 26.4908C25.6779 24.2338 26.9173 21.2477 26.9173 18.0827C26.9173 14.0443 23.7575 10.6562 21.6337 9.3641ZM14.9997 28.2422C9.4929 28.2422 4.84055 23.5898 4.84055 18.0827C4.84055 16.7435 5.16012 15.3376 5.71729 14.2258C5.84743 13.9661 5.98096 13.7432 6.11274 13.5555C6.12745 15.0055 6.35714 16.9822 7.37403 18.1242C7.92259 18.7402 8.65155 19.0658 9.48217 19.0658C10.2581 19.0658 10.8495 18.8306 11.2396 18.3667C11.969 17.4997 11.7451 16.2115 11.4617 14.5807C11.2895 13.5899 11.0943 12.4668 11.0943 11.316C11.0943 11.1659 11.0891 10.9863 11.0831 10.7782C11.035 9.1166 10.9349 5.65904 12.9812 3.55266C13.8997 2.60701 15.1822 2.0315 16.8047 1.83457C16.6215 2.44277 16.4636 3.21486 16.4575 4.07936C16.4441 5.98412 17.1726 8.70762 20.7201 10.8659C22.4365 11.9101 25.1595 14.7927 25.1595 18.0828C25.1595 23.6847 20.6018 28.2422 14.9997 28.2422Z"/>
</svg>
