<svg width="28" height="30" viewBox="0 0 28 30" xmlns="http://www.w3.org/2000/svg">
<path d="M25.3442 10.4178L22.4035 9.34751C23.4668 8.46895 23.9208 7.07542 23.5953 5.7512C22.9556 3.14946 19.7834 2.16181 17.7793 3.9335L15.7489 5.72835L15.3472 3.03655C14.9501 0.386415 11.8819 -0.888586 9.72351 0.690516C8.64427 1.48007 8.07017 2.84114 8.32476 4.22313L5.55222 3.21403C4.18816 2.71745 2.67415 3.42339 2.17757 4.78763L0.976986 8.08628C0.811224 8.54173 1.04607 9.0454 1.50158 9.2111C1.68632 9.27831 15.0216 14.132 15.2174 14.2032C14.6624 14.2032 2.50827 14.2032 1.97355 14.2032C1.48886 14.2032 1.09593 14.5962 1.09593 15.0808V27.3673C1.09593 28.819 2.27701 30 3.72872 30H10.7495H14.26H21.2808C22.7325 30 23.9136 28.819 23.9136 27.3673V17.3684L24.5925 17.6156C25.0458 17.7807 25.5508 17.5483 25.7173 17.091L26.918 13.7924C27.4144 12.4281 26.7085 10.9144 25.3442 10.4178ZM9.87187 28.2449H3.72867C3.24474 28.2449 2.85105 27.8512 2.85105 27.3673V15.9585H9.87187V28.2449ZM13.3823 28.2449H11.6271V15.9585H13.3823V28.2449ZM18.9417 5.24858C19.9598 4.34852 21.567 4.85343 21.8908 6.17032C22.2361 7.5744 20.8789 8.79186 19.5206 8.29827C18.3653 7.87774 17.8239 7.68069 16.6669 7.25958L18.9417 5.24858ZM10.7598 2.1072C11.8567 1.30481 13.4104 1.95591 13.6114 3.29682L14.0614 6.31118C13.7375 6.19329 11.5266 5.3885 11.208 5.27261C9.84954 4.7779 9.59296 2.96067 10.7598 2.1072ZM11.1732 10.8634L2.92652 7.86186L3.82699 5.38792C3.99251 4.93317 4.49718 4.69798 4.95187 4.86339C5.87472 5.19925 12.0892 7.46114 12.3738 7.56473L11.1732 10.8634ZM14.4719 12.0641L12.8226 11.4638L14.0232 8.16514L15.6726 8.7655L14.4719 12.0641ZM22.1583 27.3673C22.1583 27.8512 21.7646 28.2449 21.2807 28.2449H15.1375V15.9585H20.0398L22.1583 16.7296V27.3673H22.1583ZM25.2684 13.192L24.368 15.666L16.1213 12.6644L17.3219 9.36573L24.744 12.0671C25.1987 12.2326 25.434 12.7373 25.2684 13.192Z"/>
</svg>
