<svg width="20" height="20" viewBox="0 0 20 20" xmlns="http://www.w3.org/2000/svg">
<path d="M10.0037 4.86377C7.1679 4.86377 4.87207 7.1621 4.87207 9.99542C4.87207 12.8312 7.1704 15.1271 10.0037 15.1271C12.8395 15.1271 15.1354 12.8287 15.1354 9.99542C15.1354 7.1596 12.837 4.86377 10.0037 4.86377ZM10.0037 13.3262C8.16289 13.3262 6.6729 11.8354 6.6729 9.99542C6.6729 8.15543 8.16373 6.6646 10.0037 6.6646C11.8437 6.6646 13.3345 8.15543 13.3345 9.99542C13.3354 11.8354 11.8446 13.3262 10.0037 13.3262Z"/>
<path d="M14.1235 0.0628219C12.2835 -0.023011 7.726 -0.0188444 5.88434 0.0628219C4.26601 0.138655 2.83851 0.529486 1.68768 1.68031C-0.235643 3.60364 0.0101894 6.1953 0.0101894 9.99611C0.0101894 13.8861 -0.206477 16.4178 1.68768 18.3119C3.61851 20.2419 6.24767 19.9894 10.0035 19.9894C13.8568 19.9894 15.1868 19.9919 16.5493 19.4644C18.4018 18.7452 19.8001 17.0894 19.9368 14.1153C20.0235 12.2744 20.0185 7.71779 19.9368 5.87613C19.7718 2.36531 17.8876 0.236155 14.1235 0.0628219ZM17.036 17.0394C15.7751 18.3002 14.026 18.1877 9.97933 18.1877C5.81267 18.1877 4.14184 18.2494 2.92268 17.0269C1.51852 15.6294 1.77268 13.3853 1.77268 9.98278C1.77268 5.37863 1.30019 2.06281 5.92101 1.82615C6.98267 1.78865 7.29517 1.77615 9.96766 1.77615L10.0052 1.80115C14.446 1.80115 17.9301 1.33615 18.1393 5.95613C18.1868 7.01029 18.1976 7.32696 18.1976 9.99528C18.1968 14.1136 18.2751 15.7944 17.036 17.0394Z"/>
<path d="M15.3388 5.86048C16.0011 5.86048 16.538 5.3236 16.538 4.66132C16.538 3.99904 16.0011 3.46216 15.3388 3.46216C14.6765 3.46216 14.1396 3.99904 14.1396 4.66132C14.1396 5.3236 14.6765 5.86048 15.3388 5.86048Z"/>
</svg>
