<svg width="26" height="26" viewBox="0 0 26 26"  xmlns="http://www.w3.org/2000/svg">

<path d="M18.4843 8.73749C19.3818 8.73749 20.1093 8.00996 20.1093 7.1125C20.1093 6.21504 19.3818 5.4875 18.4843 5.4875C17.5868 5.4875 16.8593 6.21504 16.8593 7.1125C16.8593 8.00996 17.5868 8.73749 18.4843 8.73749Z" />
<path d="M25.7195 8.42645C25.1771 7.04551 24.1826 5.05301 22.5246 3.40283C20.8724 1.75834 18.9011 0.792284 17.5382 0.271372C16.042 -0.300473 14.3418 0.0599705 13.2068 1.18959L9.21859 5.15915C8.03636 6.33579 7.69561 8.14634 8.37065 9.66444C8.57997 10.1353 8.80762 10.5958 9.05086 11.0408L0.297475 19.7941C0.106996 19.9846 0 20.2429 0 20.5123V24.981C0 25.5419 0.454694 25.9966 1.01562 25.9966H5.48435C6.04528 25.9966 6.49997 25.5419 6.49997 24.981V23.1529L8.32809 23.1528C8.88902 23.1528 9.34371 22.6981 9.34371 22.1372V20.3092H11.1718C11.7328 20.3092 12.1875 19.8545 12.1875 19.2935C12.1875 18.7326 11.7328 18.2779 11.1718 18.2779H8.32809C7.76717 18.2779 7.31247 18.7326 7.31247 19.2935V21.1216L5.48435 21.1217C4.92343 21.1217 4.46873 21.5763 4.46873 22.1373V23.9654H2.03124V20.933L11.0375 11.9267C11.3684 11.5958 11.4304 11.0818 11.1877 10.6817C10.8358 10.1016 10.5124 9.48168 10.2268 8.83914C9.89169 8.0855 10.0624 7.18521 10.6516 6.59874L14.6398 2.62924C15.2092 2.06257 16.0623 1.88184 16.8132 2.16875C17.9924 2.61949 19.6919 3.44915 21.0918 4.84248C22.5002 6.24424 23.3576 7.96891 23.8289 9.16887C24.1229 9.91779 23.9442 10.7686 23.3736 11.3366L19.3372 15.354C18.7494 15.939 17.8721 16.11 17.102 15.7897C16.4669 15.5256 15.8518 15.2118 15.2739 14.8571C14.7959 14.5636 14.1705 14.7133 13.8771 15.1914C13.5837 15.6694 13.7333 16.2949 14.2114 16.5883C14.8793 16.9982 15.5894 17.3605 16.3219 17.6652C17.8526 18.3019 19.5986 17.9597 20.7701 16.7937L24.8065 12.7763C25.9514 11.6368 26.3097 9.92941 25.7195 8.42645Z" />
</svg>
