<svg width="26" height="24" viewBox="0 0 26 24"  xmlns="http://www.w3.org/2000/svg">
<path d="M23.0961 3.0896C21.8537 1.74213 20.149 1 18.2956 1C16.9102 1 15.6415 1.43799 14.5245 2.3017C13.9609 2.73767 13.4503 3.27106 13 3.89362C12.5499 3.27124 12.0391 2.73767 11.4753 2.3017C10.3585 1.43799 9.08978 1 7.70441 1C5.85101 1 4.14612 1.74213 2.90375 3.0896C1.67621 4.42133 1 6.24066 1 8.21271C1 10.2424 1.75641 12.1004 3.38037 14.06C4.83313 15.8129 6.92108 17.5923 9.33899 19.6528C10.1646 20.3564 11.1005 21.1541 12.0722 22.0037C12.3289 22.2285 12.6583 22.3523 13 22.3523C13.3415 22.3523 13.6711 22.2285 13.9274 22.004C14.8992 21.1542 15.8356 20.3563 16.6616 19.6522C19.0791 17.5921 21.1671 15.8129 22.6198 14.0598C24.2438 12.1004 25 10.2424 25 8.21252C25 6.24066 24.3238 4.42133 23.0961 3.0896Z" stroke="white" stroke-width="2"/>
</svg>
