<svg width="19" height="21" viewBox="0 0 19 21" fill="none" xmlns="http://www.w3.org/2000/svg">
<path d="M17.3634 5.78593C17.6552 5.84127 17.846 6.12012 17.7904 6.40908C17.7347 6.69804 17.4526 6.88695 17.1614 6.83187C16.7317 6.75099 16.3231 6.6999 15.9353 6.67782C13.6392 6.54717 11.9768 7.40394 10.804 8.73937C10.5149 9.06877 10.254 9.42744 10.0194 9.80819C10.6549 10.9989 11.0767 12.3303 11.3301 13.6437C11.4872 14.4576 11.5797 15.2699 11.6189 16.0399C11.71 17.8253 11.1976 19.0157 10.5095 19.5822C10.1691 19.8629 9.7827 20.0023 9.39095 19.9999C8.99679 19.9976 8.61122 19.8544 8.27348 19.5702C7.58618 18.9915 7.07837 17.7795 7.1845 15.9545C7.22722 15.2159 7.31938 14.439 7.46984 13.6596C7.72402 12.3407 8.14747 11.0029 8.7848 9.80766C8.55346 9.43143 8.29632 9.07702 8.01098 8.75108C6.84595 7.42017 5.19702 6.56048 2.92447 6.67329C2.5201 6.69351 2.09154 6.74487 1.63881 6.83081C1.34674 6.88562 1.06543 6.69617 1.00954 6.40775C0.954193 6.11906 1.14523 5.84021 1.43702 5.7854C1.93463 5.69121 2.41343 5.63427 2.87423 5.61165C5.52375 5.47994 7.45399 6.49103 8.82375 8.05582C9.02984 8.29103 9.22248 8.53875 9.40224 8.79711C9.58548 8.53422 9.78189 8.28252 9.99173 8.04358C11.3717 6.47187 13.3183 5.46291 15.9945 5.61511C16.434 5.63985 16.89 5.696 17.3634 5.78593ZM9.40277 10.9917C9.00028 11.9038 8.71521 12.8867 8.52686 13.8621C8.38526 14.5968 8.29847 15.3253 8.25871 16.0147C8.17434 17.4661 8.50885 18.3718 8.96938 18.7595C9.11071 18.8784 9.25768 18.9383 9.39632 18.9396C9.53631 18.9407 9.68436 18.883 9.82461 18.7677C10.2825 18.3905 10.6186 17.5055 10.5468 16.0924C10.5108 15.3753 10.423 14.6148 10.2749 13.8462C10.0879 12.876 9.80392 11.8993 9.40358 10.9925L9.40277 10.9917Z" fill="#1CA7C4" stroke="#1CA7C4" stroke-width="0.6"/>
<path d="M12.1999 2.8C12.1999 4.3464 10.9463 5.6 9.39993 5.6C7.85353 5.6 6.59993 4.3464 6.59993 2.8C6.59993 1.2536 7.85353 7.10493e-08 9.39993 7.10493e-08C10.9463 7.10493e-08 12.1999 1.2536 12.1999 2.8Z" fill="#1CA7C4"/>
</svg>
