<svg width="27" height="27" viewBox="0 0 27 27"  xmlns="http://www.w3.org/2000/svg">
<path d="M8.4122 7.62271C8.4122 9.45217 7.07659 10.934 5.42119 10.934C3.77206 10.934 2.43018 9.45217 2.43018 7.62271C2.43018 5.79326 3.76579 4.3114 5.42119 4.3114C7.07659 4.3114 8.4122 5.79326 8.4122 7.62271Z" />
<path d="M24.5586 7.62271C24.5586 9.45217 23.2229 10.934 21.5676 10.934C19.9184 10.934 18.5765 9.45217 18.5765 7.62271C18.5765 5.79326 19.9122 4.3114 21.5676 4.3114C23.2229 4.3114 24.5586 5.79326 24.5586 7.62271Z" />
<path d="M5.8728 1.83563C4.34279 1.84172 2.85669 2.34788 1.65275 3.26261C1.23262 3.57972 0.624373 3.61631 0.235601 3.26871C-0.146901 2.92721 -0.0653631 2.23201 0.492714 1.81123C2.02899 0.64647 3.91639 0.0122517 5.86652 5.5217e-05C6.57509 -0.00604302 7.07676 0.494013 6.99524 0.987971C6.90746 1.49412 6.40579 1.83563 5.8728 1.83563Z" />
<path d="M21.1225 1.83563C22.6525 1.84172 24.1387 2.34788 25.3426 3.26261C25.7627 3.57972 26.3709 3.61631 26.7597 3.26871C27.1422 2.92721 27.0607 2.23201 26.5026 1.81123C24.9664 0.64647 23.0789 0.0122517 21.1288 5.5217e-05C20.4202 -0.00604302 19.9186 0.494013 20.0001 0.987971C20.0879 1.49412 20.5895 1.83563 21.1225 1.83563Z" />
<path d="M4.09189 18.9107C4.05427 18.5875 4.4242 18.3679 4.69383 18.5509C6.43076 19.6851 9.66634 20.8072 13.4913 20.7462C17.3226 20.8072 20.5581 19.6851 22.2888 18.5509C22.3139 18.5326 22.3327 18.5265 22.3578 18.5143C22.6212 18.3984 22.9347 18.6058 22.8971 18.9107C22.7967 19.8193 22.6086 20.6243 22.3578 21.3439C20.2447 27.3201 13.4913 26.9969 13.4913 26.9969C13.4913 26.9969 5.03873 27.3933 4.09189 18.9107Z" />
</svg>
