<svg width="26" height="26" viewBox="0 0 26 26"  xmlns="http://www.w3.org/2000/svg">
<path d="M7.31921 8.05453C7.31921 10.0348 5.82774 11.6388 3.97915 11.6388C2.13757 11.6388 0.639099 10.0348 0.639099 8.05453C0.639099 6.07428 2.13056 4.47028 3.97915 4.47028C5.82074 4.47028 7.31921 6.07428 7.31921 8.05453Z" />
<path d="M25.3499 8.05453C25.3499 10.0348 23.8584 11.6388 22.0098 11.6388C20.1682 11.6388 18.6697 10.0348 18.6697 8.05453C18.6697 6.07428 20.1612 4.47028 22.0098 4.47028C23.8584 4.47028 25.3499 6.07428 25.3499 8.05453Z" />
<path d="M6.17781 3.17641C4.74935 2.2919 3.04781 1.88265 1.34627 2.00806C0.758079 2.04767 0.162888 1.72423 0.0228436 1.19616C-0.117201 0.668092 0.400967 0.0872191 1.18522 0.0278116C3.35591 -0.130608 5.51961 0.390857 7.33319 1.513C7.9914 1.92225 8.15244 2.66154 7.75332 3.06419C7.35419 3.46684 6.67497 3.48005 6.17781 3.17641Z" />
<path d="M19.8182 3.17641C21.2466 2.2919 22.9482 1.88265 24.6497 2.00806C25.2379 2.04767 25.8331 1.72423 25.9731 1.19616C26.1132 0.668092 25.602 0.0872191 24.8108 0.0278116C22.6401 -0.130608 20.4764 0.390857 18.6628 1.513C18.0046 1.92225 17.8436 2.66154 18.2427 3.06419C18.6418 3.46684 19.321 3.48005 19.8182 3.17641Z" />
<path d="M4.22414 23.2299C9.74888 20.5235 16.2399 20.5235 21.7647 23.2299C22.675 23.6721 23.0321 24.6623 22.5979 25.329C22.1708 26.0022 21.2325 26.1805 20.4763 25.8108C15.7568 23.5005 10.218 23.5005 5.49854 25.8108C4.7423 26.1805 3.81101 26.0022 3.37687 25.329C2.96374 24.6623 3.31385 23.6721 4.22414 23.2299Z" />
</svg>
