<svg width="24" height="24" viewBox="0 0 24 24"  xmlns="http://www.w3.org/2000/svg">
<path d="M7.16867 7.48466C7.16867 9.16835 5.83756 10.5321 4.18773 10.5321C2.54415 10.5321 1.20679 9.16835 1.20679 7.48466C1.20679 5.80098 2.5379 4.43719 4.18773 4.43719C5.83131 4.43719 7.16867 5.80098 7.16867 7.48466Z" />
<path d="M23.2607 7.48473C23.2607 9.16841 21.9296 10.5322 20.2798 10.5322C18.6362 10.5322 17.2988 9.16841 17.2988 7.48473C17.2988 5.80104 18.6299 4.43726 20.2798 4.43726C21.9296 4.43726 23.2607 5.80104 23.2607 7.48473Z" />
<path d="M6.14994 3.33706C4.87507 2.58501 3.35648 2.23705 1.83788 2.34368C1.31293 2.37736 0.781728 2.10236 0.65674 1.65337C0.531752 1.20439 0.994209 0.71051 1.69414 0.659999C3.63145 0.525304 5.5625 0.968675 7.18109 1.92276C7.76853 2.27072 7.91227 2.8993 7.55605 3.24165C7.19984 3.584 6.5874 3.59522 6.14994 3.33706Z" />
<path d="M18.3236 3.33706C19.5985 2.58501 21.1171 2.23705 22.6357 2.34368C23.1607 2.37736 23.6919 2.10236 23.8168 1.65337C23.9418 1.20439 23.4856 0.71051 22.7794 0.659999C20.8421 0.525304 18.9111 0.968675 17.2925 1.92276C16.705 2.27072 16.5613 2.8993 16.9175 3.24165C17.2737 3.584 17.8799 3.59522 18.3236 3.33706Z" />
<path d="M21.6109 23.4462C21.6484 23.7437 21.2797 23.9457 21.011 23.7773C19.2799 22.7334 16.0553 21.7008 12.2432 21.7569C8.42483 21.7008 5.20017 22.7334 3.47535 23.7773C3.45036 23.7942 3.43161 23.7998 3.40661 23.811C3.14414 23.9176 2.83167 23.7268 2.86917 23.4462C2.96916 22.61 3.15664 21.8691 3.40661 21.2069C5.51264 15.7068 12.2432 16.0042 12.2432 16.0042C12.2432 16.0042 20.6673 15.6394 21.6109 23.4462Z" />
</svg>
