<svg width="20" height="23" viewBox="0 0 20 23" xmlns="http://www.w3.org/2000/svg">
<path d="M5.79881 8.91069C5.79881 10.4484 4.73392 11.694 3.41405 11.694C2.09418 11.694 1.0293 10.4484 1.0293 8.91069C1.0293 7.37295 2.09418 6.12738 3.41405 6.12738C4.73392 6.12738 5.79881 7.37295 5.79881 8.91069Z"/>
<path d="M18.6723 8.9101C18.6723 10.4478 17.6075 11.6934 16.2876 11.6934C14.9727 11.6934 13.9028 10.4478 13.9028 8.9101C13.9028 7.37236 14.9677 6.12679 16.2876 6.12679C17.6075 6.12166 18.6723 7.37236 18.6723 8.9101Z"/>
<path d="M10.0004 19.1997C10.8844 19.1997 11.6004 19.9141 11.6004 20.7997C11.6004 21.6819 10.8844 22.3997 10.0004 22.3997C9.11642 22.3997 8.4004 21.6852 8.4004 20.7997C8.39745 19.9141 9.11642 19.1997 10.0004 19.1997Z"/>
<path d="M4.74418 2.06656C3.54929 1.81027 2.30441 1.96405 1.20951 2.50738C0.829549 2.69191 0.3446 2.62015 0.104623 2.2716C-0.135354 1.92816 0.0496248 1.36945 0.554577 1.11828C1.95444 0.426294 3.53429 0.226386 5.05415 0.55444C5.6041 0.672334 5.91407 1.16441 5.75908 1.56423C5.6041 1.95892 5.15914 2.1537 4.74418 2.06656Z"/>
<path d="M14.9625 2.06656C16.1573 1.81027 17.4022 1.96405 18.4971 2.50738C18.8771 2.69191 19.362 2.62015 19.602 2.2716C19.842 1.92816 19.657 1.36945 19.152 1.11828C17.7522 0.426294 16.1723 0.226386 14.6525 0.55444C14.1026 0.672334 13.7926 1.16441 13.9476 1.56423C14.0976 1.95892 14.5475 2.1537 14.9625 2.06656Z"/>
</svg>
