<svg width="28" height="28" viewBox="0 0 28 28"  xmlns="http://www.w3.org/2000/svg">
<path d="M21.6399 25.2996C16.7092 27.9306 10.916 27.9306 5.98531 25.2996C5.1729 24.8697 4.85418 23.9072 5.24164 23.2591C5.62285 22.6045 6.46028 22.4313 7.13521 22.7906C11.3473 25.0365 16.2905 25.0365 20.5026 22.7906C21.1775 22.4313 22.0086 22.6045 22.3961 23.2591C22.771 23.9136 22.4524 24.8697 21.6399 25.2996Z" />
<path d="M8.74753 8.38469C8.74753 10.3097 7.41641 11.869 5.76659 11.869C4.12301 11.869 2.78564 10.3097 2.78564 8.38469C2.78564 6.45964 4.11676 4.90035 5.76659 4.90035C7.41641 4.89393 8.74753 6.45964 8.74753 8.38469Z" />
<path d="M24.8396 8.38469C24.8396 10.3097 23.5085 11.869 21.8586 11.869C20.2151 11.869 18.8777 10.3097 18.8777 8.38469C18.8777 6.45964 20.2088 4.90035 21.8586 4.90035C23.5085 4.89393 24.8396 6.45964 24.8396 8.38469Z" />
<path d="M6.21667 2.29518C4.69182 2.3016 3.21072 2.82778 2.01083 3.79672C1.59212 4.1304 0.985925 4.1689 0.598462 3.80314C0.217248 3.4438 0.298492 2.71228 0.854689 2.26951C2.38579 1.04389 4.26689 0.376539 6.21045 0.363706C6.91664 0.357289 7.41658 0.883472 7.33534 1.40324C7.2416 1.93584 6.74162 2.28876 6.21667 2.29518Z" />
<path d="M21.415 2.29518C22.9398 2.3016 24.421 2.82778 25.6208 3.79672C26.0396 4.1304 26.6457 4.1689 27.0332 3.80314C27.4144 3.4438 27.3332 2.71228 26.777 2.26951C25.2459 1.04389 23.3648 0.376539 21.4212 0.363706C20.7151 0.357289 20.2151 0.883472 20.2964 1.40324C20.3839 1.93584 20.8838 2.28876 21.415 2.29518Z" />
</svg>
