<svg width="26" height="26" viewBox="0 0 26 26"  xmlns="http://www.w3.org/2000/svg">
<path d="M7.74826 8.13783C7.74826 10.06 6.41715 11.617 4.76732 11.617C3.11749 11.617 1.78638 10.06 1.78638 8.13783C1.78638 6.21566 3.11749 4.65869 4.76732 4.65869C6.41715 4.65869 7.74826 6.21566 7.74826 8.13783Z" />
<path d="M23.8402 8.13786C23.8402 10.06 22.5091 11.617 20.8592 11.617C19.2157 11.617 17.8783 10.06 17.8783 8.13786C17.8783 6.21568 19.2094 4.65871 20.8592 4.65871C22.5091 4.6523 23.8402 6.21568 23.8402 8.13786Z" />
<path d="M6.42961 2.58262C4.93601 2.26225 3.3799 2.45447 2.01128 3.13365C1.53633 3.36431 0.930139 3.27461 0.630168 2.83891C0.330197 2.40962 0.561421 1.71123 1.19261 1.39727C2.94244 0.532284 4.91726 0.282399 6.81707 0.692466C7.50451 0.839834 7.89197 1.45493 7.69824 1.9547C7.50451 2.44807 6.94832 2.69154 6.42961 2.58262Z" />
<path d="M19.2032 2.58262C20.6968 2.26225 22.2529 2.45447 23.6215 3.13365C24.0964 3.36431 24.7026 3.27461 25.0026 2.83891C25.3026 2.40962 25.0713 1.71123 24.4402 1.39727C22.6903 0.532284 20.7155 0.282399 18.8157 0.692466C18.1283 0.839834 17.7409 1.45493 17.9346 1.9547C18.1221 2.44807 18.6845 2.69154 19.2032 2.58262Z" />
<path d="M19.9469 25.1366H5.67963C4.90471 25.1366 4.27979 24.4959 4.27979 23.7014C4.27979 22.9069 4.90471 22.2661 5.67963 22.2661H19.9469C20.7156 22.2661 21.3467 22.9069 21.3467 23.7014C21.3467 24.4959 20.7218 25.1366 19.9469 25.1366Z" />
</svg>
