<svg width="30" height="30" viewBox="0 0 30 30" xmlns="http://www.w3.org/2000/svg">
<path d="M12.3883 2.35387L5.26965 6.72888H0.792079C0.35464 6.72888 0 7.08695 0 7.52862V19.4714C0 19.9131 0.35464 20.2711 0.792079 20.2711H5.26965L12.3882 24.6462C13.9722 25.6196 16 24.4696 16 22.5967V4.40329C16 2.53104 13.9726 1.38011 12.3883 2.35387ZM1.58416 8.32836H4.69967V18.6717H1.58416V8.32836ZM14.4158 22.5967C14.4158 23.2204 13.7406 23.6048 13.2119 23.2799L6.28383 19.022V7.97807L13.2119 3.7202C13.7397 3.39583 14.4158 3.77837 14.4158 4.40334V22.5967Z"/>
<rect width="11.6891" height="1.29879" rx="0.649395" transform="matrix(0.701473 -0.712696 0.701473 0.712696 20.7982 16.3308)"/>
<rect width="1.29879" height="1.29879" rx="0.649397" transform="matrix(0.701475 -0.712694 0.701475 0.712694 18.5206 18.6449)"/>
<rect width="14.9361" height="1.29879" rx="0.649395" transform="matrix(0.701473 0.712696 -0.701473 0.712696 19.1648 8.17249)"/>
</svg>
