<svg width="30" height="30" viewBox="0 0 30 30" xmlns="http://www.w3.org/2000/svg">
<path d="M3.00002 18C4.65689 18 6.00004 16.6568 6.00004 15C6.00004 13.3431 4.65689 11.9999 3.00002 11.9999C1.34316 11.9999 0 13.3431 0 15C0 16.6568 1.34316 18 3.00002 18Z"/>
<path d="M14.9999 18C16.6568 18 17.9999 16.6568 17.9999 15C17.9999 13.3431 16.6568 11.9999 14.9999 11.9999C13.343 11.9999 11.9999 13.3431 11.9999 15C11.9999 16.6568 13.343 18 14.9999 18Z"/>
<path d="M27 18C28.6569 18 30 16.6568 30 15C30 13.3431 28.6569 11.9999 27 11.9999C25.3432 11.9999 24 13.3431 24 15C24 16.6568 25.3432 18 27 18Z"/>
</svg>
