<svg width="30" height="30" viewBox="0 0 30 30" xmlns="http://www.w3.org/2000/svg">
<path d="M7.11914 0C3.19365 0 0 3.19365 0 7.11914C0 11.0446 3.19365 14.2383 7.11914 14.2383C11.0446 14.2383 14.2383 11.0446 14.2383 7.11914C14.2383 3.19365 11.0446 0 7.11914 0ZM7.11914 12.4805C4.16291 12.4805 1.75781 10.0754 1.75781 7.11914C1.75781 4.16291 4.16291 1.75781 7.11914 1.75781C10.0754 1.75781 12.4805 4.16291 12.4805 7.11914C12.4805 10.0754 10.0754 12.4805 7.11914 12.4805Z"/>
<path d="M6.18513 5.41451C6.19873 4.92911 5.81624 4.52459 5.33084 4.511C4.84543 4.4974 4.44091 4.87989 4.42732 5.36529C4.41373 5.8507 4.79621 6.25522 5.28162 6.26881C5.76702 6.2824 6.17154 5.89992 6.18513 5.41451Z"/>
<path d="M8.93555 6.26953C9.42095 6.26953 9.81445 5.87603 9.81445 5.39062C9.81445 4.90522 9.42095 4.51172 8.93555 4.51172C8.45014 4.51172 8.05664 4.90522 8.05664 5.39062C8.05664 5.87603 8.45014 6.26953 8.93555 6.26953Z"/>
<path d="M9.54879 8.00929C9.14795 7.73524 8.60115 7.83813 8.32717 8.2388C8.05394 8.63841 7.60189 8.877 7.11779 8.877C6.62854 8.877 6.17373 8.63442 5.90115 8.22808C5.6308 7.82501 5.08483 7.71737 4.68164 7.98772C4.27852 8.25808 4.17094 8.80411 4.44129 9.20724C5.04082 10.1011 6.04143 10.6348 7.11773 10.6348C8.18262 10.6348 9.17719 10.11 9.77818 9.23091C10.0522 8.83019 9.94951 8.28327 9.54879 8.00929Z"/>
<path d="M22.8809 14.2383C26.8063 14.2383 30 11.0446 30 7.11914C30 3.19365 26.8063 0 22.8809 0C18.9554 0 15.7617 3.19365 15.7617 7.11914C15.7617 11.0446 18.9554 14.2383 22.8809 14.2383ZM22.8809 1.75781C25.8371 1.75781 28.2422 4.16291 28.2422 7.11914C28.2422 10.0754 25.8371 12.4805 22.8809 12.4805C19.9246 12.4805 17.5195 10.0754 17.5195 7.11914C17.5195 4.16291 19.9246 1.75781 22.8809 1.75781Z"/>
<path d="M21.9379 5.44328C21.9699 4.95884 21.6032 4.54016 21.1188 4.50812C20.6343 4.47609 20.2157 4.84283 20.1836 5.32726C20.1516 5.81169 20.5183 6.23038 21.0028 6.26241C21.4872 6.29445 21.9059 5.92771 21.9379 5.44328Z"/>
<path d="M24.6973 6.26953C25.1827 6.26953 25.5762 5.87603 25.5762 5.39062C25.5762 4.90522 25.1827 4.51172 24.6973 4.51172C24.2119 4.51172 23.8184 4.90522 23.8184 5.39062C23.8184 5.87603 24.2119 6.26953 24.6973 6.26953Z"/>
<path d="M7.11914 15.7617C3.19365 15.7617 0 18.9554 0 22.8809C0 26.8063 3.19365 30 7.11914 30C11.0446 30 14.2383 26.8063 14.2383 22.8809C14.2383 18.9554 11.0446 15.7617 7.11914 15.7617ZM7.11914 28.2422C4.16291 28.2422 1.75781 25.8371 1.75781 22.8809C1.75781 19.9246 4.16291 17.5195 7.11914 17.5195C10.0754 17.5195 12.4805 19.9246 12.4805 22.8809C12.4805 25.8371 10.0754 28.2422 7.11914 28.2422Z"/>
<path d="M6.19082 21.1727C6.20587 20.6872 5.82457 20.2815 5.33916 20.2665C4.85375 20.2515 4.44806 20.6328 4.43301 21.1182C4.41796 21.6036 4.79926 22.0093 5.28467 22.0243C5.77007 22.0394 6.17577 21.6581 6.19082 21.1727Z"/>
<path d="M8.93555 22.0312C9.42095 22.0312 9.81445 21.6378 9.81445 21.1523C9.81445 20.6669 9.42095 20.2734 8.93555 20.2734C8.45014 20.2734 8.05664 20.6669 8.05664 21.1523C8.05664 21.6378 8.45014 22.0312 8.93555 22.0312Z"/>
<path d="M7.11789 23.6003C6.04152 23.6003 5.04097 24.134 4.44144 25.0279C4.17103 25.431 4.27867 25.977 4.68179 26.2474C4.83209 26.3483 5.00224 26.3965 5.17058 26.3965C5.45371 26.3965 5.73173 26.2599 5.9013 26.0071C6.17388 25.6007 6.62869 25.3582 7.11795 25.3582C7.60205 25.3582 8.05416 25.5967 8.32732 25.9963C8.60131 26.397 9.14811 26.4999 9.54889 26.2258C9.94961 25.9519 10.0524 25.4049 9.7784 25.0042C9.17734 24.1252 8.18277 23.6003 7.11789 23.6003Z"/>
<path d="M22.8809 15.7617C18.9554 15.7617 15.7617 18.9554 15.7617 22.8809C15.7617 26.8063 18.9554 30 22.8809 30C26.8063 30 30 26.8063 30 22.8809C30 18.9554 26.8063 15.7617 22.8809 15.7617ZM22.8809 28.2422C19.9246 28.2422 17.5195 25.8371 17.5195 22.8809C17.5195 19.9246 19.9246 17.5195 22.8809 17.5195C25.8371 17.5195 28.2422 19.9246 28.2422 22.8809C28.2422 25.8371 25.8371 28.2422 22.8809 28.2422Z"/>
<path d="M25.3105 23.771C24.9097 23.497 24.3628 23.5999 24.0889 24.0005C23.8157 24.4001 23.3636 24.6387 22.8795 24.6387C22.3902 24.6387 21.9354 24.3962 21.6629 23.9898C21.3925 23.5866 20.8465 23.479 20.4434 23.7494C20.0403 24.0197 19.9326 24.5658 20.203 24.9689C20.8025 25.8628 21.8031 26.3966 22.8795 26.3966C23.9444 26.3966 24.9389 25.8717 25.5399 24.9926C25.8139 24.5919 25.7112 24.045 25.3105 23.771Z"/>
<path d="M21.035 10.0196H24.7267C25.2121 10.0196 25.6056 9.62608 25.6056 9.14069C25.6056 8.6553 25.2121 8.26178 24.7267 8.26178H21.035C20.5496 8.26178 20.1561 8.6553 20.1561 9.14069C20.1561 9.62608 20.5496 10.0196 21.035 10.0196Z"/>
<path d="M21.2675 22.2109C21.549 22.2109 21.8254 22.076 21.9954 21.8256C22.2681 21.424 22.1637 20.8775 21.7621 20.6048L20.8883 20.0114C20.4867 19.7387 19.9401 19.8432 19.6674 20.2447C19.3947 20.6462 19.4992 21.1929 19.9007 21.4656L20.7746 22.0589C20.9258 22.1617 21.0975 22.2109 21.2675 22.2109Z"/>
<path d="M24.8736 20.0113L23.9998 20.6047C23.5982 20.8774 23.4937 21.424 23.7664 21.8256C23.9364 22.0759 24.2129 22.2108 24.4943 22.2108C24.6643 22.2108 24.8361 22.1616 24.9873 22.0589L25.8612 21.4656C26.2628 21.1929 26.3672 20.6463 26.0945 20.2447C25.8218 19.8431 25.2753 19.7386 24.8736 20.0113Z"/>
</svg>
