<svg width="30" height="30" viewBox="0 0 30 30" xmlns="http://www.w3.org/2000/svg">
<path d="M30 13.2422C30 6.13682 23.8933 0 16.7578 0C16.4343 0 16.1719 0.262383 16.1719 0.585938V13.2422C16.1719 13.5657 16.4343 13.8281 16.7578 13.8281H29.4141C29.7376 13.8281 30 13.5657 30 13.2422ZM17.3438 12.6562V1.18752C23.3317 1.5065 28.4935 6.66826 28.8125 12.6562H17.3438Z"/>
<path d="M4.39453 26.3086C4.71814 26.3086 4.98047 26.0463 4.98047 25.7227C4.98047 25.3991 4.71814 25.1367 4.39453 25.1367C4.07093 25.1367 3.80859 25.3991 3.80859 25.7227C3.80859 26.0463 4.07093 26.3086 4.39453 26.3086Z"/>
<path d="M3.07143 24.1538C3.33967 23.9728 3.41045 23.6086 3.22945 23.3404C1.88338 21.3451 1.17188 19.0688 1.17188 16.7578C1.17188 10.524 6.47355 5.0325 12.6562 4.70314V16.7555C12.6559 16.8343 12.6713 16.9133 12.7036 16.9887C12.7188 17.0245 17.3904 28.0301 17.3958 28.0428C16.0535 28.5637 14.659 28.8281 13.2422 28.8281C10.9851 28.8281 8.75438 28.1469 6.79107 26.858C6.52043 26.6803 6.15727 26.7558 5.97967 27.0262C5.80207 27.2968 5.87742 27.6601 6.14789 27.8377C8.30285 29.2522 10.7559 30 13.2422 30C20.3466 30 26.4844 23.8892 26.4844 16.7578C26.4844 16.4343 26.222 16.1719 25.8984 16.1719H13.8281V4.10156C13.8281 3.77801 13.5657 3.51562 13.2422 3.51562C6.15803 3.51562 0 9.60375 0 16.7578C0 19.3032 0.780762 21.8061 2.25797 23.9957C2.43896 24.264 2.80318 24.3347 3.07143 24.1538ZM23.3456 23.2031H16.6147L15.6198 20.8588H24.547C24.2356 21.6746 23.8335 22.4595 23.3456 23.2031ZM18.4668 27.5665L17.1121 24.3744H22.4773C21.367 25.708 20.0029 26.7946 18.4668 27.5665ZM24.9257 19.6875H15.1223L14.1275 17.3432H25.2973C25.256 18.1321 25.1311 18.9168 24.9257 19.6875Z"/>
</svg>
