<svg width="30" height="30" viewBox="0 0 30 30" xmlns="http://www.w3.org/2000/svg">
<path d="M25.7072 4.26574C22.9564 1.51488 19.2991 0 15.4088 0C11.5186 0 7.86127 1.51488 5.11047 4.26574C2.35967 7.01654 0.844727 10.6738 0.844727 14.5641C0.844727 15.0492 1.23807 15.4426 1.72322 15.4426H14.5304V28.2497C14.5304 28.7349 14.9237 29.1282 15.4089 29.1282C19.2992 29.1282 22.9565 27.6133 25.7073 24.8625C28.4581 22.1118 29.9731 18.4543 29.9731 14.5641C29.9731 10.6738 28.458 7.01654 25.7072 4.26574ZM24.4649 23.6201C22.2541 25.8308 19.3775 27.1331 16.2873 27.3411V14.5641C16.2873 14.079 15.8939 13.6856 15.4088 13.6856H2.63189C2.83984 10.5954 4.14215 7.71879 6.35283 5.50811C8.77182 3.08912 11.9879 1.75693 15.4088 1.75693C18.8298 1.75693 22.0459 3.08912 24.4649 5.50805C26.8838 7.92703 28.216 11.1431 28.216 14.5641C28.216 17.985 26.8838 21.2012 24.4649 23.6201Z" />
<path d="M25.7072 4.26574C22.9564 1.51488 19.2991 0 15.4088 0C11.5186 0 7.86127 1.51488 5.11047 4.26574C2.35967 7.01654 0.844727 10.6738 0.844727 14.5641C0.844727 15.0492 1.23807 15.4426 1.72322 15.4426H14.5304V28.2497C14.5304 28.7349 14.9237 29.1282 15.4089 29.1282C19.2992 29.1282 22.9565 27.6133 25.7073 24.8625C28.4581 22.1118 29.9731 18.4543 29.9731 14.5641C29.9731 10.6738 28.458 7.01654 25.7072 4.26574ZM24.4649 23.6201C22.2541 25.8308 19.3775 27.1331 16.2873 27.3411V14.5641C16.2873 14.079 15.8939 13.6856 15.4088 13.6856H2.63189C2.83984 10.5954 4.14215 7.71879 6.35283 5.50811C8.77182 3.08912 11.9879 1.75693 15.4088 1.75693C18.8298 1.75693 22.0459 3.08912 24.4649 5.50805C26.8838 7.92703 28.216 11.1431 28.216 14.5641C28.216 17.985 26.8838 21.2012 24.4649 23.6201Z" />
<path d="M25.7072 4.26574C22.9564 1.51488 19.2991 0 15.4088 0C11.5186 0 7.86127 1.51488 5.11047 4.26574C2.35967 7.01654 0.844727 10.6738 0.844727 14.5641C0.844727 15.0492 1.23807 15.4426 1.72322 15.4426H14.5304V28.2497C14.5304 28.7349 14.9237 29.1282 15.4089 29.1282C19.2992 29.1282 22.9565 27.6133 25.7073 24.8625C28.4581 22.1118 29.9731 18.4543 29.9731 14.5641C29.9731 10.6738 28.458 7.01654 25.7072 4.26574ZM24.4649 23.6201C22.2541 25.8308 19.3775 27.1331 16.2873 27.3411V14.5641C16.2873 14.079 15.8939 13.6856 15.4088 13.6856H2.63189C2.83984 10.5954 4.14215 7.71879 6.35283 5.50811C8.77182 3.08912 11.9879 1.75693 15.4088 1.75693C18.8298 1.75693 22.0459 3.08912 24.4649 5.50805C26.8838 7.92703 28.216 11.1431 28.216 14.5641C28.216 17.985 26.8838 21.2012 24.4649 23.6201Z" />
<path d="M11.9273 17.2209H0.905352C0.420195 17.2209 0.0268555 17.6143 0.0268555 18.0994C0.0268555 21.2491 1.25727 24.1163 3.26205 26.2472C3.2832 26.2751 3.30559 26.3023 3.33043 26.328C3.35422 26.3526 3.37924 26.3751 3.40496 26.3963C5.56818 28.6177 8.58916 29.9999 11.9272 29.9999C12.4124 29.9999 12.8057 29.6066 12.8057 29.1214V18.0994C12.8057 17.6143 12.4125 17.2209 11.9273 17.2209ZM1.82229 18.9779H4.73352L2.2891 21.2616C2.04945 20.5331 1.89043 19.7683 1.82229 18.9779ZM3.03277 22.9713L7.30719 18.9779H9.67508L4.01803 24.4425C3.64883 23.983 3.31859 23.4911 3.03277 22.9713ZM11.0488 28.2045C10.1308 28.1254 9.24711 27.9238 8.41473 27.6156L11.0488 25.1546V28.2045ZM11.0488 22.7501L6.71568 26.7984C6.18811 26.4812 5.69182 26.1172 5.23209 25.7125L11.0488 20.0937V22.7501Z" />
<path d="M11.9273 17.2209H0.905352C0.420195 17.2209 0.0268555 17.6143 0.0268555 18.0994C0.0268555 21.2491 1.25727 24.1163 3.26205 26.2472C3.2832 26.2751 3.30559 26.3023 3.33043 26.328C3.35422 26.3526 3.37924 26.3751 3.40496 26.3963C5.56818 28.6177 8.58916 29.9999 11.9272 29.9999C12.4124 29.9999 12.8057 29.6066 12.8057 29.1214V18.0994C12.8057 17.6143 12.4125 17.2209 11.9273 17.2209ZM1.82229 18.9779H4.73352L2.2891 21.2616C2.04945 20.5331 1.89043 19.7683 1.82229 18.9779ZM3.03277 22.9713L7.30719 18.9779H9.67508L4.01803 24.4425C3.64883 23.983 3.31859 23.4911 3.03277 22.9713ZM11.0488 28.2045C10.1308 28.1254 9.24711 27.9238 8.41473 27.6156L11.0488 25.1546V28.2045ZM11.0488 22.7501L6.71568 26.7984C6.18811 26.4812 5.69182 26.1172 5.23209 25.7125L11.0488 20.0937V22.7501Z" />
<path d="M11.9273 17.2209H0.905352C0.420195 17.2209 0.0268555 17.6143 0.0268555 18.0994C0.0268555 21.2491 1.25727 24.1163 3.26205 26.2472C3.2832 26.2751 3.30559 26.3023 3.33043 26.328C3.35422 26.3526 3.37924 26.3751 3.40496 26.3963C5.56818 28.6177 8.58916 29.9999 11.9272 29.9999C12.4124 29.9999 12.8057 29.6066 12.8057 29.1214V18.0994C12.8057 17.6143 12.4125 17.2209 11.9273 17.2209ZM1.82229 18.9779H4.73352L2.2891 21.2616C2.04945 20.5331 1.89043 19.7683 1.82229 18.9779ZM3.03277 22.9713L7.30719 18.9779H9.67508L4.01803 24.4425C3.64883 23.983 3.31859 23.4911 3.03277 22.9713ZM11.0488 28.2045C10.1308 28.1254 9.24711 27.9238 8.41473 27.6156L11.0488 25.1546V28.2045ZM11.0488 22.7501L6.71568 26.7984C6.18811 26.4812 5.69182 26.1172 5.23209 25.7125L11.0488 20.0937V22.7501Z"/>
</svg>
