<svg width="25" height="25" viewBox="0 0 25 25" xmlns="http://www.w3.org/2000/svg">
<path d="M23.1739 18.2568C21.0056 16.3816 18.999 13.736 18.999 7.13075C18.999 3.30544 15.8868 0.193359 12.0614 0.193359C8.23546 0.193359 5.12286 3.30544 5.12286 7.13075C5.12286 13.742 3.11703 16.385 0.94683 18.2586C0.345144 18.7826 0 19.5373 0 20.3292C0 20.7651 0.353351 21.1184 0.7892 21.1184H8.27871C8.64406 22.8718 10.201 24.1934 12.061 24.1934C13.921 24.1934 15.478 22.8719 15.8432 21.1184H23.3328C23.7686 21.1184 24.122 20.7651 24.122 20.3292C24.122 19.5309 23.776 18.775 23.1739 18.2568ZM12.061 22.615C11.0782 22.615 10.2383 21.9911 9.91635 21.1184H14.2056C13.8836 21.9911 13.0438 22.615 12.061 22.615ZM1.88924 19.54C1.91797 19.5089 1.94859 19.4792 1.98089 19.4511C5.28954 16.5946 6.70115 12.91 6.70115 7.13075C6.70115 4.17577 9.10579 1.77176 12.0613 1.77176C15.0164 1.77176 17.4205 4.17577 17.4205 7.13075C17.4205 12.9047 18.8323 16.5893 22.1426 19.4518C22.1749 19.4797 22.2056 19.5091 22.2344 19.54H1.88924Z"/>
</svg>
