<svg width="24" height="24" viewBox="0 0 24 24"  xmlns="http://www.w3.org/2000/svg">
<path d="M21.8887 17.8552C21.7934 17.3462 21.3036 17.011 20.7946 17.1064C20.2858 17.2018 19.9505 17.6916 20.0458 18.2005C20.1166 18.5781 19.9506 18.8471 19.8454 18.9739C19.7405 19.1003 19.5072 19.3125 19.1245 19.3125H4.89361C4.51087 19.3125 4.27762 19.1004 4.17267 18.9739C4.06748 18.8471 3.9015 18.5781 3.97228 18.2005C4.2382 16.7815 4.77178 15.8482 5.28778 14.9455C5.9145 13.8495 6.5625 12.716 6.5625 10.9688V9.5625C6.5625 6.60623 8.96545 4.1685 11.9204 4.12561H12.0976C15.0426 4.16836 17.4375 6.60609 17.4375 9.5625V10.9688C17.4375 12.4558 17.9239 13.479 18.3799 14.3214C18.5495 14.6349 18.872 14.8128 19.2051 14.8128C19.3558 14.8128 19.5088 14.7764 19.6505 14.6996C20.1059 14.4532 20.2753 13.8842 20.0288 13.4289C19.5752 12.5907 19.3125 11.9194 19.3125 10.9688V9.5625C19.3125 7.63308 18.5652 5.81077 17.2081 4.43128C16.0451 3.249 14.5518 2.51128 12.9375 2.30766V0.9375C12.9375 0.419719 12.5178 0 12 0C11.4822 0 11.0625 0.419719 11.0625 0.9375V2.31042C7.47853 2.77542 4.6875 5.86786 4.6875 9.5625V10.9688C4.6875 12.2178 4.23408 13.0109 3.66004 14.015C3.09454 15.0042 2.45353 16.1254 2.12934 17.8552C1.97461 18.6809 2.19351 19.5251 2.72995 20.1714C3.26592 20.8172 4.05454 21.1875 4.89361 21.1875H9.20559C9.20559 22.7383 10.4673 24 12.0181 24C13.5689 24 14.8306 22.7383 14.8306 21.1875H19.1245C19.9635 21.1875 20.7522 20.8172 21.2881 20.1714C21.8246 19.5251 22.0435 18.6809 21.8887 17.8552ZM12.0181 22.125C11.5012 22.125 11.0806 21.7044 11.0806 21.1875H12.9556C12.9556 21.7044 12.5351 22.125 12.0181 22.125Z" />
<path d="M5.07952 2.11395C4.69373 1.76858 4.10105 1.80139 3.75572 2.18717C1.93838 4.21733 0.9375 6.8367 0.9375 9.56277C0.9375 10.0805 1.35722 10.5003 1.875 10.5003C2.39278 10.5003 2.8125 10.0805 2.8125 9.56277C2.8125 7.2988 3.64359 5.12356 5.15273 3.43775C5.49806 3.05197 5.4653 2.45928 5.07952 2.11395Z" />
<path d="M20.2443 2.1872C19.899 1.80146 19.3062 1.76865 18.9205 2.11398C18.5348 2.45931 18.5019 3.052 18.8473 3.43778C20.3564 5.12364 21.1875 7.29882 21.1875 9.56279C21.1875 10.0806 21.6072 10.5003 22.125 10.5003C22.6428 10.5003 23.0625 10.0806 23.0625 9.56279C23.0625 6.83673 22.0616 4.21735 20.2443 2.1872Z" />
</svg>
