<svg width="21" height="24" viewBox="0 0 21 24" xmlns="http://www.w3.org/2000/svg">
<path d="M0.954559 24C0.701394 24 0.458599 23.8946 0.279584 23.7071C0.10057 23.5196 0 23.2652 0 23V0.999836C2.8399e-05 0.826064 0.0432803 0.655299 0.125493 0.504373C0.207705 0.353446 0.326041 0.227568 0.468835 0.139144C0.611629 0.0507209 0.773953 0.00280486 0.939807 0.000119443C1.10566 -0.00256598 1.26932 0.0400719 1.41466 0.12383L20.5058 11.1239C20.6555 11.2102 20.7803 11.3371 20.8672 11.4911C20.9541 11.6452 21 11.8209 21 11.9999C21 12.1789 20.9541 12.3546 20.8672 12.5087C20.7803 12.6628 20.6555 12.7896 20.5058 12.8759L1.41466 23.876C1.27372 23.9573 1.11545 23.9999 0.954559 24Z"/>
</svg>
