<svg width="14" height="14" viewBox="0 0 14 14" xmlns="http://www.w3.org/2000/svg">
<path d="M12.1368 5.38452L3.86806 0.2875C3.26983 -0.0807935 2.54656 -0.0961061 1.93327 0.246539C1.31997 0.58913 0.953837 1.21314 0.953837 1.91563V12.0632C0.953837 13.1254 1.8097 13.9942 2.86162 14C2.86449 14 2.86736 14 2.87017 14C3.1989 14 3.54146 13.8969 3.86141 13.7017C4.1188 13.5447 4.20015 13.2087 4.04311 12.9514C3.88608 12.694 3.55008 12.6126 3.29277 12.7697C3.14312 12.8609 2.99697 12.9082 2.86749 12.9081C2.4706 12.906 2.04565 12.566 2.04565 12.0633V1.91566C2.04565 1.6143 2.20271 1.34669 2.46576 1.19972C2.72883 1.05274 3.03905 1.05931 3.29534 1.21711L11.5641 6.31413C11.8127 6.46714 11.9549 6.72229 11.9543 7.01416C11.9537 7.306 11.8104 7.56057 11.5605 7.71307L5.58216 11.3735C5.32502 11.531 5.24419 11.8671 5.40164 12.1242C5.55905 12.3813 5.89514 12.4621 6.15228 12.3047L12.1299 8.64467C12.7023 8.29552 13.0448 7.68684 13.0461 7.01634C13.0475 6.34593 12.7075 5.73584 12.1368 5.38452Z"/>
</svg>
