<svg width="34" height="35" viewBox="0 0 34 35" xmlns="http://www.w3.org/2000/svg">
<path d="M23.6165 12.169L19.6736 13.4832L16.9753 9.43591C16.5125 8.74194 15.4894 8.73965 15.0252 9.43591L12.3269 13.4832L8.38397 12.169C7.53276 11.8849 6.68773 12.6281 6.8642 13.5105C8.60576 21.8711 8.33682 21.6509 8.782 22.0963C12.762 26.0761 19.238 26.0763 23.2183 22.0963C23.6634 21.6511 23.3982 21.8544 25.1361 13.5105C25.3116 12.6332 24.4734 11.8833 23.6165 12.169ZM21.3128 20.6765C18.3152 23.4259 13.6851 23.4259 10.6877 20.6765L9.55859 15.0309L12.435 15.9897C12.9362 16.157 13.4874 15.9677 13.7805 15.5281L16.0002 12.1985L18.2199 15.5281C18.5129 15.9677 19.0641 16.1568 19.5655 15.9897L22.4419 15.0309L21.3128 20.6765ZM16.0002 2C7.71014 2 1.00024 8.70876 1.00024 17C1.00024 25.2901 7.709 32 16.0002 32C24.2903 32 31.0002 25.2912 31.0002 17C31.0002 8.7099 24.2915 2 16.0002 2ZM16.0002 29.6562C9.00539 29.6562 3.34399 23.9958 3.34399 17C3.34399 10.0051 9.00447 4.34375 16.0002 4.34375C22.9951 4.34375 28.6565 10.0042 28.6565 17C28.6565 23.9949 22.996 29.6562 16.0002 29.6562Z"/>
</svg>
