<svg width="30" height="30" viewBox="0 0 30 30" xmlns="http://www.w3.org/2000/svg">
<path d="M14.7863 14.4511C16.7716 14.4511 18.4905 13.7391 19.8954 12.3342C21.2998 10.9295 22.0121 9.21087 22.0121 7.22533C22.0121 5.24047 21.3001 3.52157 19.8952 2.11647C18.4903 0.71205 16.7714 0 14.7863 0C12.8008 0 11.0821 0.71205 9.67747 2.1167C8.27283 3.52134 7.56055 5.24024 7.56055 7.22533C7.56055 9.21087 8.27283 10.9298 9.67747 12.3344C11.0826 13.7388 12.8015 14.4511 14.7863 14.4511ZM10.9208 3.35975C11.9986 2.28195 13.2629 1.75804 14.7863 1.75804C16.3095 1.75804 17.5741 2.28195 18.6521 3.35975C19.7299 4.43778 20.2541 5.70235 20.2541 7.22533C20.2541 8.74876 19.7299 10.0131 18.6521 11.0911C17.5741 12.1692 16.3095 12.6931 14.7863 12.6931C13.2634 12.6931 11.999 12.1689 10.9208 11.0911C9.84272 10.0133 9.31858 8.74876 9.31858 7.22533C9.31858 5.70235 9.84272 4.43778 10.9208 3.35975Z"/>
<path d="M27.4294 23.0685C27.3889 22.484 27.3069 21.8463 27.1863 21.1729C27.0645 20.4945 26.9078 19.8532 26.7201 19.267C26.526 18.6612 26.2625 18.0629 25.9364 17.4896C25.5983 16.8945 25.201 16.3763 24.7551 15.9499C24.2889 15.5038 23.7181 15.1451 23.058 14.8835C22.4002 14.6233 21.6712 14.4914 20.8914 14.4914C20.5851 14.4914 20.289 14.6171 19.717 14.9895C19.365 15.2191 18.9532 15.4846 18.4936 15.7782C18.1006 16.0286 17.5683 16.2632 16.9107 16.4756C16.2691 16.6832 15.6177 16.7885 14.9746 16.7885C14.3319 16.7885 13.6805 16.6832 13.0385 16.4756C12.3816 16.2634 11.849 16.0288 11.4567 15.7784C11.0014 15.4875 10.5894 15.222 10.2321 14.9893C9.66063 14.6169 9.36446 14.4912 9.05821 14.4912C8.27819 14.4912 7.54943 14.6233 6.89185 14.8837C6.23222 15.1449 5.66116 15.5036 5.19447 15.9501C4.74861 16.3767 4.35127 16.8947 4.01344 17.4896C3.68774 18.0629 3.42407 18.661 3.22998 19.2673C3.04253 19.8534 2.88574 20.4945 2.76398 21.1729C2.64313 21.8454 2.56142 22.4833 2.5209 23.0692C2.48108 23.6421 2.46094 24.2384 2.46094 24.8408C2.46094 26.4068 2.95875 27.6746 3.94043 28.6095C4.90997 29.5322 6.19262 30 7.7529 30H22.1981C23.7579 30 25.0405 29.5322 26.0103 28.6095C26.9922 27.6752 27.49 26.407 27.49 24.8405C27.4898 24.2361 27.4694 23.6398 27.4294 23.0685ZM24.7982 27.3358C24.1575 27.9455 23.307 28.2419 22.1978 28.2419H7.7529C6.64352 28.2419 5.79299 27.9455 5.15258 27.336C4.5243 26.738 4.21898 25.9215 4.21898 24.8408C4.21898 24.2786 4.23751 23.7236 4.27459 23.1908C4.31076 22.668 4.38469 22.0937 4.49432 21.4835C4.60258 20.8809 4.74037 20.3153 4.90425 19.8033C5.06149 19.3124 5.27595 18.8262 5.54191 18.3579C5.79574 17.9116 6.08779 17.5287 6.41006 17.2202C6.71149 16.9315 7.09144 16.6953 7.53913 16.5182C7.95318 16.3543 8.41849 16.2646 8.92363 16.2511C8.9852 16.2838 9.09484 16.3463 9.27245 16.4621C9.63385 16.6976 10.0504 16.9663 10.5109 17.2604C11.03 17.5914 11.6988 17.8903 12.4978 18.1483C13.3147 18.4124 14.1479 18.5465 14.9748 18.5465C15.8017 18.5465 16.6351 18.4124 17.4515 18.1485C18.2512 17.8901 18.9198 17.5914 19.4396 17.26C19.9109 16.9588 20.3157 16.6979 20.6771 16.4621C20.8548 16.3465 20.9644 16.2838 21.026 16.2511C21.5313 16.2646 21.9967 16.3543 22.4109 16.5182C22.8584 16.6953 23.2383 16.9318 23.5398 17.2202C23.862 17.5285 24.1541 17.9114 24.4079 18.3582C24.6741 18.8262 24.8888 19.3126 25.0458 19.8031C25.2099 20.3158 25.3479 20.8811 25.456 21.4833C25.5654 22.0947 25.6395 22.6691 25.6757 23.191V23.1915C25.713 23.7222 25.7318 24.277 25.732 24.8408C25.7318 25.9218 25.4264 26.738 24.7982 27.3358Z"/>
</svg>
