<svg width="30" height="30" viewBox="0 0 30 30" xmlns="http://www.w3.org/2000/svg">
<path d="M28.8021 22.6895H20.4361L23.852 11.7855L26.1784 19.239C26.3347 19.7397 26.7964 20.0605 27.2946 20.0605C27.41 20.0605 27.5275 20.0433 27.6435 20.007C28.2601 19.8146 28.604 19.1586 28.4116 18.5419L24.9615 7.48837C24.8382 7.09327 24.5152 6.79268 24.1122 6.69811L18.4898 5.37834C18.2335 4.18091 17.3644 3.20796 16.2279 2.80501V1.16965C16.2279 0.523654 15.7042 0 15.0582 0C14.4122 0 13.8885 0.523654 13.8885 1.16971V2.80519C13.2639 3.02667 12.7199 3.42037 12.3142 3.9289L6.42196 2.54579C5.82413 2.40563 5.21997 2.75105 5.03774 3.33722L0.135297 19.1016C0.0662146 19.2508 0.0276597 19.417 0.0276597 19.5923C0.0276597 19.5944 0.0276597 19.5965 0.0276597 19.5985C0.0271324 19.6217 0.0272496 19.6448 0.0281285 19.6678C0.0687341 23.0193 2.80765 25.7332 6.16854 25.7332C9.55463 25.7332 12.3094 22.9784 12.3094 19.5923C12.3094 19.4284 12.2757 19.2723 12.2148 19.1307L7.87914 5.2908L11.5493 6.15231C11.57 8.06956 13.1361 9.62283 15.0582 9.62283C16.4189 9.62283 17.6012 8.84435 18.183 7.70939L22.3695 8.69207L17.7714 23.3694C17.7517 23.4325 17.7375 23.496 17.7287 23.5594C17.7034 23.655 17.6899 23.7555 17.6899 23.8591C17.6899 27.2452 20.4447 30 23.8308 30C27.2169 30 29.9717 27.2452 29.9717 23.8591C29.9718 23.2132 29.4481 22.6895 28.8021 22.6895ZM6.1686 23.3938C4.48033 23.3938 3.04566 22.2877 2.55119 20.762H9.78596C9.2916 22.2877 7.85693 23.3938 6.1686 23.3938ZM9.54151 18.4226H2.79634L6.15653 7.61739L9.54151 18.4226ZM15.0582 7.28347C14.4133 7.28347 13.8885 6.75876 13.8885 6.11375C13.8885 5.46881 14.4132 4.94404 15.0582 4.94404C15.7032 4.94404 16.228 5.46875 16.228 6.11375C16.2279 6.75876 15.7032 7.28347 15.0582 7.28347ZM23.8309 27.6608C22.1427 27.6608 20.708 26.5546 20.2135 25.0289H27.4484C26.9539 26.5546 25.5193 27.6608 23.8309 27.6608Z"/>
</svg>
