<svg width="30" height="30" viewBox="0 0 30 30" xmlns="http://www.w3.org/2000/svg">
<path d="M14.9999 7.22217C10.7111 7.22217 7.22217 10.7111 7.22217 14.9999C7.22217 19.2888 10.7111 22.7777 14.9999 22.7777C19.2888 22.7777 22.7777 19.2888 22.7777 14.9999C22.7777 10.7111 19.2888 7.22217 14.9999 7.22217ZM14.9999 21.6666C11.3238 21.6666 8.33328 18.6761 8.33328 14.9999C8.33328 11.3238 11.3238 8.33328 14.9999 8.33328C18.6761 8.33328 21.6666 11.3238 21.6666 14.9999C21.6666 18.6761 18.6761 21.6666 14.9999 21.6666Z"/>
<path d="M28.4556 11.6667H27.3344C27.0483 10.6044 26.6278 9.58778 26.0789 8.635L26.8711 7.84278C27.1628 7.55111 27.3233 7.16278 27.3233 6.75056C27.3233 6.33778 27.1628 5.95 26.8711 5.65778L24.3417 3.12833C23.7583 2.54556 22.7411 2.54444 22.1567 3.12833L21.3644 3.92056C20.4111 3.37222 19.395 2.95167 18.3333 2.66556V1.54444C18.3333 0.692778 17.6406 0 16.7889 0H13.2111C12.3594 0 11.6667 0.692778 11.6667 1.54444V2.66556C10.605 2.95167 9.58889 3.37222 8.635 3.92111L7.84278 3.12889C7.25889 2.54444 6.24111 2.54556 5.65778 3.12889L3.12833 5.65833C2.83667 5.95 2.67611 6.33833 2.67611 6.75111C2.67611 7.16333 2.83667 7.55111 3.12833 7.84333L3.92056 8.63556C3.37222 9.58778 2.95111 10.6044 2.66556 11.6667H1.54444C0.692778 11.6667 0 12.3594 0 13.2111V16.7883C0 17.6406 0.692778 18.3333 1.54444 18.3333H2.66556C2.95167 19.395 3.37222 20.4111 3.92111 21.365L3.12889 22.1572C2.83722 22.4489 2.67667 22.8372 2.67667 23.2494C2.67667 23.6622 2.83722 24.05 3.12889 24.3422L5.65833 26.8717C6.24167 27.4556 7.25944 27.4561 7.84333 26.8717L8.63556 26.0794C9.58944 26.6278 10.6056 27.0489 11.6672 27.335V28.4561C11.6672 29.3078 12.36 30.0006 13.2117 30.0006H16.7889C17.6406 30.0006 18.3333 29.3078 18.3333 28.4561V27.335C19.395 27.0489 20.4111 26.6283 21.365 26.0794L22.1572 26.8717C22.7417 27.4561 23.7583 27.455 24.3422 26.8717L26.8717 24.3422C27.1633 24.0506 27.3239 23.6622 27.3239 23.2494C27.3239 22.8372 27.1633 22.4494 26.8717 22.1572L26.0794 21.365C26.6278 20.4111 27.0489 19.395 27.335 18.3333H28.4561C29.3078 18.3333 30.0006 17.6406 30.0006 16.7889V13.2111C30 12.3594 29.3072 11.6667 28.4556 11.6667ZM28.8889 16.7889C28.8889 17.0278 28.6944 17.2222 28.4556 17.2222H26.46L26.36 17.6517C26.0706 18.8944 25.5828 20.0739 24.9083 21.1578L24.675 21.5322L26.0856 22.9428C26.255 23.1122 26.255 23.3872 26.0856 23.5561L23.5561 26.0856C23.3872 26.2544 23.1122 26.2556 22.9428 26.0856L21.5322 24.675L21.1578 24.9083C20.0744 25.5828 18.895 26.0711 17.6517 26.36L17.2222 26.46V28.4556C17.2222 28.6944 17.0278 28.8889 16.7889 28.8889H13.2111C12.9722 28.8889 12.7778 28.6944 12.7778 28.4556V26.46L12.3483 26.36C11.1056 26.0706 9.92611 25.5828 8.84222 24.9083L8.46778 24.675L7.05722 26.0856C6.88722 26.2556 6.61222 26.2544 6.44389 26.0856L3.91444 23.5561C3.745 23.3867 3.745 23.1117 3.91444 22.9428L5.325 21.5322L5.09167 21.1578C4.41722 20.0744 3.92889 18.895 3.64 17.6517L3.54 17.2222H1.54444C1.30556 17.2222 1.11111 17.0278 1.11111 16.7889V13.2111C1.11111 12.9722 1.30556 12.7778 1.54444 12.7778H3.54L3.64 12.3483C3.92944 11.105 4.41722 9.92556 5.09167 8.84222L5.325 8.46778L3.91444 7.05722C3.745 6.88778 3.745 6.61278 3.91444 6.44389L6.44389 3.91444C6.61278 3.74556 6.88778 3.74444 7.05722 3.91444L8.46778 5.325L8.84222 5.09167C9.92556 4.41722 11.105 3.92889 12.3483 3.64L12.7778 3.54V1.54444C12.7778 1.30556 12.9722 1.11111 13.2111 1.11111H16.7883C17.0278 1.11111 17.2222 1.30556 17.2222 1.54444V3.54L17.6517 3.64C18.8944 3.92944 20.0739 4.41722 21.1578 5.09167L21.5322 5.325L22.9428 3.91444C23.1128 3.74444 23.3878 3.74556 23.5561 3.91444L26.0856 6.44389C26.255 6.61333 26.255 6.88833 26.0856 7.05722L24.675 8.46778L24.9083 8.84222C25.5828 9.925 26.0711 11.1044 26.36 12.3483L26.46 12.7778H28.4556C28.6944 12.7778 28.8889 12.9722 28.8889 13.2111V16.7889Z"/>
<path d="M14.9999 9.44446C11.9366 9.44446 9.44434 11.9367 9.44434 15C9.44434 18.0633 11.9366 20.5556 14.9999 20.5556C18.0632 20.5556 20.5554 18.0633 20.5554 15C20.5554 11.9367 18.0632 9.44446 14.9999 9.44446ZM14.9999 19.4445C12.5493 19.4445 10.5554 17.4506 10.5554 15C10.5554 12.5495 12.5493 10.5556 14.9999 10.5556C17.4504 10.5556 19.4443 12.5495 19.4443 15C19.4443 17.4506 17.4504 19.4445 14.9999 19.4445Z"/>
</svg>
