<svg width="35" height="35" viewBox="0 0 35 35"  xmlns="http://www.w3.org/2000/svg">

<path d="M28.2975 3.75594C28.4506 3.44312 28.4769 3.07781 28.3084 2.765C28.1181 2.41062 27.7484 2.1875 27.3437 2.1875H25.9525C23.4456 0.79625 20.5647 0 17.5 0C7.85093 0 0 7.85093 0 17.5C0 27.149 7.85093 35 17.5 35C27.149 35 35 27.149 35 17.5C35 11.9262 32.3706 6.96281 28.2975 3.75594ZM17.5 32.8125C9.05624 32.8125 2.1875 25.9437 2.1875 17.5C2.1875 9.05624 9.05624 2.1875 17.5 2.1875C19.0509 2.1875 20.5494 2.42375 21.9603 2.85469C21.9056 2.98594 21.875 3.13031 21.875 3.28125C21.875 3.885 22.365 4.375 22.9687 4.375H25.3006L22.0587 9.23781C21.8356 9.57249 21.8137 10.0056 22.0041 10.36C22.1944 10.7144 22.5641 10.9375 22.9687 10.9375H27.3437C27.9475 10.9375 28.4375 10.4475 28.4375 9.84374C28.4375 9.24 27.9475 8.75 27.3437 8.75H25.0119L27.114 5.59781C30.5856 8.40656 32.8125 12.6962 32.8125 17.5C32.8125 25.9437 25.9437 32.8125 17.5 32.8125Z" />
<path d="M27.3437 12.031C26.74 12.031 26.25 12.521 26.25 13.1248C26.25 14.3301 25.2678 15.3123 24.0625 15.3123C22.8572 15.3123 21.875 14.3301 21.875 13.1248C21.875 12.521 21.385 12.031 20.7812 12.031C20.1775 12.031 19.6875 12.521 19.6875 13.1248C19.6875 15.5376 21.6497 17.4998 24.0625 17.4998C26.4753 17.4998 28.4375 15.5376 28.4375 13.1248C28.4375 12.521 27.9475 12.031 27.3437 12.031Z" />
<path d="M14.2187 12.031C13.615 12.031 13.125 12.521 13.125 13.1248C13.125 14.3301 12.1428 15.3123 10.9375 15.3123C9.73219 15.3123 8.75 14.3301 8.75 13.1248C8.75 12.521 8.26 12.031 7.65625 12.031C7.0525 12.031 6.5625 12.521 6.5625 13.1248C6.5625 15.5376 8.52469 17.4998 10.9375 17.4998C13.3503 17.4998 15.3125 15.5376 15.3125 13.1248C15.3125 12.521 14.8225 12.031 14.2187 12.031Z" />
<path d="M22.9687 24.0623H12.0312C11.4275 24.0623 10.9375 24.5523 10.9375 25.156C10.9375 25.7598 11.4275 26.2498 12.0312 26.2498H22.9687C23.5725 26.2498 24.0625 25.7598 24.0625 25.156C24.0625 24.5523 23.5725 24.0623 22.9687 24.0623Z" />
<path d="M33.9062 4.375H33.4884L34.8841 1.58375C35.0547 1.24469 35.035 0.842187 34.8359 0.520625C34.6369 0.199062 34.2847 0 33.9062 0H31.7187C31.115 0 30.625 0.49 30.625 1.09375C30.625 1.6975 31.115 2.1875 31.7187 2.1875H32.1366L30.7409 4.97875C30.5703 5.31781 30.59 5.72031 30.7891 6.04187C30.9881 6.36343 31.3403 6.5625 31.7187 6.5625H33.9062C34.51 6.5625 35 6.0725 35 5.46875C35 4.865 34.51 4.375 33.9062 4.375Z" />

</svg>
