<svg width="30" height="30" viewBox="0 0 30 30" xmlns="http://www.w3.org/2000/svg">
<path d="M25.6066 4.39336C22.7735 1.56029 19.0066 0 15 0C10.9934 0 7.22654 1.56029 4.39336 4.39336C1.56029 7.22654 0 10.9934 0 15C0 19.0066 1.56029 22.7735 4.39336 25.6066C7.22654 28.4397 10.9934 30 15 30C17.7429 30 20.4268 29.2525 22.7614 27.8383C23.315 27.5029 23.4919 26.7823 23.1566 26.2288C22.8212 25.6751 22.1006 25.4982 21.5471 25.8336C19.5788 27.026 17.3147 27.6562 15 27.6562C8.02131 27.6562 2.34375 21.9787 2.34375 15C2.34375 8.02131 8.02131 2.34375 15 2.34375C21.9787 2.34375 27.6562 8.02131 27.6562 15C27.6562 17.4954 26.9142 19.9245 25.5102 22.0245C25.1505 22.5625 25.295 23.2903 25.833 23.65C26.3711 24.0097 27.0989 23.8651 27.4586 23.3271C29.1212 20.8403 30 17.9607 30 15C30 10.9934 28.4397 7.22654 25.6066 4.39336Z"/>
<path d="M19.3945 17.168C18.7473 17.168 18.2227 17.6926 18.2227 18.3398C18.2227 20.1168 16.777 21.5625 15 21.5625C13.223 21.5625 11.7773 20.1168 11.7773 18.3398C11.7773 17.6926 11.2527 17.168 10.6055 17.168C9.95824 17.168 9.43359 17.6926 9.43359 18.3398C9.43359 21.4092 11.9307 23.9062 15 23.9062C18.0693 23.9062 20.5664 21.4092 20.5664 18.3398C20.5664 17.6926 20.0418 17.168 19.3945 17.168Z"/>
<path d="M20.2148 8.84766C18.5994 8.84766 17.2852 10.1619 17.2852 11.7773C17.2852 12.4246 17.8098 12.9492 18.457 12.9492C19.1043 12.9492 19.6289 12.4246 19.6289 11.7773C19.6289 11.4543 19.8918 11.1914 20.2148 11.1914C20.5379 11.1914 20.8008 11.4543 20.8008 11.7773C20.8008 12.4246 21.3254 12.9492 21.9727 12.9492C22.6199 12.9492 23.1445 12.4246 23.1445 11.7773C23.1445 10.1619 21.8303 8.84766 20.2148 8.84766Z"/>
<path d="M9.84375 8.84766C8.22832 8.84766 6.91406 10.1619 6.91406 11.7773C6.91406 12.4246 7.43871 12.9492 8.08594 12.9492C8.73316 12.9492 9.25781 12.4246 9.25781 11.7773C9.25781 11.4543 9.52066 11.1914 9.84375 11.1914C10.1668 11.1914 10.4297 11.4543 10.4297 11.7773C10.4297 12.4246 10.9543 12.9492 11.6016 12.9492C12.2488 12.9492 12.7734 12.4246 12.7734 11.7773C12.7734 10.1619 11.4592 8.84766 9.84375 8.84766Z"/>
</svg>
