<svg width="30" height="30" viewBox="0 0 30 30" xmlns="http://www.w3.org/2000/svg">
<path d="M17.6178 25.0075L16.2015 23.5877V15.638L22.9642 11.6251L27.3242 12.7922C27.4258 12.8194 27.5276 12.8324 27.628 12.8324C28.1455 12.8324 28.6191 12.4869 28.7593 11.9633C28.9267 11.3381 28.5555 10.6955 27.9303 10.5282L25.782 9.95309L27.5264 8.91803C28.083 8.58773 28.2665 7.86879 27.9362 7.31221C27.606 6.75557 26.887 6.57217 26.3304 6.9024L24.6752 7.88455C24.8732 7.10209 25.0676 6.33398 25.1891 5.85404C25.348 5.22662 24.9681 4.58924 24.3407 4.43039C23.7134 4.27154 23.0759 4.65141 22.917 5.27877L21.831 9.57223L16.2015 12.9127V6.41766L19.4267 3.23666C19.8875 2.78221 19.8926 2.04023 19.4381 1.57945C18.9837 1.11861 18.2416 1.11352 17.7809 1.56803L16.2014 3.1258V1.17188C16.2014 0.524648 15.6768 0 15.0296 0C14.3823 0 13.8577 0.524648 13.8577 1.17188V3.12627C13.2523 2.52902 12.6495 1.93424 12.2785 1.56814C11.8178 1.11357 11.0758 1.11855 10.6212 1.57922C10.1666 2.03994 10.1716 2.78191 10.6322 3.23648L13.8577 6.41789V12.9174L8.229 9.59256L7.08115 5.21057C6.91697 4.58449 6.27642 4.21008 5.65041 4.3742C5.02433 4.53832 4.64986 5.17887 4.81398 5.80494C4.94347 6.29895 5.15195 7.09418 5.36306 7.89973L3.67252 6.90111C3.11529 6.57193 2.39664 6.7568 2.06746 7.31408C1.73834 7.87137 1.9232 8.5899 2.48049 8.91908L4.19652 9.93275L2.08656 10.4653C1.45908 10.6236 1.07875 11.2607 1.23713 11.8883C1.37119 12.4196 1.84844 12.7737 2.3725 12.7737C2.46736 12.7737 2.56387 12.762 2.66014 12.7378L7.06375 11.6264L12.7293 14.973L7.02502 18.3578L2.67291 17.2069C2.04683 17.0413 1.40576 17.4145 1.24041 18.0402C1.07494 18.6659 1.44801 19.3073 2.07373 19.4728L4.19898 20.0348L2.53287 21.0234C1.97629 21.3537 1.79277 22.0727 2.12306 22.6293C2.34209 22.9983 2.73191 23.2033 3.13199 23.2033C3.33537 23.2033 3.54139 23.1503 3.72894 23.0391L5.36224 22.0698C5.15178 22.8635 4.94406 23.6463 4.81492 24.133C4.64892 24.7586 5.02146 25.4002 5.64701 25.5662C5.74779 25.5929 5.84887 25.6057 5.94836 25.6057C6.46685 25.6057 6.94099 25.259 7.08027 24.7341L8.23937 20.3626L13.8578 17.0287V23.5823L10.6325 26.7633C10.1717 27.2178 10.1666 27.9598 10.6211 28.4205C10.8504 28.653 11.1528 28.7695 11.4555 28.7695C11.7526 28.7695 12.05 28.6571 12.2783 28.432L13.8578 26.8742V28.8281C13.8578 29.4754 14.3824 30 15.0296 30C15.6769 30 16.2015 29.4754 16.2015 28.8281V26.9065C16.7836 27.4903 17.3584 28.0669 17.7153 28.4249C17.9443 28.6546 18.2447 28.7695 18.5453 28.7695C18.8445 28.7695 19.1439 28.6556 19.3725 28.4276C19.8309 27.9707 19.8321 27.2287 19.3752 26.7703L17.6178 25.0075Z"/>
<path d="M27.3241 17.2078L23.0555 18.3505L20.0786 16.5921C19.5214 16.263 18.8028 16.4478 18.4736 17.0051C18.1445 17.5624 18.3293 18.2809 18.8866 18.6101L21.812 20.338L22.9779 24.7893C23.116 25.3158 23.5908 25.6643 24.1107 25.6643C24.2091 25.6643 24.3091 25.6518 24.4087 25.6257C25.0348 25.4616 25.4092 24.821 25.2451 24.195C25.1119 23.6868 24.8951 22.8599 24.6778 22.0309L26.3865 23.0402C26.5736 23.1507 26.7788 23.2033 26.9814 23.2033C27.3823 23.2033 27.7729 22.9974 27.9915 22.6272C28.3207 22.0699 28.1358 21.3514 27.5785 21.0222L25.882 20.0201L27.9301 19.4718C28.5553 19.3045 28.9264 18.662 28.759 18.0368C28.5918 17.4116 27.9491 17.0404 27.3241 17.2078Z"/>
</svg>
