<svg width="25" height="25" viewBox="0 0 25 25" xmlns="http://www.w3.org/2000/svg">
<path d="M22.5879 7.13868C24.5215 4.10645 24.9561 2.12892 23.916 1.08888C22.8271 0.00489205 20.7227 0.517587 17.4805 2.66114C15.8594 1.69435 13.9648 1.13282 11.9434 1.13282C5.97657 1.13282 1.1377 5.97169 1.1377 11.9385C1.1377 13.9649 1.69434 15.8594 2.66602 17.4756C0.517582 20.7227 0.00488633 22.8272 1.08887 23.9111C1.45508 24.2774 1.9336 24.4629 2.53907 24.4629C3.65235 24.4629 5.17578 23.8379 7.13868 22.5879C7.42188 22.4072 7.71485 22.2119 8.0127 22.0068C9.22852 22.4805 10.5566 22.7441 11.9385 22.7441C17.9053 22.7441 22.7441 17.9053 22.7441 11.9385C22.7441 10.5518 22.4805 9.22852 22.0068 8.0127C22.2119 7.71485 22.4023 7.42188 22.5879 7.13868ZM22.4805 2.52442C22.5488 3.02247 22.0654 4.24317 20.957 5.98634C20.4541 5.2295 19.8633 4.53614 19.1943 3.93067C21.1377 2.72462 22.1436 2.49513 22.4805 2.52442ZM11.9385 3.12013C15.3027 3.12013 18.2324 5.01466 19.7217 7.78809C18.3887 9.59962 16.5527 11.7725 14.1602 14.1602C11.7725 16.5479 9.59961 18.3838 7.78321 19.7168C5.00977 18.2275 3.11524 15.2979 3.11524 11.9385C3.12012 7.0752 7.0752 3.12013 11.9385 3.12013ZM2.52442 22.4805C2.5 22.1436 2.72461 21.1328 3.93067 19.1943C4.53614 19.8633 5.2295 20.4541 5.98633 20.957C4.24317 22.0606 3.02246 22.544 2.52442 22.4805ZM20.7617 11.9385C20.7617 16.8018 16.8066 20.7617 11.9385 20.7617C11.2695 20.7617 10.6201 20.6885 9.99512 20.5469C11.792 19.1455 13.6963 17.4463 15.5713 15.5713C17.4414 13.7012 19.1406 11.792 20.5469 9.99513C20.6885 10.6201 20.7617 11.2744 20.7617 11.9385Z" />
<path d="M22.5879 7.13868C24.5215 4.10645 24.9561 2.12892 23.916 1.08888C22.8271 0.00489205 20.7227 0.517587 17.4805 2.66114C15.8594 1.69435 13.9648 1.13282 11.9434 1.13282C5.97657 1.13282 1.1377 5.97169 1.1377 11.9385C1.1377 13.9649 1.69434 15.8594 2.66602 17.4756C0.517582 20.7227 0.00488633 22.8272 1.08887 23.9111C1.45508 24.2774 1.9336 24.4629 2.53907 24.4629C3.65235 24.4629 5.17578 23.8379 7.13868 22.5879C7.42188 22.4072 7.71485 22.2119 8.0127 22.0068C9.22852 22.4805 10.5566 22.7441 11.9385 22.7441C17.9053 22.7441 22.7441 17.9053 22.7441 11.9385C22.7441 10.5518 22.4805 9.22852 22.0068 8.0127C22.2119 7.71485 22.4023 7.42188 22.5879 7.13868ZM22.4805 2.52442C22.5488 3.02247 22.0654 4.24317 20.957 5.98634C20.4541 5.2295 19.8633 4.53614 19.1943 3.93067C21.1377 2.72462 22.1436 2.49513 22.4805 2.52442ZM11.9385 3.12013C15.3027 3.12013 18.2324 5.01466 19.7217 7.78809C18.3887 9.59962 16.5527 11.7725 14.1602 14.1602C11.7725 16.5479 9.59961 18.3838 7.78321 19.7168C5.00977 18.2275 3.11524 15.2979 3.11524 11.9385C3.12012 7.0752 7.0752 3.12013 11.9385 3.12013ZM2.52442 22.4805C2.5 22.1436 2.72461 21.1328 3.93067 19.1943C4.53614 19.8633 5.2295 20.4541 5.98633 20.957C4.24317 22.0606 3.02246 22.544 2.52442 22.4805ZM20.7617 11.9385C20.7617 16.8018 16.8066 20.7617 11.9385 20.7617C11.2695 20.7617 10.6201 20.6885 9.99512 20.5469C11.792 19.1455 13.6963 17.4463 15.5713 15.5713C17.4414 13.7012 19.1406 11.792 20.5469 9.99513C20.6885 10.6201 20.7617 11.2744 20.7617 11.9385Z" />
<path d="M22.5879 7.13868C24.5215 4.10645 24.9561 2.12892 23.916 1.08888C22.8271 0.00489205 20.7227 0.517587 17.4805 2.66114C15.8594 1.69435 13.9648 1.13282 11.9434 1.13282C5.97657 1.13282 1.1377 5.97169 1.1377 11.9385C1.1377 13.9649 1.69434 15.8594 2.66602 17.4756C0.517582 20.7227 0.00488633 22.8272 1.08887 23.9111C1.45508 24.2774 1.9336 24.4629 2.53907 24.4629C3.65235 24.4629 5.17578 23.8379 7.13868 22.5879C7.42188 22.4072 7.71485 22.2119 8.0127 22.0068C9.22852 22.4805 10.5566 22.7441 11.9385 22.7441C17.9053 22.7441 22.7441 17.9053 22.7441 11.9385C22.7441 10.5518 22.4805 9.22852 22.0068 8.0127C22.2119 7.71485 22.4023 7.42188 22.5879 7.13868ZM22.4805 2.52442C22.5488 3.02247 22.0654 4.24317 20.957 5.98634C20.4541 5.2295 19.8633 4.53614 19.1943 3.93067C21.1377 2.72462 22.1436 2.49513 22.4805 2.52442ZM11.9385 3.12013C15.3027 3.12013 18.2324 5.01466 19.7217 7.78809C18.3887 9.59962 16.5527 11.7725 14.1602 14.1602C11.7725 16.5479 9.59961 18.3838 7.78321 19.7168C5.00977 18.2275 3.11524 15.2979 3.11524 11.9385C3.12012 7.0752 7.0752 3.12013 11.9385 3.12013ZM2.52442 22.4805C2.5 22.1436 2.72461 21.1328 3.93067 19.1943C4.53614 19.8633 5.2295 20.4541 5.98633 20.957C4.24317 22.0606 3.02246 22.544 2.52442 22.4805ZM20.7617 11.9385C20.7617 16.8018 16.8066 20.7617 11.9385 20.7617C11.2695 20.7617 10.6201 20.6885 9.99512 20.5469C11.792 19.1455 13.6963 17.4463 15.5713 15.5713C17.4414 13.7012 19.1406 11.792 20.5469 9.99513C20.6885 10.6201 20.7617 11.2744 20.7617 11.9385Z"/>
</svg>
