<svg width="21" height="20" viewBox="0 0 21 20"  xmlns="http://www.w3.org/2000/svg">
<path d="M3.15817 5.70203C2.20966 5.70203 1.40618 6.28859 1.11122 7.19629C0.815126 8.10758 0.729414 9.44012 1.5 10L4.88766 12.5L4.10532 16.4288C3.81157 17.3328 4.11868 18.278 4.88766 18.8366C5.65661 19.3954 6.65036 19.3953 7.41934 18.8366L10.6524 16.4877C10.8603 16.3365 11.1397 16.3366 11.3476 16.4876L14.5807 18.8366C14.9651 19.116 15.4058 19.2556 15.8465 19.2556C16.2872 19.2556 16.7279 19.116 17.1124 18.8366C17.8813 18.2779 18.1884 17.3328 17.8947 16.4288L16.6598 12.6281C16.5803 12.3837 16.6667 12.118 16.8746 11.967L20.1077 9.61797C20.8782 9.05812 21.1849 8.10754 20.8888 7.19629C20.5938 6.28855 19.7903 5.70203 18.8418 5.70203H14.8455C14.5805 5.70203 14.3598 5.54949 14.2831 5.3134L13.0486 1.48953C12.7544 0.584102 11.9504 0 10.9999 0C10.0494 0 9.24548 0.584102 8.95173 1.48813L7.71638 5.3148C7.64013 5.54949 7.41938 5.70203 7.15438 5.70203H3.15817Z" />
</svg>
