<svg width="21" height="22" viewBox="0 0 21 22" xmlns="http://www.w3.org/2000/svg">
<path d="M2.26071 5.70203C1.3122 5.70203 0.508718 6.28859 0.213758 7.19629C-0.0823345 8.10758 -0.168047 9.44012 0.602539 10L3.9902 12.5L3.20786 16.4288C2.91411 17.3328 3.22122 18.278 3.9902 18.8366C4.75915 19.3954 5.7529 19.3953 6.52188 18.8366L9.75493 16.4877C9.96286 16.3365 10.2423 16.3366 10.4501 16.4876L13.6832 18.8366C14.0677 19.116 14.5084 19.2556 14.9491 19.2556C15.3897 19.2556 15.8304 19.116 16.2149 18.8366C16.9839 18.2779 17.291 17.3328 16.9972 16.4288L15.7623 12.6281C15.6829 12.3837 15.7692 12.118 15.9771 11.967L19.2102 9.61797C19.9808 9.05812 20.2874 8.10754 19.9913 7.19629C19.6964 6.28855 18.8929 5.70203 17.9443 5.70203H13.9481C13.6831 5.70203 13.4623 5.54949 13.3856 5.3134L12.1511 1.48953C11.857 0.584102 11.053 0 10.1025 0C9.15196 0 8.34802 0.584102 8.05427 1.48813L6.81891 5.3148C6.74266 5.54949 6.52192 5.70203 6.25692 5.70203H2.26071Z" fill="currentColor"/>
<path d="M1.11122 9.56836C1.40618 8.66066 2.20966 8.0741 3.15817 8.0741H7.15438C7.41938 8.0741 7.64013 7.92156 7.71638 7.68687L8.95173 3.8602C9.24548 2.95617 10.0494 2.37207 10.9999 2.37207C11.9504 2.37207 12.7544 2.95617 13.0486 3.8616L14.2831 7.68547C14.3598 7.92156 14.5805 8.0741 14.8455 8.0741H18.8418C19.7903 8.0741 20.5938 8.66062 20.8888 9.56836C21.1849 10.4796 20.8782 11.4302 20.1077 11.99L16.8746 14.339C16.6667 14.49 16.5803 14.7558 16.6598 15.0002L17.8947 18.8009C18.1884 19.7049 17.8813 20.65 17.1124 21.2087C16.7279 21.488 16.2872 21.6277 15.8465 21.6277C15.4058 21.6277 14.9651 21.488 14.5807 21.2087L11.3476 18.8597C11.1397 18.7087 10.8603 18.7086 10.6524 18.8597L7.41934 21.2087C6.65036 21.7673 5.65661 21.7674 4.88766 21.2087C4.11868 20.65 3.81157 19.7049 4.10532 18.8009L4.95071 16.199C5.08399 15.7887 5.52473 15.5642 5.93493 15.6975C6.34524 15.8308 6.56977 16.2714 6.43645 16.6817L5.5911 19.2836C5.4679 19.6628 5.72438 19.8855 5.80595 19.9448C5.88751 20.0041 6.17864 20.1792 6.50114 19.9448L9.73419 17.5959C10.4913 17.0458 11.5087 17.0457 12.2659 17.5959L15.4989 19.9448C15.8215 20.1792 16.1126 20.0041 16.1941 19.9448C16.2757 19.8855 16.5322 19.6628 16.409 19.2836L15.1741 15.4829C14.8848 14.5929 15.1992 13.6252 15.9564 13.0752L19.1895 10.7262C19.5145 10.4901 19.4351 10.1498 19.4031 10.0511C19.3714 9.95379 19.2375 9.63633 18.8418 9.63633H14.8456C13.9058 9.63633 13.0827 9.04637 12.7969 8.16684L11.5625 4.34301C11.4393 3.96379 11.1008 3.93434 11 3.93434C10.8992 3.93434 10.5608 3.96379 10.438 4.3416L9.20263 8.16824C8.91727 9.04637 8.09423 9.63633 7.15442 9.63633H3.15821C2.76251 9.63633 2.62864 9.95379 2.597 10.0511C2.56493 10.1498 2.48559 10.4901 2.81059 10.7262L5.01509 12.3279C5.36407 12.5815 5.44145 13.0699 5.18786 13.4189C4.93431 13.7679 4.44587 13.8452 4.09681 13.5918L1.89231 11.9901C1.12173 11.4302 0.815125 10.4796 1.11122 9.56836Z"/>
</svg>
