<svg width="30" height="30" viewBox="0 0 30 30" xmlns="http://www.w3.org/2000/svg">
<path d="M29.8332 11.3527C29.3907 9.99112 28.1855 9.11127 26.7627 9.11127H20.7684C20.3709 9.11127 20.0398 8.88247 19.9254 8.53043L18.0724 2.79042C17.6318 1.43438 16.4259 0.558228 15.0001 0.558228C13.5743 0.558228 12.3684 1.43438 11.9271 2.79252L10.0754 8.52833C9.96034 8.88247 9.62923 9.11127 9.23173 9.11127H3.23729C1.81452 9.11127 0.609246 9.99106 0.166863 11.3527C-0.277277 12.7195 0.182683 14.1454 1.3385 14.9852L6.18813 18.5087C6.49997 18.7352 6.62952 19.1338 6.51034 19.5004L4.65796 25.2014C4.21733 26.5574 4.678 27.9751 5.83147 28.8131C6.40821 29.2322 7.06921 29.4417 7.7302 29.4417C8.39126 29.4417 9.05231 29.2322 9.62899 28.8131L14.4786 25.2897C14.7904 25.0631 15.2095 25.063 15.5214 25.2897L20.371 28.8131C21.5245 29.6511 23.0151 29.6513 24.1685 28.8131C25.322 27.9752 25.7826 26.5574 25.342 25.2014L24.0739 21.2986C23.874 20.6832 23.2129 20.3464 22.5976 20.5463C21.9821 20.7463 21.6453 21.4072 21.8453 22.0227L23.1133 25.9255C23.2982 26.4943 22.9134 26.8284 22.7911 26.9174C22.6687 27.0062 22.232 27.2689 21.7483 26.9173L16.8987 23.394C15.7631 22.5688 14.2369 22.5687 13.1012 23.3939L8.25163 26.9173C7.76776 27.2689 7.33106 27.0062 7.20878 26.9174C7.08643 26.8284 6.70177 26.4943 6.88651 25.9255L8.73889 20.2245C9.17278 18.8894 8.70116 17.438 7.56544 16.6129L2.71581 13.0894C2.22831 12.7352 2.34731 12.2248 2.39542 12.0768C2.44288 11.9308 2.64374 11.4546 3.23723 11.4546H9.23161C10.6413 11.4546 11.8759 10.5697 12.3046 9.25038L14.1563 3.51463C14.3411 2.94581 14.8488 2.90163 15 2.90163C15.1512 2.90163 15.6589 2.94581 15.843 3.51252L17.6961 9.25248C18.1241 10.5697 19.3587 11.4546 20.7684 11.4546H26.7627C27.3562 11.4546 27.557 11.9308 27.6045 12.0768C27.6526 12.2248 27.7716 12.7352 27.2841 13.0894L23.9774 15.4919C23.4539 15.8723 23.3378 16.6049 23.7182 17.1285C24.0985 17.652 24.8312 17.768 25.3548 17.3878L28.6615 14.9852C29.8174 14.1454 30.2773 12.7196 29.8332 11.3527Z"/>
</svg>
