<svg width="17" height="16" viewBox="0 0 17 16"  xmlns="http://www.w3.org/2000/svg">
<path d="M15.875 11C16.2202 11 16.5 10.7202 16.5 10.375V2.5C16.5 1.1215 15.3785 0 14 0H3C1.6215 0 0.5 1.1215 0.5 2.5V13.5C0.5 14.8785 1.6215 16 3 16H14C15.3785 16 16.5 14.8785 16.5 13.5C16.5 13.1548 16.2202 12.875 15.875 12.875C15.5298 12.875 15.25 13.1548 15.25 13.5C15.25 14.1892 14.6892 14.75 14 14.75H3C2.31075 14.75 1.75 14.1892 1.75 13.5V2.5C1.75 1.81075 2.31075 1.25 3 1.25H14C14.6892 1.25 15.25 1.81075 15.25 2.5V10.375C15.25 10.7202 15.5298 11 15.875 11Z" />
</svg>
