<svg width="30" height="30" viewBox="0 0 30 30" xmlns="http://www.w3.org/2000/svg">

<path d="M25.4969 7.57944C25.0987 7.18129 24.4737 7.12258 24.0083 7.43975C22.2548 8.63495 13.4596 14.645 12.5144 15.5901C11.1436 16.9609 11.1436 19.1913 12.5144 20.5621C13.1998 21.2474 14.1001 21.5901 15.0003 21.5901C15.9006 21.5901 16.8009 21.2474 17.4863 20.5621C18.4315 19.6168 24.4414 10.8217 25.6367 9.06819C25.9537 8.60278 25.8951 7.9777 25.4969 7.57944ZM15.8289 18.9047C15.3721 19.3617 14.6286 19.3617 14.1717 18.9047C13.7148 18.4479 13.7147 17.7046 14.1715 17.2477C14.5387 16.8848 17.0358 15.1039 20.1081 12.9683C17.9726 16.0406 16.1917 18.5376 15.8289 18.9047Z"/>
<path d="M5.40416 23.5268L3.95748 24.2325C2.89893 22.3433 2.34375 20.2347 2.34375 18.0762C2.34375 16.4947 2.63537 14.98 3.16758 13.583L4.82525 14.3781C4.98873 14.4565 5.16129 14.4937 5.33127 14.4937C5.76797 14.4937 6.18721 14.2485 6.38871 13.8284C6.66855 13.2448 6.42246 12.5448 5.83887 12.2649L4.20223 11.4799C6.23643 8.16229 9.75598 5.8493 13.8282 5.47371V7.23627C13.8282 7.8835 14.3528 8.40814 15.0001 8.40814C15.6473 8.40814 16.1719 7.8835 16.1719 7.23627V5.47283C17.5681 5.59992 18.919 5.95547 20.2015 6.53437C20.7912 6.80068 21.4854 6.53824 21.7517 5.9485C22.018 5.35857 21.7557 4.66453 21.1658 4.39822C19.2224 3.52102 17.148 3.07617 15 3.07617C10.9934 3.07617 7.22654 4.63641 4.39336 7.46953C1.56029 10.3027 0 14.0695 0 18.0762C0 21.0369 0.878789 23.9164 2.54139 26.4032C2.76533 26.7381 3.13559 26.9239 3.51633 26.9239C3.68941 26.9239 3.86473 26.8855 4.02943 26.8052L6.43178 25.6333C7.0135 25.3495 7.25502 24.648 6.97125 24.0663C6.68748 23.4846 5.98588 23.2431 5.40416 23.5268Z"/>
<path d="M28.6782 11.9105C28.412 11.3207 27.718 11.0582 27.1279 11.3246C26.5381 11.5909 26.2758 12.2849 26.5421 12.8748C27.2816 14.513 27.6566 16.263 27.6566 18.0762C27.6566 20.238 27.0996 22.35 26.0379 24.2413L24.5275 23.5221C23.9433 23.2439 23.244 23.4919 22.9657 24.0763C22.6874 24.6606 22.9356 25.36 23.5199 25.6382L25.9808 26.8101C26.1427 26.8871 26.3144 26.924 26.4841 26.924C26.8649 26.924 27.2352 26.738 27.4589 26.4033C29.1215 23.9165 30.0003 21.037 30.0003 18.0762C30.0003 15.9282 29.5555 13.8538 28.6782 11.9105Z"/>
</svg>
