<svg width="24" height="25" viewBox="0 0 24 25"  xmlns="http://www.w3.org/2000/svg">
<path d="M23.4501 9.66789L22.7873 9.00513C22.8117 8.96941 23.5306 8.38394 23.5306 7.29119C23.5306 6.66503 23.2867 6.07647 22.8439 5.63393L22.5124 5.30247L22.8436 4.97097C23.7596 4.0563 23.7606 2.57219 22.844 1.65687C21.9284 0.740648 20.4459 0.740086 19.53 1.65659L19.1982 1.98818L18.8668 1.65682C17.9511 0.740461 16.4682 0.740133 15.5522 1.65673L15.4955 1.7134L14.8328 1.05068C14.1001 0.318024 12.9142 0.317508 12.1812 1.05054C11.4483 1.78287 11.4479 2.96937 12.1811 3.70193L14.8326 6.3535L5.85229 15.3338L3.201 12.6825C2.46951 11.9499 1.2817 11.9488 0.54961 12.6821C-0.183466 13.4146 -0.18356 14.6009 0.549516 15.334L1.21223 15.9968L1.1557 16.0533C0.239345 16.969 0.239017 18.4519 1.15561 19.368L1.48706 19.6994L1.15584 20.0309C0.239861 20.9456 0.238923 22.4297 1.15552 23.3451C2.07112 24.2612 3.55354 24.2619 4.46957 23.3453L4.8014 23.0137L5.13276 23.3451C6.04846 24.2614 7.53139 24.2618 8.44742 23.3452L8.50405 23.2885L9.16677 23.9513C9.89951 24.684 11.0854 24.6844 11.8184 23.9514C12.5513 23.2191 12.5516 22.0326 11.8185 21.3001L9.16695 18.6485L18.1472 9.66817L20.7985 12.3195C21.53 13.0521 22.7178 13.0532 23.4499 12.3199C24.183 11.5873 24.1831 10.401 23.4501 9.66789ZM20.1929 2.31954C20.7409 1.7711 21.63 1.76815 22.1813 2.31987C22.7306 2.86844 22.7312 3.75841 22.1809 4.30802L21.8496 4.63961L19.8611 2.65108L20.1929 2.31954ZM16.2152 2.31954C16.7646 1.76979 17.6541 1.76946 18.2038 2.31963L22.1811 6.29693C22.7309 6.8463 22.7312 7.73585 22.181 8.28555L22.1244 8.34222L16.1584 2.3763L16.2152 2.31954ZM3.80657 22.6824C3.25856 23.2308 2.36948 23.2337 1.81823 22.682C1.26886 22.1334 1.26825 21.2435 1.81856 20.6939L2.14987 20.3623L4.1384 22.3508L3.80657 22.6824ZM7.78428 22.6824C7.23491 23.2321 6.34536 23.2324 5.79566 22.6823L1.81837 18.705C1.26862 18.1556 1.2683 17.266 1.81847 16.7163L1.87509 16.6597L7.841 22.6256L7.78428 22.6824ZM11.1556 21.963C11.522 22.329 11.5223 22.9219 11.1555 23.2883C10.7882 23.6557 10.1955 23.6542 9.82958 23.2883C9.4377 22.8965 1.64128 15.1 1.21237 14.6711C0.848953 14.3077 0.842719 13.7146 1.21266 13.3449C1.5773 12.9797 2.17092 12.9776 2.53781 13.3452L11.1556 21.963ZM8.50395 17.9854L6.51529 15.9968L15.4956 7.01646L17.4842 9.00517L8.50395 17.9854ZM22.7868 11.657C22.4222 12.0222 21.8286 12.0242 21.4617 11.6567L12.8439 3.03893C12.4775 2.67298 12.4773 2.08001 12.844 1.71359C13.2113 1.34627 13.804 1.34773 14.17 1.71359C14.5989 2.14254 22.4015 9.94516 22.7871 10.3308C23.1505 10.6942 23.1568 11.2874 22.7868 11.657Z" />
</svg>
