<svg width="26" height="26" viewBox="0 0 26 26" xmlns="http://www.w3.org/2000/svg">

<path d="M18.5034 16.0983C18.251 16.0983 18.0256 15.9218 17.9736 15.665C17.9141 15.3714 18.1026 15.0854 18.3961 15.0269C21.5487 14.3845 24.8062 10.2375 24.9958 4.33442H21.1251C20.8261 4.33333 20.5834 4.09067 20.5834 3.79167C20.5834 3.49267 20.8261 3.25 21.1251 3.25H25.5451C25.8441 3.25 26.0867 3.49267 26.0867 3.79167C26.0867 10.7889 22.2355 15.3487 18.6117 16.0875C18.5749 16.094 18.5391 16.0983 18.5034 16.0983Z"/>
<path d="M7.48692 16.0767C7.44792 16.0767 7.40783 16.0723 7.36775 16.0637C3.796 15.262 0 10.6892 0 3.79167C0 3.49267 0.242667 3.25 0.541667 3.25H4.875C5.174 3.25 5.46 3.49267 5.46 3.79167C5.46 4.09067 5.26067 4.33333 4.96167 4.33333H1.092C1.2805 10.1552 4.49475 14.3087 7.60392 15.0063C7.89642 15.0724 8.0795 15.3617 8.01342 15.6531C7.95817 15.9055 7.735 16.0767 7.48692 16.0767Z"/>
<path d="M14.6252 22.75H11.3752C11.0762 22.75 10.8335 22.5074 10.8335 22.2084V18.2651C10.8335 17.9661 11.0762 17.7234 11.3752 17.7234C11.6742 17.7234 11.9168 17.9661 11.9168 18.2651V21.6667H14.0835V18.2651C14.0835 17.9661 14.3262 17.7234 14.6252 17.7234C14.9242 17.7234 15.1668 17.9661 15.1668 18.2651V22.2084C15.1668 22.5074 14.9242 22.75 14.6252 22.75Z"/>
<path d="M17.8752 26H8.12516C7.82616 26 7.5835 25.7573 7.5835 25.4583V24.375C7.5835 22.8821 8.799 21.6666 10.2918 21.6666H15.7085C17.2013 21.6666 18.4168 22.8821 18.4168 24.375V25.4583C18.4168 25.7573 18.1742 26 17.8752 26ZM8.66683 24.9166H17.3335V24.375C17.3335 23.4791 16.6044 22.75 15.7085 22.75H10.2918C9.39591 22.75 8.66683 23.4791 8.66683 24.375V24.9166Z"/>
<path d="M13.0002 19.5C12.9417 19.5 12.8842 19.4903 12.8279 19.4718C12.4823 19.3559 4.379 16.562 4.3335 9.75325V1.625C4.3335 0.729083 5.06258 0 5.9585 0H20.0418C20.9377 0 21.6668 0.729083 21.6668 1.625V9.75C21.6668 16.562 13.5191 19.357 13.1713 19.4718C13.1161 19.4903 13.0576 19.5 13.0002 19.5ZM5.9585 1.08333C5.6595 1.08333 5.41683 1.326 5.41683 1.625V9.75C5.45366 15.2685 11.8605 17.9487 13.0002 18.382C14.1442 17.9498 20.5835 15.2707 20.5835 9.75V1.625C20.5835 1.326 20.3408 1.08333 20.0418 1.08333H5.9585Z"/>

</svg>
