<svg width="28" height="30" viewBox="0 0 28 30"  xmlns="http://www.w3.org/2000/svg">
<path d="M24.611 9.38139C24.8445 8.80846 24.9625 8.2026 24.9625 7.57465C24.9625 7.44732 24.9574 7.31865 24.9475 7.19238C24.9289 6.9573 24.7232 6.78193 24.4883 6.80027C24.2533 6.81879 24.0777 7.02434 24.0962 7.25941C24.1044 7.36353 24.1086 7.46959 24.1086 7.57465C24.1086 8.21355 23.9601 8.82457 23.6672 9.3907C23.6125 9.49635 23.6045 9.62004 23.6449 9.73195C23.6854 9.84387 23.7707 9.93381 23.8802 9.9801C25.5475 10.6848 26.6248 12.3096 26.6248 14.1195C26.6248 16.5255 24.742 18.4952 22.3384 18.6036C22.1537 18.612 21.9953 18.7383 21.9461 18.9165C21.628 20.069 20.3497 20.9055 18.9067 20.9055C18.2192 20.9055 17.5634 20.7225 17.0232 20.3846L18.4338 18.1587C18.5327 18.0027 18.5834 17.8298 18.5887 17.6575C18.5974 17.3704 18.4798 17.0852 18.2476 16.8832C17.8549 16.5415 17.2607 16.564 16.8949 16.9344L15.8364 18.006L16.1815 15.4495C16.218 15.1792 16.14 14.9031 15.9676 14.6919C15.8167 14.507 15.6026 14.3831 15.3692 14.3427C15.3359 14.337 15.3021 14.3329 15.2681 14.3306L14.8868 14.3048C14.6971 14.2919 14.5156 14.3332 14.3583 14.4161C14.0962 14.5543 13.901 14.8082 13.8461 15.1201L13.5122 17.017L13.1784 18.9139L11.1169 16.3788C11.0486 16.2947 10.9679 16.2242 10.8793 16.1684C10.8788 16.168 10.8782 16.1676 10.8777 16.1672C10.8681 16.1613 10.8581 16.1561 10.8484 16.1504C10.7215 16.0768 10.5801 16.0314 10.4346 16.0185C10.43 16.0181 10.4252 16.0181 10.4206 16.0178C10.3992 16.0162 10.3777 16.0148 10.3562 16.0146C10.2248 16.0133 10.0921 16.0381 9.96651 16.091L9.56813 16.2584C9.30358 16.3696 9.10067 16.5898 9.01137 16.8625C8.92207 17.1352 8.95553 17.4328 9.10319 17.6789L10.7906 20.4914C10.2873 20.7602 9.69797 20.9055 9.09381 20.9055C7.65082 20.9055 6.3726 20.0691 6.05444 18.9166C6.00522 18.7383 5.84684 18.6121 5.66215 18.6038C3.25858 18.4954 1.37579 16.5257 1.37579 14.1195C1.37579 12.3096 2.45309 10.6848 4.12032 9.98016C4.22989 9.93387 4.3152 9.84393 4.35563 9.73201C4.39606 9.6201 4.38797 9.49641 4.33331 9.39076C4.04045 8.82463 3.89198 8.21361 3.89198 7.57471C3.89198 5.39121 5.66842 3.61477 7.85192 3.61477C8.46053 3.61477 9.04483 3.74953 9.58846 4.01531C9.70231 4.07104 9.83508 4.0732 9.95081 4.02129C10.0664 3.96937 10.1531 3.86877 10.1872 3.74666C10.6628 2.04352 12.2309 0.854004 14.0004 0.854004C15.7699 0.854004 17.338 2.04352 17.8136 3.74666C17.8478 3.86877 17.9344 3.96943 18.05 4.02129C18.1656 4.07326 18.2985 4.07109 18.4123 4.01531C18.956 3.74953 19.5403 3.61477 20.1489 3.61477C21.6085 3.61477 22.9456 4.41393 23.6382 5.70047C23.7499 5.90807 24.0089 5.98576 24.2165 5.87396C24.4242 5.76223 24.5018 5.50324 24.39 5.29564C23.5482 3.73213 21.9231 2.76088 20.1489 2.76088C19.5724 2.76088 19.0137 2.86043 18.4822 3.05742C17.7672 1.23533 15.9883 0 14.0001 0C12.012 0 10.233 1.23533 9.51827 3.05736C8.98676 2.86037 8.42813 2.76082 7.85163 2.76082C5.19721 2.76082 3.03774 4.92029 3.03774 7.57465C3.03774 8.2026 3.15575 8.80852 3.38918 9.38139C1.6336 10.2986 0.521606 12.1134 0.521606 14.1195C0.521606 16.8838 2.60936 19.1642 5.32741 19.4353C5.86178 20.8178 7.36354 21.7594 9.09352 21.7594C9.85196 21.7594 10.5947 21.5711 11.2297 21.2237L11.4413 21.5763C11.7299 22.0575 11.8494 22.6274 11.7776 23.1812C11.7155 23.6599 11.639 24.2237 11.542 24.7755C11.5013 25.0078 11.6565 25.2291 11.8887 25.2699C12.1212 25.3107 12.3422 25.1555 12.383 24.9233C12.4829 24.3547 12.5611 23.7791 12.6244 23.2908C12.7208 22.5472 12.5607 21.7823 12.1735 21.137L9.8352 17.2395C9.80754 17.1935 9.81545 17.1499 9.82266 17.1279C9.82981 17.106 9.84926 17.0662 9.89872 17.0454L10.2972 16.878C10.352 16.8549 10.4167 16.8711 10.4542 16.9173L12.7297 19.7157C12.7358 19.7231 12.7422 19.73 12.7484 19.7371C12.833 19.8332 12.9381 19.9023 13.0538 19.9402C13.1766 19.9805 13.3107 19.9858 13.4435 19.9522C13.4449 19.9519 13.4464 19.9516 13.4479 19.9512C13.4479 19.9512 13.4479 19.9512 13.448 19.9512H13.448C13.577 19.9177 13.6891 19.8508 13.7764 19.7603C13.7798 19.7567 13.7835 19.7534 13.7868 19.7498C13.7899 19.7464 13.7927 19.7429 13.7957 19.7395C13.8793 19.6451 13.9373 19.5277 13.9605 19.396L14.687 15.2681C14.699 15.1999 14.7616 15.1523 14.8291 15.1567L15.2105 15.1825C15.2613 15.186 15.2922 15.2149 15.306 15.2319C15.3199 15.2488 15.3421 15.2848 15.3352 15.3354L14.9282 18.3512C14.9231 18.3885 14.9211 18.4256 14.9221 18.4624C14.9284 18.7195 15.0763 18.9558 15.3127 19.072C15.3296 19.0803 15.3467 19.0879 15.364 19.0946C15.4503 19.1289 15.5409 19.1449 15.6306 19.1437C15.81 19.1412 15.9861 19.0697 16.1183 18.9358L17.5024 17.5345C17.5263 17.5103 17.5574 17.4972 17.5891 17.495C17.5906 17.4949 17.5919 17.4946 17.5933 17.4945C17.594 17.4945 17.5947 17.4946 17.5954 17.4946C17.6197 17.4941 17.644 17.4998 17.6658 17.5123C17.6732 17.5166 17.6804 17.5216 17.6871 17.5275C17.7378 17.5716 17.7485 17.6449 17.7125 17.7017L15.833 20.6675C15.4383 21.2904 15.256 22.0396 15.3199 22.7768C15.4987 24.8422 15.8086 27.171 17.1553 29.1461H10.8421C11.324 28.4315 11.6984 27.6185 11.9784 26.6827C12.0459 26.4568 11.9176 26.2188 11.6917 26.1513C11.4657 26.0837 11.2278 26.212 11.1603 26.438C10.8188 27.5795 10.3271 28.5141 9.65696 29.2951C9.54838 29.4216 9.52342 29.5999 9.59309 29.7514C9.66276 29.9029 9.81422 30 9.98098 30H18.0192C18.1859 30 18.3374 29.9029 18.4071 29.7514C18.4767 29.5999 18.4518 29.4216 18.3432 29.2951C16.6991 27.3787 16.3596 24.8876 16.1704 22.7031C16.1227 22.1511 16.2589 21.5904 16.5541 21.1246L16.5661 21.1056C17.2424 21.5295 18.0571 21.7594 18.9066 21.7594C20.6365 21.7594 22.1383 20.8178 22.6727 19.4353C25.3907 19.1642 27.4785 16.8838 27.4785 14.1195C27.4786 12.1134 26.3666 10.2986 24.611 9.38139Z" />
</svg>
