<svg width="25" height="25" viewBox="0 0 25 25" xmlns="http://www.w3.org/2000/svg">
<path d="M12.4993 10.2539C11.2608 10.2539 10.2532 11.2615 10.2532 12.5C10.2532 13.7385 11.2608 14.7461 12.4993 14.7461C13.7377 14.7461 14.7454 13.7385 14.7454 12.5C14.7454 11.2615 13.7378 10.2539 12.4993 10.2539ZM12.4993 13.7695C11.7993 13.7695 11.2297 13.2 11.2297 12.5C11.2297 11.8 11.7993 11.2305 12.4993 11.2305C13.1993 11.2305 13.7688 11.8 13.7688 12.5C13.7688 13.2 13.1993 13.7695 12.4993 13.7695Z" />
<path d="M12.4993 7.91016C9.96841 7.91016 7.90942 9.96914 7.90942 12.5C7.90942 15.0309 9.96841 17.0898 12.4993 17.0898C15.0301 17.0898 17.0891 15.0309 17.0891 12.5C17.0891 9.96914 15.0301 7.91016 12.4993 7.91016ZM12.4993 16.1133C10.5069 16.1133 8.88599 14.4924 8.88599 12.5C8.88599 10.5076 10.5069 8.88672 12.4993 8.88672C14.4916 8.88672 16.1125 10.5076 16.1125 12.5C16.1125 14.4924 14.4916 16.1133 12.4993 16.1133Z" />
<path d="M24.9794 0.353111C24.9048 0.0939805 24.6342 -0.0552868 24.3751 0.0191271L21.8875 0.73602C21.6528 0.771616 21.473 0.974203 21.473 1.21878V4.69202C21.2426 4.54978 20.9822 4.45174 20.7036 4.41004C19.6668 3.35784 18.458 2.52527 17.1071 1.93524C15.6508 1.29915 14.1003 0.976596 12.4986 0.976596C9.42059 0.976596 6.52679 2.17523 4.35033 4.35174C2.17387 6.5282 0.975193 9.42199 0.975193 12.5C0.975193 13.9828 1.25136 15.4188 1.79565 16.7771C1.44819 16.9173 1.12265 17.1278 0.841405 17.409C-0.280468 18.5309 -0.280468 20.3563 0.841405 21.4783L4.22011 24.857C4.31547 24.9523 4.44042 25 4.56537 25C4.69032 25 4.81532 24.9523 4.91063 24.857L7.08998 22.6776C8.74705 23.5591 10.6089 24.0234 12.4986 24.0234C14.7779 24.0234 16.9819 23.359 18.8722 22.1018C19.0967 21.9525 19.1577 21.6494 19.0084 21.4248C18.859 21.2003 18.5559 21.1393 18.3314 21.2887C16.6019 22.439 14.5849 23.0469 12.4986 23.0469C10.8695 23.0469 9.26341 22.6699 7.81541 21.9523L8.28939 21.4783C9.41126 20.3564 9.41126 18.531 8.28939 17.409C7.27635 16.3961 5.68978 16.2977 4.56542 17.1141C4.03276 16.7273 3.39628 16.5462 2.76625 16.5701C2.22602 15.2816 1.9518 13.9143 1.9518 12.5001C1.9518 6.6845 6.68309 1.95321 12.4987 1.95321C15.1101 1.95321 17.5601 2.88777 19.4882 4.6013C18.8132 4.93733 18.3481 5.63425 18.3481 6.43806C18.3481 7.56887 19.268 8.48884 20.3988 8.48884C21.0116 8.48884 21.562 8.21838 21.9381 7.79099C22.6647 9.24626 23.0455 10.8574 23.0455 12.5001C23.0455 14.5864 22.4375 16.6033 21.2873 18.3328C21.1379 18.5574 21.1989 18.8605 21.4234 19.0098C21.5066 19.0651 21.6005 19.0916 21.6934 19.0916C21.8514 19.0916 22.0064 19.015 22.1004 18.8736C23.3576 16.9834 24.0221 14.7794 24.0221 12.5001C24.0221 10.4415 23.4744 8.4278 22.4369 6.66413C22.4451 6.58987 22.4496 6.51452 22.4496 6.43811V1.59046L24.6456 0.957602C24.9046 0.882797 25.0541 0.612241 24.9794 0.353111ZM4.91059 18.0996C5.65175 17.3584 6.85765 17.3585 7.59876 18.0996C8.33988 18.8407 8.33988 20.0466 7.59876 20.7877L4.56532 23.8212L1.53188 20.7877C0.79077 20.0466 0.79077 18.8407 1.53188 18.0996C1.90244 17.729 2.38925 17.5437 2.87597 17.5437C3.36269 17.5437 3.8495 17.729 4.22006 18.0996C4.41078 18.2902 4.71991 18.2902 4.91059 18.0996ZM20.3987 7.51228C19.8064 7.51228 19.3245 7.03039 19.3245 6.43806C19.3245 5.84573 19.8064 5.36384 20.3987 5.36384C20.9911 5.36384 21.473 5.84573 21.473 6.43806C21.473 7.03039 20.9911 7.51228 20.3987 7.51228Z" />
<path d="M20.3025 19.8149C20.1741 19.8149 20.0481 19.8667 19.9568 19.9575C19.866 20.0488 19.8142 20.1743 19.8142 20.3032C19.8142 20.4316 19.866 20.5576 19.9568 20.6484C20.0481 20.7393 20.1736 20.7915 20.3025 20.7915C20.4309 20.7915 20.5569 20.7393 20.6477 20.6484C20.7385 20.5576 20.7908 20.4316 20.7908 20.3032C20.7908 20.1743 20.7385 20.0488 20.6477 19.9575C20.5569 19.8667 20.4309 19.8149 20.3025 19.8149Z" />
</svg>
