<svg width="26" height="26" viewBox="0 0 26 26"  xmlns="http://www.w3.org/2000/svg">
<path d="M19.3126 8.71875H13C12.7195 8.71875 12.4922 8.9461 12.4922 9.22656C12.4922 9.50703 12.7195 9.73437 13 9.73437H19.3126C19.5931 9.73437 19.8204 9.50703 19.8204 9.22656C19.8204 8.9461 19.5931 8.71875 19.3126 8.71875Z" />
<path d="M13.3585 2.33238C13.2641 2.23793 13.1331 2.18359 12.9995 2.18359C12.866 2.18359 12.7349 2.23793 12.6405 2.33238C12.546 2.42684 12.4917 2.55785 12.4917 2.69141C12.4917 2.82496 12.546 2.95597 12.6405 3.05043C12.7349 3.14488 12.866 3.19922 12.9995 3.19922C13.1331 3.19922 13.2641 3.14488 13.3585 3.05043C13.453 2.95597 13.5073 2.82496 13.5073 2.69141C13.5073 2.55785 13.453 2.42684 13.3585 2.33238Z" />
<path d="M19.3126 14H13C12.7195 14 12.4922 14.2273 12.4922 14.5078C12.4922 14.7883 12.7195 15.0156 13 15.0156H19.3126C19.5931 15.0156 19.8204 14.7883 19.8204 14.5078C19.8204 14.2273 19.5931 14 19.3126 14Z" />
<path d="M19.8668 20.1488C19.7724 20.0543 19.6414 20 19.5078 20C19.3743 20 19.2432 20.0543 19.1488 20.1488C19.0543 20.2432 19 20.3743 19 20.5078C19 20.6414 19.0543 20.7724 19.1488 20.8668C19.2432 20.9613 19.3743 21.0156 19.5078 21.0156C19.6414 21.0156 19.7724 20.9613 19.8668 20.8668C19.9613 20.7724 20.0156 20.6414 20.0156 20.5078C20.0156 20.3743 19.9613 20.2432 19.8668 20.1488Z" />
<path d="M18.0406 20H13C12.7195 20 12.4922 20.2273 12.4922 20.5078C12.4922 20.7883 12.7195 21.0156 13 21.0156H18.0406C18.3211 21.0156 18.5484 20.7883 18.5484 20.5078C18.5484 20.2273 18.3211 20 18.0406 20Z" />
<path d="M21.2897 1.98052H17.4111C16.8504 1.44625 16.0925 1.11719 15.2587 1.11719H14.8139C14.4738 0.443929 13.7751 0 13.0001 0C12.225 0 11.5263 0.443929 11.1862 1.11719H10.7403C9.90651 1.11719 9.14866 1.44625 8.58798 1.98052H4.71048C3.34523 1.98052 2.2345 3.09125 2.2345 4.4565V23.524C2.2345 24.8893 3.34523 26 4.71048 26H21.2897C22.6549 26 23.7657 24.8893 23.7657 23.524V4.4565C23.7657 3.09125 22.655 1.98052 21.2897 1.98052ZM10.7403 2.13281H11.5318C11.7602 2.13281 11.9605 1.98031 12.0213 1.76018C12.1424 1.32178 12.5449 1.01562 13.0001 1.01562C13.4553 1.01562 13.8578 1.32178 13.9789 1.76018C14.0396 1.98031 14.24 2.13281 14.4683 2.13281H15.2587C16.361 2.13281 17.2682 2.98339 17.3588 4.06254H8.64034C8.73088 2.98339 9.63819 2.13281 10.7403 2.13281ZM22.7501 23.5241C22.7501 24.3293 22.095 24.9844 21.2897 24.9844H4.71048C3.90525 24.9844 3.25012 24.3293 3.25012 23.5241V4.4565C3.25012 3.65127 3.90525 2.99614 4.71048 2.99614H7.87654C7.71018 3.37761 7.6173 3.79818 7.6173 4.24028V4.57035C7.6173 4.85082 7.84465 5.07817 8.12511 5.07817H17.874C18.1545 5.07817 18.3818 4.85082 18.3818 4.57035V4.24028C18.3818 3.79823 18.289 3.37761 18.1226 2.99614H21.2897C22.095 2.99614 22.7501 3.65127 22.7501 4.4565V23.5241Z" />
<path d="M9.77085 7.59673C9.57255 7.39843 9.25101 7.39843 9.0527 7.59668L6.8812 9.76824L6.21226 9.09925C6.01396 8.901 5.69241 8.901 5.49406 9.09925C5.29576 9.29755 5.29576 9.61909 5.49406 9.81744L6.52213 10.8455C6.6213 10.9447 6.75125 10.9942 6.8812 10.9942C7.01115 10.9942 7.14115 10.9447 7.24027 10.8455L9.77085 8.31493C9.96915 8.11663 9.96915 7.79508 9.77085 7.59673Z" />
<path d="M8.53125 18.6875H6.09375C5.81329 18.6875 5.58594 18.9148 5.58594 19.1953V21.6328C5.58594 21.9133 5.81329 22.1406 6.09375 22.1406H8.53125C8.81172 22.1406 9.03906 21.9133 9.03906 21.6328V19.1953C9.03906 18.9148 8.81172 18.6875 8.53125 18.6875ZM8.02344 21.125H6.60156V19.7031H8.02344V21.125Z" />
<path d="M8.53125 13.2031H6.09375C5.81329 13.2031 5.58594 13.4305 5.58594 13.7109V16.1484C5.58594 16.4289 5.81329 16.6562 6.09375 16.6562H8.53125C8.81172 16.6562 9.03906 16.4289 9.03906 16.1484V13.7109C9.03906 13.4305 8.81172 13.2031 8.53125 13.2031ZM8.02344 15.6406H6.60156V14.2187H8.02344V15.6406Z" />
</svg>
