<svg width="27" height="26" viewBox="0 0 27 26" xmlns="http://www.w3.org/2000/svg">

<path d="M16.9621 21.5479C17.1676 21.6042 17.3801 21.4832 17.4364 21.2777C17.5553 20.8445 17.5568 20.3847 17.4414 19.9485C17.2664 19.2877 16.8447 18.7349 16.254 18.3913C15.6633 18.0479 14.9739 17.9549 14.3134 18.1299C13.6526 18.3048 13.0996 18.7265 12.7562 19.3173C12.4127 19.908 12.3198 20.5973 12.4948 21.2579C12.7981 22.4032 13.8359 23.162 14.9686 23.162C15.1846 23.162 15.4044 23.1344 15.6228 23.0765C16.0034 22.9757 16.3462 22.7948 16.6418 22.5389C16.8031 22.3995 16.8205 22.1557 16.6811 21.9944C16.5414 21.8333 16.2976 21.8159 16.1366 21.9553C15.9306 22.1337 15.6912 22.2598 15.4254 22.3302C14.4725 22.5824 13.4931 22.0127 13.241 21.0605C13.1188 20.5991 13.1837 20.1179 13.4235 19.7053C13.6633 19.2927 14.0496 18.9983 14.511 18.8761C14.9722 18.7539 15.4534 18.8188 15.866 19.0586C16.2786 19.2984 16.5732 19.6847 16.6951 20.146C16.7759 20.4507 16.7749 20.7717 16.692 21.0736C16.6356 21.2793 16.7566 21.4916 16.9621 21.5479Z"/>
<path d="M7.57819 21.3032C7.97393 21.5335 8.4139 21.6509 8.85982 21.6509C9.07961 21.6509 9.30079 21.6223 9.51879 21.5646C10.1795 21.3898 10.7326 20.9681 11.076 20.3772C11.4195 19.7865 11.5124 19.0971 11.3374 18.4366C11.1624 17.776 10.7407 17.223 10.15 16.8794C9.55926 16.5359 8.86994 16.4432 8.20939 16.618C7.54863 16.7929 6.99559 17.2147 6.65222 17.8054C6.30865 18.3963 6.21582 19.0854 6.39078 19.7462C6.56573 20.4067 6.98726 20.9598 7.57819 21.3032ZM7.31952 18.1934C7.55934 17.7808 7.94556 17.4864 8.40696 17.3642C8.5591 17.324 8.71363 17.3039 8.86696 17.3039C9.1784 17.3039 9.48566 17.3861 9.76199 17.5467C10.1746 17.7865 10.469 18.1728 10.5912 18.6342C10.7133 19.0954 10.6485 19.5768 10.4087 19.9892C10.1688 20.4018 9.78262 20.6964 9.32122 20.8184C8.86002 20.9405 8.37879 20.8757 7.96619 20.6359C7.55359 20.396 7.25902 20.0098 7.13703 19.5486C7.01483 19.0872 7.0797 18.606 7.31952 18.1934Z"/>
<path d="M7.46426 15.0775C7.80783 14.4868 7.90066 13.7975 7.72571 13.1367C7.36448 11.7729 5.96125 10.9569 4.59769 11.3183C3.23394 11.6793 2.41806 13.0825 2.77909 14.4463C2.95404 15.1071 3.37577 15.6599 3.9665 16.0035C4.36223 16.2336 4.80221 16.3512 5.24813 16.3512C5.46792 16.3512 5.6891 16.3226 5.9071 16.2649C6.56785 16.09 7.12089 15.6682 7.46426 15.0775ZM6.79696 14.6895C6.55714 15.1021 6.17092 15.3965 5.70953 15.5187C5.24833 15.6407 4.7671 15.576 4.3545 15.3362C3.9419 15.0963 3.64753 14.7101 3.52533 14.2487C3.27321 13.2964 3.84292 12.3167 4.79526 12.0645C4.94781 12.0241 5.10114 12.0048 5.2521 12.0048C6.04298 12.0048 6.7678 12.5347 6.97966 13.3343C7.10165 13.7957 7.03679 14.2769 6.79696 14.6895Z"/>
<path d="M8.35238 5.45715C7.76165 5.11359 7.07234 5.02075 6.41178 5.19571C5.75103 5.37047 5.19799 5.79219 4.85442 6.38312C4.51105 6.97385 4.41822 7.66316 4.59318 8.32372C4.76794 8.98427 5.18966 9.53731 5.78059 9.88088C6.17632 10.111 6.6163 10.2286 7.06222 10.2286C7.28201 10.2286 7.50298 10.2 7.72119 10.1423C8.38194 9.96737 8.93478 9.54564 9.27835 8.95491C9.62191 8.36399 9.71475 7.67487 9.53979 7.01412C9.36483 6.35356 8.94311 5.80052 8.35238 5.45715ZM8.61105 8.56691C8.37123 8.97951 7.98501 9.27388 7.52361 9.39608C7.06242 9.51827 6.58118 9.4534 6.16859 9.21358C5.75599 8.97356 5.46142 8.58754 5.33942 8.12615C5.21723 7.66475 5.2821 7.18352 5.52192 6.77112C5.76174 6.35852 6.14796 6.06395 6.60915 5.94176C6.7615 5.90149 6.91602 5.88165 7.06936 5.88165C7.38079 5.88165 7.68806 5.96378 7.96438 6.12445C8.37698 6.36427 8.67155 6.75049 8.79354 7.21169C8.91574 7.67308 8.85087 8.15431 8.61105 8.56691Z"/>
<path d="M25.7683 7.7848C26.0474 4.34952 22.123 0.287614 21.9558 0.116227C21.8465 0.00434909 21.6802 -0.030563 21.5348 0.0281529C21.3896 0.0868687 21.2944 0.227708 21.2936 0.384217C21.2889 1.51628 20.4456 2.55889 18.7861 4.20432C17.7369 5.24474 17.2426 6.75965 17.4961 8.15773C17.6848 9.19835 18.2707 10.0394 19.117 10.5014L19.1265 10.6381C19.0749 10.6516 19.0225 10.6655 19.0144 10.6676C17.8774 10.9519 16.7388 10.9961 15.7216 10.7956C14.2584 10.5068 13.2247 9.72937 12.9563 8.71592C12.5924 7.34126 13.6492 5.7226 15.5863 4.68813C15.8985 4.52131 16.1659 4.27712 16.3591 3.98195C16.5531 3.68599 16.6705 3.34362 16.6989 2.99212C16.7945 1.81542 15.9538 0.771821 14.7851 0.6167C13.461 0.441148 11.4686 0.34137 9.49608 0.863466C8.28982 1.18283 7.14645 1.6841 6.09749 2.35338C5.91778 2.46804 5.86501 2.70667 5.97967 2.88639C6.09452 3.06611 6.33295 3.11867 6.51267 3.00422C7.49418 2.37778 8.56456 1.90865 9.69365 1.60971C11.544 1.11995 13.4285 1.21536 14.6835 1.38179C15.4444 1.48296 15.9919 2.16295 15.9296 2.93003C15.9116 3.15319 15.8368 3.37079 15.7136 3.55904C15.5908 3.7463 15.421 3.90142 15.2227 4.00754C14.1471 4.58181 13.2896 5.33381 12.7433 6.18221C12.1609 7.08656 11.9766 8.03117 12.2103 8.91369C12.5612 10.2386 13.7865 11.2004 15.5722 11.5529C16.0393 11.6452 16.5281 11.691 17.0294 11.691C17.7316 11.691 18.4578 11.6005 19.181 11.4214L19.3655 14.0728C19.3485 14.0769 19.3316 14.0809 19.3143 14.0855C18.1608 14.3909 17.4705 15.5783 17.7758 16.732C18.0115 17.6225 18.7664 18.2501 19.6617 18.3334L19.9612 22.6401C18.7752 23.5099 17.4511 24.1439 16.0221 24.5246C12.921 25.3498 9.69107 24.9066 6.92686 23.2769C4.16344 21.6475 2.21232 19.0348 1.43295 15.9201C0.869793 13.6701 0.975918 11.3141 1.73982 9.1071C2.48885 6.94254 3.8161 5.06225 5.57778 3.66953C5.745 3.53742 5.77337 3.29462 5.64126 3.1274C5.50895 2.96018 5.26635 2.93181 5.09913 3.06412C3.2216 4.54829 1.80766 6.55058 1.01024 8.85458C0.197337 11.2036 0.0844672 13.7117 0.684124 16.1074C1.51408 19.4242 3.59175 22.2065 6.53469 23.9416C8.5106 25.1068 10.7097 25.7023 12.9411 25.7023C14.0339 25.7023 15.135 25.5595 16.2206 25.2704C17.5868 24.9064 18.8629 24.325 20.0237 23.5401L20.1197 24.9191C20.1619 25.5319 20.8169 25.9964 21.6431 26C21.6463 26 21.6493 26 21.6523 26C22.0167 26 22.367 25.9068 22.6387 25.7374C22.9607 25.5376 23.1517 25.2516 23.1765 24.932L23.5671 19.9225C24.8888 17.8855 25.5993 15.5405 25.6219 13.1343C25.6227 13.0801 25.6211 13.0228 25.6178 12.9649C25.563 11.9733 25.0911 11.0759 24.3143 10.4669C25.1913 9.76527 25.6806 8.8639 25.7683 7.7848ZM18.2559 8.02006C18.047 6.86855 18.4584 5.61648 19.3298 4.7526C20.7578 3.33648 21.6318 2.31053 21.9401 1.25186C22.9888 2.47458 25.1919 5.34928 24.9991 7.72232C24.9275 8.60365 24.5359 9.3132 23.8035 9.88746L19.573 9.86981C18.8773 9.52862 18.4108 8.87501 18.2559 8.02006ZM19.9007 10.6434L23.5153 10.6585L23.2102 14.5722L20.1731 14.5593L19.9007 10.6434ZM18.5219 16.5347C18.3338 15.8233 18.7337 15.0927 19.4201 14.8597L19.6069 17.5459C19.088 17.4481 18.6621 17.0643 18.5219 16.5347ZM22.4068 24.8723C22.4017 24.9386 22.3362 25.0167 22.2313 25.082C22.0819 25.175 21.8711 25.228 21.6523 25.228C21.6503 25.228 21.6483 25.228 21.6465 25.228C21.1996 25.2262 20.8999 25.0124 20.8897 24.8658L20.2266 15.3316L23.1501 15.3439L22.4068 24.8723ZM24.8471 13.0087C24.8495 13.0498 24.8505 13.0891 24.8501 13.1262C24.834 14.8464 24.4436 16.5333 23.7105 18.0849L24.228 11.4496C24.5954 11.8832 24.8148 12.4245 24.8471 13.0087Z"/>
</svg>
