<svg width="26" height="27" viewBox="0 0 26 27" xmlns="http://www.w3.org/2000/svg">
<path d="M16.5547 3.55469C16.5547 1.59463 14.9601 0 13 0C11.0399 0 9.44531 1.59463 9.44531 3.55469C9.44531 5.51474 11.0399 7.10938 13 7.10938C14.9601 7.10938 16.5547 5.51474 16.5547 3.55469ZM13 6.09375C11.6 6.09375 10.4609 4.95473 10.4609 3.55469C10.4609 2.15465 11.6 1.01562 13 1.01562C14.4 1.01562 15.5391 2.15465 15.5391 3.55469C15.5391 4.95473 14.4 6.09375 13 6.09375Z" />
<path d="M5.99219 15.2188C6.92316 15.2188 7.90116 15.0551 8.72336 14.7706C8.95563 15.988 9.19014 17.2356 9.32557 18.4117C7.04854 18.4823 5.49941 18.6458 4.34871 18.9346C2.67618 19.3542 1.82813 20.103 1.82813 21.1602C1.82813 22.3977 3.05003 23.8308 5.09671 24.9937C5.34255 25.1334 5.6517 25.0448 5.78907 24.8031C5.92765 24.5592 5.84229 24.2492 5.59843 24.1107C3.69551 23.0295 2.84375 21.8497 2.84375 21.1602C2.84375 19.7418 6.86995 19.4832 9.89844 19.4121C10.8793 19.8706 11.9396 20.1005 13 20.1005C14.0604 20.1005 15.1207 19.8706 16.1016 19.4121C19.1301 19.4832 23.1563 19.7418 23.1563 21.1602C23.1563 22.8642 19.6742 24.6077 18.0098 25.1677C17.864 24.4801 17.4875 23.8623 16.9269 23.4158C16.7652 23.287 16.5926 23.1764 16.4125 23.0825C17.2572 22.7378 18.0736 22.4297 19.0938 22.4297C19.3742 22.4297 19.6016 22.2023 19.6016 21.9219C19.6016 21.6414 19.3742 21.4141 19.0938 21.4141C17.8039 21.4141 16.8126 21.8206 15.854 22.2138C15.2775 22.4502 14.7329 22.6735 14.1305 22.8093C14.1282 22.8098 14.1259 22.8103 14.1235 22.8109C13.8294 22.8813 13.4029 22.9375 13 22.9375C11.9103 22.9375 11.0533 22.5859 10.1458 22.2138C9.1873 21.8206 8.19615 21.4141 6.90625 21.4141C6.62579 21.4141 6.39844 21.6414 6.39844 21.9219C6.39844 22.2023 6.62579 22.4297 6.90625 22.4297C7.99597 22.4297 8.853 22.7812 9.76041 23.1534C10.719 23.5466 11.7101 23.9531 13 23.9531C13.4987 23.9531 14.0114 23.8828 14.3811 23.794C15.0673 23.6366 15.7645 23.7883 16.2941 24.2102C16.6961 24.5304 16.9515 24.9656 17.0336 25.4598C15.7177 25.8076 14.3629 25.9844 13 25.9844C11.9036 25.9844 10.8007 25.8685 9.72187 25.6401C9.4474 25.5819 9.178 25.7573 9.11986 26.0317C9.06177 26.306 9.23711 26.5756 9.51143 26.6337C10.6593 26.8768 11.833 27 13 27C19.1014 27 24.1719 23.6354 24.1719 21.1602C24.1719 18.6502 19.3542 18.4947 16.6745 18.4117C16.8101 17.2358 17.0443 15.9889 17.2763 14.7722C18.0991 15.0587 19.0631 15.2188 20.0078 15.2188C22.7167 15.2188 25.8553 13.7002 25.9992 11.0826C26.0089 10.9069 25.9269 10.7387 25.7825 10.6381C25.6381 10.5375 25.452 10.5187 25.2905 10.5887C24.4693 10.9441 23.3487 11.1562 22.293 11.1562C19.385 11.1562 17.8777 9.66968 17.71 9.59696C16.363 8.63369 14.7272 8.10938 13.0361 8.10938H12.9639C12.434 8.10938 11.9023 8.16137 11.3835 8.26375C9.96562 8.5273 8.36921 9.43497 8.11155 9.72757C6.81119 10.7117 5.31502 11.1562 3.70704 11.1562C2.65129 11.1562 1.53075 10.9441 0.70952 10.5887C0.548036 10.5188 0.361871 10.5375 0.2175 10.6381C0.0731293 10.7387 -0.00888239 10.9069 0.000766045 11.0826C0.145086 13.7078 3.2953 15.2188 5.99219 15.2188ZM10.3576 18.5055C10.0758 15.8465 9.29287 12.9382 9.02663 10.3216C9.61752 9.92221 10.2768 9.61311 10.9688 9.41029V10.1406C10.9688 11.2607 11.88 12.1719 13 12.1719C14.12 12.1719 15.0313 11.2607 15.0313 10.1406V9.41024C15.7228 9.61296 16.3819 9.92196 16.9734 10.3217C16.7109 12.9143 15.9251 15.8424 15.6424 18.5055C13.969 19.2773 12.0311 19.2774 10.3576 18.5055ZM22.293 12.1719C23.1263 12.1719 24.0009 12.052 24.7741 11.8396C24.1415 13.1828 22.1884 14.2031 20.0078 14.2031C19.1299 14.2031 18.2084 14.0404 17.4681 13.761C17.6435 12.8245 17.8054 11.9033 17.9187 10.9979C19.1052 11.7399 20.6915 12.1719 22.293 12.1719ZM13.0361 9.125C13.3633 9.125 13.6913 9.14811 14.0156 9.19289V10.1406C14.0156 10.7006 13.56 11.1562 13 11.1562C12.44 11.1562 11.9844 10.7006 11.9844 10.1406V9.19289C12.3087 9.14811 12.6366 9.125 12.9639 9.125H13.0361ZM3.70704 12.1719C5.30873 12.1719 6.89523 11.7398 8.08174 10.9977C8.19676 11.9133 8.36159 12.8511 8.53176 13.7605C7.79152 14.0403 6.87177 14.2031 5.99219 14.2031C3.81164 14.2031 1.8585 13.1828 1.22591 11.8396C1.99911 12.052 2.87371 12.1719 3.70704 12.1719Z" />
<path d="M7.41406 26.0352C7.69452 26.0352 7.92188 25.8078 7.92188 25.5273C7.92188 25.2469 7.69452 25.0195 7.41406 25.0195C7.13361 25.0195 6.90625 25.2469 6.90625 25.5273C6.90625 25.8078 7.13361 26.0352 7.41406 26.0352Z" />
</svg>
