<svg width="22" height="26" viewBox="0 0 22 26"  xmlns="http://www.w3.org/2000/svg">
<path d="M8.14388 22.3751C5.63611 21.5953 3.95117 19.3052 3.95117 16.6765C3.95117 15.3915 4.35343 14.1674 5.11451 13.1362C5.13188 13.1127 5.14756 13.087 5.16064 13.0608C5.28639 12.8094 5.18426 12.504 4.93276 12.3782C4.70513 12.2642 4.43285 12.3374 4.28999 12.5387C3.40224 13.7447 2.93298 15.1754 2.93298 16.6765C2.93298 18.1966 3.41298 19.6419 4.32105 20.8561C5.19877 22.0297 6.44902 22.9145 7.84157 23.3474C7.89192 23.3631 7.94283 23.3705 7.99288 23.3705C8.20992 23.3705 8.41107 23.2306 8.47888 23.0124C8.56238 22.7439 8.41239 22.4586 8.14388 22.3751Z" />
<path d="M21.1943 11.8971C21.1943 10.928 20.8923 10.0047 20.3207 9.22604L17.0979 4.44178C17.0033 4.30131 16.8451 4.2171 16.6757 4.2171C16.5063 4.2171 16.3481 4.30131 16.2534 4.44178L14.8954 6.45774L10.6965 0.224675C10.6019 0.0842086 10.4436 0 10.2742 0C10.1049 0 9.94662 0.0842086 9.85202 0.224675L2.64409 10.9245C1.44144 12.5588 0.805908 14.4974 0.805908 16.5317C0.805908 21.7525 5.0534 26 10.2742 26C15.4951 26 19.7426 21.7525 19.7426 16.5317C19.7426 16.1149 19.7147 15.6974 19.6606 15.2864C20.6003 14.4577 21.1943 13.2455 21.1943 11.8971ZM16.6757 5.6375L19.4761 9.79468C19.4817 9.80333 19.4876 9.81183 19.4938 9.82018C19.9401 10.4247 20.176 11.1428 20.176 11.897C20.176 13.8271 18.6058 15.3973 16.6757 15.3973C14.7456 15.3973 13.1754 13.8271 13.1754 11.897C13.1754 11.1428 13.4113 10.4247 13.8576 9.82018C13.8635 9.81219 13.8692 9.80404 13.8746 9.79564L15.3166 7.65504C15.3193 7.65112 15.322 7.64725 15.3246 7.64323L16.6757 5.6375ZM18.7243 16.5317C18.7243 21.1911 14.9336 24.9818 10.2742 24.9818C5.61476 24.9818 1.8241 21.1911 1.8241 16.5317C1.8241 14.7119 2.39381 12.9781 3.47172 11.5178C3.47788 11.5095 3.48383 11.5008 3.48959 11.4919L10.2742 1.42035L14.2816 7.36902L13.0306 9.22609C12.4591 10.0047 12.1571 10.928 12.1571 11.8971C12.1571 14.3886 14.1841 16.4156 16.6757 16.4156C17.4042 16.4156 18.0929 16.2421 18.7029 15.9345C18.7168 16.1331 18.7243 16.3325 18.7243 16.5317Z" />
<path d="M14.8805 11.773C14.8805 11.5263 14.9308 11.2882 15.0299 11.0654C15.1441 10.8084 15.0284 10.5075 14.7715 10.3933C14.5145 10.2793 14.2137 10.3948 14.0995 10.6517C13.9421 11.0057 13.8623 11.3829 13.8623 11.773C13.8623 12.697 14.3213 13.5558 15.0901 14.0703C15.1771 14.1285 15.2755 14.1563 15.3728 14.1563C15.5371 14.1563 15.6982 14.0769 15.7964 13.9303C15.9527 13.6965 15.8901 13.3803 15.6564 13.224C15.1706 12.8989 14.8805 12.3565 14.8805 11.773Z" />
<path d="M10.0329 23.0805C9.90826 22.7529 9.44323 22.6595 9.20252 22.9155C8.91593 23.1932 9.07019 23.7032 9.46319 23.7744C9.85282 23.8598 10.1925 23.4462 10.0329 23.0805Z" />
<path d="M16.4075 14.5344C16.7358 14.7618 17.2059 14.5103 17.1992 14.1113C17.2066 13.7122 16.7355 13.4603 16.4075 13.6877C16.1102 13.874 16.109 14.3486 16.4075 14.5344Z" />
</svg>
