<svg width="27" height="18" viewBox="0 0 27 18"  xmlns="http://www.w3.org/2000/svg">
<path d="M24.8244 3.60426C22.5657 -0.382456 20.0778 0.275147 17.2052 1.03139L16.9434 1.09715C16.0513 1.31087 15.1347 1.54103 14.169 1.63145H14.1608H13.8253C12.8596 1.54103 11.943 1.31909 11.051 1.09715L10.7482 1.02317C9.61879 0.735469 8.57126 0.472428 7.58919 0.472428C5.99334 0.472428 4.56116 1.17935 3.1699 3.64536C2.58066 4.72219 2.05689 6.13603 1.70499 7.61564C1.30398 9.21855 1.05028 10.9037 0.984806 12.3586C0.919335 13.978 1.06664 15.1863 1.43492 16.0576C1.77864 16.8056 2.27786 17.2824 2.92438 17.4632C3.52999 17.6276 4.2338 17.5454 4.93762 17.2413C6.08336 16.7645 7.52372 15.7453 9.09502 14.2739C10.0689 13.3286 11.9021 12.7614 13.989 12.7614C16.0841 12.7614 17.9091 13.3286 18.8829 14.2739C20.4542 15.7453 21.8864 16.7645 23.0322 17.2413C23.7933 17.5454 24.4725 17.6194 25.0454 17.4632C25.7165 17.2577 26.2157 16.7728 26.5349 16.0247C26.9031 15.1945 27.0504 13.9862 26.985 12.3339C26.9195 10.879 26.6658 9.19389 26.2648 7.59098C25.8556 5.93875 25.3646 4.59889 24.8244 3.60426ZM25.6674 15.6548C25.4628 16.1398 25.1763 16.4357 24.8081 16.5426C24.6853 16.5755 24.5544 16.5919 24.4152 16.5919C24.1206 16.5919 23.7769 16.5179 23.3922 16.3782C22.3202 15.9425 20.9862 14.9972 19.554 13.6245C18.4083 12.4737 16.3296 11.7832 14.0053 11.7832C11.7139 11.7832 9.62697 12.449 8.42394 13.5587C6.85264 15.0219 5.59233 15.9261 4.58571 16.3124C3.94737 16.5508 3.50544 16.6084 3.16172 16.4768C2.79344 16.37 2.51519 16.0741 2.30241 15.5891C2.01597 14.9068 1.9014 13.8218 1.96687 12.375C2.03234 10.879 2.27786 9.25965 2.65432 7.81292C3.04714 6.25933 3.51362 5.00167 4.03739 4.0728C4.88033 2.54388 5.83784 1.73009 7.05724 1.50815C8.16206 1.31087 9.32417 1.61501 10.5599 1.94381C11.6566 2.2233 12.6468 2.4699 13.7435 2.56854H14.2263C15.3475 2.47812 16.3459 2.23152 17.4426 1.94381L17.508 1.92737C19.9878 1.30265 22.1319 0.768349 23.9651 4.0728C24.5053 5.02633 24.9717 6.29221 25.3482 7.82114C25.741 9.46515 25.9784 11.0434 26.0356 12.3833C26.1011 13.8546 25.9784 14.9233 25.6674 15.6548Z" />
<path d="M6.64805 4.2537C6.34524 4.55785 6.15701 4.96063 6.12428 5.35519L6.11609 5.46205L6.01789 5.47027C5.61688 5.50315 5.24042 5.66755 4.91307 5.96347L4.88851 5.98813C4.54479 6.33337 4.36475 6.76904 4.36475 7.2458C4.36475 7.70612 4.56116 8.18288 4.88851 8.50346C5.20768 8.82405 5.57596 8.99667 6.01789 9.02955L6.12428 9.03777L6.13246 9.14463C6.1652 9.58029 6.34524 9.97485 6.64805 10.2461C6.99177 10.5914 7.42551 10.7722 7.90836 10.7722C8.36666 10.7722 8.84132 10.5749 9.16049 10.2461C9.47967 9.89265 9.65153 9.51453 9.68426 9.14463L9.69245 9.03777L9.79884 9.02955C10.2326 8.99667 10.6254 8.81583 10.8955 8.51168C11.2392 8.16644 11.4192 7.73078 11.4192 7.2458C11.4192 6.78548 11.2228 6.31693 10.9037 5.98813C10.5436 5.66755 10.1753 5.48671 9.79884 5.46205L9.69245 5.45383L9.68426 5.34697C9.65153 4.95241 9.47148 4.54963 9.19323 4.27014L9.16049 4.23726C8.81677 3.89202 8.38303 3.71118 7.90836 3.71118C7.45007 3.72762 6.9754 3.9249 6.64805 4.2537ZM8.53034 4.94419C8.6531 5.10859 8.71857 5.29765 8.71857 5.47849V5.93881C8.71857 6.21829 8.93953 6.44023 9.21778 6.44023H9.67608C9.90523 6.44023 10.1016 6.52243 10.2571 6.6704C10.4126 6.82658 10.4863 7.02386 10.4863 7.25402C10.4863 7.48418 10.4044 7.68146 10.2571 7.83764C10.1016 7.99382 9.90523 8.0678 9.67608 8.0678H9.21778C8.93953 8.0678 8.71857 8.28974 8.71857 8.56922V8.99667C8.71857 9.22683 8.63673 9.42411 8.48942 9.58029C8.33392 9.73647 8.13751 9.81045 7.90836 9.81045C7.67921 9.81045 7.4828 9.72825 7.32731 9.58029C7.17181 9.42411 7.09816 9.22683 7.09816 8.99667V8.53634C7.09816 8.25686 6.87719 8.03492 6.59894 8.03492H6.14065C5.9115 8.03492 5.71508 7.95272 5.55959 7.80476C5.48594 7.73078 5.33044 7.54172 5.33044 7.25402C5.33044 7.02386 5.41228 6.82658 5.55959 6.6704L5.60869 6.6293C5.77237 6.50599 5.9606 6.44023 6.14065 6.44023H6.59894C6.87719 6.44023 7.09816 6.21829 7.09816 5.93881V5.47849C7.09816 5.24833 7.18 5.05105 7.32731 4.89487C7.4828 4.73869 7.67921 4.66471 7.90836 4.66471C8.13751 4.66471 8.33392 4.74691 8.48942 4.89487L8.53034 4.94419Z" />
<path d="M19.6932 5.94698C20.2581 5.94698 20.7161 5.48695 20.7161 4.91947C20.7161 4.352 20.2581 3.89197 19.6932 3.89197C19.1282 3.89197 18.6702 4.352 18.6702 4.91947C18.6702 5.48695 19.1282 5.94698 19.6932 5.94698Z" />
<path d="M19.6932 10.6159C20.2581 10.6159 20.7161 10.1559 20.7161 9.58842C20.7161 9.02094 20.2581 8.56091 19.6932 8.56091C19.1282 8.56091 18.6702 9.02094 18.6702 9.58842C18.6702 10.1559 19.1282 10.6159 19.6932 10.6159Z" />
<path d="M17.3689 8.28145C17.9339 8.28145 18.3919 7.82142 18.3919 7.25395C18.3919 6.68647 17.9339 6.22644 17.3689 6.22644C16.804 6.22644 16.3459 6.68647 16.3459 7.25395C16.3459 7.82142 16.804 8.28145 17.3689 8.28145Z" />
<path d="M22.0175 8.28145C22.5825 8.28145 23.0405 7.82142 23.0405 7.25395C23.0405 6.68647 22.5825 6.22644 22.0175 6.22644C21.4525 6.22644 20.9945 6.68647 20.9945 7.25395C20.9945 7.82142 21.4525 8.28145 22.0175 8.28145Z" />
</svg>
