<svg width="24" height="24" viewBox="0 0 24 24" xmlns="http://www.w3.org/2000/svg">
<path d="M19.404 2.5755C19.509 2.361 19.527 2.1105 19.4115 1.896C19.281 1.653 19.0275 1.5 18.75 1.5H17.796C16.077 0.546 14.1015 0 12 0C5.3835 0 0 5.3835 0 12C0 18.6165 5.3835 24 12 24C18.6165 24 24 18.6165 24 12C24 8.178 22.197 4.7745 19.404 2.5755ZM12 22.5C6.21 22.5 1.5 17.79 1.5 12C1.5 6.21 6.21 1.5 12 1.5C13.0635 1.5 14.091 1.662 15.0585 1.9575C15.021 2.0475 15 2.1465 15 2.25C15 2.664 15.336 3 15.75 3H17.349L15.126 6.3345C14.973 6.564 14.958 6.861 15.0885 7.104C15.219 7.347 15.4725 7.5 15.75 7.5H18.75C19.164 7.5 19.5 7.164 19.5 6.75C19.5 6.336 19.164 6 18.75 6H17.151L18.5925 3.8385C20.973 5.7645 22.5 8.706 22.5 12C22.5 17.79 17.79 22.5 12 22.5Z"/>
<path d="M18.75 8.25C18.336 8.25 18 8.586 18 9C18 9.8265 17.3265 10.5 16.5 10.5C15.6735 10.5 15 9.8265 15 9C15 8.586 14.664 8.25 14.25 8.25C13.836 8.25 13.5 8.586 13.5 9C13.5 10.6545 14.8455 12 16.5 12C18.1545 12 19.5 10.6545 19.5 9C19.5 8.586 19.164 8.25 18.75 8.25Z"/>
<path d="M9.75 8.25C9.336 8.25 9 8.586 9 9C9 9.8265 8.3265 10.5 7.5 10.5C6.6735 10.5 6 9.8265 6 9C6 8.586 5.664 8.25 5.25 8.25C4.836 8.25 4.5 8.586 4.5 9C4.5 10.6545 5.8455 12 7.5 12C9.1545 12 10.5 10.6545 10.5 9C10.5 8.586 10.164 8.25 9.75 8.25Z"/>
<path d="M15.75 16.5H8.25C7.836 16.5 7.5 16.836 7.5 17.25C7.5 17.664 7.836 18 8.25 18H15.75C16.164 18 16.5 17.664 16.5 17.25C16.5 16.836 16.164 16.5 15.75 16.5Z"/>
<path d="M23.25 3H22.9635L23.9205 1.086C24.0375 0.8535 24.024 0.5775 23.8875 0.357C23.751 0.1365 23.5095 0 23.25 0H21.75C21.336 0 21 0.336 21 0.75C21 1.164 21.336 1.5 21.75 1.5H22.0365L21.0795 3.414C20.9625 3.6465 20.976 3.9225 21.1125 4.143C21.249 4.3635 21.4905 4.5 21.75 4.5H23.25C23.664 4.5 24 4.164 24 3.75C24 3.336 23.664 3 23.25 3Z"/>
</svg>
