<svg width="19" height="19" viewBox="0 0 19 19" xmlns="http://www.w3.org/2000/svg">
<path d="M12.9462 10.9302L10.4682 9.07353V5.25908C10.4682 4.72448 10.0348 4.29102 9.50016 4.29102C8.96556 4.29102 8.5321 4.72448 8.5321 5.25908V9.55756C8.5321 9.86099 8.67659 10.1536 8.91861 10.3342L11.783 12.4834C11.9528 12.6098 12.1515 12.6785 12.3646 12.6785C12.6753 12.6785 12.957 12.5376 13.1412 12.292C13.2965 12.0861 13.3616 11.8296 13.3254 11.5732C13.2893 11.3131 13.1557 11.0855 12.9462 10.9302Z"/>
<path d="M12.9462 10.9302L10.4682 9.07353V5.25908C10.4682 4.72448 10.0348 4.29102 9.50016 4.29102C8.96556 4.29102 8.5321 4.72448 8.5321 5.25908V9.55756C8.5321 9.86099 8.67659 10.1536 8.91861 10.3342L11.783 12.4834C11.9528 12.6098 12.1515 12.6785 12.3646 12.6785C12.6753 12.6785 12.957 12.5376 13.1412 12.292C13.2965 12.0861 13.3616 11.8296 13.3254 11.5732C13.2893 11.3131 13.1557 11.0855 12.9462 10.9302Z"/>
<path d="M12.9462 10.9302L10.4682 9.07353V5.25908C10.4682 4.72448 10.0348 4.29102 9.50016 4.29102C8.96556 4.29102 8.5321 4.72448 8.5321 5.25908V9.55756C8.5321 9.86099 8.67659 10.1536 8.91861 10.3342L11.783 12.4834C11.9528 12.6098 12.1515 12.6785 12.3646 12.6785C12.6753 12.6785 12.957 12.5376 13.1412 12.292C13.2965 12.0861 13.3616 11.8296 13.3254 11.5732C13.2893 11.3131 13.1557 11.0855 12.9462 10.9302Z"/>
<path d="M9.5 0C4.26236 0 0 4.26236 0 9.5C0 14.7376 4.26236 19 9.5 19C14.7376 19 19 14.7376 19 9.5C19 4.26236 14.7376 0 9.5 0ZM9.5 17.0603C5.33156 17.0603 1.93973 13.6684 1.93973 9.5C1.93973 5.33156 5.33156 1.93973 9.5 1.93973C13.6684 1.93973 17.0603 5.33156 17.0603 9.5C17.0603 13.6684 13.6684 17.0603 9.5 17.0603Z"/>
<path d="M9.5 0C4.26236 0 0 4.26236 0 9.5C0 14.7376 4.26236 19 9.5 19C14.7376 19 19 14.7376 19 9.5C19 4.26236 14.7376 0 9.5 0ZM9.5 17.0603C5.33156 17.0603 1.93973 13.6684 1.93973 9.5C1.93973 5.33156 5.33156 1.93973 9.5 1.93973C13.6684 1.93973 17.0603 5.33156 17.0603 9.5C17.0603 13.6684 13.6684 17.0603 9.5 17.0603Z"/>
<path d="M9.5 0C4.26236 0 0 4.26236 0 9.5C0 14.7376 4.26236 19 9.5 19C14.7376 19 19 14.7376 19 9.5C19 4.26236 14.7376 0 9.5 0ZM9.5 17.0603C5.33156 17.0603 1.93973 13.6684 1.93973 9.5C1.93973 5.33156 5.33156 1.93973 9.5 1.93973C13.6684 1.93973 17.0603 5.33156 17.0603 9.5C17.0603 13.6684 13.6684 17.0603 9.5 17.0603Z"/>
</svg>
