<svg width="19" height="19" viewBox="0 0 19 19" xmlns="http://www.w3.org/2000/svg">
<path d="M12.9462 10.9304L10.4682 9.07378V5.25932C10.4682 4.72472 10.0348 4.29126 9.50016 4.29126C8.96556 4.29126 8.5321 4.72472 8.5321 5.25932V9.55781C8.5321 9.86123 8.67659 10.1538 8.91861 10.3344L11.783 12.4837C11.9528 12.6101 12.1515 12.6787 12.3646 12.6787C12.6753 12.6787 12.957 12.5378 13.1412 12.2922C13.2965 12.0863 13.3616 11.8299 13.3254 11.5734C13.2893 11.3133 13.1557 11.0858 12.9462 10.9304Z" />
<path d="M12.9462 10.9304L10.4682 9.07378V5.25932C10.4682 4.72472 10.0348 4.29126 9.50016 4.29126C8.96556 4.29126 8.5321 4.72472 8.5321 5.25932V9.55781C8.5321 9.86123 8.67659 10.1538 8.91861 10.3344L11.783 12.4837C11.9528 12.6101 12.1515 12.6787 12.3646 12.6787C12.6753 12.6787 12.957 12.5378 13.1412 12.2922C13.2965 12.0863 13.3616 11.8299 13.3254 11.5734C13.2893 11.3133 13.1557 11.0858 12.9462 10.9304Z" />
<path d="M12.9462 10.9304L10.4682 9.07378V5.25932C10.4682 4.72472 10.0348 4.29126 9.50016 4.29126C8.96556 4.29126 8.5321 4.72472 8.5321 5.25932V9.55781C8.5321 9.86123 8.67659 10.1538 8.91861 10.3344L11.783 12.4837C11.9528 12.6101 12.1515 12.6787 12.3646 12.6787C12.6753 12.6787 12.957 12.5378 13.1412 12.2922C13.2965 12.0863 13.3616 11.8299 13.3254 11.5734C13.2893 11.3133 13.1557 11.0858 12.9462 10.9304Z"/>
<path d="M9.5 0C4.26236 0 0 4.26236 0 9.5C0 14.7376 4.26236 19 9.5 19C14.7376 19 19 14.7376 19 9.5C19 4.26236 14.7376 0 9.5 0ZM9.5 17.0603C5.33156 17.0603 1.93973 13.6684 1.93973 9.5C1.93973 5.33156 5.33156 1.93973 9.5 1.93973C13.6684 1.93973 17.0603 5.33156 17.0603 9.5C17.0603 13.6684 13.6684 17.0603 9.5 17.0603Z"/>
<path d="M9.5 0C4.26236 0 0 4.26236 0 9.5C0 14.7376 4.26236 19 9.5 19C14.7376 19 19 14.7376 19 9.5C19 4.26236 14.7376 0 9.5 0ZM9.5 17.0603C5.33156 17.0603 1.93973 13.6684 1.93973 9.5C1.93973 5.33156 5.33156 1.93973 9.5 1.93973C13.6684 1.93973 17.0603 5.33156 17.0603 9.5C17.0603 13.6684 13.6684 17.0603 9.5 17.0603Z"/>
<path d="M9.5 0C4.26236 0 0 4.26236 0 9.5C0 14.7376 4.26236 19 9.5 19C14.7376 19 19 14.7376 19 9.5C19 4.26236 14.7376 0 9.5 0ZM9.5 17.0603C5.33156 17.0603 1.93973 13.6684 1.93973 9.5C1.93973 5.33156 5.33156 1.93973 9.5 1.93973C13.6684 1.93973 17.0603 5.33156 17.0603 9.5C17.0603 13.6684 13.6684 17.0603 9.5 17.0603Z"/>
</svg>
