<svg width="30" height="30" viewBox="0 0 30 30" fill="none" xmlns="http://www.w3.org/2000/svg">
<path d="M18.75 7.5H16.875C16.875 6.2568 16.3811 5.06451 15.5021 4.18544C14.623 3.30636 13.4307 2.8125 12.1875 2.8125C10.9443 2.8125 9.75201 3.30636 8.87294 4.18544C7.99386 5.06451 7.5 6.2568 7.5 7.5H5.625C5.625 5.75952 6.3164 4.09032 7.54711 2.85961C8.77782 1.6289 10.447 0.9375 12.1875 0.9375C13.928 0.9375 15.5972 1.6289 16.8279 2.85961C18.0586 4.09032 18.75 5.75952 18.75 7.5Z" fill="white"/>
<path d="M23.4376 14.0625C22.9533 14.0642 22.4779 14.1936 22.0595 14.4375C21.8067 14.0366 21.4568 13.7061 21.0421 13.4766C20.6274 13.2472 20.1615 13.1262 19.6876 13.125C19.2033 13.1267 18.7279 13.2561 18.3095 13.5C17.9684 12.9633 17.4555 12.558 16.8545 12.3503C16.2535 12.1426 15.5998 12.1447 15.0001 12.3563V7.5C15.0001 6.75408 14.7038 6.03871 14.1763 5.51126C13.6489 4.98382 12.9335 4.6875 12.1876 4.6875C11.4417 4.6875 10.7263 4.98382 10.1989 5.51126C9.67142 6.03871 9.37511 6.75408 9.37511 7.5V17.9062L7.28448 16.4812C6.80523 16.1243 6.22265 15.9334 5.62511 15.9375C5.06727 15.9361 4.52163 16.1007 4.05755 16.4102C3.59348 16.7197 3.23193 17.1603 3.01887 17.6758C2.80582 18.1914 2.75089 18.7586 2.86107 19.3055C2.97124 19.8523 3.24154 20.354 3.63761 20.7469L11.1376 27.5906C12.1994 28.541 13.5751 29.0652 15.0001 29.0625H19.6876C21.4281 29.0625 23.0973 28.3711 24.328 27.1404C25.5587 25.9097 26.2501 24.2405 26.2501 22.5V16.875C26.2501 16.1291 25.9538 15.4137 25.4263 14.8863C24.8989 14.3588 24.1835 14.0625 23.4376 14.0625ZM24.3751 22.5C24.3751 23.7432 23.8812 24.9355 23.0022 25.8146C22.1231 26.6936 20.9308 27.1875 19.6876 27.1875H15.0001C14.0525 27.199 13.133 26.8658 12.4126 26.25L4.95948 19.4063C4.78628 19.2316 4.68864 18.9959 4.68761 18.75C4.68761 18.5759 4.73609 18.4052 4.82762 18.2571C4.91915 18.109 5.05012 17.9893 5.20584 17.9115C5.36157 17.8336 5.5359 17.8007 5.7093 17.8163C5.8827 17.8319 6.04832 17.8955 6.18761 18L11.2501 21.4688V7.5C11.2501 7.25136 11.3489 7.0129 11.5247 6.83709C11.7005 6.66127 11.939 6.5625 12.1876 6.5625C12.4362 6.5625 12.6747 6.66127 12.8505 6.83709C13.0263 7.0129 13.1251 7.25136 13.1251 7.5V17.8125H15.0001V15C15.0001 14.7514 15.0989 14.5129 15.2747 14.3371C15.4505 14.1613 15.689 14.0625 15.9376 14.0625C16.1862 14.0625 16.4247 14.1613 16.6005 14.3371C16.7763 14.5129 16.8751 14.7514 16.8751 15V17.8125H18.7501V15.9375C18.7501 15.6889 18.8489 15.4504 19.0247 15.2746C19.2005 15.0988 19.439 15 19.6876 15C19.9362 15 20.1747 15.0988 20.3505 15.2746C20.5263 15.4504 20.6251 15.6889 20.6251 15.9375V17.8125H22.5001V16.875C22.5001 16.6264 22.5989 16.3879 22.7747 16.2121C22.9505 16.0363 23.189 15.9375 23.4376 15.9375C23.6862 15.9375 23.9247 16.0363 24.1005 16.2121C24.2763 16.3879 24.3751 16.6264 24.3751 16.875V22.5Z" fill="white"/>
</svg>
