<svg width="26" height="30" viewBox="0 0 26 30" fill="none" xmlns="http://www.w3.org/2000/svg">
<path d="M25.5356 19.4531C25.5323 21.1743 24.8756 22.8945 23.5652 24.2049C23.0396 24.7304 21.0521 26.4137 17.5477 26.0079C16.9048 25.9334 16.444 25.3519 16.5184 24.709C16.5929 24.0661 17.1742 23.605 17.8172 23.6797C20.2778 23.9646 21.5703 22.8853 21.9078 22.5477C23.6213 20.8342 23.6213 18.0463 21.9078 16.3329C21.7316 16.1567 21.539 15.9943 21.3354 15.85C21.0803 15.6692 20.9079 15.394 20.8567 15.0856C20.8055 14.7772 20.8797 14.4611 21.0628 14.2076C22.1611 12.6868 21.9939 10.6184 20.6649 9.28945C19.9038 8.52832 18.8494 8.12408 17.7733 8.17951C17.4364 8.19727 17.1094 8.06883 16.8742 7.82783C16.6389 7.58684 16.5187 7.25631 16.5442 6.92051C16.5586 6.73061 16.566 6.53795 16.566 6.34781C16.566 3.4309 14.4295 2.34387 13.0829 2.34387C11.7363 2.34387 9.59981 3.4309 9.59975 6.34775C9.59975 6.54064 9.60737 6.73682 9.62237 6.93088C9.64891 7.27377 9.52346 7.61092 9.27936 7.85314C9.0352 8.09531 8.69694 8.21789 8.3544 8.18883C7.23104 8.09291 6.13041 8.4941 5.33512 9.28945C4.00621 10.6184 3.83887 12.6867 4.93727 14.2076C5.12037 14.4611 5.19455 14.7772 5.14334 15.0856C5.09213 15.3941 4.91981 15.6693 4.66463 15.85C4.46102 15.9942 4.26848 16.1566 4.09217 16.3329C2.37877 18.0463 2.37877 20.8342 4.09217 22.5476C4.67565 23.1312 5.40672 23.537 6.20647 23.7214C7.23327 23.9467 7.97073 23.857 8.45905 23.7977C9.10188 23.7198 9.68571 24.1771 9.76381 24.8195C9.84198 25.462 9.38448 26.0462 8.74199 26.1243C8.45313 26.1595 8.03764 26.21 7.51223 26.21C7.00481 26.21 6.39502 26.1629 5.69752 26.0093C5.69418 26.0085 5.69084 26.0078 5.68756 26.0071C4.4561 25.7246 3.33133 25.1014 2.43491 24.2049C1.12446 22.8945 0.467679 21.1743 0.464397 19.4531C0.461116 17.7233 1.15967 15.9511 2.47657 14.6341C2.0169 13.6709 1.81241 12.5949 1.89379 11.5161C2.00436 10.0513 2.63793 8.67188 3.6778 7.63201C4.6566 6.6532 5.92094 6.04389 7.2693 5.87736C7.39299 3.72158 8.3544 2.36607 9.16961 1.59416C10.2396 0.581074 11.6659 0 13.0829 0C14.4998 0 15.9261 0.581074 16.9961 1.59422C17.8143 2.36895 18.7797 3.73154 18.8977 5.90109C20.1842 6.09762 21.3892 6.69896 22.3222 7.63207C23.3621 8.67193 23.9956 10.0513 24.1062 11.5162C24.1877 12.595 23.983 13.6709 23.5234 14.6342C24.8403 15.951 25.5389 17.7233 25.5356 19.4531ZM13.1122 21.5039C12.4649 21.5039 11.9403 22.0286 11.9403 22.6758V28.8281C11.9403 29.4754 12.4649 30 13.1122 30C13.7594 30 14.284 29.4754 14.284 28.8281V22.6758C14.284 22.0286 13.7594 21.5039 13.1122 21.5039ZM14.284 13.8281V10.7812C14.284 10.134 13.7594 9.60938 13.1122 9.60938C12.4649 9.60938 11.9403 10.134 11.9403 10.7812V13.8281C11.9403 14.4754 12.4649 15 13.1122 15C13.7594 15 14.284 14.4754 14.284 13.8281ZM13.0836 19.8047C11.975 19.8047 10.9339 19.3655 10.1522 18.5681C10.1502 18.5661 10.1482 18.564 10.1461 18.5619L8.28479 16.6344C7.8352 16.1688 7.84815 15.427 8.31373 14.9774C8.77932 14.5278 9.52117 14.5407 9.97076 15.0063L11.8288 16.9303C12.1657 17.2726 12.6111 17.461 13.0836 17.461C13.5572 17.461 14.0039 17.2716 14.341 16.9276C14.3431 16.9254 14.3453 16.9233 14.3474 16.9212L16.266 14.9937C16.7226 14.535 17.4646 14.5332 17.9233 14.9899C18.382 15.4465 18.3837 16.1885 17.9271 16.6471L16.0114 18.5717C15.2301 19.3668 14.1906 19.8047 13.0836 19.8047Z" fill="#303F56"/>
</svg>
