<svg width="27" height="16" viewBox="0 0 27 16" xmlns="http://www.w3.org/2000/svg">
<path d="M25.7772 13.8312C25.71 13.7177 25.2943 12.8068 23.2942 10.9347C21.2003 8.97424 21.4815 9.29257 24.0036 5.9028C25.5397 3.83836 26.1538 2.57764 25.9616 2.03868C25.7787 1.52493 24.649 1.66046 24.649 1.66046L20.8924 1.68252C20.8924 1.68252 20.6143 1.6447 20.4065 1.7692C20.2049 1.89212 20.0752 2.17578 20.0752 2.17578C20.0752 2.17578 19.4798 3.77375 18.686 5.13218C17.0125 7.99875 16.3421 8.15004 16.0686 7.97196C15.4327 7.5575 15.592 6.30465 15.592 5.41584C15.592 2.63752 16.0093 1.47923 14.7779 1.17981C14.3685 1.08053 14.0685 1.01434 13.0231 1.00331C11.6824 0.989125 10.5464 1.00804 9.90413 1.32479C9.47597 1.53596 9.14626 2.00716 9.34784 2.03395C9.59629 2.06704 10.1588 2.18681 10.4573 2.59655C10.8433 3.12448 10.8292 4.31271 10.8292 4.31271C10.8292 4.31271 11.0511 7.58271 10.312 7.9893C9.80412 8.26823 9.10876 7.69933 7.61646 5.09751C6.85234 3.76587 6.27417 2.2924 6.27417 2.2924C6.27417 2.2924 6.16323 2.01819 5.96478 1.87163C5.72413 1.69356 5.38661 1.63682 5.38661 1.63682L1.81447 1.65889C1.81447 1.65889 1.27849 1.67464 1.0816 1.90945C0.906592 2.11905 1.06754 2.55085 1.06754 2.55085C1.06754 2.55085 3.86462 9.14916 7.03048 12.4759C9.93538 15.5253 13.2325 15.3251 13.2325 15.3251H14.7264C14.7264 15.3251 15.178 15.2747 15.4077 15.0241C15.6202 14.7941 15.6124 14.3623 15.6124 14.3623C15.6124 14.3623 15.5827 12.3404 16.514 12.0425C17.4312 11.7494 18.6095 13.9966 19.858 14.8618C20.8018 15.5158 21.519 15.3724 21.519 15.3724L24.8584 15.3251C24.8584 15.3251 26.6054 15.2164 25.7772 13.8312Z"/>
</svg>
