<svg width="17" height="16" viewBox="0 0 17 16"  xmlns="http://www.w3.org/2000/svg">
<path d="M9.72414 0.152289C9.01473 -0.146835 8.23157 0.00125807 7.68036 0.538758C7.66739 0.551414 7.65498 0.564601 7.64317 0.57832L4.10348 4.68763H3.00242C1.62448 4.68763 0.503418 5.80869 0.503418 7.18663V8.81097C0.503418 10.1889 1.62448 11.31 3.00242 11.31H4.10351L7.6432 15.4193C7.65501 15.433 7.66742 15.4462 7.68039 15.4588C8.0447 15.8141 8.50951 16 8.98745 16C9.23532 16 9.48676 15.9499 9.72942 15.8476C10.4355 15.5499 10.8742 14.8884 10.8742 14.1213C10.8742 13.7762 10.5945 13.4966 10.2494 13.4966C9.90439 13.4966 9.6247 13.7762 9.6247 14.1213C9.6247 14.5059 9.33329 14.6586 9.24398 14.6963C9.15476 14.7339 8.84661 14.8345 8.56948 14.5802L4.86326 10.2775C4.74461 10.1397 4.57176 10.0605 4.38992 10.0605H3.00242C2.31345 10.0605 1.75292 9.5 1.75292 8.81103V7.18669C1.75292 6.49772 2.31345 5.93719 3.00242 5.93719H4.38992C4.57176 5.93719 4.74457 5.85794 4.86326 5.72019L8.56945 1.41754C8.84357 1.16613 9.14995 1.26629 9.23867 1.30366C9.32923 1.34182 9.6247 1.49666 9.6247 1.88538V10.9976C9.6247 11.3427 9.90439 11.6224 10.2494 11.6224C10.5945 11.6224 10.8742 11.3427 10.8742 10.9976V1.88538C10.8743 1.11548 10.4335 0.451414 9.72414 0.152289Z" />
<path d="M13.5162 9.79645L13.5305 9.77014C13.6939 9.47045 13.998 8.91267 13.998 7.99904C13.998 7.05129 13.6689 6.47072 13.5108 6.19169C13.3406 5.89153 12.9594 5.78606 12.6592 5.95622C12.3591 6.12638 12.2536 6.50763 12.4237 6.80782C12.5531 7.03594 12.7485 7.38076 12.7485 7.99904C12.7485 8.59417 12.5589 8.94192 12.4335 9.17204L12.4182 9.20011C12.2535 9.5033 12.3658 9.88261 12.669 10.0473C12.7637 10.0988 12.8658 10.1232 12.9666 10.1232C13.1882 10.1232 13.4029 10.005 13.5162 9.79645Z" />
<path d="M14.438 3.0731C14.1928 2.83029 13.7972 2.83216 13.5544 3.07732C13.3116 3.32247 13.3135 3.71804 13.5586 3.96085C14.6479 5.03979 15.2478 6.47301 15.2478 7.99645C15.2478 9.52301 14.6479 10.958 13.5586 12.0369C13.3135 12.2797 13.3116 12.6753 13.5544 12.9204C13.6766 13.0438 13.8374 13.1055 13.9983 13.1055C14.1572 13.1055 14.3161 13.0453 14.4379 12.9246C15.7659 11.6092 16.4972 9.85901 16.4972 7.99642C16.4973 6.13695 15.766 4.38848 14.438 3.0731Z" />
</svg>
