<svg width="58" height="51" viewBox="0 0 58 51" fill="none" xmlns="http://www.w3.org/2000/svg">
<path d="M34.888 28.8711C33.7944 28.8711 32.7407 29.038 31.7493 29.3444C31.5675 22.8926 26.284 17.7188 19.7899 17.7188C13.2235 17.7188 7.89767 23.0072 7.82543 29.5536C3.83729 31.0632 1 34.9168 1 39.4356C1 45.2696 5.73047 50 11.5645 50C16.706 50 29.4924 50 34.888 50C40.722 50 45.4525 45.2696 45.4525 39.4356C45.4525 33.6016 40.722 28.8711 34.888 28.8711Z" stroke="currentColor" stroke-width="1.5" stroke-miterlimit="10" stroke-linecap="round" stroke-linejoin="round"/>
<path d="M7.82312 29.6857C7.82312 23.077 13.1813 17.7188 19.79 17.7188C26.3987 17.7188 31.757 23.077 31.757 29.6857C31.757 30.5227 31.6698 31.3422 31.5079 32.1319" stroke="currentColor" stroke-width="1.5" stroke-miterlimit="10" stroke-linecap="round" stroke-linejoin="round"/>
<path d="M7.45166 29.7006C8.71461 29.165 10.1046 28.8711 11.5644 28.8711C14.4814 28.8711 17.1218 30.0543 19.035 31.965" stroke="currentColor" stroke-width="1.5" stroke-miterlimit="10" stroke-linecap="round" stroke-linejoin="round"/>
<path d="M38.159 8.65625C32.1357 8.65625 27.2533 13.5387 27.2533 19.562C27.2533 19.8285 27.2658 20.0926 27.2857 20.3541C29.6796 22.2822 31.3137 25.1145 31.6774 28.3304C32.0411 28.5995 32.4247 28.8461 32.8232 29.0703C33.4933 28.9382 34.1833 28.866 34.8908 28.866C36.8114 28.866 38.6124 29.3816 40.1668 30.2784C45.2336 29.3368 49.0698 24.8978 49.0698 19.5595C49.0648 13.5412 44.1824 8.65625 38.159 8.65625Z" fill="currentColor"/>
<path d="M38.1595 5.9436C38.7249 5.9436 39.1833 4.61339 39.1833 2.9718C39.1833 1.33021 38.7249 0 38.1595 0C37.594 0 37.1332 1.33021 37.1332 2.9718C37.1332 4.61339 37.5915 5.9436 38.1595 5.9436Z" fill="currentColor"/>
<path d="M31.2792 7.78672C31.77 7.50274 31.5009 6.12271 30.6814 4.70033C29.8618 3.27795 28.7982 2.35627 28.3074 2.64025C27.8167 2.92423 28.0857 4.30426 28.9053 5.72664C29.7273 7.14653 30.7885 8.06821 31.2792 7.78672Z" fill="currentColor"/>
<path d="M45.0372 31.6157C44.5464 31.8997 44.8155 33.2797 45.635 34.7021C46.4546 36.1245 47.5182 37.0462 48.009 36.7622C48.4997 36.4782 48.2307 35.0982 47.4111 33.6758C46.5916 32.2559 45.5279 31.3318 45.0372 31.6157Z" fill="currentColor"/>
<path d="M23.1583 12.2237C24.5807 13.0433 25.9608 13.3123 26.2447 12.8216C26.5287 12.3308 25.6045 11.2697 24.1846 10.4476C22.7623 9.62808 21.3822 9.35905 21.0983 9.84978C20.8143 10.3405 21.736 11.4042 23.1583 12.2237Z" fill="currentColor"/>
<path d="M53.1608 27.1801C51.7384 26.3605 50.3584 26.0915 50.0744 26.5822C49.7929 27.0729 50.7146 28.1341 52.1345 28.9562C53.5568 29.7757 54.9369 30.0447 55.2209 29.554C55.5048 29.0608 54.5807 27.9996 53.1608 27.1801Z" fill="currentColor"/>
<path d="M54.889 18.6748C53.2474 18.6748 51.9172 19.1332 51.9172 19.6986C51.9172 20.2641 53.2474 20.7224 54.889 20.7224C56.5306 20.7224 57.8608 20.2641 57.8608 19.6961C57.8608 19.1356 56.5281 18.6748 54.889 18.6748Z" fill="currentColor"/>
<path d="M53.1602 12.2237C54.5826 11.4042 55.5043 10.3405 55.2203 9.84978C54.9388 9.35905 53.5563 9.62808 52.1339 10.4476C50.7115 11.2672 49.7899 12.3308 50.0738 12.8216C50.3578 13.3123 51.7379 13.0458 53.1602 12.2237Z" fill="currentColor"/>
<path d="M45.0372 7.78662C45.5279 8.0706 46.5891 7.14643 47.4111 5.72654C48.2307 4.30665 48.4997 2.92413 48.009 2.64015C47.5182 2.35617 46.457 3.28035 45.635 4.70023C44.8155 6.12261 44.5464 7.50265 45.0372 7.78662Z" fill="currentColor"/>
</svg>
