<svg width="30" height="30" viewBox="0 0 30 30" xmlns="http://www.w3.org/2000/svg">
<g clip-path="url(#clip0)">
<path d="M0.408916 15.8895C2.1836 17.4117 4.19501 19.1371 8.08569 19.1371C11.9765 19.137 13.988 17.4117 15.7628 15.8895C17.4411 14.45 18.8906 13.2067 21.9139 13.2067C24.9373 13.2067 26.3868 14.45 28.0651 15.8895C28.5564 16.3108 29.2962 16.2542 29.7176 15.763C30.1389 15.2717 30.0823 14.5319 29.591 14.1105C27.8163 12.5883 25.8047 10.8629 21.9139 10.8629C18.0231 10.8629 16.0116 12.5883 14.2369 14.1105C12.5585 15.5501 11.109 16.7934 8.08569 16.7934C5.06243 16.7934 3.61312 15.5501 1.93487 14.1105C1.44362 13.6892 0.703818 13.7457 0.282412 14.237C-0.138994 14.7283 -0.0823341 15.4681 0.408916 15.8895Z" />
<path d="M0.408916 9.47971C2.18354 11.002 4.19495 12.7273 8.08569 12.7273C11.9765 12.7273 13.988 11.002 15.7628 9.47971C17.4411 8.04018 18.8906 6.79688 21.9139 6.79688C24.9372 6.79688 26.3867 8.04012 28.0651 9.47971C28.5564 9.90117 29.2962 9.8444 29.7175 9.35309C30.1389 8.86184 30.0821 8.12191 29.5909 7.70062C27.8161 6.17836 25.8046 4.45312 21.9139 4.45312C18.0231 4.45312 16.0116 6.17848 14.2369 7.70074C12.5585 9.14027 11.109 10.3836 8.08569 10.3836C5.06249 10.3836 3.61312 9.14033 1.93487 7.70074C1.44362 7.27934 0.70376 7.33594 0.282412 7.82725C-0.138994 8.3185 -0.0823341 9.05836 0.408916 9.47971Z" />
<path d="M29.591 20.5203C27.8163 18.9981 25.8047 17.2727 21.9139 17.2727C18.0231 17.2727 16.0116 18.9981 14.2369 20.5203C12.5585 21.9599 11.109 23.2032 8.08571 23.2032C5.06262 23.2032 3.61319 21.9599 1.93494 20.5204L1.93483 20.5203C1.44358 20.0991 0.70383 20.1557 0.282424 20.6469C-0.138923 21.1381 -0.0822633 21.878 0.408987 22.2993C2.18367 23.8216 4.19514 25.5469 8.08571 25.5469C11.9765 25.5469 13.988 23.8216 15.7628 22.2993C17.4411 20.8598 18.8906 19.6165 21.9139 19.6165C24.9373 19.6165 26.3868 20.8598 28.0651 22.2993C28.5564 22.7206 29.2962 22.664 29.7176 22.1728C30.1389 21.6815 30.0823 20.9417 29.591 20.5203Z" />
</g>
<defs>
<clipPath id="clip0">
<rect width="30" height="30" />
</clipPath>
</defs>
</svg>
