<svg width="25" height="25" viewBox="0 0 25 25" xmlns="http://www.w3.org/2000/svg">
<path d="M21.4286 6.25C19.4589 6.25 17.8572 7.85218 17.8572 9.82143C17.8572 10.3145 18.2565 10.7143 18.75 10.7143C19.2436 10.7143 19.6429 10.3145 19.6429 9.82143C19.6429 8.83655 20.4442 8.03571 21.4286 8.03571C22.413 8.03571 23.2143 8.83655 23.2143 9.82143C23.2143 10.8063 22.413 11.6071 21.4286 11.6071H0.963536C0.470009 11.6071 0.0706787 12.0069 0.0706787 12.5C0.0706787 12.9931 0.470009 13.3929 0.963536 13.3929H21.4286C23.3983 13.3929 25 11.7907 25 9.82143C25 7.85218 23.3983 6.25 21.4286 6.25Z"/>
<path d="M21.4286 6.25C19.4589 6.25 17.8572 7.85218 17.8572 9.82143C17.8572 10.3145 18.2565 10.7143 18.75 10.7143C19.2436 10.7143 19.6429 10.3145 19.6429 9.82143C19.6429 8.83655 20.4442 8.03571 21.4286 8.03571C22.413 8.03571 23.2143 8.83655 23.2143 9.82143C23.2143 10.8063 22.413 11.6071 21.4286 11.6071H0.963536C0.470009 11.6071 0.0706787 12.0069 0.0706787 12.5C0.0706787 12.9931 0.470009 13.3929 0.963536 13.3929H21.4286C23.3983 13.3929 25 11.7907 25 9.82143C25 7.85218 23.3983 6.25 21.4286 6.25Z"/>
<path d="M21.4286 6.25C19.4589 6.25 17.8572 7.85218 17.8572 9.82143C17.8572 10.3145 18.2565 10.7143 18.75 10.7143C19.2436 10.7143 19.6429 10.3145 19.6429 9.82143C19.6429 8.83655 20.4442 8.03571 21.4286 8.03571C22.413 8.03571 23.2143 8.83655 23.2143 9.82143C23.2143 10.8063 22.413 11.6071 21.4286 11.6071H0.963536C0.470009 11.6071 0.0706787 12.0069 0.0706787 12.5C0.0706787 12.9931 0.470009 13.3929 0.963536 13.3929H21.4286C23.3983 13.3929 25 11.7907 25 9.82143C25 7.85218 23.3983 6.25 21.4286 6.25Z"/>
<path d="M12.5 2.67859C10.5303 2.67859 8.92857 4.28077 8.92857 6.25002C8.92857 6.7431 9.3279 7.14287 9.82143 7.14287C10.315 7.14287 10.7143 6.7431 10.7143 6.25002C10.7143 5.26514 11.5156 4.4643 12.5 4.4643C13.4844 4.4643 14.2857 5.26514 14.2857 6.25002C14.2857 7.23489 13.4844 8.03573 12.5 8.03573H0.892857C0.39933 8.03573 0 8.43551 0 8.92859C0 9.42167 0.39933 9.82145 0.892857 9.82145H12.5C14.4697 9.82145 16.0714 8.21927 16.0714 6.25002C16.0714 4.28077 14.4697 2.67859 12.5 2.67859Z"/>
<path d="M12.5 2.67859C10.5303 2.67859 8.92857 4.28077 8.92857 6.25002C8.92857 6.7431 9.3279 7.14287 9.82143 7.14287C10.315 7.14287 10.7143 6.7431 10.7143 6.25002C10.7143 5.26514 11.5156 4.4643 12.5 4.4643C13.4844 4.4643 14.2857 5.26514 14.2857 6.25002C14.2857 7.23489 13.4844 8.03573 12.5 8.03573H0.892857C0.39933 8.03573 0 8.43551 0 8.92859C0 9.42167 0.39933 9.82145 0.892857 9.82145H12.5C14.4697 9.82145 16.0714 8.21927 16.0714 6.25002C16.0714 4.28077 14.4697 2.67859 12.5 2.67859Z"/>
<path d="M12.5 2.67859C10.5303 2.67859 8.92857 4.28077 8.92857 6.25002C8.92857 6.7431 9.3279 7.14287 9.82143 7.14287C10.315 7.14287 10.7143 6.7431 10.7143 6.25002C10.7143 5.26514 11.5156 4.4643 12.5 4.4643C13.4844 4.4643 14.2857 5.26514 14.2857 6.25002C14.2857 7.23489 13.4844 8.03573 12.5 8.03573H0.892857C0.39933 8.03573 0 8.43551 0 8.92859C0 9.42167 0.39933 9.82145 0.892857 9.82145H12.5C14.4697 9.82145 16.0714 8.21927 16.0714 6.25002C16.0714 4.28077 14.4697 2.67859 12.5 2.67859Z"/>
<path d="M12.5 15.1786H0.892857C0.39933 15.1786 0 15.5784 0 16.0714C0 16.5645 0.39933 16.9643 0.892857 16.9643H12.5C13.4844 16.9643 14.2857 17.7651 14.2857 18.75C14.2857 19.7349 13.4844 20.5357 12.5 20.5357C11.5156 20.5357 10.7143 19.7349 10.7143 18.75C10.7143 18.2569 10.315 17.8572 9.82143 17.8572C9.3279 17.8572 8.92857 18.2569 8.92857 18.75C8.92857 20.7193 10.5303 22.3214 12.5 22.3214C14.4697 22.3214 16.0714 20.7193 16.0714 18.75C16.0714 16.7808 14.4697 15.1786 12.5 15.1786Z"/>
<path d="M12.5 15.1786H0.892857C0.39933 15.1786 0 15.5784 0 16.0714C0 16.5645 0.39933 16.9643 0.892857 16.9643H12.5C13.4844 16.9643 14.2857 17.7651 14.2857 18.75C14.2857 19.7349 13.4844 20.5357 12.5 20.5357C11.5156 20.5357 10.7143 19.7349 10.7143 18.75C10.7143 18.2569 10.315 17.8572 9.82143 17.8572C9.3279 17.8572 8.92857 18.2569 8.92857 18.75C8.92857 20.7193 10.5303 22.3214 12.5 22.3214C14.4697 22.3214 16.0714 20.7193 16.0714 18.75C16.0714 16.7808 14.4697 15.1786 12.5 15.1786Z"/>
<path d="M12.5 15.1786H0.892857C0.39933 15.1786 0 15.5784 0 16.0714C0 16.5645 0.39933 16.9643 0.892857 16.9643H12.5C13.4844 16.9643 14.2857 17.7651 14.2857 18.75C14.2857 19.7349 13.4844 20.5357 12.5 20.5357C11.5156 20.5357 10.7143 19.7349 10.7143 18.75C10.7143 18.2569 10.315 17.8572 9.82143 17.8572C9.3279 17.8572 8.92857 18.2569 8.92857 18.75C8.92857 20.7193 10.5303 22.3214 12.5 22.3214C14.4697 22.3214 16.0714 20.7193 16.0714 18.75C16.0714 16.7808 14.4697 15.1786 12.5 15.1786Z"/>
</svg>
